<?xml version="1.0" encoding="UTF-8"?>
<!-- Generator: Adobe Illustrator 27.9.0, SVG Export Plug-In . SVG Version: 6.00 Build 0)  -->
<svg xmlns="http://www.w3.org/2000/svg" xmlns:xlink="http://www.w3.org/1999/xlink" version="1.1" id="Layer_1" x="0px" y="0px" viewBox="0 0 1369.3 1072" style="enable-background:new 0 0 1369.3 1072;" xml:space="preserve">
<style type="text/css">
	.st0{fill:url(#SVGID_1_);}
	.st1{fill:url(#SVGID_00000088116395575263513480000010670484171781930678_);}
	.st2{fill:url(#SVGID_00000039114711947956655840000001570810001104984461_);}
	.st3{fill:url(#SVGID_00000061462646009330865750000007433230089836662174_);}
	.st4{fill:url(#SVGID_00000173120100129169583720000017022299855580087432_);}
	.st5{fill:url(#SVGID_00000039841923251868849880000007940859569708063895_);}
	.st6{fill:url(#SVGID_00000063595294672029698490000012744514967825787064_);}
	.st7{fill:url(#SVGID_00000139283784719151707260000004878944541939413395_);}
	.st8{fill:url(#SVGID_00000168118678249849740470000008146363447368184454_);}
	.st9{fill:#262626;}
</style>
<g>
	<g>
		<g>
			<g>
				
					<radialGradient id="SVGID_1_" cx="676.8505" cy="836.2891" r="227.0915" gradientTransform="matrix(0.9897 0 0 0.9897 7.0319 5.5051)" gradientUnits="userSpaceOnUse">
					<stop offset="0" style="stop-color:#EF4136"></stop>
					<stop offset="0" style="stop-color:#EF0F14"></stop>
					<stop offset="1" style="stop-color:#FFFFFF"></stop>
				</radialGradient>
				<path class="st0" d="M693.2,890.9c-36.6,0-66.3-29.8-66.3-66.3c0-36.6,29.8-66.3,66.3-66.3s66.3,29.8,66.3,66.3      C759.5,861.1,729.8,890.9,693.2,890.9z M693.2,778.4c-25.4,0-46.1,20.7-46.1,46.1c0,25.4,20.7,46.1,46.1,46.1      c25.4,0,46.1-20.7,46.1-46.1C739.4,799.1,718.7,778.4,693.2,778.4z"></path>
			</g>
			<g>
				
					<radialGradient id="SVGID_00000132798444593714757490000001955395674215026860_" cx="676.8504" cy="836.2894" r="227.0922" gradientTransform="matrix(0.9897 0 0 0.9897 7.0319 5.5051)" gradientUnits="userSpaceOnUse">
					<stop offset="0" style="stop-color:#EF4136"></stop>
					<stop offset="0" style="stop-color:#EF0F14"></stop>
					<stop offset="1" style="stop-color:#FFFFFF"></stop>
				</radialGradient>
				<path style="fill:url(#SVGID_00000132798444593714757490000001955395674215026860_);" d="M693.2,914.1      c-49.4,0-89.5-40.2-89.5-89.5s40.2-89.5,89.5-89.5s89.5,40.2,89.5,89.5S742.6,914.1,693.2,914.1z M693.2,753.4      c-39.2,0-71.1,31.9-71.1,71.1c0,39.2,31.9,71.1,71.1,71.1c39.2,0,71.1-31.9,71.1-71.1C764.3,785.3,732.4,753.4,693.2,753.4z"></path>
			</g>
			<g>
				
					<radialGradient id="SVGID_00000065059397792773014710000014637337774702315419_" cx="676.8506" cy="836.2897" r="227.0915" gradientTransform="matrix(0.9897 0 0 0.9897 7.0319 5.5051)" gradientUnits="userSpaceOnUse">
					<stop offset="0" style="stop-color:#EF4136"></stop>
					<stop offset="0" style="stop-color:#EF0F14"></stop>
					<stop offset="1" style="stop-color:#FFFFFF"></stop>
				</radialGradient>
				<path style="fill:url(#SVGID_00000065059397792773014710000014637337774702315419_);" d="M693.2,937.3      c-62.2,0-112.8-50.6-112.8-112.8c0-62.2,50.6-112.7,112.8-112.7c62.2,0,112.7,50.6,112.7,112.7      C806,886.7,755.4,937.3,693.2,937.3z M693.2,728.5c-52.9,0-96,43.1-96,96c0,52.9,43.1,96,96,96c52.9,0,96-43.1,96-96      C789.2,771.6,746.2,728.5,693.2,728.5z"></path>
			</g>
			<g>
				
					<radialGradient id="SVGID_00000052784154504499786600000006034266728986490254_" cx="676.8504" cy="836.2891" r="227.091" gradientTransform="matrix(0.9897 0 0 0.9897 7.0319 5.5051)" gradientUnits="userSpaceOnUse">
					<stop offset="0" style="stop-color:#EF4136"></stop>
					<stop offset="0" style="stop-color:#EF0F14"></stop>
					<stop offset="1" style="stop-color:#FFFFFF"></stop>
				</radialGradient>
				<path style="fill:url(#SVGID_00000052784154504499786600000006034266728986490254_);" d="M693.2,960.5c-75,0-136-61-136-136      c0-75,61-136,136-136c75,0,136,61,136,136C829.2,899.5,768.2,960.5,693.2,960.5z M693.2,703.6c-66.7,0-121,54.3-121,121      c0,66.7,54.3,121,121,121c66.7,0,121-54.3,121-121C814.2,757.8,759.9,703.6,693.2,703.6z"></path>
			</g>
			<g>
				
					<radialGradient id="SVGID_00000071538382860867674410000013087992013905568131_" cx="676.8505" cy="836.2898" r="227.091" gradientTransform="matrix(0.9897 0 0 0.9897 7.0319 5.5051)" gradientUnits="userSpaceOnUse">
					<stop offset="0" style="stop-color:#EF4136"></stop>
					<stop offset="0" style="stop-color:#EF0F14"></stop>
					<stop offset="1" style="stop-color:#FFFFFF"></stop>
				</radialGradient>
				<path style="fill:url(#SVGID_00000071538382860867674410000013087992013905568131_);" d="M693.2,983.7      c-87.8,0-159.2-71.4-159.2-159.2c0-87.8,71.4-159.2,159.2-159.2c87.8,0,159.2,71.4,159.2,159.2      C852.4,912.3,781,983.7,693.2,983.7z M693.2,678.6c-80.5,0-145.9,65.5-145.9,145.9s65.5,145.9,145.9,145.9      c80.4,0,145.9-65.5,145.9-145.9S773.7,678.6,693.2,678.6z"></path>
			</g>
			<g>
				
					<radialGradient id="SVGID_00000119091386849046520430000010148478259278146988_" cx="676.85" cy="836.2891" r="227.091" gradientTransform="matrix(0.9897 0 0 0.9897 7.0319 5.5051)" gradientUnits="userSpaceOnUse">
					<stop offset="0" style="stop-color:#EF4136"></stop>
					<stop offset="0" style="stop-color:#EF0F14"></stop>
					<stop offset="1" style="stop-color:#FFFFFF"></stop>
				</radialGradient>
				<path style="fill:url(#SVGID_00000119091386849046520430000010148478259278146988_);" d="M693.2,1006.9      c-100.6,0-182.4-81.8-182.4-182.4c0-100.6,81.8-182.4,182.4-182.4c100.6,0,182.4,81.8,182.4,182.4      C875.6,925.1,793.8,1006.9,693.2,1006.9z M693.2,653.7c-94.2,0-170.8,76.6-170.8,170.8c0,94.2,76.6,170.8,170.8,170.8      c94.2,0,170.8-76.6,170.8-170.8C864.1,730.3,787.4,653.7,693.2,653.7z"></path>
			</g>
			<g>
				
					<radialGradient id="SVGID_00000155867587456277277060000017004360421968468373_" cx="676.8499" cy="836.2885" r="227.0908" gradientTransform="matrix(0.9897 0 0 0.9897 7.0319 5.5051)" gradientUnits="userSpaceOnUse">
					<stop offset="0" style="stop-color:#EF4136"></stop>
					<stop offset="0" style="stop-color:#EF0F14"></stop>
					<stop offset="1" style="stop-color:#FFFFFF"></stop>
				</radialGradient>
				<path style="fill:url(#SVGID_00000155867587456277277060000017004360421968468373_);" d="M693.2,1030.1      c-113.4,0-205.6-92.2-205.6-205.6c0-113.4,92.2-205.6,205.6-205.6c113.4,0,205.6,92.2,205.6,205.6      C898.8,937.9,806.6,1030.1,693.2,1030.1z M693.2,628.7c-108,0-195.8,87.8-195.8,195.8c0,108,87.8,195.8,195.8,195.8      S889,932.5,889,824.5C889,716.6,801.2,628.7,693.2,628.7z"></path>
			</g>
			<g>
				
					<radialGradient id="SVGID_00000107576925406135596300000010917286780567228049_" cx="676.8507" cy="836.2891" r="227.0912" gradientTransform="matrix(0.9897 0 0 0.9897 7.0319 5.5051)" gradientUnits="userSpaceOnUse">
					<stop offset="0" style="stop-color:#EF4136"></stop>
					<stop offset="0" style="stop-color:#EF0F14"></stop>
					<stop offset="1" style="stop-color:#FFFFFF"></stop>
				</radialGradient>
				<path style="fill:url(#SVGID_00000107576925406135596300000010917286780567228049_);" d="M693.2,1053.3      c-126.2,0-228.8-102.6-228.8-228.8c0-126.2,102.6-228.8,228.8-228.8S922,698.4,922,824.5C922,950.7,819.4,1053.3,693.2,1053.3z       M693.2,603.8c-121.7,0-220.7,99-220.7,220.7c0,121.7,99,220.7,220.7,220.7c121.7,0,220.7-99,220.7-220.7      C913.9,702.8,814.9,603.8,693.2,603.8z"></path>
			</g>
		</g>
		<g>
			
				<radialGradient id="SVGID_00000080200484511832572910000013281093762528624811_" cx="676.8499" cy="836.2886" r="227.092" gradientTransform="matrix(0.9897 0 0 0.9897 7.0319 5.5051)" gradientUnits="userSpaceOnUse">
				<stop offset="0" style="stop-color:#EF4136"></stop>
				<stop offset="0" style="stop-color:#EF0F14"></stop>
				<stop offset="1" style="stop-color:#FFFFFF"></stop>
			</radialGradient>
			<circle style="fill:url(#SVGID_00000080200484511832572910000013281093762528624811_);" cx="693.2" cy="824.5" r="39.5"></circle>
		</g>
	</g>
	<g>
		<g>
			<path class="st9" d="M701.1,975.4c-0.1-0.1,0.9-1.2,3.3-2.4c2.4-1.2,6-2.5,10.8-3.9c9.6-2.7,23.8-5.6,41.3-8.3     c8.7-1.5,18.1-3.8,28.2-6.6c10-2.9,20.9-6,31.5-10.6c1.3-0.6,2.6-1.2,3.8-1.9c1.2-0.7,2.5-1.5,3.7-2.3c2.4-1.6,4.6-3.5,6.3-5.6     c1.7-2.1,2.9-4.4,2.7-6.5c-0.1-2.1-1.4-4.4-3.5-6.3c-1.9-1.9-4.1-3-6.8-3.3c-2.8-0.3-6,0-9.2,0.3c-6.5,0.8-13.3,2-20.3,2.9     c-13.9,1.9-28.2,3-42.8,3.4c-14.6,0.4-29.6,0-44.7-2.2c-7.5-1.1-15-2.6-22.5-4.9c-3.7-1.1-7.4-2.4-11-3.9     c-1.8-0.8-3.5-1.4-5.4-2.3c-1.8-0.9-3.5-1.8-5.2-2.7c-3.4-1.8-6.6-3.7-9.9-5.5l-5.2-2.9c-0.8-0.5-2.7-1.4-4.2-2.2     c-1.5-0.8-3.7-1.5-5.1-2.4l-1.8-1.3c-0.4-0.2-0.4-0.4-0.5-0.6l-0.4-0.6c-0.3-0.4-0.4-0.6-0.5-0.9c-0.1-0.3-0.2-0.5-0.3-0.8     c-0.1-0.3-0.1-0.6,0-1.3c0.1-0.6,0.3-1,0.4-1.3c0.4-0.7,0.9-1.4,1.7-2c1.5-1.3,4.7-2.2,8.1-2.8c1.7-0.3,3.6-0.6,5.1-0.8l3.3-0.4     c3.8-0.5,7.5-0.8,11.3-1.1c3.8-0.3,7.6-0.4,11.3-0.6c7.4-0.2,14.6-0.3,21.6-1c7-0.7,13.7-2,20.2-4c3-1,5.9-2.3,8.5-3.9     c2.6-1.7,4.8-3.6,6.6-5.9c1.8-2.2,3.1-4.8,3.7-7.3c0.6-2.5,0.5-5.1-0.3-7.1l-0.3-0.7c-0.1-0.2-0.2-0.3-0.3-0.5l-0.1-0.3l-0.2-0.2     c-0.1-0.1-0.2-0.3-0.4-0.4c-0.7-0.4-1.5-0.9-2.7-1.1c-2.3-0.6-5.5-0.6-8.6-0.5c-6.3,0.2-13.1,0.7-19.8,0     c-1.5-0.2-3.1-0.3-4.6-0.5c-1.5-0.1-2.9-0.2-4.4-0.3c-2.9-0.1-5.8-0.1-8.8-0.1c-11.7,0.4-24.6,1.3-37.9,1.7     c-3.3,0.1-6.7,0.2-10.1,0.3c-1.7,0-3.3,0.1-5,0.2c-1.6,0.1-3.3,0.1-5,0.3c-6.6,0.6-13.3,1.9-19.8,3.9c-6.6,2-13,4.7-19.3,8.1     c-6.3,3.4-12.5,7.3-18.7,11.5c-6.3,4.2-12.7,8.6-19.6,12.5c-6.9,4-14.1,7.5-21.8,10.3c-7.7,2.8-15.9,4.6-24.4,5.1     c-4.2,0.1-8.5,0-12.7-0.7c-2.1-0.2-4.2-0.8-6.3-1.2c-1-0.3-2-0.6-3.1-0.9c-1-0.3-2-0.5-3.1-1c-4.4-1.7-7.8-4.1-11.3-6.5     c-3.4-2.4-6.5-5.1-9.6-7.7c-6.1-5.3-11.9-11-17.4-16.8c-22.2-23.1-41.7-47.7-59.7-71.7c-17.9-24-33.9-47.4-47.9-69.1     c-13.8-21.5-28.7-39.1-43.6-51.1c-7.3-6.2-14.8-10.5-21.6-13.7c-1.7-0.7-3.4-1.4-5-2.1c-1.6-0.6-3.3-1-4.8-1.5     c-0.8-0.2-1.5-0.5-2.3-0.7c-0.8-0.1-1.5-0.3-2.2-0.4c-1.4-0.2-2.8-0.6-4.1-0.7c-5.3-0.6-9.4-0.3-12.2,0.1     c-2.8,0.4-4.2,0.9-4.3,0.7c-0.1-0.1,1.3-0.9,4.1-1.7c2.8-0.7,7.1-1.4,12.6-1.1c1.4,0,2.8,0.3,4.3,0.5c0.8,0.1,1.5,0.2,2.3,0.3     c0.8,0.2,1.6,0.4,2.4,0.6c1.6,0.4,3.4,0.7,5.1,1.3c1.7,0.6,3.5,1.3,5.3,1.9c7.2,3.1,15.1,7.3,22.8,13.4     c15.7,11.9,31.4,29.6,45.9,51.1c14.3,21.3,30.7,44.4,48.8,68c18.2,23.5,38,47.7,60,70.2c5.5,5.6,11.2,11,17.1,16.1     c3,2.5,6,5,9.1,7.1c3.1,2.2,6.3,4.2,9.4,5.4c0.7,0.3,1.7,0.6,2.5,0.8c0.9,0.2,1.8,0.5,2.7,0.7c1.8,0.3,3.6,0.8,5.4,1     c3.6,0.6,7.3,0.6,11,0.5c7.4-0.5,14.7-2.1,21.7-4.7c7-2.6,13.8-5.9,20.3-9.8c6.5-3.8,12.7-8,19-12.3c6.3-4.3,12.7-8.5,19.5-12.1     c6.7-3.6,13.8-6.7,21-8.9c7.2-2.2,14.5-3.7,21.7-4.4c1.8-0.3,3.6-0.3,5.4-0.4c1.8-0.1,3.6-0.2,5.3-0.3c3.4-0.1,6.7-0.2,10-0.3     c13.3-0.4,25.8-1.3,38-1.7c3.1-0.1,6.2-0.1,9.4,0.1c1.6,0.1,3.2,0.2,4.8,0.3c1.6,0.2,3.1,0.3,4.7,0.5c5.7,0.6,11.9,0.2,18.6,0     c3.4,0,6.9-0.2,11.1,0.8c2,0.4,4.3,1.4,6.4,2.9c0.5,0.4,1,0.9,1.4,1.3l0.7,0.7l0.6,0.8c0.4,0.5,0.7,1.1,1,1.6l0.7,1.6     c1.8,4.3,1.7,8.8,0.8,12.9c-1,4.1-3,7.9-5.5,11.1c-2.6,3.2-5.7,5.8-9,8c-3.4,2.1-7,3.6-10.8,4.9c-7.2,2.2-14.6,3.6-22.1,4.3     c-7.5,0.7-15,0.7-22.3,0.9c-3.7,0.1-7.3,0.2-10.8,0.5c-3.6,0.3-7.3,0.6-10.9,1l-2.6,0.3c-0.2,0-0.3,0-0.5,0.1     c-0.1,0-0.2,0-0.3,0.1c-0.1,0-0.2,0.1-0.1,0.2c0.1,0.1,0.3,0.1,0.4,0.2c5.1,2.9,10.2,5.8,15.3,8.7c12.6,7.1,26.7,11.1,41.1,13.3     c14.4,2.2,29,2.8,43.3,2.6c14.4-0.2,28.5-1.1,42.1-2.8c6.8-0.8,13.5-1.8,20.4-2.6c3.5-0.3,7-0.6,10.8-0.1     c1.9,0.3,3.9,0.8,5.7,1.7c1.8,0.9,3.4,2.2,4.7,3.5c1.3,1.3,2.5,2.8,3.4,4.6c0.4,0.9,0.9,1.8,1.1,2.8c0.1,0.5,0.3,1,0.4,1.5     l0.1,1.6c0.1,1-0.1,2.1-0.3,3.1c-0.3,1-0.5,2-1,2.8l-0.6,1.3l-0.8,1.2c-0.5,0.8-1.1,1.5-1.6,2.2c-2.3,2.7-5,4.7-7.6,6.5     c-1.3,0.9-2.7,1.7-4.1,2.5c-1.5,0.8-2.9,1.5-4.3,2c-11.3,4.6-22.2,7.5-32.5,10.1c-10.3,2.6-19.9,4.6-28.8,5.9     c-17.7,2.1-31.8,4.3-41.4,6.4c-4.8,1-8.5,2-10.9,2.9C702.4,974.8,701.3,975.6,701.1,975.4z"></path>
		</g>
		<g>
			<path class="st9" d="M707.9,1004c-0.2-0.1,0.4-1,1.8-1.7c1.4-0.7,3.5-1.5,6.1-2.2c5.3-1.4,12.6-2.8,20.8-4.2     c4.1-0.7,8.4-1.5,12.7-2.5c4.4-0.9,8.8-1.9,13.2-2.9c4.3-0.9,8.6-1.9,12.4-3c0.9-0.3,1.9-0.6,2.6-0.9c0.4-0.2,0.8-0.3,1.1-0.5     c0.4-0.2,0.9-0.4,1.3-0.7c1.8-0.9,3.5-1.7,5.2-2.5c6.5-3.1,14.7-6.7,23.3-10.6c4.3-2,8.6-3.9,13-5.9c4.2-1.9,8.2-4.1,11.5-6.7     c3.2-2.6,5.7-5.6,6.2-8.7c0.3-1.6,0.1-3-0.4-4.5c-0.5-1.5-1-2.8-1.8-3.8c-1.5-2-3.5-3-5-3.5c-1.5-0.5-2.4-0.5-2.4-0.8     c0-0.2,0.9-0.7,2.6-0.6c1.7,0,4.5,0.7,6.9,3c1.2,1.2,2.2,2.7,2.9,4.4c0.8,1.6,1.4,3.9,1.2,6.2c-0.1,2.3-1,4.7-2.2,6.7     c-1.2,2.1-2.9,3.9-4.6,5.5c-3.6,3.3-7.8,5.9-12.1,8.2c-4.2,2.3-8.6,4.5-12.8,6.6c-8.5,4.2-16.6,8.1-23.1,11.1     c-1.6,0.8-3.3,1.6-5.1,2.4c-0.4,0.2-0.9,0.4-1.3,0.6c-0.6,0.3-1.2,0.5-1.7,0.7c-1.1,0.4-2.2,0.7-3.2,1c-4.3,1.1-8.7,1.9-13.1,2.7     c-4.4,0.7-8.9,1.5-13.3,2.2c-4.5,0.8-8.9,1.2-13.1,1.6c-8.2,0.7-15.6,1.4-21,1.9c-2.6,0.3-4.7,0.6-6.2,0.8     C708.8,1003.9,708.1,1004.2,707.9,1004z"></path>
		</g>
		<g>
			<path class="st9" d="M672.1,1039.4c-0.1-0.2,0.6-0.8,2-1.5c1.4-0.7,3.6-1.5,6.3-2.4c5.4-1.7,13-3.5,21.6-5.3     c4.3-0.9,8.8-1.8,13.4-2.6c4.7-0.9,9.5-1.5,14.1-2c9.3-1.1,18.1-2.2,24.7-4.5c1.7-0.5,3.3-1.2,5-2.1c1.9-0.9,3.8-1.9,5.9-2.9     c4-2,8.3-4.1,12.7-6.3c8.8-4.4,17.9-9,25.7-13.8c3.9-2.4,7.6-4.8,10.3-7.4c2.7-2.6,4.6-5.5,5.4-8.1c0.8-2.6,0.7-5,0.5-6.6     c-0.3-1.6-0.6-2.5-0.4-2.6c0.2-0.1,1,0.5,1.8,2.2c0.8,1.6,1.5,4.3,0.9,7.7c-0.5,3.3-2.4,7-5.2,10.3c-2.9,3.3-6.5,6.1-10.4,8.9     c-7.8,5.5-16.8,10.8-25.5,15.5c-4.3,2.4-8.6,4.6-12.6,6.7c-2,1-3.9,2.1-5.8,3c-2.1,1-4.1,1.9-6,2.5c-7.7,2.6-17,3.5-26.3,4.3     c-4.7,0.4-9.3,0.8-13.9,1.3c-4.6,0.6-9.2,1.2-13.5,1.8c-8.6,1.1-16.3,2.2-21.8,3C675.5,1039,672.3,1039.8,672.1,1039.4z"></path>
		</g>
		<g>
			<path class="st9" d="M536.8,64.2c0.1,0.1-1.1,1.8-3.5,4.9c-2.3,3.2-6.3,7.5-11.8,12.7c-1.5,1.2-3,2.5-4.6,3.8     c-0.8,0.7-1.6,1.4-2.5,2.1c-0.9,0.6-1.8,1.3-2.8,1.9c-1.9,1.3-3.9,2.7-6,4.1c-2.2,1.2-4.4,2.5-6.8,3.9     c-9.5,5.1-20.9,9.9-33.9,13.9c-13,4-27.6,7.3-43.3,10.4c-15.7,2.9-32.5,6.1-50.2,9.4c-17.6,3.5-36.1,7.4-54.4,14     c-2.3,0.8-4.6,1.7-6.9,2.5c-2.3,0.9-4.5,1.9-6.8,2.9c-4.6,1.8-8.9,4.3-13.4,6.5c-2.2,1.2-4.3,2.6-6.5,3.8l-3.2,2     c-1.1,0.7-2.1,1.5-3.1,2.2c-2.1,1.5-4.1,3-6.2,4.4c-2,1.6-3.9,3.3-5.8,5l-2.9,2.5l-2.7,2.8c-1.8,1.8-3.6,3.7-5.4,5.5     c-1.7,2-3.3,4-5,6l-2.5,3c-0.8,1.1-1.5,2.2-2.3,3.2c-1.5,2.2-3,4.3-4.5,6.5c-1.5,2.2-2.7,4.6-4.1,6.8l-2,3.5     c-0.7,1.1-1.4,2.3-1.9,3.5c-1.2,2.4-2.4,4.8-3.6,7.3c-4.7,9.7-8.5,20-12,30.4c-1.8,5.2-3.1,10.6-4.7,15.9     c-1.3,5.4-2.7,10.8-3.8,16.2c-4.6,21.8-6.7,44.3-8.4,67c-0.9,11.3-1.7,22.8-3.4,34.3c-1.7,11.4-4.4,23.1-9.6,33.9     c-0.6,1.4-1.2,2.6-1.9,3.9l-1.9,3.8l-3.7,7.5c-2.4,5-4.8,10.1-7.1,15.1c-4.6,10.1-8.9,20.3-12.7,30.5     c-7.7,20.4-13.5,41-16.6,61.5c-1.6,10.4-3.3,20.9-5.3,31c-2,10.1-4.2,20-6.3,29.7c-4.2,19.3-7.7,37.9-9.9,55.7     c-2.2,17.7-2.8,36.8-1.8,56.7c0.3,5,0.6,10,1.1,15c0.2,2.5,0.5,5.1,0.9,7.6l0.1,0.9c0,0.1,0,0,0,0.1l0.7,1.6l1.5,3.5     c1,2.4,2,4.7,3,7.1c1.2,2.3,2.4,4.6,3.6,7c1.2,2.3,2.3,4.7,3.7,7c1.4,2.3,2.7,4.6,4.1,6.9l2,3.5c0.7,1.1,1.5,2.2,2.2,3.4     c1.5,2.2,3,4.5,4.5,6.8c3,4.5,6.5,8.8,9.7,13.3c3.5,4.3,6.9,8.7,10.6,13c3.7,4.2,7.3,8.6,11.3,12.7     c15.5,16.7,32.5,32.6,50.9,47.4c9.2,7.4,18.6,14.6,28.4,21.3c9.8,6.7,20,12.9,30.3,19c20.7,12.1,42,23.7,62.8,35.8     c10.4,6.1,20.8,12.2,30.9,18.7c5.1,3.2,10.1,6.7,14.9,10c4.8,3.3,9.8,6.4,14.7,9.4c20,12,41,21.5,62.1,29     c10.6,3.8,21.2,7,31.7,9.9c10.7,3,21.1,6.4,31.2,9.8c20.2,6.8,39.5,13.8,58,19.3c4.7,1.4,9.2,2.6,13.6,3.2     c4.5,0.6,9.1,0.7,13.7,0.6c9.1-0.1,18-0.9,26.6-1.8c8.6-0.9,16.9-1.9,24.8-2.9c8-1,15.6-1.9,22.9-2.9c14.5-2.1,27.6-4.5,38.8-7.2     c5.6-1.4,10.7-2.9,15.2-5c4.5-2.1,8.4-4.3,11.9-6.4c3.5-2.1,6.5-4.1,9-5.9c2.2-1.8,2.8-4.6,3-6.6c0.4-4.2-0.1-6.5,0.1-6.5     c0.1,0,0.3,0.5,0.5,1.6c0.2,1.1,0.5,2.8,0.4,5c-0.1,1.1-0.2,2.4-0.6,3.7c-0.4,1.3-1.1,2.8-2.5,4c-2.5,2-5.5,4.1-8.9,6.4     c-3.4,2.3-7.4,4.7-11.9,7c-4.5,2.3-9.8,4.1-15.5,5.6c-11.3,3.1-24.4,5.8-39,8.2c-7.3,1.2-14.9,2.3-22.9,3.4     c-8,1.1-16.2,2.3-24.9,3.3c-8.6,1-17.6,2-27,2.2c-4.7,0.1-9.5,0.1-14.4-0.5c-5-0.6-9.8-1.8-14.5-3.2     c-18.9-5.4-38.3-12.2-58.5-18.7c-10.1-3.3-20.4-6.6-30.9-9.3c-10.7-2.8-21.5-6-32.3-9.7c-21.6-7.5-43.1-17-63.7-29     c-5.1-3-10.2-6.2-15.2-9.6c-5-3.3-9.8-6.6-14.8-9.7c-10-6.3-20.3-12.4-30.7-18.3c-20.8-11.9-42.1-23.3-63.1-35.4     c-10.5-6.1-20.9-12.3-31-19.1c-10.1-6.8-19.7-14.1-29.1-21.6c-18.7-15-36.2-31.1-52.1-48.1c-15.9-17-30.1-35-41.6-54     c-1.4-2.4-2.8-4.8-4.2-7.1c-1.5-2.3-2.6-4.9-3.9-7.3c-1.3-2.4-2.5-4.9-3.7-7.3c-1.1-2.5-2.2-5-3.2-7.5l-1.6-3.7l-0.9-2     c-0.3-0.5-0.4-1.2-0.4-1.8l-0.1-1c-0.4-2.7-0.7-5.3-0.9-7.9c-0.5-5.2-0.9-10.4-1.2-15.5c-1.1-20.4-0.5-40.1,1.8-58.4     c2.3-18.2,5.8-37.2,10.1-56.6c2.1-9.7,4.3-19.5,6.3-29.5c2-10,3.7-20.1,5.3-30.6c3.3-21.3,9.4-42.5,17.4-63.4     c4-10.4,8.4-20.7,13.1-31c2.4-5.1,4.8-10.2,7.3-15.3l3.8-7.6l1.9-3.8c0.6-1.3,1.3-2.5,1.8-3.7c4.7-9.6,7.3-20.3,9-31.3     c1.7-11,2.6-22.3,3.5-33.6c1.8-22.7,4.1-45.6,9-68c1.2-5.6,2.7-11.1,4.1-16.6c1.7-5.4,3.1-10.9,5-16.3     c3.7-10.7,7.7-21.2,12.6-31.2c1.3-2.5,2.5-5,3.8-7.5c0.6-1.3,1.3-2.5,2-3.7l2.1-3.6c1.5-2.4,2.8-4.8,4.3-7.1     c1.6-2.3,3.2-4.5,4.8-6.8c0.8-1.1,1.6-2.3,2.4-3.4l2.7-3.2c1.8-2.1,3.5-4.2,5.3-6.3c1.9-1.9,3.9-3.9,5.8-5.8l2.9-2.9l3.1-2.6     c2.1-1.7,4.1-3.5,6.2-5.1c2.2-1.5,4.4-3.1,6.5-4.6c1.1-0.7,2.1-1.6,3.3-2.2l3.4-2c2.3-1.3,4.5-2.7,6.8-3.9     c4.7-2.3,9.2-4.8,14-6.6c2.4-1,4.7-2,7.1-2.9c2.4-0.8,4.8-1.7,7.1-2.5c18.9-6.5,37.7-10.2,55.5-13.5c17.8-3.2,34.7-5.8,50.3-8.6     c15.7-2.8,30.1-5.8,43-9.4c12.9-3.7,24.2-8.1,33.6-12.8c2.3-1.2,4.6-2.4,6.8-3.6c2.1-1.3,4.1-2.6,6-3.8c1-0.6,1.9-1.2,2.8-1.8     c0.9-0.7,1.7-1.3,2.5-1.9c1.6-1.3,3.2-2.4,4.7-3.6c5.6-4.8,9.8-8.8,12.3-11.8C535.2,65.6,536.7,64.1,536.8,64.2z"></path>
		</g>
		<g>
			<path class="st9" d="M535.4,98.1c-0.5-0.1-0.7-2-0.7-4.9c0-3,0.1-7,0.1-11.6c0.2-9.1,0.3-20.3,0.6-28.2c0.3-7.9,1-19.7,1.7-29.6     c0.8-9.9,1.6-17.8,2.6-17.8c1,0,2,7.9,2.5,17.8c0.6,9.9,0.7,21.9,0.4,29.8c-0.3,8-1.2,19.2-2.7,28.4c-0.7,4.6-1.6,8.7-2.4,11.6     C536.7,96.5,535.9,98.2,535.4,98.1z"></path>
		</g>
		<g>
			<path class="st9" d="M342.2,382.8c0.2-0.3,1.3,0.1,3,1.3c1.6,1.3,3.8,3.4,5.8,6.4c4.3,5.9,8.9,14.8,13.1,25.1     c1,2.6,2.1,5.2,3.1,8c0.9,2.7,1.9,5.5,2.8,8.3c1.9,5.5,4,11,6.3,16.2c1.2,2.6,2.4,5.1,3.7,7.4c1.4,2.6,2.8,5.1,4.1,7.6     c2.6,4.9,5,9.4,7.2,13.5c4.5,8.1,10.6,17.9,18.4,27.1c7.7,9.2,17.2,17.5,27,23.4c9.7,6.2,19.7,9.4,26.8,12     c7.3,1.9,11.9,3.3,11.8,4c-0.1,0.7-4.8,0.5-12.6-0.3c-7.6-1.5-18.5-3.8-29.3-9.7c-10.9-5.6-21.7-14-30.4-23.5     c-8.7-9.5-15.4-19.8-20.1-28.2c-2.4-4.2-4.8-8.9-7.2-13.9c-1.2-2.4-2.5-4.9-3.7-7.5c-1.4-2.7-2.7-5.6-3.8-8.4     c-2.2-5.7-4.1-11.5-5.7-17.3c-0.8-2.8-1.6-5.8-2.3-8.4c-0.8-2.7-1.6-5.4-2.4-8c-3.3-10.3-6.8-19.4-9.9-25.5c-1.5-3.1-3-5.4-4-7     C342.7,384,342,383.1,342.2,382.8z"></path>
		</g>
		<g>
			<path class="st9" d="M283.5,668.1c-0.3,0-0.7-1.2-0.7-3.6c0.1-2.3,0.6-5.8,2-9.7c2.6-8,8-18.1,14-29.2     c6.1-11.1,12.8-23.3,19.4-35.2c6.4-11.9,12.5-23.5,17.5-33.1c4.8-9.6,10.4-21.7,15-35c4.6-13.3,8.4-27.6,10.9-40.7     c2.6-13.2,3.9-25.3,4.7-34c0.8-8.7,1-14.2,1.7-14.2c0.7-0.1,1.7,5.4,2.1,14.3c0.4,8.9,0.1,21.3-1.6,35     c-1.7,13.7-4.8,28.6-9.2,42.5c-4.3,13.9-9.9,26.7-14.9,36.6c-5.1,9.7-11.4,21.3-18.3,33.1c-6.9,11.8-14.4,23.6-21.2,34.3     c-6.8,10.6-12.9,20-16.5,27.1c-1.9,3.5-2.9,6.5-3.6,8.6C284.1,666.8,283.8,668.1,283.5,668.1z"></path>
		</g>
		<g>
			<path class="st9" d="M396.8,813.1c-0.6,0-1.6-6.4-1.6-17.1c0-10.6,0.8-25.3,1.9-41.6c1-16.4,2.3-34.5,2.8-51.9     c0.6-17.5,0.5-34.4-0.5-48.2c-1-13.9-2.8-31.1-9.3-47.9c-6.5-17.6-12-36.4-16.2-53.6c-8.5-34.5-11.7-62.7-10.4-62.9     c1.3-0.2,7,27.4,17,61.1c5,16.8,11.2,35.1,17.9,52.2c0.8,2.1,1.7,4.4,2.5,6.6c0.8,2.2,1.4,4.5,2.1,6.7c0.6,2.2,1.1,4.5,1.7,6.7     c0.5,2.2,0.9,4.4,1.4,6.5c1.6,8.6,2.4,16.7,2.9,23.9c1,14.4,0.8,31.6-0.3,49.3c-1.1,17.7-3,35.8-5,52.1     c-1.9,16.3-3.8,30.8-4.9,41.2C397.8,806.7,397.5,813.1,396.8,813.1z"></path>
		</g>
		<g>
			<path class="st9" d="M765.4,91.7c-2,0.3-6.8-25.2-8.6-39.3c-1.8-14.1-3.7-42.4-1.7-42.6c2-0.3,7.1,27.6,8.9,41.7     C765.9,65.6,767.5,91.4,765.4,91.7z"></path>
		</g>
		<g>
			<path class="st9" d="M571.5,759c0,0.2-2.1,0-5.8,0.7c-1.9,0.4-4.2,1-6.6,2.3c-1.2,0.7-2.4,1.5-3.4,2.7c-1,1.2-1.7,2.6-1.9,4.3     c-0.6,3.4,1.2,7.1,4.3,10.1c3,3.1,7.2,5.5,12.1,7.3c9.7,3.8,21.4,6.8,34.4,9.8c6.5,1.5,13.4,2.9,20.5,4.3c1.8,0.3,3.6,0.7,5.4,1     l1.4,0.2c0.6,0.1,0.6,0.1,1.2,0.1c0.9,0.1,1.9,0.1,2.8,0.2c3.8,0.2,7.7,0.4,11.6,0.6c7.9,0.6,16,0.5,24.4,0.7     c4.2,0.2,8.5,0,12.8,0c4.3-0.1,8.7,0,13.2-0.2c17.8-0.6,36.4-2.1,55.7-4.7c19.3-2.6,39.1-6.4,59.3-11.2c10.1-2.4,20.3-5,30.7-7.6     c10.4-2.5,21-5.2,32.1-6.5c22-2.5,44.2-2.9,66.6-3.3c44.8-0.8,90.3-0.6,134.7-3.6c22.2-1.6,44.2-3.9,65.5-7.6     c21.3-3.7,42-8.8,60.3-17.5c9.1-4.3,17.5-9.7,24.5-16.2c3.5-3.3,6.7-6.8,9.5-10.6c1.5-1.8,2.6-3.9,3.9-5.8c0.6-1,1.3-2,1.8-3     l1.5-3c3.6-8.2,5.3-17.4,6.1-26.4c0.7-9.1,0.6-18.1,0-26.9c-1.2-17.6-4.3-36.3-8.5-55.7c-2.1-9.7-4.5-19.6-7.2-29.6     c-2.7-10-5.4-20.3-8.8-30.3c-3.4-10.1-7.4-20.2-11.9-30.3c-4.5-10.1-9.2-20.2-14.4-30.3c-10.4-20.1-21.9-40.3-35.3-59.2     c-1.7-2.4-3.4-4.7-5.2-7l-5.4-7.1c-3.7-4.8-7.1-9.8-10.3-15c-6.4-10.4-11.9-21.4-15.9-33.1c-1-2.9-1.9-5.9-2.6-9     c-0.4-1.5-0.7-3.1-1-4.8l-0.6-4.4c-0.8-5.9-1.6-11.8-2.7-17.6l-1.5-8.8l-1.8-8.7c-0.6-2.9-1.1-5.8-1.8-8.7l-2.1-8.6     c-5.5-23-13.3-45.2-23.4-65.9c-1.2-2.6-2.6-5.1-3.9-7.7c-1.4-2.5-2.6-5.1-4.1-7.5c-3-4.9-5.8-9.8-9-14.4     c-6.2-9.5-13.2-18.2-20.6-26.4c-1.9-2-3.8-4-5.6-6c-1.9-2-3.9-3.8-5.9-5.8c-3.9-3.8-7.8-7.4-12.1-10.5c-4.2-3.1-8.7-6-13.3-8.4     c-4.6-2.5-9.4-4.5-14.2-6.2c-19.4-6.9-39.8-8.1-58.9-8.5c-19.2-0.4-37.7,0.1-55-1.1c-17.3-1.1-33.3-4.6-47.1-9.7     C826,98,814.1,92,804,86.1c-10-5.9-18.2-11.6-24.7-16.6c-6.5-4.9-11.3-9.1-14.4-12c-3.1-2.9-4.7-4.6-4.5-4.7     c0.1-0.1,1.9,1.3,5.2,3.9c3.4,2.6,8.3,6.5,15,11.1c6.6,4.7,14.9,10.1,25,15.6c10.1,5.5,21.9,11.2,35.6,15.8     c13.7,4.6,29.2,7.8,46.2,8.6c17,1,35.3,0.2,54.7,0.3c9.7,0,19.7,0.4,30,1.5c10.2,1.2,20.7,3.1,30.9,6.6     c5.1,1.7,10.2,3.8,15.1,6.4c4.9,2.5,9.7,5.5,14.2,8.8c4.6,3.3,8.8,7.1,12.9,10.9c2,2,4.2,3.8,6.1,5.9c2,2,3.9,4.1,5.9,6.2     c7.6,8.4,15,17.3,21.5,27c3.4,4.7,6.3,9.8,9.4,14.8c1.5,2.5,2.8,5.1,4.3,7.7c1.4,2.6,2.9,5.2,4.1,7.8     c10.5,21.2,18.6,43.9,24.5,67.3l2.2,8.8c0.7,2.9,1.3,5.9,1.9,8.8l1.8,8.9l1.6,8.9c1.1,5.9,1.9,11.9,2.8,17.8l0.7,4.5     c0.2,1.2,0.5,2.6,0.8,4c0.7,2.7,1.5,5.5,2.5,8.2c3.8,10.9,9.1,21.4,15.2,31.2c3.1,4.9,6.4,9.7,10,14.3l5.4,7     c1.9,2.4,3.7,4.8,5.4,7.2c14,19.4,25.7,39.8,36.3,60.2c5.3,10.2,10.2,20.5,14.8,30.7c4.6,10.3,8.7,20.6,12.3,31l1.3,3.9l1.2,3.9     c0.8,2.6,1.6,5.2,2.3,7.8c1.4,5.1,2.8,10.3,4.2,15.3c2.7,10.1,5.2,20.2,7.3,30c4.3,19.7,7.5,38.8,8.8,57.1     c0.6,9.1,0.8,18.6,0,28.4c-0.8,9.7-2.6,19.8-6.9,29.6l-1.8,3.6c-0.6,1.2-1.4,2.2-2,3.4c-1.4,2.2-2.7,4.5-4.4,6.6     c-3.1,4.3-6.8,8.2-10.7,11.9c-7.9,7.3-17.2,13.1-27,17.7c-19.6,9.3-41.1,14.3-62.8,18c-21.8,3.7-44,5.9-66.5,7.4     c-44.9,2.8-90.5,2.3-135.2,2.7c-22.3,0.2-44.5,0.5-65.8,2.7c-10.5,1.1-21,3.7-31.4,6.1c-10.4,2.4-20.7,5-30.9,7.3     c-20.4,4.6-40.5,8.3-60.1,10.6c-19.5,2.4-38.4,3.6-56.3,4c-4.5,0.1-8.9,0-13.3,0c-4.4,0-8.7,0.1-12.9-0.2     c-8.5-0.4-16.7-0.5-24.6-1.2c-4-0.3-7.8-0.6-11.7-0.8c-1-0.1-1.9-0.1-2.8-0.2l-0.8-0.1l-0.8-0.2l-1.4-0.3     c-1.8-0.4-3.7-0.8-5.5-1.1c-7.2-1.5-14.1-3.1-20.6-4.7c-13-3.3-24.7-6.6-34.7-10.8c-1.2-0.6-2.4-1.1-3.6-1.7     c-1.1-0.7-2.3-1.3-3.4-1.9c-2.2-1.4-4.1-3-5.7-4.7c-1.6-1.7-3-3.7-3.8-5.8c-0.8-2.1-1.1-4.3-0.7-6.3c0.4-2,1.4-3.8,2.6-5.1     c1.2-1.3,2.6-2.2,4-2.9c2.7-1.3,5.2-1.7,7.1-2C569.5,758.3,571.6,758.8,571.5,759z"></path>
		</g>
		<g>
			<path class="st9" d="M607.9,726.7c-0.1,0.5-5.8,0.2-15.2-0.9c-9.4-1.1-22.4-2.8-36.9-5.5c-3.6-0.7-7.4-1.4-11.2-2.4     c-3.8-1.1-7.4-2.1-11.1-2.9c-3.7-0.8-7.5-1.4-11.1-1.4c-3.6,0-7.2,0.5-9.3,2.2c-2.2,1.6-3.2,4.3-3.3,7.7c-0.2,3.2,0.7,6,2.4,8.3     c1.8,2.3,4.4,4.1,7.1,5.7c2.8,1.5,5.7,2.7,8.6,3.8c5.7,2.2,12.5,4.2,19.8,6.5c7.2,2.3,15,4.7,22.9,7.2c7.9,2.4,16,4.7,24.1,6.5     c8.1,1.9,16.2,3.3,23.9,4.4c15.7,2.1,29.7,4.6,39.8,6.6c10.1,2,16.2,3.6,16.1,4.1c-0.1,0.5-6.4-0.1-16.6-1.3     c-10.2-1.2-24.3-2.9-40-4.3c-7.9-0.8-16.2-1.9-24.6-3.6c-8.3-1.6-16.7-3.7-24.7-6c-8-2.3-15.8-4.6-23.1-6.8     c-7.3-2.2-14.2-4.1-20.3-6.5c-3.1-1.1-6.3-2.5-9.6-4.3c-3.2-1.9-6.7-4.2-9.4-7.8c-0.7-0.9-1.3-1.8-1.8-2.9l-0.7-1.6     c-0.2-0.5-0.3-1.1-0.5-1.7l-0.4-1.7c-0.1-0.6-0.1-1.1-0.2-1.7c-0.1-1.1-0.2-2.3,0-3.4c0.1-2.2,0.5-4.5,1.5-6.8     c0.6-1.1,1.1-2.3,2-3.3c0.4-0.5,0.8-1,1.3-1.5l1.5-1.2c0.5-0.4,1.1-0.7,1.6-1l1.7-0.8c1.1-0.3,2.3-0.8,3.4-1     c2.3-0.4,4.5-0.5,6.7-0.4c4.3,0.2,8.4,1,12.4,2c3.9,1,7.8,2.3,11.3,3.4c3.5,1.1,7.2,2,10.7,2.8c14.2,3.3,27.1,5.8,36.3,7.7     C602.4,724.9,608,726.2,607.9,726.7z"></path>
		</g>
		<g>
			<path class="st9" d="M637.1,689.3c-0.1,0.1-0.5,0.1-1.3,0c-0.8-0.1-2-0.2-3.5-0.4c-3.1-0.3-7.4-0.8-12.8-1.4     c-10.9-1.2-26-2.7-43-5.1c-17.1-2.4-35.6-7.1-53.3-11.6c-4.4-1.1-8.7-2.1-12.9-2.6c-4.2-0.6-8.4-0.8-11.8,0     c-1.7,0.3-3.2,1-4.1,1.9c-1,0.9-1.4,1.7-2.1,3.6c-0.6,1.7-0.9,3.3-1,4.8c-0.1,1.5,0.1,3,0.5,4.3c0.8,2.6,2.7,5.2,5.6,7.4     c2.8,2.2,6.4,4.1,10.3,5.7c8.3,3.4,16.8,7.6,25.5,11.2c4.4,1.8,8.8,3.3,13.4,4.4c2.3,0.6,4.6,1.1,7,1.5c2.4,0.4,4.8,0.8,7.2,1.2     c9.7,1.8,19.1,3.9,28.1,5.9c17.9,4.1,34,8,45.5,11.1c11.5,3,18.6,5.1,18.5,5.6c-0.1,0.5-7.4-0.7-19.1-2.9     c-11.8-2.2-28-5.3-45.9-8.8c-9-1.7-18.5-3.5-28-5c-2.4-0.3-4.8-0.7-7.3-1c-2.5-0.4-5-0.8-7.5-1.4c-4.9-1.1-9.8-2.7-14.4-4.4     c-9.2-3.6-17.7-7.6-25.8-10.8c-4.3-1.8-8.4-3.8-12-6.6c-1.8-1.4-3.5-3-4.9-4.9c-1.4-1.9-2.5-4-3.2-6.2c-0.6-2.2-0.9-4.6-0.7-6.9     c0.2-2.3,0.7-4.6,1.4-6.7c0.6-1.8,2-4.9,4.2-6.7c2.2-1.9,4.8-2.9,7.3-3.4c2.5-0.5,4.9-0.7,7.3-0.6c2.4,0.1,4.7,0.3,7,0.7     c4.6,0.7,9.2,1.8,13.6,3c17.7,4.8,35.8,10,52.4,13c16.7,2.9,31.8,5.2,42.6,7.3c5.4,1,9.7,2,12.7,2.8c1.5,0.4,2.6,0.8,3.4,1.1     C636.8,688.9,637.2,689.2,637.1,689.3z"></path>
		</g>
		<g>
			<path class="st9" d="M731.2,616.8c0.2,0.4-6.6,4.6-17.4,12c-1.4,0.9-2.7,1.9-4.3,2.9c-0.8,0.5-1.7,1-2.5,1.5     c-0.9,0.5-1.8,0.8-2.7,1.2c-3.7,1.6-7.8,2.8-12.1,3.8c-8.7,1.9-18.4,3.1-28.7,3.7c-5.1,0.3-10.4,0.5-15.8,0.5     c-5.4,0-10.9-0.1-16.6-0.7c-5.6-0.7-11.1-1.8-16.5-2.9c-5.4-1.1-10.9-2.3-16.2-3.5c-10.7-2.5-21.2-4.9-31.2-7.2     c-5-1.1-9.8-2.2-14.5-3.3c-2.3-0.5-4.6-1-6.9-1.5c-2.2-0.4-4.4-0.9-6.5-1.2c-8.4-1.4-18.2-2.4-27.8-0.5c-2.3,0.5-4.7,1.2-6.7,2.3     c-1,0.5-2,1.1-2.6,1.8c-0.8,0.7-0.9,0.9-1.3,2c-0.6,1.8-0.6,4.1,0,6.2c0.3,1,0.8,2,1.4,2.9c0.3,0.4,0.7,0.9,1,1.2     c0.3,0.1,0.4,0.3,1.1,0.6c1.1,0.6,2.3,1.2,3.6,1.7c1.2,0.6,2.6,1.1,3.9,1.6c2.7,1.1,5.4,2.1,8.1,3.1c5.5,2,11,3.9,16.5,5.9     c11,3.7,21.9,7.5,32.3,11c20.8,7,39.6,13.3,52.7,19.1c6.6,2.8,11.8,5.5,15.2,7.5c3.5,2,5.1,3.6,5,3.8c-0.1,0.2-2-0.9-5.6-2.5     c-3.6-1.6-8.9-3.8-15.6-6.2c-13.3-4.9-32.3-10.4-53.3-16.8c-10.5-3.2-21.5-6.6-32.7-10.2c-5.6-1.8-11.2-3.6-16.7-5.6     c-2.8-1-5.6-2-8.3-3c-1.4-0.6-2.8-1-4.2-1.7c-1.4-0.6-2.8-1.2-4.2-2c-0.6-0.3-1.7-1-2.5-1.7c-0.8-0.7-1.3-1.3-1.8-2.1     c-1-1.5-1.8-3.1-2.4-4.7c-1.1-3.4-1.2-7-0.1-10.5c0.3-0.9,0.6-1.7,1.2-2.7c0.3-0.5,0.6-0.9,0.9-1.2c0.3-0.4,0.6-0.7,1-1     c1.3-1.3,2.7-2.1,4.1-2.9c2.8-1.5,5.7-2.3,8.5-3c11.3-2.3,21.6-1.1,30.5,0.3c2.2,0.4,4.5,0.9,6.8,1.3c2.3,0.5,4.6,1,6.9,1.5     c4.7,1.1,9.6,2.2,14.6,3.4c10,2.4,20.4,5,31.1,7.6c5.3,1.3,10.7,2.6,16,3.8c5.3,1.2,10.7,2.4,15.9,3.2c5.2,0.7,10.6,1,15.8,1.1     c5.3,0.1,10.5,0.1,15.5,0c10.1-0.3,19.7-1.1,28.1-2.6c4.2-0.8,8.2-1.7,11.7-3c0.9-0.3,1.8-0.6,2.5-1c0.8-0.4,1.5-0.8,2.3-1.2     c1.5-0.8,3-1.8,4.4-2.6C723.6,619.7,730.9,616.3,731.2,616.8z"></path>
		</g>
		<g>
			<path class="st9" d="M1154.2,570.3c0.1,0.3-3.2,1.7-9.1,3.9c-3,1.1-6.7,2.3-10.9,4c-4.2,1.7-9.1,3.4-14.3,5.7     c-10.5,4.4-22.9,10.2-35.3,18.7c-6.3,4.2-12.5,9.1-19.3,14.2c-6.8,5-14.4,9.8-22.6,13.9c-16.5,8-34.7,13.9-53.6,18.2     c-19,4.2-38.6,6.7-58,7.7c-19.4,0.9-38.5,0.4-56.7-1.5c-4.6-0.5-9-1.1-13.6-2c-5.3-1.2-9.2-3.3-13.2-5.4     c-7.7-4.3-14.4-9.1-20.7-13.7c-6.7-4.9-13.6-10.4-20.8-16.1c-3.6-2.8-7.3-5.8-11-8.7c-1.9-1.5-3.8-2.9-5.7-4.4     c-1-0.8-1.9-1.4-2.8-2c-1-0.6-1.8-1.3-2.8-1.9c-8-4.7-17.4-8.4-27.1-11.6c-9.8-3.2-20-5.9-30.5-8.4c-5.2-1.2-10.5-2.4-15.8-3.7     c-5.3-1.2-10.8-2.6-15.8-3.6c-10.3-2-21.2-2.6-31.9-3.3c-10.8-0.6-21.5-0.9-32.1-2.1c-1.3-0.1-2.7-0.4-4-0.5     c-1.3-0.2-2.3-0.2-3.5-0.4c-2.2,0-4.4,0.1-5.9,0.8c-1.6,0.7-2.6,1.9-3.2,3.6c-0.3,0.8-0.5,1.8-0.6,2.8c-0.1,1,0,2.1,0.1,2.9     l0,0.2c0.9,7.7,6,14,12.6,17.8c6.6,4,14,6.3,21,8c14.3,3.3,27.6,4.4,38.6,6c11.1,1.5,20.1,4.3,25.3,8.2c2.6,1.9,4.1,4.1,4.7,5.7     c0.6,1.6,0.4,2.6,0.2,2.6c-0.2,0-0.3-0.8-1.1-2.1c-0.8-1.3-2.4-3-4.9-4.5c-5.1-3.1-13.7-5.3-24.7-6.2c-11-1.1-24.4-1.6-39.3-4.5     c-7.4-1.5-15.3-3.6-22.9-7.9c-3.8-2.2-7.5-5-10.4-8.8c-2.9-3.7-5-8.4-5.7-13.2l0,0.2c-0.3-1.7-0.4-3-0.4-4.6     c0.1-1.5,0.3-3.1,0.8-4.6c0.5-1.6,1.3-3.1,2.4-4.5c0.6-0.6,1.2-1.2,1.9-1.8c0.7-0.5,1.5-0.9,2.2-1.4c3.1-1.5,6.2-1.7,9.2-1.7     c1.4,0.1,3,0.2,4.2,0.4c1.3,0.1,2.5,0.3,3.8,0.4c10.2,0.9,20.9,1.1,31.7,1.5c10.8,0.5,21.9,0.9,33,2.8c5.7,1,10.8,2.3,16.2,3.4     c5.3,1.2,10.7,2.3,15.9,3.5c10.6,2.4,21.1,5,31.3,8.2c10.2,3.2,20.1,6.9,29.2,12.3c1.2,0.6,2.2,1.5,3.4,2.2     c1.1,0.7,2.2,1.5,3.2,2.2c2,1.5,3.9,3,5.8,4.5c3.8,3,7.5,5.9,11.1,8.7c7.2,5.7,14,11,20.6,15.8c6.1,4.5,12.7,9.1,19.6,13.1     c3.4,1.9,7.2,3.8,10.5,4.5c3.9,0.8,8.3,1.4,12.7,1.9c17.5,2,36.3,2.7,55.2,2.1c18.9-0.7,38.2-2.8,56.7-6.6     c18.5-3.9,36.5-9.3,52.3-16.5c7.9-3.7,15.2-8,22-12.8c6.8-4.7,13.3-9.6,20-13.7c13.2-8.4,26-13.8,36.9-17.7     c5.4-2.1,10.4-3.5,14.7-4.9c4.3-1.4,8.1-2.4,11.2-3.2C1150.6,570.7,1154.1,570,1154.2,570.3z"></path>
		</g>
		<g>
			<path class="st9" d="M960.8,407.2c1.5-0.4,6.2,17.4,15.3,38.5c1.2,2.6,2.3,5.3,3.5,8.1c1.3,2.7,2.7,5.4,4.1,8.2     c2.6,5.6,5.9,10.9,8.9,16.2c6.4,10.5,13.2,20.2,19.4,27.9c3,3.9,6.7,8.1,10.5,12.6c2,2.2,4.1,4.5,6.2,6.8     c2.1,2.3,4.4,4.6,6.7,6.9c4.6,4.6,9.4,9.4,14.1,14.1c1.2,1.2,2.4,2.4,3.5,3.6c1.2,1.3,2.3,2.5,3.4,3.7c1.2,1.2,2.2,2.6,3.3,3.9     c1.1,1.3,2,2.7,2.9,4c7.3,10.8,11.1,22.1,12.6,30.3c1.5,8.2,0.9,13.5,0.2,13.4c-0.7,0-1.3-4.9-3.9-12.5     c-2.5-7.6-7.1-17.7-14.5-27.2c-0.9-1.2-1.8-2.4-2.9-3.5c-1-1.1-2-2.3-3.2-3.3c-1.1-1.1-2.3-2.2-3.4-3.3c-1.2-1.1-2.4-2.2-3.6-3.3     c-4.9-4.4-10-9-14.8-13.5c-2.4-2.3-4.8-4.6-7.1-6.9c-2.2-2.3-4.4-4.6-6.6-6.8c-4.1-4.6-7.9-8.9-11-13     c-6.5-7.9-13.3-18.3-19.6-29.4c-3-5.7-6.1-11.3-8.5-17.2c-1.3-2.9-2.6-5.8-3.7-8.7c-1-2.9-2.1-5.8-3.1-8.6     C962,425.8,959.8,407.4,960.8,407.2z"></path>
		</g>
		<g>
			<path class="st9" d="M890.3,541.8c-0.7-1.4,13.2-7.8,26.4-21c6.7-6.5,12.9-14.7,17.8-23.3c5-8.6,8.6-17.6,11.2-25.2     c2.6-7.6,5.2-17.3,6.9-27.8c0.9-5.2,1.6-10.6,2.1-16c0.3-2.7,0.5-5.3,0.7-8.1c0.2-2.9,0.7-5.7,1.3-8.3     c2.4-10.6,6.7-19.2,10.2-25.1c3.5-5.9,6.2-9.1,6.8-8.8c0.6,0.3-1,4.2-3.4,10.4c-2.3,6.2-5.5,14.9-6.8,24.7     c-0.3,2.4-0.5,4.9-0.5,7.4c0,2.6,0,5.5-0.1,8.3c-0.2,5.6-0.6,11.3-1.3,16.8c-1.3,11.1-3.9,21.5-6.6,29.6     c-2.7,8.1-6.9,17.7-12.7,26.7c-5.8,9-13.2,17.5-20.9,23.8c-7.7,6.4-15.5,10.7-21.2,13.2c-2.9,1.3-5.3,2.1-7,2.5     C891.4,542,890.5,542.1,890.3,541.8z"></path>
		</g>
		<g>
			<path class="st9" d="M933.5,892.2c-2.7,0-4.8-36.8-4.8-57c0-20.2,2.3-60.6,5-60.5c2.7,0,4.8,40.3,4.8,60.6     C938.4,855.4,936.2,892.2,933.5,892.2z"></path>
		</g>
		<g>
			<path class="st9" d="M936.7,651.3c-1.3-0.1-1.8-16.5-1-37.5c0.8-21,3.3-46.5,8.2-64.5c0.6-2.2,1.3-4.6,2.1-7.1     c0.8-2.4,1.6-4.8,2.5-7.4c1.7-5.1,3.4-10.5,5.1-16.1c3.4-11.2,6.7-23,9.6-33.9c5.8-21.6,9.9-39.1,11.2-38.9     c1.3,0.2-0.4,18.2-4.5,40.4c-2,11.1-4.7,23.3-7.7,34.8c-1.5,5.8-3.1,11.4-4.7,16.6c-0.8,2.6-1.6,5.1-2.4,7.5     c-0.7,2.3-1.4,4.5-1.9,6.6c-4.6,16.8-8.2,41.9-10.7,62.5C940,635.1,938.1,651.4,936.7,651.3z"></path>
		</g>
		<g>
			<path class="st9" d="M616.6,582.9c-0.6,0.1-1.7-2.3-2.4-6.2c-0.3-2-0.5-4.4-0.1-7.1c0.2-1.4,0.5-2.8,1.2-4.2     c0.4-1.2,2.1-3.7,4.1-4.7l1.9,0.1l1.5,0.1c0.7,0.1,1.5,0.1,2.2,0.2c1.5,0.2,2.9,0.4,4.3,0.7c2.8,0.6,5.6,1.4,7.9,2.5     c1.7,0.8,3.6,1.9,5.5,4.1c0.9,1.1,1.7,2.5,2,4.2c0.3,1.7,0.2,3.3-0.3,4.9c-0.5,1.6-1.6,3-2.7,4c-1.2,1-2.4,1.7-3.6,2.2     c-2.4,1-4.7,1.3-6.9,1.5c-4.3,0.3-8-0.1-10.7-0.6C618.1,584.1,616.6,583.4,616.6,582.9c0.1-0.5,1.7-0.8,4.3-1.2     c2.6-0.4,6.1-0.8,9.8-1.7c1.8-0.5,3.6-1.1,5.1-1.9c1.5-0.9,2.3-1.9,2.5-2.7c0.1-1-0.1-1.6-0.8-2.4c-0.8-0.8-2-1.6-3.2-2.1     c-1.7-0.8-3.9-1.6-6.4-2.3c-1.2-0.3-2.5-0.6-3.8-0.9l-2-0.4l-0.5-0.1c-0.1,0-0.1,0-0.1,0l-0.2-0.1c-0.2,0.1-0.3-0.2-1,0.9     c-0.5,0.8-0.9,1.8-1.3,2.8c-0.7,2-1,4.1-1.3,5.9C617.4,580.3,617.3,582.8,616.6,582.9z"></path>
		</g>
		<g>
			<path class="st9" d="M502.9,622.3c0.2-0.9,3.6-1.1,7.5,0.7c1.9,0.9,4,2.2,5.7,4c1.7,1.8,3,4.4,3.2,6.8c0.1,0.6,0.1,1.2,0,1.9     c0,0.7-0.2,1.4-0.4,2c-0.4,1.4-1.3,3.1-2.7,4.2c-1.4,1.1-3,1.7-4.4,1.9c-1.4,0.2-2.7,0.1-3.9-0.1c-4.6-0.8-7.5-2.9-7.2-3.8     c0.3-1,3.7-0.8,7.2-1.4c0.9-0.1,1.7-0.4,2.4-0.7c0.7-0.3,1.1-0.7,1.3-1c0.2-0.4,0.2-0.5,0.3-1.1c0.1-0.3,0.1-0.5,0.1-0.8     c0-0.2,0-0.5,0-0.7c-0.1-0.8-0.4-2-1.2-3.3c-0.8-1.3-2-2.7-3.3-3.9C505.2,624.9,502.6,623.3,502.9,622.3z"></path>
		</g>
		<g>
			<path class="st9" d="M493.6,668.1c0.4-0.9,4-0.4,8.2,1.9c2.1,1.1,4.4,2.8,6.1,5.1c0.9,1.2,1.6,2.6,2.1,4c0.4,1.5,0.6,3,0.5,4.3     c-0.1,1.3-0.5,2.7-1.1,4.1c-0.5,0.8-0.8,1.6-1.5,2.3c-0.6,0.7-1.4,1.4-2.2,1.9c-0.8,0.6-1.7,0.8-2.6,1c-0.9,0.1-1.7,0.3-2.5,0.2     c-1.6,0-3-0.4-4.3-0.8c-5-1.7-7.9-4.5-7.4-5.4c0.4-0.9,4.2,0.1,8.4,0.3c2,0.1,4.2-0.3,4.9-1.1c0.4-0.3,0.5-0.8,0.8-1.3     c0.1-0.3,0.2-0.7,0.3-1c0.1-0.3,0.1-0.6,0.1-0.9c0.1-1.1,0-2.4-0.9-4c-0.8-1.6-2.2-3.2-3.6-4.7     C495.9,671.3,493.1,669,493.6,668.1z"></path>
		</g>
		<g>
			<path class="st9" d="M511.4,712.7c0.3-0.9,4.2-0.7,9,1.2c2.4,1,5,2.5,7.1,4.9c1.1,1.1,1.9,2.5,2.6,3.9c0.6,1.4,1,2.8,1.1,4.1     c0.2,1.3,0.2,2.7,0,4.2c0,0.3-0.1,0.7-0.2,1.3c-0.1,0.5-0.3,1-0.5,1.6c-0.5,1-1.2,2.1-2.1,2.8c-1.8,1.5-3.8,1.9-5.5,2     c-1.7,0.1-3.2-0.1-4.6-0.3c-5.5-1.1-9.1-3.4-8.8-4.3c0.3-1,4.4-0.5,9.1-0.8c1.1-0.1,2.3-0.2,3.3-0.5c1-0.3,1.7-0.7,1.9-1     c0.2-0.4,0.1-0.3,0.2-1.2c0.1-1,0-1.9-0.1-2.6c-0.2-1.5-0.6-3.1-1.7-4.7c-1-1.6-2.7-3.2-4.4-4.6     C514.3,715.6,511,713.7,511.4,712.7z"></path>
		</g>
		<g>
			<path class="st9" d="M555.3,763.9c0.1-1,3.7-1.5,8.2-0.5c2.2,0.5,4.7,1.4,7,2.8c2.2,1.4,4.4,3.4,5.5,5.8c0.6,1.2,0.9,2.8,0.9,4.4     c-0.1,0.9-0.2,1.6-0.5,2.6c-0.2,0.5-0.4,1-0.6,1.4c-0.2,0.5-0.6,0.9-1,1.3c-1.5,1.7-3.7,2.3-5.2,2.4c-1.6,0.1-3-0.1-4.3-0.4     c-4.9-1.3-7.9-3.7-7.6-4.6c0.3-1,4.1-0.4,8.1-0.6c1,0,2-0.2,2.7-0.5c0.8-0.2,1.1-0.6,1.1-0.8c0-0.1,0,0,0-0.1c0-0.1,0-0.1,0-0.2     c0-0.1,0-0.5,0-0.7c-0.1-0.5-0.1-0.9-0.4-1.4c-0.4-0.9-1.3-2.2-2.7-3.4c-1.4-1.2-3.2-2.4-4.9-3.4     C558.3,766.2,555.2,764.9,555.3,763.9z"></path>
		</g>
		<g>
			<path class="st9" d="M730.4,844.2c0.2-0.2,0.6-0.1,1.3,0.1c0.7,0.3,1.7,0.8,2.8,1.7c2.2,1.7,4.8,5,5.8,9.5     c0.5,2.2,0.6,4.7,0.3,7.1c-0.1,0.6-0.2,1.2-0.3,1.8l-0.2,0.9c-0.1,0.3-0.3,0.9-0.4,1.3c-0.3,1-0.7,1.9-1.1,2.8     c-0.1,0.2-0.2,0.5-0.3,0.7l-0.7,0.1l-1.5,0.2l-1.5,0.2l-0.7,0.1l-0.5,0c-0.6,0-1.1,0-1.7,0.1c-1.1,0-2.2,0-3.3,0     c-2.2-0.1-4.2-0.4-6.1-0.8c-1.9-0.5-4-1.2-6.2-2.5c-2.2-1.3-4.4-3.4-5.7-6c-0.3-0.7-0.6-1.3-0.8-2l-0.5-2.1l-0.2-2.1     c0-0.8,0.1-1.6,0.2-2.4c0.1-0.8,0.5-1.6,0.8-2.4c0.4-0.7,0.9-1.4,1.3-2c0.5-0.6,1.1-1,1.6-1.5c0.6-0.4,1.1-0.7,1.7-1.1     c4.5-2.3,8.6-2.4,11.5-2.5C728.7,843.2,730.4,843.7,730.4,844.2c0,0.5-1.7,1-4.3,1.8c-2.5,0.8-6.3,1.9-9.1,4     c-1.4,1.1-2.1,2.3-2.1,3.5c0.1,0.3,0,0.6,0.1,1l0.3,1.3c0.2,0.4,0.3,0.8,0.4,1.2l0.6,1c1.6,2.6,4.9,3.9,7.7,4.6     c1.4,0.3,3.1,0.6,4.9,0.8c0.9,0.1,1.9,0.2,2.8,0.2c0.5,0,1,0,1.5,0.1l0.3,0l0,0l0.1,0c0.1,0.1,0.2,0,0.3-0.1c0,0,0,0,0.1-0.2     l0.2-0.7c0.1-0.4,0.3-0.9,0.4-1.3c0.4-1.8,0.7-3.6,0.6-5.3c-0.1-3.4-1.5-6.3-2.8-8.3c-0.6-1.1-1.2-1.8-1.6-2.5     C730.4,844.9,730.3,844.4,730.4,844.2z"></path>
		</g>
		<g>
			<path class="st9" d="M822.7,942.3c-0.8,0.4-2.8-1-3.8-4c-1-3-0.3-7,0.8-9.3c1.1-2.4,3.7-5.1,6.2-6.7c2.5-1.6,4.9-2.2,5.5-1.4     c0.6,0.8-0.5,2.8-1.8,5c-1.3,2.2-2.6,4.7-3.3,6.3c-0.8,1.6-1.8,3.6-2.2,5.6C823.7,939.7,823.7,941.8,822.7,942.3z"></path>
		</g>
		<g>
			<path class="st9" d="M827.6,963.8c-0.8,0.5-2.7-0.8-3.4-3.7c-0.7-2.9,0.4-6.3,1.6-8.1c1.2-1.9,3.6-4,5.9-5.1     c2.3-1.2,4.4-1.5,5-0.6c0.6,0.8-0.4,2.6-1.5,4.5c-1.3,2.1-2.5,4-3.2,5.2c-0.8,1.3-1.9,2.7-2.6,4.2     C828.7,961.5,828.5,963.3,827.6,963.8z"></path>
		</g>
		<g>
			<path class="st9" d="M311.8,356.2c0,0.7-0.9,1.4-2.2,2.1c-0.6,0.3-1.4,0.8-2.2,1.3c-0.4,0.2-0.8,0.5-1.2,0.7     c-0.4,0.3-0.9,0.6-1.3,0.9c-3.6,2.3-7.5,5.6-10.4,8c-2.9,2.3-7.4,5.8-11.4,9c-3.9,3-7.2,5.5-8.3,4.7c-1.1-0.8,0.4-4.8,3.2-9.3     c2.8-4.5,7-9.3,10.4-12c3.3-2.7,8.8-5.8,14.1-6.9c0.6-0.1,1.3-0.3,1.9-0.3c0.6,0,1.2-0.1,1.8-0.1c1.1,0,2.1,0,3,0.3     C310.9,355,311.8,355.6,311.8,356.2z"></path>
		</g>
		<g>
			<path class="st9" d="M628.9,197.6c-0.2,0.2-1-0.3-2.2-1.1c-0.7-0.3-1.5-0.7-2.5-1.2c-1-0.4-2.2-0.9-3.4-1.5     c-5.2-2-12.6-4.3-21.1-6.5c-17-4.4-37.9-8.8-52.8-12c-14.8-3.2-37-7.9-55.7-11.9c-18.5-4-33.4-7.3-33.2-8.3     c0.2-1,15.3,0.5,34.1,3.2c18.8,2.7,41.3,6.7,56.3,9.9c14.9,3.2,35.9,8.4,52.7,14.2c8.4,2.9,15.8,5.9,20.9,8.9     c1.2,0.8,2.4,1.5,3.3,2.2c0.9,0.7,1.7,1.4,2.3,1.9C628.7,196.7,629.1,197.5,628.9,197.6z"></path>
		</g>
		<g>
			<path class="st9" d="M819.8,140.6c0.8,1.9-18.9,11.5-30,16c-11.1,4.5-33.9,11.8-34.6,10c-0.8-1.9,20.8-12.3,31.9-16.7     C798.2,145.3,819.1,138.7,819.8,140.6z"></path>
		</g>
		<g>
			<path class="st9" d="M704.3,193.3c0.5,0.9-1.1,2.7-3,4.8c-2,2.1-4.4,4.4-6.2,5.9c-1.8,1.5-4.7,3.7-7.2,5.4     c-2.5,1.7-4.7,3.1-5.5,2.5c-0.8-0.6,0-3.2,1.7-6c1.7-2.8,4.3-5.8,6.3-7.5c2-1.7,5.2-3.6,8.1-4.7     C701.3,192.7,703.8,192.4,704.3,193.3z"></path>
		</g>
	</g>
</g>
</svg>
