<?xml version="1.0" encoding="UTF-8"?>
<!-- Generator: Adobe Illustrator 27.9.0, SVG Export Plug-In . SVG Version: 6.00 Build 0)  -->
<svg xmlns="http://www.w3.org/2000/svg" xmlns:xlink="http://www.w3.org/1999/xlink" version="1.1" id="Layer_1" x="0px" y="0px" viewBox="0 0 1369.3 1072" style="enable-background:new 0 0 1369.3 1072;" xml:space="preserve">
<style type="text/css">
	.st0{fill:url(#SVGID_1_);}
	.st1{fill:url(#SVGID_00000121243333345964673650000018173544292589966764_);}
	.st2{fill:url(#SVGID_00000035524786511923556830000011300291614152234632_);}
	.st3{fill:url(#SVGID_00000101063053138200749490000011084643281365661349_);}
	.st4{fill:url(#SVGID_00000115488811959311895320000011113998226233235391_);}
	.st5{fill:url(#SVGID_00000097492351248141106000000013271989949302884277_);}
	.st6{fill:url(#SVGID_00000005233694628573191540000013810138819244609169_);}
	.st7{fill:url(#SVGID_00000167389548663540933020000001474671914165152647_);}
	.st8{fill:url(#SVGID_00000000909310214161103050000016713020830913319822_);}
	.st9{fill:#262626;}
</style>
<g>
	<g>
		<g>
			<g>
				<radialGradient id="SVGID_1_" cx="671.9766" cy="860.4084" r="216.0591" gradientUnits="userSpaceOnUse">
					<stop offset="0" style="stop-color:#EF4136"></stop>
					<stop offset="0" style="stop-color:#EF0F14"></stop>
					<stop offset="1" style="stop-color:#FFFFFF"></stop>
				</radialGradient>
				<path class="st0" d="M687.6,915.8c-35.2,0-63.8-28.6-63.8-63.8c0-35.2,28.6-63.8,63.8-63.8c35.2,0,63.8,28.6,63.8,63.8      C751.4,887.2,722.8,915.8,687.6,915.8z M687.6,807.7c-24.5,0-44.4,19.9-44.4,44.4c0,24.5,19.9,44.4,44.4,44.4      c24.5,0,44.4-19.9,44.4-44.4C732,827.6,712.1,807.7,687.6,807.7z"></path>
			</g>
			<g>
				
					<radialGradient id="SVGID_00000087371736288483422210000018094372973664487297_" cx="671.9766" cy="860.4077" r="216.0597" gradientUnits="userSpaceOnUse">
					<stop offset="0" style="stop-color:#EF4136"></stop>
					<stop offset="0" style="stop-color:#EF0F14"></stop>
					<stop offset="1" style="stop-color:#FFFFFF"></stop>
				</radialGradient>
				<path style="fill:url(#SVGID_00000087371736288483422210000018094372973664487297_);" d="M687.6,938.1      c-47.5,0-86.1-38.6-86.1-86.1c0-47.5,38.6-86.1,86.1-86.1c47.5,0,86.1,38.6,86.1,86.1C773.7,899.5,735.1,938.1,687.6,938.1z       M687.6,783.7c-37.7,0-68.3,30.7-68.3,68.3c0,37.7,30.7,68.3,68.3,68.3c37.7,0,68.3-30.7,68.3-68.3      C756,814.4,725.3,783.7,687.6,783.7z"></path>
			</g>
			<g>
				
					<radialGradient id="SVGID_00000117650820342928849420000001612882112984438668_" cx="671.9767" cy="860.408" r="216.059" gradientUnits="userSpaceOnUse">
					<stop offset="0" style="stop-color:#EF4136"></stop>
					<stop offset="0" style="stop-color:#EF0F14"></stop>
					<stop offset="1" style="stop-color:#FFFFFF"></stop>
				</radialGradient>
				<path style="fill:url(#SVGID_00000117650820342928849420000001612882112984438668_);" d="M687.6,960.4      c-59.8,0-108.4-48.6-108.4-108.4c0-59.8,48.6-108.4,108.4-108.4c59.8,0,108.4,48.6,108.4,108.4      C796,911.8,747.4,960.4,687.6,960.4z M687.6,759.8c-50.9,0-92.3,41.4-92.3,92.3c0,50.9,41.4,92.3,92.3,92.3      c50.9,0,92.3-41.4,92.3-92.3C779.9,801.2,738.5,759.8,687.6,759.8z"></path>
			</g>
			<g>
				
					<radialGradient id="SVGID_00000152237720189779533900000017223105243218088362_" cx="671.9766" cy="860.4079" r="216.0589" gradientUnits="userSpaceOnUse">
					<stop offset="0" style="stop-color:#EF4136"></stop>
					<stop offset="0" style="stop-color:#EF0F14"></stop>
					<stop offset="1" style="stop-color:#FFFFFF"></stop>
				</radialGradient>
				<path style="fill:url(#SVGID_00000152237720189779533900000017223105243218088362_);" d="M687.6,982.8      c-72.1,0-130.7-58.6-130.7-130.7c0-72.1,58.6-130.7,130.7-130.7c72.1,0,130.7,58.6,130.7,130.7      C818.3,924.1,759.7,982.8,687.6,982.8z M687.6,735.8c-64.1,0-116.3,52.2-116.3,116.3c0,64.1,52.2,116.3,116.3,116.3      c64.1,0,116.3-52.2,116.3-116.3C803.9,787.9,751.7,735.8,687.6,735.8z"></path>
			</g>
			<g>
				
					<radialGradient id="SVGID_00000074431732311519229010000016695973078227017378_" cx="671.9766" cy="860.408" r="216.0586" gradientUnits="userSpaceOnUse">
					<stop offset="0" style="stop-color:#EF4136"></stop>
					<stop offset="0" style="stop-color:#EF0F14"></stop>
					<stop offset="1" style="stop-color:#FFFFFF"></stop>
				</radialGradient>
				<path style="fill:url(#SVGID_00000074431732311519229010000016695973078227017378_);" d="M687.6,1005.1      c-84.4,0-153-68.6-153-153c0-84.4,68.6-153,153-153c84.4,0,153,68.6,153,153C840.6,936.4,772,1005.1,687.6,1005.1z M687.6,711.8      c-77.3,0-140.3,62.9-140.3,140.3c0,77.3,62.9,140.3,140.3,140.3c77.3,0,140.3-62.9,140.3-140.3      C827.9,774.7,765,711.8,687.6,711.8z"></path>
			</g>
			<g>
				
					<radialGradient id="SVGID_00000178911814638957507040000004025334375002364351_" cx="671.9762" cy="860.4079" r="216.0583" gradientUnits="userSpaceOnUse">
					<stop offset="0" style="stop-color:#EF4136"></stop>
					<stop offset="0" style="stop-color:#EF0F14"></stop>
					<stop offset="1" style="stop-color:#FFFFFF"></stop>
				</radialGradient>
				<path style="fill:url(#SVGID_00000178911814638957507040000004025334375002364351_);" d="M687.6,1027.4      c-96.7,0-175.3-78.6-175.3-175.3c0-96.7,78.7-175.3,175.3-175.3c96.7,0,175.3,78.6,175.3,175.3      C862.9,948.7,784.3,1027.4,687.6,1027.4z M687.6,687.8c-90.6,0-164.2,73.7-164.2,164.2c0,90.6,73.7,164.2,164.2,164.2      c90.6,0,164.2-73.7,164.2-164.2C851.9,761.5,778.2,687.8,687.6,687.8z"></path>
			</g>
			<g>
				
					<radialGradient id="SVGID_00000165224011937190912350000010254964156299769008_" cx="671.9761" cy="860.4073" r="216.0586" gradientUnits="userSpaceOnUse">
					<stop offset="0" style="stop-color:#EF4136"></stop>
					<stop offset="0" style="stop-color:#EF0F14"></stop>
					<stop offset="1" style="stop-color:#FFFFFF"></stop>
				</radialGradient>
				<path style="fill:url(#SVGID_00000165224011937190912350000010254964156299769008_);" d="M687.6,1049.7      c-109,0-197.6-88.7-197.6-197.6c0-109,88.7-197.6,197.6-197.6c109,0,197.6,88.7,197.6,197.6      C885.3,961,796.6,1049.7,687.6,1049.7z M687.6,663.9c-103.8,0-188.2,84.4-188.2,188.2c0,103.8,84.4,188.2,188.2,188.2      c103.8,0,188.2-84.4,188.2-188.2C875.8,748.3,791.4,663.9,687.6,663.9z"></path>
			</g>
			<g>
				
					<radialGradient id="SVGID_00000056393806007746713780000004124042106989348243_" cx="671.9769" cy="860.4074" r="216.0587" gradientUnits="userSpaceOnUse">
					<stop offset="0" style="stop-color:#EF4136"></stop>
					<stop offset="0" style="stop-color:#EF0F14"></stop>
					<stop offset="1" style="stop-color:#FFFFFF"></stop>
				</radialGradient>
				<path style="fill:url(#SVGID_00000056393806007746713780000004124042106989348243_);" d="M687.6,1072      c-121.3,0-219.9-98.7-219.9-219.9c0-121.3,98.7-219.9,219.9-219.9s219.9,98.7,219.9,219.9C907.6,973.3,808.9,1072,687.6,1072z       M687.6,639.9c-117,0-212.2,95.2-212.2,212.2c0,117,95.2,212.2,212.2,212.2c117,0,212.2-95.2,212.2-212.2      C899.8,735.1,804.6,639.9,687.6,639.9z"></path>
			</g>
		</g>
		<g>
			
				<radialGradient id="SVGID_00000043433190366954889500000016512296000878525605_" cx="671.9768" cy="860.4073" r="216.0567" gradientUnits="userSpaceOnUse">
				<stop offset="0" style="stop-color:#EF4136"></stop>
				<stop offset="0" style="stop-color:#EF0F14"></stop>
				<stop offset="1" style="stop-color:#FFFFFF"></stop>
			</radialGradient>
			<path style="fill:url(#SVGID_00000043433190366954889500000016512296000878525605_);" d="M725.6,852.1c0,21-17,38-38,38     c-21,0-38-17-38-38c0-21,17-38,38-38C708.6,814.1,725.6,831.1,725.6,852.1z"></path>
		</g>
	</g>
	<g>
		<g>
			<g>
				<g>
					<g>
						<path class="st9" d="M1028.7,249.4c0.7,0.2-1.5,7.8-4.2,20.5c-1.4,6.3-2.9,13.9-4.3,22.3c-1.4,8.4-2.9,17.9-3.1,27.6        c0,1.3,0,2.5,0,3.8c0,1.3,0,2.6-0.1,4c-0.1,2.7-0.2,5.3-0.5,8c-0.5,5.4-1.2,10.8-2.2,16.3l-0.4,2.1l-0.5,2.1l-0.9,4        c-0.6,2.7-1.3,5.3-1.9,8c-1.3,5.3-2.7,10.7-4.2,16c-0.8,2.6-1.6,5.3-2.5,7.9c-0.9,2.7-2,5.3-3,7.7c-2.1,5-4.1,9.7-6.2,14.4        c-4.1,9.3-8,18-11.6,26c-7.1,15.9-16.1,35.6-24.9,56.6c-4.4,10.5-8.7,21.2-12.4,32c-1.9,5.4-3.5,10.8-4.7,16        c-1.2,5.5-2.3,11-3.5,16.3c-4.7,21.2-9,40.2-11.9,54c-2.9,13.8-4.6,22.3-5.3,22.2c-0.6-0.1-0.3-8.8,1.5-22.8        c1.7-14,5.1-33.4,8.9-54.7c0.9-5.3,1.9-10.8,2.9-16.4c1.1-5.8,2.6-11.5,4.4-17.1c3.5-11.2,7.6-22.2,11.8-32.9        c8.4-21.3,17.2-41.3,24.3-57.2c3.6-7.9,7.6-16.7,11.8-25.9c2.1-4.6,4.2-9.3,6.3-14.1c1.1-2.4,2.1-4.7,2.9-7.1        c0.9-2.4,1.7-4.9,2.5-7.5c1.6-5.1,3.1-10.3,4.5-15.5c0.7-2.6,1.4-5.3,2.1-7.9l1-3.9l0.5-1.9l0.4-1.9c1.1-5.2,2-10.4,2.6-15.5        c0.3-2.6,0.6-5.1,0.8-7.6c0.1-1.3,0.2-2.5,0.2-3.7c0.1-1.3,0.1-2.6,0.2-3.8c0.7-10.5,2.7-19.9,4.6-28.4c2-8.5,4-16,6-22.2        C1024.7,256.4,1028.1,249.1,1028.7,249.4z"></path>
					</g>
				</g>
				<g>
					<g>
						<path class="st9" d="M363.9,311.2c1.3-0.1,5.7,26,12.2,59.2c0.2,1,0.4,2,0.6,3.1c0.3,0.9,0.6,1.9,0.9,2.8c0.6,2,1.3,4.1,2,6.2        c1.4,4.2,2.8,8.2,4.7,12.2c3.7,8.2,7.6,16.6,11.4,24.8c7.7,16.5,15,32.5,20.9,46c5.8,13.5,12.9,30.3,19.3,48.6        c3.2,9.1,6.3,18.5,8.2,28.5c1.7,9.7,3.1,19,4.5,28.1c2.8,18.1,4.8,34.4,5.8,46.2c1,11.8,1,19.2,0.4,19.2        c-0.7,0.1-2-7.1-4.1-18.7c-2.1-11.6-5.2-27.7-8.8-45.5c-1.8-8.9-3.7-18.4-5.6-27.7c-2.1-9-5.4-18.2-8.7-27        c-6.8-17.7-14.1-34.4-19.8-47.8c-5.8-13.4-12.9-29.5-20.1-46.2c-3.6-8.4-7.3-16.8-10.7-25.4c-1.8-4.3-3.2-8.8-4.4-13.1        c-0.6-2.2-1.2-4.3-1.7-6.4l-0.4-1.6l-0.2-0.8l-0.1-0.4c0-0.2-0.1-0.4-0.1-0.7c-0.2-1.1-0.3-2.2-0.5-3.2        C364.5,337.9,362.6,311.4,363.9,311.2z"></path>
					</g>
				</g>
			</g>
			<g>
				<path class="st9" d="M705.3,679.5c-0.7-0.1-1-6.2-1.7-16.3c-0.6-10.1-1.4-24.1-2.2-39.8c-1.6-31.4-3.2-69.6-4-96.8      c-0.8-27.1-1.5-67.7-1.7-101.6c-0.2-33.8,0.1-60.9,1.4-61c1.3,0,3.4,26.9,5.4,60.7c2,33.8,3.7,74.4,4.5,101.5      c0.8,27.1,1.3,65.4,1.1,96.9c-0.1,15.7-0.4,29.8-0.9,39.9C706.9,673.3,705.9,679.5,705.3,679.5z"></path>
			</g>
			<g>
				<g>
					<path class="st9" d="M934.5,801.6c0.2,0,0.3,1.8,0.6,5.3c0.3,3.5,0.6,8.6,1.2,15.1c0.3,3.3,0.7,6.9,1.3,10.8       c0.2,1,0.3,2,0.6,2.9c0.1,0.5,0.2,1,0.4,1.4c0.1,0.4,0.2,0.8,0.5,1.3c0.3,0.7,1.1,1.4,1.9,1.9c0.8,0.5,1.8,0.9,2.7,1.1       c1.9,0.4,3.9-0.1,4.9-1.7c0.3-0.4,0.4-0.9,0.6-1.3c0.1-0.5,0.3-1,0.3-1.6c0.1-1,0.1-2.5,0.3-4c0.8-5.7,3.3-11,6.1-16.4       c1.4-2.7,2.9-5.3,4.5-8c0.8-1.3,1.6-2.7,2.4-4.1c0.4-0.7,0.9-1.4,1.1-2l0.4-0.9c0.1-0.3,0.2-0.6,0.2-0.9       c0.6-2.6,0.2-5.8-0.5-8.9c-0.7-3.2-1.7-6.4-2.8-9.8c-1-3.3-2.1-6.8-3-10.4c-0.9-3.6-1.5-7.5-1.8-11.3       c-0.7-7.7-0.2-15.6,0.5-23.6c0.4-4,0.8-8,1.2-12c0.2-2,0.4-4,0.6-6.1c0.3-2.4,1-4.8,2.1-6.9c2.2-4.3,5.7-7.5,9.3-10.3       c3.6-2.7,7.6-4.9,11.6-6.8c8-3.9,16.5-6.9,25.1-9.7c8.7-2.8,17.5-5.2,26.5-7.5c9-2.3,18.2-4.4,27.5-6.5c4.7-1,9.3-2,14-3       c4.7-1,9.4-1.9,14.1-3c18.7-4.1,37.6-9.4,56.4-15.6c37.5-12.3,75-27.3,110.6-44.5c17.8-8.6,35.1-17.8,51.3-28.1       c8.1-5.1,15.6-10.6,22.9-16.6c7.2-5.9,13.9-12.2,19.3-19.2c2.7-3.4,5-7.1,6.9-10.8c1.8-3.7,3-7.6,3.4-11.4       c0.4-3.9,0-7.6-1.1-11.7c-0.6-2.5-0.9-5.1-1.1-7.2c-0.2-2.1-0.6-3.9-1-5.8c-2.1-7.6-5.8-15.4-9.5-22.7       c-3.7-7.4-7.5-14.6-11.3-21.6c-4.7-8.6-9.8-17.6-15.1-26.8c-2.7-4.6-5.4-9.3-8.1-14c-2.9-4.6-5.7-9.2-8.7-13.9       c-12.1-18.6-26.6-37.1-43.1-54.9c-16.5-17.8-34.8-35-54.8-50.9c-10-8-20.3-15.6-31.1-22.8l-4-2.7l-4.1-2.5       c-1.4-0.9-2.7-1.7-4.1-2.4c-1.4-0.8-2.8-1.6-4-2.2c-1.1-0.6-3-1.3-4.6-2.1c-1.7-0.8-3.3-1.8-4.8-2.9c-1.6-1.1-3-2.4-4.4-4       c-0.7-0.8-1.3-1.6-1.9-2.5c-0.3-0.5-0.6-1-0.8-1.5l-0.4-0.8c-0.1-0.3-0.2-0.5-0.4-1.2l0.3,0.9c-3.2-6.5-6.6-12.8-10.4-19       c-3.8-6.1-7.8-12.1-12.1-17.9c-8.7-11.5-18.3-22.2-29-31.7c-10.6-9.6-22-18.2-33.9-25.7l-4.5-2.8c-1.5-0.9-3-1.7-4.5-2.5       c-1.5-0.9-3-1.7-4.6-2.4c-1.6-0.7-3.1-1.5-4.6-2.2c-6.2-2.8-12.7-4.6-19.3-5.7c-6.6-1.2-13.5-1.7-20.4-2.6       c-6.9-0.9-13.7-2.2-20.4-3.9c-3.3-0.9-6.6-1.8-9.8-2.8c-3.2-1-6.4-2.1-9.5-3.1c-6.2-2.1-12.4-4.1-18.5-6.1       c-24.4-7.8-47.7-14.7-69.3-21c-21.6-6.2-41.5-11.7-59.2-16.6c-4.4-1.3-8.7-2.4-12.9-4.2c-1-0.5-2.1-1-3.1-1.6       c-1-0.7-2-1.2-2.8-2.2c-0.9-0.8-1.5-1.8-2.2-2.8c-0.5-1-1-2-1.4-3c-1.3-4-1.9-7.8-2.7-11.3c-0.7-3.6-1.4-7-2.2-10.2       c-1.7-6.5-2.1-12.6-2-17.8c0.1-5.2,0.7-9.6,1.3-13.1c0.6-3.5,1.2-6.2,1.7-8c0.5-1.8,0.8-2.7,0.9-2.7c0.3,0.1-0.5,3.8-1.3,10.8       c-0.4,3.5-0.7,7.8-0.6,12.9c0.1,5.1,0.7,10.8,2.5,17.1c0.9,3.2,1.7,6.6,2.5,10.2c0.8,3.5,1.6,7.3,2.9,10.8       c2.1,7.3,11.6,8.6,20.2,11c17.8,4.5,37.8,9.6,59.5,15.5c21.7,5.9,45.2,12.5,69.7,20c6.1,1.9,12.4,3.8,18.6,5.9       c3.1,1,6.3,2,9.4,3c3.1,1,6.3,1.8,9.5,2.6c6.4,1.5,12.9,2.8,19.6,3.5c6.7,0.8,13.6,1.3,20.7,2.4c7.1,1.1,14.3,3.1,21,6       c1.7,0.7,3.3,1.5,5,2.3c1.7,0.7,3.3,1.6,4.9,2.5c1.6,0.9,3.2,1.7,4.8,2.6l4.7,2.8c12.4,7.6,24.2,16.3,35.2,26.2       c11.1,9.8,21.2,20.8,30.3,32.6c4.5,5.9,8.7,12.1,12.7,18.4c3.9,6.4,7.5,12.9,10.9,19.6l0.3,0.9l0-0.1c-2,0.6-0.1,0-0.3,0.1       c0.4-0.1,0.3-0.1,0.3-0.1v0l0,0.1l0.1,0.3c0.1,0.2,0.2,0.4,0.4,0.7c0.3,0.5,0.6,0.9,1.1,1.4c0.8,0.9,1.8,1.8,2.9,2.6       c1.1,0.8,2.3,1.5,3.6,2.1c1.3,0.7,2.5,1.1,4.4,2c1.8,0.8,3.2,1.6,4.7,2.5c1.5,0.8,3,1.7,4.4,2.6l4.3,2.6l4.2,2.7       c11,7.3,21.7,15,31.8,23.1c20.4,16.1,39.1,33.5,56,51.6c16.9,18.1,31.7,37,44.2,56c3,4.8,6,9.6,8.9,14.3       c2.8,4.7,5.5,9.4,8.1,14c5.3,9.2,10.4,18.2,15.2,26.9c3.8,7.1,7.7,14.3,11.5,21.9c3.7,7.6,7.6,15.4,10.1,24.6       c0.6,2.3,1,4.9,1.2,7.2c0.2,2.3,0.4,4.1,0.9,5.9c1.2,4.5,1.8,9.8,1.3,14.9c-0.5,5.1-2.1,10.1-4.3,14.6c-2.3,4.5-5,8.6-8,12.5       c-6.1,7.7-13.2,14.3-20.8,20.5c-7.5,6.1-15.5,12-23.9,17.1c-16.7,10.5-34.3,19.7-52.3,28.3c-36.1,17.2-73.9,32-112,44.1       c-19,6.1-38.2,11.2-57.3,15.2c-4.8,1.1-9.5,2-14.2,2.9c-4.7,1-9.3,1.9-14,2.9c-9.3,1.9-18.4,4-27.4,6.1c-9,2.2-17.7,4.4-26.3,7       c-8.5,2.6-16.8,5.4-24.4,9c-3.8,1.8-7.5,3.8-10.7,6.1c-3.2,2.3-6.1,5-7.7,8.1c-0.8,1.5-1.3,3.2-1.6,4.9c-0.2,2-0.5,4.1-0.7,6.1       c-0.5,4-0.9,8-1.4,11.9c-0.8,7.8-1.4,15.4-0.9,22.7c0.3,3.7,0.7,7.1,1.5,10.6c0.8,3.4,1.8,6.8,2.8,10.2c1,3.4,2,6.7,2.7,10.2       c0.7,3.4,1.2,7,0.3,10.8c-0.1,0.5-0.2,0.9-0.4,1.4l-0.6,1.3c-0.4,0.9-0.8,1.4-1.3,2.2c-0.8,1.4-1.7,2.7-2.5,4       c-1.6,2.6-3.2,5.2-4.6,7.8c-2.8,5.1-5.2,10.2-6.1,15.1c-0.4,2.2-0.1,5.5-2,8.1c-0.9,1.3-2.3,2.4-3.8,2.7c-1.5,0.4-3,0.3-4.3,0       c-1.3-0.3-2.5-0.9-3.6-1.6c-1.1-0.7-2.1-1.6-2.7-2.9c-0.5-0.9-0.9-2.5-1-3.4c-0.2-1.1-0.4-2.1-0.5-3.1       c-0.5-4.1-0.7-7.7-0.9-11.1c-0.3-6.6-0.3-11.7-0.3-15.2C934.1,803.4,934.3,801.6,934.5,801.6z"></path>
				</g>
				<g>
					<path class="st9" d="M866.8,844.9c0.2,0.1,0.1,1.6-0.5,4.3c-0.7,2.7-1.6,6.6-4,11.3c-0.3,0.6-0.7,1.2-1.1,1.8       c-0.3,0.3-0.6,0.7-0.9,1c-0.3,0.3-0.6,0.4-0.8,0.7l-0.9,0.6l-0.7,0.6c-0.5,0.4-1,0.9-1.5,1.3c-2,1.9-4.1,4.2-6.2,6.7       c-2.1,2.5-4.3,5.2-6.4,8c-0.5,0.7-1,1.4-1.5,2.2c-0.6,0.8-1.2,1.6-1.8,2.4c-1.3,1.6-2.9,3-4.6,4.3c-3.4,2.4-7,4.3-10.6,6.1       c-1.8,0.9-3.6,1.8-5.4,2.7c-1.6,0.9-3.3,1.8-4.7,3c-2.9,2.2-4.9,5.2-5.8,8.5c-0.4,1.7-0.6,3.4-0.4,5.1c0.1,0.8,0.2,1.9,0.4,2.5       c0.1,0.5,0.4,0.8,0.7,1.2c0.7,0.7,2,1.3,3.6,1.6c1.6,0.2,3.3,0.2,5-0.1c1.7-0.3,3.3-0.8,4.9-1.5c1.7-0.8,3.4-1.6,5.1-2.5       c6.8-3.5,13.1-7.1,18.9-10.4c5.7-3.3,12.1-7.1,18.9-11.3c6.6-4.1,13.1-9.1,18.2-15.6c2.6-3.2,4.8-6.8,7-10.6       c1.1-1.9,2.2-3.9,3.4-5.8c1.2-1.9,2.4-3.8,3.6-5.7c4.8-7.5,9.7-14.7,14.1-21.6c2.2-3.5,4.3-6.9,6.2-10.2       c1.9-3.4,3.8-6.7,5.7-9.8c3.8-6.1,7.3-11.5,10.4-16c6.1-8.9,10.1-14.2,10.5-14c0.4,0.3-2.8,6.1-8.1,15.5       c-2.7,4.7-5.8,10.3-9.3,16.5c-1.7,3.1-3.4,6.4-5.1,9.9c-1.8,3.6-3.8,7.1-5.9,10.8c-4.2,7.2-8.9,14.6-13.4,22.1       c-1.1,1.9-2.2,3.8-3.3,5.7c-1.1,1.9-2.1,3.8-3.1,5.8c-2.1,3.9-4.5,7.9-7.3,11.6c-5.5,7.4-12.8,13.1-19.7,17.5       c-6.8,4.3-13.2,8.2-19,11.6c-5.8,3.3-12.2,7-19.3,10.5c-1.8,0.9-3.6,1.7-5.5,2.6c-2.1,0.9-4.3,1.5-6.6,1.9       c-2.3,0.3-4.7,0.4-7.2,0c-2.5-0.4-5.2-1.4-7.3-3.7c-1-1.2-1.9-2.6-2.2-4.2c-0.3-1.4-0.4-2.4-0.5-3.7c-0.1-2.4,0.1-4.9,0.8-7.2       c1.4-4.8,4.5-8.9,8.3-11.6c1.8-1.4,3.8-2.5,5.8-3.5c1.9-0.9,3.7-1.7,5.5-2.5c3.6-1.7,7.2-3.3,10.1-5.3c1.5-1,2.8-2,3.9-3.3       c0.6-0.6,1.1-1.3,1.6-1.9c0.6-0.8,1.2-1.5,1.7-2.2c2.3-2.9,4.7-5.5,7-7.9c2.3-2.4,4.6-4.6,7-6.6c0.6-0.5,1.2-0.9,1.8-1.4l1-0.6       l0.9-0.5c0.2-0.2,0.7-0.4,0.8-0.5c0.1-0.2,0.3-0.3,0.4-0.4c0.3-0.5,0.7-0.9,1-1.4c2.5-4,3.9-7.8,5-10.3       C865.9,846.2,866.6,844.8,866.8,844.9z"></path>
				</g>
				<g>
					<path class="st9" d="M814.9,842.2c0.2,0.2-2.9,4-8.1,10.2c-2.7,3.1-5.7,6.8-9.9,10.5c-3.9,3.5-8.3,7.7-13.4,11.6       c-2.5,2-5.1,3.9-7.9,5.8c-1.4,0.9-2.8,1.9-4.2,2.8c-1.4,0.9-2.7,1.8-4,2.8c-5.1,3.8-9.7,8.7-10.9,14.4       c-0.7,2.8-0.4,5.6,0.5,8.3c0.2,0.7,0.5,1.3,0.8,2l0.4,1l0.4,0.8c0.6,0.9,1.4,1.5,2.3,1.9c1.8,0.7,4.5,0.3,6.9-0.6       c2.5-0.9,4.9-2.1,7.1-3.4c2.2-1.3,4.5-2.9,6.9-4.6c2.6-1.9,5.1-3.6,7.9-5.4c5.4-3.6,11.2-7.5,17.2-11.4       c5.9-3.9,12-7.8,18.1-11.7c6-3.9,12-7.7,17.1-11.8c2.6-2.1,5-4.2,7.2-6.4c2.3-2.3,4.6-4.3,6.8-6.2c4.4-3.9,8.4-7.2,11.8-10       c6.8-5.6,11.1-8.8,11.4-8.5c0.3,0.3-3.5,4.2-9.8,10.3c-3.2,3.1-6.9,6.7-11.1,10.7c-2.1,2-4.2,4.2-6.4,6.4       c-2.2,2.4-4.6,4.7-7.2,7c-5.2,4.5-11.2,8.6-17.1,12.7c-5.9,4.1-11.9,8.2-17.8,12.2c-5.8,4-11.6,7.9-16.9,11.6       c-2.7,1.8-5.3,3.7-7.6,5.4c-2.5,1.9-4.9,3.6-7.4,5c-2.4,1.5-5.1,2.9-8.2,3.9c-1.6,0.5-3.2,1-5.1,1.1c-1.8,0.2-3.9,0.1-6-0.7       c-2.1-0.8-3.8-2.4-5-4.2c-0.3-0.4-0.5-0.9-0.8-1.3l-0.6-1.3c-0.4-0.8-0.7-1.7-1-2.6c-1.1-3.5-1.4-7.6-0.4-11.4       c0.9-3.8,2.9-7.2,5.3-10c2.4-2.8,5.2-5.1,8.1-7.1c1.4-1,3-1.9,4.4-2.8c1.4-0.8,2.8-1.7,4.2-2.6c2.7-1.7,5.4-3.5,7.9-5.3       c5.1-3.6,9.5-7.4,13.8-10.8c4-3.2,7.4-6.7,10.3-9.5C810.8,845.1,814.5,841.8,814.9,842.2z"></path>
				</g>
				<g>
					<path class="st9" d="M1009.9,364.1c0.1-0.1,1,0.5,2.5,1.9c0.8,0.7,1.7,1.5,2.8,2.5c1.1,1,2.4,2.1,3.9,3.3       c5.9,5,14.5,12.2,25.5,20.8c11,8.6,24.2,18.6,39.3,29.5c7.6,5.4,15.5,11,24,16.7c4.2,2.8,8.5,5.7,13,8.4c2.2,1.4,4.5,2.7,6.7,4       c1.1,0.7,2.3,1.3,3.4,1.8c1.2,0.6,2.2,1.2,3.5,1.7c5,2.3,10,4.9,15,7.9c2.5,1.5,4.9,3.1,7.3,5c1.2,0.9,2.4,2,3.5,3.2       c0.2,0.2,0.7,0.8,1.1,1.2c0.4,0.5,0.7,1,1.1,1.5c0.7,1,1.1,2.1,1.3,3.3c0.2,1.1,0.1,2.3-0.4,3.4c-0.5,1-1.3,1.9-2.2,2.6       c-0.5,0.4-1,0.7-1.5,1l-1.6,0.8l-1.8,0.9c-2.3,1.3-4.7,2.7-7,4.3c-4.6,3.2-9.1,6.7-13.6,10.3c-4.5,3.7-8.8,7.4-13.4,11.3       c-4.5,3.8-9.1,7.5-13.8,11.2c-9.3,7.3-18.6,14.5-28,21.5c-18.7,14-37.3,27.5-55.3,40c-4.5,3.1-8.9,6.2-13.6,9.1       c-4.7,2.9-9.2,5.4-13.7,7.9c-9,5-17.6,9.8-25.8,14.4c-16.4,9.1-34.9,19.2-54.9,29.8c-5,2.6-10,5.3-15.4,7.9       c-5.3,2.7-11.5,4.8-16.9,6.6c-2.7,0.9-5.1,1.9-7.3,3.3c-2.2,1.3-4.2,3-6.2,5c-3.8,3.9-7.2,8.8-10.6,13.8       c-6.7,10.1-13.1,20.7-19.5,31.4c-3.2,5.4-6.4,10.7-9.5,16.1l-4.9,8c-1.6,2.7-3.3,5.4-5.3,8.1c-2,2.7-4.3,5.4-7.6,7.5       c-0.8,0.5-1.7,1-2.6,1.4c-0.4,0.2-0.9,0.4-1.4,0.5l-1.2,0.4c-0.5,0.2-1.1,0.3-1.7,0.6c-0.6,0.2-1.2,0.5-1.9,0.9       c-5.1,2.6-10.3,5.9-15.3,9.2c-5,3.4-10.1,6.8-15,10.1c-4.8,3.1-9.5,6.8-14.1,10.3c-4.6,3.6-9.1,7.2-13.6,10.7       c-2.3,1.8-4.5,3.5-6.7,5.2c-2.1,1.6-4,3.3-5.6,5.1c-1.5,1.8-2.5,3.8-2.8,5.8c-0.1,1-0.1,2,0.1,3c0.1,0.5,0.2,1,0.4,1.6       c0.2,0.5,0.4,1.2,0.6,1.4c0.3,0.7,0.7,1.1,1.4,1.4c0.7,0.3,1.6,0.4,2.6,0.4c2.1-0.1,4.4-0.7,6.6-1.5c1.1-0.4,2.3-0.9,3.3-1.3       c1-0.4,2.1-1,3.1-1.6c2.1-1.2,4.2-2.4,6.2-3.6c4.1-2.5,8.1-4.8,11.9-7.1c1.9-1.1,3.9-2.2,5.9-3.3c1.9-1,3.8-1.9,5.7-2.9       c3.7-1.8,7.3-3.6,10.7-5.2c6.9-3.3,13.1-6.2,18.6-8.6c2.8-1.2,5.4-2.3,7.9-3.2c2.5-0.8,4.7-1.5,6.7-2.1       c4.1-1.3,7.3-2.1,9.6-2.3c1.1-0.1,2.1,0,2.6,0.4c0.5,0.4,0.3,0.9,0.3,1c-0.1,0.1,0.1-0.2-0.4-0.5c-0.5-0.2-1.3-0.1-2.3,0.1       c-2.1,0.5-5.2,1.6-9.1,3.2c-2,0.8-4.2,1.6-6.6,2.5c-2.3,1-4.8,2.2-7.5,3.5c-5.4,2.7-11.5,5.8-18.2,9.4       c-3.3,1.8-6.9,3.7-10.5,5.6c-1.8,1-3.7,2-5.6,3c-1.8,1-3.7,2.1-5.6,3.3c-3.8,2.4-7.7,4.9-11.7,7.5c-2,1.3-4.1,2.6-6.3,3.9       c-1.1,0.6-2.2,1.3-3.4,1.9c-1.2,0.6-2.4,1.1-3.6,1.6c-2.5,0.9-5.1,1.8-8.2,2c-1.5,0.1-3.3,0-5-0.7c-1.8-0.7-3.4-2.2-4.3-3.9       c-0.5-0.9-0.7-1.5-1-2.2c-0.3-0.7-0.5-1.5-0.6-2.3c-0.3-1.6-0.4-3.3-0.2-5c0.4-3.4,2-6.4,3.9-8.8c1.9-2.4,4.2-4.5,6.5-6.3       c2.2-1.8,4.3-3.5,6.5-5.3c4.4-3.6,8.9-7.2,13.4-10.9c4.6-3.7,9.2-7.4,14.3-10.9c4.9-3.4,9.8-6.9,14.8-10.4       c5.1-3.4,10.2-6.9,16-9.9c0.7-0.4,1.5-0.7,2.3-1.1c0.8-0.4,1.7-0.7,2.6-1l1-0.3c0.3-0.1,0.5-0.2,0.8-0.3c0.5-0.2,1-0.5,1.5-0.8       c1.9-1.3,3.7-3.3,5.4-5.6c1.7-2.3,3.2-4.9,4.8-7.6l4.8-8c3.1-5.4,6.2-10.8,9.3-16.2c6.3-10.8,12.6-21.6,19.4-32       c3.4-5.2,7-10.4,11.6-15.2c2.3-2.3,4.9-4.6,7.8-6.4c2.9-1.8,6.1-3.2,9-4.2c5.8-2,10.9-3.8,15.9-6.3c5-2.5,10.1-5.3,15.1-7.9       c19.8-10.6,38.3-20.8,54.7-29.9c8.2-4.5,16.8-9.3,25.7-14.3c4.4-2.5,9-5.1,13.4-7.7c4.3-2.7,8.8-5.8,13.2-8.8       c17.9-12.3,36.6-25.7,55.4-39.4c9.4-6.9,18.8-13.9,28.1-21c4.6-3.6,9.2-7.2,13.7-10.8c4.5-3.6,9-7.5,13.6-11.1       c4.6-3.6,9.3-7.2,14.3-10.5c2.5-1.6,5.1-3.2,7.8-4.6l2.5-1.2c0.3-0.1,0.6-0.4,0.4-0.8c0-0.2-0.1-0.3-0.2-0.4l-0.1-0.2       c-0.1-0.1,0-0.1-0.3-0.3c-0.8-0.9-1.7-1.7-2.7-2.5c-2-1.6-4.2-3.2-6.5-4.6c-4.5-2.9-9.3-5.4-14.1-7.8c-5-2.5-9.8-5.4-14.2-8.3       c-4.5-2.9-8.8-5.9-13-8.8c-8.4-5.9-16.3-11.8-23.7-17.4c-14.9-11.3-27.8-21.8-38.5-30.9c-10.7-9-18.9-16.7-24.4-22.3       c-1.4-1.4-2.6-2.6-3.6-3.7c-1-1.1-1.8-2.1-2.5-2.9C1010.4,365.1,1009.8,364.2,1009.9,364.1z"></path>
				</g>
				<g>
					<path class="st9" d="M836.3,779.7c0.1,0,0.2,0.4,0,1.1c-0.2,0.7-0.8,1.6-1.5,2.7c-1.5,2.2-4.2,4.9-7.8,8       c-3.6,3-8.1,6.3-13.6,9.5c-1.5,0.8-2.6,1.5-4,2.4c-1.3,0.9-2.6,1.9-3.9,2.9c-2.7,2-5.4,4.2-8.2,6.5c-5.5,4.6-11.3,9.5-17,14.7       c-5.7,5.2-11.4,10.6-17.3,15.8c-2.9,2.6-5.9,5.1-8.8,7.5c-1.5,1.2-3,2.4-4.4,3.6c-1.4,1.2-2.7,2.2-4,3.4       c-4.9,4.7-8.5,10.2-9.4,15.5c-0.5,2.6-0.3,5.4,0.8,8c0.3,0.6,0.6,1.3,1,1.9c0.4,0.4,0.7,1,1.2,1.3c0.8,0.7,1.8,1.1,3.2,1       c2.8-0.1,6.1-1.6,9.2-3.5c1.6-1,3.1-2.1,4.6-3.3l2.4-1.9l2.4-1.9c6.5-5,13.2-10,20-14.8c3.4-2.4,6.7-4.8,10.1-7.1       c1.7-1.1,3.4-2.3,5.1-3.3c1.8-1.1,3.5-2.1,5.3-3c6.9-3.7,13.5-6.7,18.6-10.8c5.4-4.2,10.3-7.6,14.4-10.5       c8.3-5.8,13.5-9.2,13.8-8.8c0.3,0.3-4.5,4.3-12.4,10.7c-3.9,3.2-8.7,6.9-13.7,11.2c-5.2,4.6-12,8.1-18.7,11.9       c-1.7,1-3.3,2-4.9,3c-1.6,1.1-3.2,2.2-4.9,3.4c-3.3,2.3-6.5,4.8-9.8,7.3c-6.6,5-13.1,10.1-19.5,15.2l-2.4,1.9l-2.3,1.9       c-1.6,1.3-3.3,2.6-5.1,3.7c-3.6,2.2-7.4,4.3-12.2,4.6c-2.4,0.1-5.1-0.6-7.1-2.3c-1.1-0.8-1.7-1.7-2.4-2.7       c-0.6-0.9-1.1-1.8-1.5-2.8c-1.6-3.8-1.9-7.9-1.2-11.4c1.3-7.1,5.7-13.5,11.3-18.8c1.4-1.3,3-2.6,4.4-3.7       c1.4-1.1,2.9-2.3,4.4-3.4c2.9-2.3,5.9-4.8,8.8-7.2c5.9-5,11.7-10.2,17.6-15.3c6-5,11.9-9.8,17.7-14.2c2.9-2.2,5.7-4.3,8.6-6.3       c1.4-1,2.8-1.9,4.2-2.8c1.4-0.9,3-1.7,4.3-2.3c5.4-2.8,10-5.8,13.8-8.4c3.7-2.7,6.5-5.1,8.3-6.9c0.9-0.9,1.5-1.6,1.9-2.2       C836.1,780,836.2,779.7,836.3,779.7z"></path>
				</g>
				<g>
					<path class="st9" d="M915.8,701.8c-0.4,1.2-3.4,1.5-7,0.5c-3.6-1-7.5-3.2-9.8-5.3c-2.4-2.1-5.1-5.9-6.7-9.4       c-1.6-3.5-2-6.7-0.9-7.4c1.2-0.6,3.6,1.1,6.3,3.2c2.7,2.2,5.8,4.6,7.7,6.3c1.9,1.7,4.4,4.3,6.7,6.6       C914.3,698.6,916.2,700.5,915.8,701.8z"></path>
				</g>
				<g>
					<path class="st9" d="M733,811.6c0.6,0,1,1.5,2.3,3.2c0.6,0.9,1.5,1.8,2.5,2.7c0.5,0.4,1.1,0.9,1.6,1.3c0.2,0.1,0.3,0.1,0.5,0.1       c0.1-0.1,0.1-0.1,0.1-0.2c0.1-0.1-0.1,0,0.4-0.4c0.6-0.5,1.2-1.1,1.8-1.6c1.1-1.1,2-2.1,2.7-3c0.5-0.6,0.9-1.4,1.1-2       c0.2-0.6,0.2-1.1,0-1.6c-0.1-0.1-0.1-0.2-0.1-0.3c-0.1,0-0.1-0.1-0.2-0.2c-0.1-0.1-0.2-0.1-0.3-0.2c-0.1-0.1-0.3-0.1-0.5-0.1       c-0.8-0.1-1.9-0.1-3,0.2C737.2,810.4,733.4,812.4,733,811.6c-0.2-0.3,0.4-1.3,1.6-2.5c1.3-1.2,3.2-2.7,5.8-3.8       c1.3-0.6,2.8-1.1,4.7-1.1c0.5,0,1,0,1.5,0.1c0.5,0.1,1.1,0.3,1.6,0.5c0.5,0.3,1,0.6,1.5,1c0.4,0.4,0.7,0.9,1.1,1.3       c1.2,1.8,1.4,4.1,1,5.9c-0.4,1.7-1.2,3-1.9,4c-1,1.4-2.3,2.7-3.8,3.9c-0.7,0.6-1.5,1.2-2.3,1.7c-0.6,0.4-1.2,0.8-1.8,1.2       l-2.1,1.2c-1.2-0.8-2.5-1.7-3.5-2.7c-0.6-0.7-1.2-1.3-1.7-2.1c-1-1.4-1.7-2.9-2-4.2C731.8,813.4,732.5,811.6,733,811.6z"></path>
				</g>
				<g>
					<path class="st9" d="M737.7,876.9c0.6-0.1,1.1,1.7,2.7,3.5c0.8,0.9,1.8,1.8,3.2,2.6c0.6,0.4,1.4,0.7,2.1,1.1l0.6,0.2l0.3,0.1       l0.1,0c0.1,0,0.2,0,0.3,0c0.1-0.1,0.1-0.1,0.2-0.3l1.2-1c0.8-0.7,1.5-1.4,2.2-2.1c1.4-1.4,2.6-2.9,3.3-4.1       c0.5-0.8,0.9-1.7,1-2.4c0.1-0.4,0-0.6,0-0.9c-0.1-0.1-0.2-0.3-0.2-0.5c-0.1-0.1-0.2-0.3-0.3-0.4c-0.4-0.5-1.2-0.8-2.5-0.7       c-1.2,0.1-2.6,0.4-4,0.9C742.4,874.8,738.3,877.6,737.7,876.9c-0.5-0.6,2.6-4.6,8.3-7.9c1.5-0.8,3.1-1.6,5.1-2       c1-0.2,2.1-0.3,3.3-0.1c1.2,0.2,2.5,0.7,3.5,1.5c1,0.8,1.7,1.8,2.3,2.9c0.5,1.1,0.7,2.4,0.6,3.5c-0.1,2.3-0.9,3.9-1.7,5.2       c-1.1,1.9-2.7,3.6-4.5,5.1c-0.9,0.8-1.8,1.5-2.8,2.2c-0.5,0.4-1,0.7-1.5,1c-0.8,0.5-1.7,1.1-2.6,1.6c-0.8-0.3-1.6-0.6-2.4-0.9       c-0.2-0.1-0.4-0.2-0.6-0.3l-0.4-0.2l-0.7-0.4c-0.9-0.6-1.7-1.2-2.5-1.9c-1.5-1.4-2.6-2.9-3.2-4.4       C736.7,878.9,737.3,876.9,737.7,876.9z"></path>
				</g>
				<g>
					<path class="st9" d="M757.8,903.6c0.6,0.1,0.7,2,2.1,4.2c0.7,1.1,1.6,2.4,2.8,3.6c0.6,0.6,1.3,1.2,2,1.8       c0.4,0.4,0.5,0.4,0.6,0.4c0.1,0,0.2,0.1,0.2,0c0.1-0.1,0.1-0.2,0.2-0.3c0,0,0,0,0-0.1l0.3-0.3l0.7-0.5c0.9-0.7,1.8-1.4,2.6-2.2       c1.6-1.4,3.1-2.9,4.1-4.1c0.7-0.8,1.5-1.9,1.9-2.8c0.2-0.4,0.3-0.8,0.3-1.1c0-0.3,0-0.4-0.2-0.8c-0.5-0.7-1.3-1.2-2.5-1.5       c-1.2-0.2-2.7-0.1-4.2,0.2c-2.9,0.6-5.6,1.7-7.5,2.4C759.3,903.5,758,904,757.8,903.6c-0.2-0.3,0.6-1.4,2.2-2.9       c1.7-1.4,4.2-3.2,7.5-4.5c1.7-0.6,3.6-1.2,5.8-1.1c2.2,0,4.8,1,6.5,3c0.9,1,1.5,2.4,1.6,3.8c0.1,1.4-0.2,2.6-0.5,3.6       c-0.8,2-1.8,3.4-2.8,4.5c-1.4,1.7-3.2,3.2-5.1,4.7c-1,0.7-2,1.4-3,2.1l-1.9,1.2c-0.9,0.6-1.9,1.1-2.8,1.6       c-0.7-0.6-1.5-1.1-2.2-1.7c-0.3-0.3-0.7-0.6-1-0.9c-0.4-0.3-0.4-0.4-0.7-0.7c-0.7-0.8-1.4-1.6-2-2.5c-1.2-1.7-2-3.5-2.3-5.1       C756.3,905.6,757.3,903.5,757.8,903.6z"></path>
				</g>
				<g>
					<path class="st9" d="M809.4,914c0.5,0,1,1.3,2.2,3c0.6,0.8,1.4,1.8,2.3,2.8c0.5,0.5,1,1,1.5,1.5c0.4,0.3,0.3,0.2,0.4,0.3       c0.1,0,0.2,0.1,0.2,0.1c0.1-0.1,0.2-0.2,0.3-0.3l0,0l0.2-0.1l0.4-0.2l0.7-0.4c1-0.5,1.9-1.1,2.8-1.6c1.8-1.1,3.3-2.3,4.1-3.3       c0.6-0.6,0.9-1.3,1-1.7c0-0.1,0-0.2,0-0.4c0-0.1-0.1-0.3-0.1-0.4c0-0.3-0.2-0.6-0.3-0.8c-0.2-0.4-1-0.8-2.2-0.8       c-1.2-0.1-2.5,0.1-3.8,0.3C814.1,912.9,809.8,914.8,809.4,914c-0.4-0.7,3-3.9,8.7-6.2c1.4-0.6,3-1.1,4.9-1.2       c0.9-0.1,1.9-0.1,3,0.2c1.1,0.3,2.2,0.8,3.2,1.6c0.9,0.9,1.6,1.9,1.9,3c0.2,0.5,0.4,1.1,0.4,1.6c0,0.6,0,1.2,0,1.7       c-0.3,2.2-1.3,3.9-2.3,5c-1.6,1.8-3.7,3.2-5.9,4.4c-1.1,0.6-2.3,1.1-3.4,1.5l-1.9,0.7c-1,0.3-2,0.6-3,0.9       c-0.5-0.5-1.1-1-1.6-1.5c-0.4-0.5-1.1-1.2-1.2-1.4c-0.5-0.7-1-1.4-1.4-2.1c-0.8-1.4-1.4-2.7-1.7-4       C808.5,915.7,809,914,809.4,914z"></path>
				</g>
				<g>
					<path class="st9" d="M889.3,878.3c-0.7-1.2,3-4.7,7.9-8.7c4.9-4,11-8.6,15.5-11.6c4.5-3,11.3-7.2,17.1-10.7       c5.8-3.4,10.4-6.3,11.3-5.4c1,0.9-2.2,5.8-7.1,10.7c-4.9,5-11.4,10.3-16,13.3c-4.6,3.1-11.4,6.9-17.3,9.4       C894.9,878,890,879.4,889.3,878.3z"></path>
				</g>
				<g>
					<path class="st9" d="M808.8,904c0.5,1.2-1.1,3.2-3.7,4.8c-2.6,1.6-5.9,2.8-8.3,3.3c-4.9,0.9-14.6-0.3-14.8-3       c-0.2-2.6,8.7-5.7,13.1-6.5c2.2-0.4,5.4-0.5,8.1-0.3C805.9,902.4,808.2,902.7,808.8,904z"></path>
				</g>
			</g>
			<g>
				<g>
					<path class="st9" d="M440.3,801.6c0.2,0,0.3,1.8,0.4,5.3c0.1,3.4,0,8.5-0.3,15.1c-0.2,3.3-0.4,6.9-0.9,11       c-0.3,2-0.5,4.1-1.4,6.5l-0.4,0.7c-0.1,0.1,0.1-0.1-0.2,0.2l-0.1,0.1l-0.2,0.2l-0.3,0.4c-0.4,0.5-0.9,0.9-1.5,1.3       c-1,0.8-2.2,1.3-3.5,1.7c-1.3,0.3-2.7,0.5-4.2,0.2c-1.5-0.3-2.9-1.2-3.9-2.5c-1-1.3-1.4-2.7-1.8-4.2c-0.1-0.7-0.2-1.4-0.2-2.1       c-0.1-0.6-0.1-1.2-0.2-1.8c-0.8-4.9-3.1-9.9-5.9-15c-1.4-2.5-2.9-5.1-4.6-7.7c-0.8-1.3-1.6-2.6-2.5-4c-0.4-0.7-0.8-1.4-1.3-2.1       c-0.4-0.7-0.9-1.7-1.2-2.6c-1.1-3.7-0.7-7.4-0.1-10.8c0.7-3.5,1.6-6.8,2.6-10.1c2-6.7,4-13.4,4.4-20.6       c0.6-7.2,0.2-14.7-0.7-22.5c-0.4-3.9-0.9-7.8-1.4-11.8c-0.2-2-0.5-4-0.7-6.1l-0.2-1.5l-0.2-1.2c-0.2-0.8-0.4-1.6-0.8-2.4       c-1.4-3.1-4-6-7.1-8.3c-3.1-2.4-6.7-4.4-10.4-6.3c-7.5-3.6-15.7-6.5-24.1-9.2c-8.4-2.6-17.1-4.9-26-7.1       c-17.8-4.3-36.2-8-55.1-11.8c-19-3.8-38-8.9-56.9-14.8c-37.9-11.6-75.5-26.2-111.6-42.7c-18-8.3-35.6-17.3-52.4-27.1       c-16.7-9.9-32.9-20.7-46.3-34.6c-6.6-6.9-12.4-14.9-16.1-24c-1.8-4.6-3-9.4-3.3-14.4c-0.3-4.9,0.2-9.8,1.2-14.4       c0.5-2.2,1.1-4.3,1.6-6.4c0.5-2.2,1.4-4.8,2.4-6.9c2.1-4.2,4.2-7.8,6.3-11.4c4.2-7.2,8.4-14.2,12.5-21       c5.2-8.8,10.7-18,16.3-27.5c2.8-4.8,5.6-9.6,8.5-14.5c1.4-2.5,2.9-4.9,4.4-7.4c1.5-2.5,3.1-5,4.6-7.5       c12.4-20.3,27.6-40.3,44.9-59.4c17.3-19.1,36.9-37.3,57.9-54.4c10.6-8.4,21.6-16.6,33-24.2c2.9-1.9,5.7-3.8,8.7-5.6       c3-1.8,5.9-3.6,9.3-5.2l2.6-1.2c0.7-0.3,1.4-0.6,2.1-0.9c1.4-0.6,2.7-1.4,3.8-2.2c1.2-0.8,2.2-1.7,3.1-2.7       c0.5-0.5,0.8-1,1.1-1.5c0.1-0.2,0.3-0.5,0.4-0.7l0.1-0.3l0-0.1l0,0c0.1,0-0.2-0.1,0.2,0.1l0.9,0.2c-2.2-0.6-0.6-0.1-1.1-0.2       l-0.1,0l0.4-0.9c3.3-6.5,6.8-12.8,10.6-19c3.9-6.1,7.9-12.2,12.3-18c8.7-11.6,18.5-22.2,29.1-31.9c10.6-9.6,22-18.2,33.7-25.8       c3-1.9,6-3.7,9-5.5c3.1-1.6,6.1-3.4,9.4-4.8c6.3-3,13-5.5,19.9-6.9c6.8-1.5,13.6-2.1,20.2-2.8c6.5-0.7,12.9-1.5,19.1-2.7       c1.6-0.3,3.1-0.7,4.6-1c1.5-0.3,3.1-0.8,4.6-1.2c3.1-0.7,6-1.7,9-2.6c6-1.9,12-3.8,17.9-5.7c23.6-7.4,46.1-13.8,66.9-19.5       c20.8-5.7,40-10.7,57-15c8.5-2.2,16.6-4,23.6-6.2c3.5-1.1,6.7-2.6,8.4-5.1c1.8-2.5,2.5-5.8,3.3-8.7c1.5-6.1,2.7-11.6,4-16.4       c1.4-4.7,1.9-8.7,2.2-12.1c0.5-6.7,0.3-10.3,0.5-10.3c0.1,0,0.3,0.9,0.5,2.6c0.2,1.7,0.4,4.4,0.3,7.8       c-0.1,3.4-0.4,7.7-1.6,12.5c-1.1,4.8-2.1,10.3-3.4,16.5c-0.7,3.1-1.3,6.5-3.5,9.8c-1,1.7-2.7,3-4.4,4c-0.8,0.5-1.7,0.9-2.6,1.3       c-0.9,0.4-1.8,0.7-2.7,1.1c-7.4,2.6-15.3,4.5-23.7,6.9c-16.9,4.7-36,10-56.6,16.1c-20.7,6.1-43,12.8-66.4,20.4       c-5.9,2-11.8,3.9-17.8,5.9c-3.1,1-6.1,2-9.3,2.8c-1.6,0.4-3.1,0.9-4.7,1.3c-1.6,0.4-3.2,0.7-4.8,1.1       c-6.5,1.4-13.1,2.3-19.7,3.1c-6.6,0.8-13.1,1.4-19.4,2.9c-6.3,1.4-12.4,3.7-18.3,6.6c-3,1.3-5.9,3.1-8.8,4.7       c-2.9,1.7-5.8,3.5-8.6,5.3c-11.4,7.5-22.3,15.9-32.5,25.3c-20.3,18.8-37.3,41.7-49.6,66.9l0.3-0.9c-0.2,0.7-0.3,0.8-0.4,1.2       c-0.1,0.3-0.2,0.6-0.4,0.9c-0.3,0.5-0.5,1-0.8,1.5c-0.6,0.9-1.3,1.8-2,2.6c-1.4,1.6-3,2.9-4.6,4c-1.6,1.1-3.3,2.1-5,2.9       c-0.9,0.4-1.7,0.8-2.6,1.1l-2,1c-2.7,1.4-5.7,3.1-8.5,4.9c-2.9,1.7-5.6,3.6-8.4,5.5c-11.1,7.5-21.8,15.6-32.2,23.9       c-20.6,16.8-39.7,34.8-56.6,53.6c-16.9,18.8-31.7,38.4-43.7,58.1c-1.5,2.5-3.1,4.9-4.5,7.4c-1.5,2.5-2.9,5-4.3,7.4       c-2.9,4.9-5.7,9.8-8.5,14.5c-5.6,9.5-11.1,18.7-16.3,27.6c-4,6.8-8.2,13.8-12.4,20.9c-2.1,3.5-4.3,7.2-5.9,10.6       c-0.8,1.7-1.3,3.1-1.8,5.2c-0.5,2-1,4.1-1.5,6.1c-0.9,3.9-1.3,7.8-1,11.7c0.2,3.9,1.2,7.7,2.7,11.5c3,7.5,8,14.6,14.1,21       c12.3,12.8,27.8,23.4,44.1,33.2c16.4,9.7,33.7,18.7,51.4,27c35.6,16.6,72.8,31.3,110.2,43.1c18.7,5.9,37.4,11.2,56.1,15.1       c18.8,4,37.3,7.9,55.2,12.5c9,2.3,17.7,4.7,26.3,7.5c8.6,2.8,17,5.9,24.9,9.9c4,2,7.8,4.3,11.4,7.1c3.5,2.8,6.8,6.3,8.7,10.8       c0.5,1.1,0.8,2.3,1.1,3.5l0.3,1.8l0.2,1.5c0.2,2,0.4,4,0.6,6c0.4,4,0.8,8,1.2,11.9c0.7,7.9,1,15.8,0.3,23.4       c-0.4,3.8-1,7.6-2,11.2c-0.9,3.6-2,7-3.1,10.3c-1,3.3-2,6.5-2.7,9.7c-0.7,3.1-0.9,6.2-0.2,8.7c0.2,0.6,0.4,1.1,0.8,1.8       c0.4,0.7,0.8,1.4,1.2,2c0.8,1.4,1.6,2.7,2.4,4c1.6,2.7,3.1,5.3,4.5,8c2.7,5.3,5.1,10.7,5.9,16.3c0.1,1.3,0.2,2.6,0.3,3.9       c0.2,1.1,0.5,2.1,1.1,2.8c1,1.5,3,1.9,5,1.4c1-0.2,1.9-0.6,2.7-1.2c0.4-0.3,0.8-0.6,1.1-0.9l0.2-0.2l0.1-0.1l0.1-0.1       c-0.2,0.3,0,0-0.1,0.1l0.4-0.7c0.6-1.6,1-3.7,1.4-5.6c0.6-3.9,1-7.5,1.3-10.8c0.6-6.5,0.9-11.6,1.2-15       C439.9,803.4,440.1,801.6,440.3,801.6z"></path>
				</g>
				<g>
					<path class="st9" d="M507.9,844.9c0.2-0.1,0.9,1.3,1.9,3.9c1.1,2.5,2.5,6.3,5,10.3c0.3,0.5,0.7,0.9,1,1.4       c0.2,0.2,0.3,0.3,0.4,0.4c0.1,0.2,0.5,0.4,0.8,0.5l0.9,0.5l1,0.6c0.6,0.4,1.2,0.9,1.8,1.4c2.4,1.9,4.6,4.2,7,6.6       c2.3,2.4,4.7,5,7,7.9c0.6,0.7,1.2,1.5,1.7,2.2c0.5,0.7,1,1.3,1.6,1.9c1.1,1.2,2.4,2.3,3.9,3.3c3,2,6.5,3.6,10.1,5.3       c1.8,0.8,3.7,1.7,5.5,2.5c2,1,4,2,5.8,3.5c3.7,2.7,6.9,6.8,8.3,11.6c0.7,2.4,0.9,4.8,0.8,7.2c-0.1,1.3-0.2,2.3-0.5,3.7       c-0.3,1.6-1.2,3-2.2,4.2c-2.2,2.3-4.9,3.3-7.3,3.7c-2.5,0.4-4.9,0.4-7.2,0c-2.3-0.4-4.5-1-6.6-1.9c-1.9-0.8-3.8-1.7-5.5-2.6       c-7.1-3.5-13.5-7.1-19.3-10.5c-5.8-3.4-12.2-7.2-19-11.6c-6.9-4.4-14.1-10-19.7-17.5c-2.8-3.7-5.1-7.6-7.3-11.6       c-1.1-2-2.1-3.9-3.1-5.8c-1.1-1.9-2.2-3.8-3.3-5.7c-4.5-7.5-9.2-14.9-13.4-22.1c-2.1-3.6-4.1-7.2-5.9-10.8       c-1.7-3.5-3.4-6.8-5.1-9.9c-3.4-6.3-6.6-11.8-9.3-16.5c-5.3-9.4-8.6-15.2-8.1-15.5c0.4-0.3,4.4,5,10.5,14       c3,4.5,6.6,9.9,10.4,16c1.9,3,3.8,6.4,5.7,9.8c1.9,3.3,4,6.8,6.2,10.2c4.4,7,9.3,14.1,14.1,21.6c1.2,1.9,2.4,3.8,3.6,5.7       c1.2,1.9,2.3,3.9,3.4,5.8c2.2,3.8,4.4,7.4,7,10.6c5.1,6.5,11.6,11.4,18.2,15.6c6.7,4.2,13.1,8,18.9,11.3       c5.7,3.3,12.1,6.9,18.9,10.4c1.7,0.9,3.4,1.7,5.1,2.5c1.6,0.7,3.2,1.2,4.9,1.5c1.7,0.3,3.4,0.3,5,0.1c1.6-0.2,2.9-0.8,3.6-1.6       c0.3-0.4,0.6-0.7,0.7-1.2c0.2-0.6,0.3-1.7,0.4-2.5c0.1-1.7,0-3.5-0.4-5.1c-0.9-3.3-2.9-6.3-5.8-8.5c-1.4-1.2-3-2.1-4.7-3       c-1.8-0.9-3.6-1.8-5.4-2.7c-3.6-1.9-7.2-3.7-10.6-6.1c-1.7-1.2-3.3-2.7-4.6-4.3c-0.7-0.8-1.3-1.6-1.8-2.4       c-0.5-0.7-1-1.5-1.5-2.2c-2.1-2.8-4.2-5.5-6.4-8c-2.1-2.5-4.2-4.8-6.2-6.7c-0.5-0.5-1-0.9-1.5-1.3l-0.7-0.6l-0.9-0.6       c-0.3-0.2-0.5-0.3-0.8-0.7c-0.3-0.3-0.6-0.7-0.9-1c-0.4-0.6-0.8-1.2-1.1-1.8c-2.4-4.7-3.3-8.6-4-11.3       C507.9,846.5,507.7,845,507.9,844.9z"></path>
				</g>
				<g>
					<path class="st9" d="M559.8,842.2c0.4-0.4,4.1,2.9,9.8,8.6c2.9,2.8,6.3,6.3,10.3,9.5c4.3,3.4,8.7,7.2,13.8,10.8       c2.5,1.8,5.2,3.6,7.9,5.3c1.4,0.9,2.8,1.7,4.2,2.6c1.4,0.9,2.9,1.8,4.4,2.8c2.9,2,5.7,4.3,8.1,7.1c2.4,2.8,4.4,6.2,5.3,10       c1,3.8,0.7,7.8-0.4,11.4c-0.3,0.9-0.6,1.8-1,2.6l-0.6,1.3c-0.3,0.5-0.5,0.9-0.8,1.3c-1.1,1.8-2.9,3.3-5,4.2       c-2.1,0.8-4.1,0.9-6,0.7c-1.8-0.2-3.5-0.6-5.1-1.1c-3.1-1.1-5.8-2.5-8.2-3.9c-2.4-1.5-4.9-3.2-7.4-5c-2.3-1.7-4.9-3.5-7.6-5.4       c-5.4-3.7-11.1-7.6-16.9-11.6c-5.8-4-11.8-8.1-17.8-12.2c-5.9-4.1-11.8-8.1-17.1-12.7c-2.6-2.3-5-4.6-7.2-7       c-2.1-2.3-4.3-4.4-6.4-6.4c-4.2-4-7.9-7.7-11.1-10.7c-6.3-6.1-10.1-9.9-9.8-10.3c0.3-0.3,4.6,2.9,11.4,8.5       c3.4,2.8,7.4,6.2,11.8,10c2.2,1.9,4.5,4,6.8,6.2c2.2,2.2,4.6,4.3,7.2,6.4c5.2,4.1,11.1,7.8,17.1,11.8c6,3.9,12.1,7.9,18.1,11.7       c5.9,3.9,11.7,7.7,17.2,11.4c2.7,1.8,5.3,3.6,7.9,5.4c2.4,1.8,4.6,3.3,6.9,4.6c2.2,1.3,4.6,2.6,7.1,3.4       c2.5,0.9,5.1,1.3,6.9,0.6c0.9-0.4,1.6-0.9,2.3-1.9l0.4-0.8l0.4-1c0.3-0.6,0.6-1.3,0.8-2c0.9-2.7,1.2-5.6,0.5-8.3       c-1.2-5.6-5.8-10.6-10.9-14.4c-1.3-1-2.6-1.8-4-2.8c-1.4-0.9-2.8-1.9-4.2-2.8c-2.7-1.9-5.4-3.8-7.9-5.8       c-5-3.9-9.4-8.1-13.4-11.6c-4.2-3.7-7.2-7.5-9.9-10.5C562.8,846.1,559.7,842.4,559.8,842.2z"></path>
				</g>
				<g>
					<path class="st9" d="M364.8,364.1c0.1,0.1-0.5,1-1.8,2.6c-0.7,0.8-1.5,1.7-2.5,2.9c-1,1.1-2.3,2.3-3.6,3.7       c-5.5,5.5-13.8,13.2-24.5,22.3c-10.7,9.1-23.7,19.6-38.6,31c-7.5,5.7-15.4,11.5-23.8,17.4c-4.2,2.9-8.5,5.9-13,8.8       c-2.2,1.5-4.6,2.9-6.9,4.3c-1.1,0.7-2.4,1.4-3.7,2.1c-1.2,0.7-2.5,1.4-3.7,1.9c-4.8,2.4-9.6,4.9-14.1,7.8       c-2.3,1.4-4.5,3-6.4,4.7c-1,0.8-2,1.7-2.6,2.5c-0.2,0.3-0.4,0.5-0.5,0.8c-0.1,0.4,0.3,0.6,0.5,0.7l0.8,0.4c0.7,0.3,1.4,0.7,2,1       c2.7,1.4,5.3,3,7.8,4.7c4.9,3.3,9.6,6.9,14.3,10.6c4.6,3.7,9.2,7.5,13.7,11.2c4.5,3.7,9.1,7.3,13.8,10.9       c9.3,7.1,18.7,14.2,28.1,21.1c18.8,13.8,37.6,27.1,55.5,39.5c4.5,3,9,6.1,13.3,8.8c4.4,2.6,9,5.2,13.5,7.7       c9,5,17.6,9.8,25.8,14.3c16.5,9.1,35,19.3,54.8,29.9c4.9,2.6,10,5.4,15.1,7.9c2.5,1.2,5,2.3,7.7,3.3c2.6,1,5.4,1.9,8.4,3       c3,1.1,6.1,2.6,9,4.5c2.9,1.9,5.3,4.2,7.5,6.6c1.2,1.1,2.2,2.5,3.2,3.7c1,1.3,1.9,2.5,2.9,3.8c1.8,2.6,3.6,5.2,5.3,7.8       c6.8,10.5,13.1,21.3,19.4,32.1c3.1,5.4,6.2,10.8,9.3,16.2l4.8,8c1.6,2.6,3.1,5.2,4.8,7.4c1.7,2.2,3.6,4.1,5.5,5.1       c0.5,0.2,1,0.5,1.5,0.6l1.2,0.4c0.4,0.2,0.9,0.3,1.4,0.5c1.6,0.7,3.1,1.4,4.6,2.2c5.7,3.1,10.8,6.6,15.9,10.1       c5,3.5,10,7,14.9,10.4c5.1,3.6,9.7,7.3,14.3,11c4.5,3.7,9,7.4,13.4,11c2.2,1.8,4.4,3.6,6.6,5.4c2.3,1.9,4.5,4.1,6.2,6.8       c1.8,2.6,3,6,2.9,9.4c0,1.7-0.4,3.3-0.9,4.8c-0.3,0.8-0.5,1.4-0.9,2.2c-0.2,0.4-0.4,0.8-0.7,1.2c-0.3,0.4-0.6,0.8-1,1.1       c-1.5,1.4-3.4,2.2-5.1,2.4c-1.7,0.2-3.3,0.1-4.8-0.1c-2.9-0.5-5.5-1.5-7.9-2.5c-1.2-0.5-2.5-1.1-3.6-1.8       c-1.1-0.6-2.2-1.3-3.3-1.9c-2.1-1.3-4.2-2.6-6.2-3.9c-4-2.6-7.9-5.1-11.7-7.4c-3.7-2.3-7.6-4.3-11.2-6.3       c-3.7-1.9-7.2-3.8-10.5-5.6c-6.7-3.5-12.8-6.7-18.2-9.3c-2.7-1.3-5.2-2.5-7.6-3.3c-2.4-0.9-4.6-1.8-6.6-2.6       c-2-0.8-3.7-1.4-5.3-1.9c-1.5-0.5-2.9-0.8-3.8-0.7c-0.8,0-0.5,1-0.3,1.5c0.2,0.5,0.3,0.8,0.2,0.9c-0.1,0-0.3-0.1-0.7-0.6       c-0.2-0.3-0.4-0.6-0.5-1.1c-0.1-0.2-0.1-0.6,0.1-0.9c0.2-0.3,0.6-0.6,0.9-0.6c1.3-0.4,2.7-0.1,4.4,0.2c1.6,0.3,3.5,0.8,5.5,1.4       c2,0.6,4.3,1.3,6.7,2.1c2.5,0.7,5.2,1.8,8,3c5.6,2.4,11.8,5.3,18.7,8.6c3.4,1.7,7,3.4,10.8,5.2c3.7,1.9,7.7,3.7,11.6,6       c3.9,2.3,7.9,4.7,12,7.1c4.1,2.4,8.3,5.1,12.6,6.8c2.2,0.9,4.5,1.6,6.7,2c2.2,0.3,4.2,0,4.9-0.8c0.1-0.1,0.2-0.3,0.3-0.4       c0.1-0.1,0.2-0.3,0.3-0.5c0.2-0.3,0.4-1,0.6-1.5c0.3-1,0.5-2.1,0.5-3.1c0-2-0.7-4-2-5.9c-1.3-1.9-3.1-3.7-5.2-5.3       c-2.2-1.7-4.4-3.4-6.6-5.2c-4.5-3.5-9-7.1-13.6-10.7c-4.6-3.6-9.3-7.2-14.1-10.5c-5-3.3-10-6.7-15-10.1       c-5-3.3-10.2-6.7-15.3-9.4c-1.3-0.7-2.6-1.3-3.8-1.8c-0.3-0.1-0.6-0.2-0.8-0.3l-1-0.3c-1-0.3-1.9-0.7-2.8-1.1       c-3.6-1.8-6.2-4.5-8.3-7.2c-2.1-2.7-3.8-5.5-5.5-8.1l-4.9-8c-3.2-5.4-6.4-10.8-9.6-16.2c-6.4-10.7-12.8-21.4-19.5-31.5       c-1.7-2.5-3.4-5-5.1-7.4c-0.9-1.2-1.8-2.3-2.7-3.5c-0.9-1-1.7-2.1-2.8-3.1c-1.9-2-4-3.9-6.1-5.3c-2.1-1.4-4.4-2.5-7.1-3.4       c-2.6-1-5.5-1.8-8.4-2.9c-2.9-1.1-5.7-2.3-8.5-3.6c-5.4-2.6-10.4-5.3-15.5-7.9c-20-10.6-38.6-20.7-55-29.8       c-8.2-4.6-16.9-9.4-25.8-14.4c-4.5-2.6-9-5.1-13.7-7.9c-4.8-3-9.1-6-13.7-9.1c-18-12.5-36.7-26.1-55.4-40.1       c-9.4-7-18.8-14.2-28.1-21.5c-4.6-3.7-9.3-7.4-13.8-11.2c-4.6-3.8-8.9-7.6-13.4-11.3c-4.5-3.6-9-7.2-13.6-10.4       c-2.3-1.6-4.6-3.1-7-4.4c-0.6-0.3-1.2-0.6-1.8-0.9l-1.3-0.7c-0.6-0.3-1.1-0.6-1.6-0.9c-1.1-0.7-1.9-1.5-2.5-2.4       c-0.6-0.9-0.9-2.1-0.8-3.3c0.1-2.3,1.5-4.5,3.2-6.3c1.2-1.3,2.3-2.3,3.5-3.3c2.4-1.9,4.8-3.5,7.3-5.1c4.9-3,10-5.6,15-7.9       c1.3-0.6,2.4-1.2,3.6-1.8c1.1-0.6,2.3-1.1,3.4-1.8c2.3-1.3,4.5-2.6,6.8-4c4.5-2.7,8.8-5.6,13-8.4c8.4-5.7,16.5-11.3,24-16.7       c15.1-10.8,28.4-20.9,39.4-29.5c11-8.6,19.7-15.8,25.5-20.8c1.5-1.3,2.8-2.4,3.9-3.3c1.1-1,2-1.8,2.8-2.5       C363.8,364.7,364.7,364,364.8,364.1z"></path>
				</g>
				<g>
					<path class="st9" d="M539.3,781.5c0.2-0.1,1.1,0.9,3,2.6c1.9,1.7,4.7,4,8.5,6.5c3.8,2.5,8.4,5.5,13.8,8.1       c2.9,1.5,5.6,3.4,8.4,5.3c2.8,2,5.6,4.1,8.4,6.3c5.7,4.4,11.6,9.1,17.5,14.2c5.8,5.1,11.6,10.3,17.5,15.2       c2.9,2.5,5.9,4.9,8.8,7.2c1.5,1.2,2.9,2.3,4.4,3.4c1.5,1.2,3,2.5,4.4,3.8c5.5,5.3,9.6,11.9,10.5,19.1c0.4,3.5,0.1,7.6-1.9,11.3       c-0.8,1.8-2.4,3.8-4.5,5.2c-2.2,1.4-4.9,1.6-7.1,1.4c-2.3-0.3-4.4-1-6.3-1.9c-1.9-0.9-3.7-1.9-5.5-3.1c-1.7-1.2-3.4-2.4-5-3.8       c-1.5-1.3-3-2.5-4.6-3.8c-6.3-5-12.9-10.1-19.4-15.1c-3.3-2.5-6.5-4.9-9.7-7.2c-1.6-1.2-3.2-2.3-4.8-3.3c-1.6-1-3.3-2-4.9-3       c-6.6-3.8-13.4-7.3-18.5-11.9c-5-4.3-9.7-8-13.6-11.2c-7.8-6.3-12.5-10.3-12.3-10.6c0.2-0.3,5.5,3,13.7,8.8       c4.1,2.9,9,6.3,14.3,10.4c5,4.1,11.5,7.1,18.4,10.8c1.7,0.9,3.4,1.8,5.2,2.9c1.7,1.1,3.4,2.2,5.1,3.3c3.4,2.3,6.7,4.6,10,7       c6.7,4.8,13.4,9.8,19.8,14.7c1.6,1.2,3.2,2.5,4.8,3.8c1.5,1.2,3,2.3,4.6,3.3c1.5,1,3.1,1.9,4.7,2.6c1.6,0.7,3.1,1.2,4.5,1.3       c2.9,0.3,4.3-0.8,5.7-3.4c1.3-2.5,1.5-5.2,1.2-7.8c-0.6-5.2-3.9-10.9-8.7-15.6c-1.2-1.2-2.5-2.3-3.8-3.4       c-1.4-1.2-2.9-2.3-4.4-3.5c-2.9-2.4-5.9-4.9-8.8-7.4c-5.8-5.1-11.6-10.5-17.2-15.7c-5.6-5.1-11.4-10-16.9-14.6       c-2.7-2.3-5.4-4.5-8.1-6.5c-2.6-2-5.2-4-7.7-5.4c-5.5-3.1-10-6.3-13.7-9.2c-3.6-2.9-6.3-5.6-8-7.6       C539.7,783,539.1,781.6,539.3,781.5z"></path>
				</g>
				<g>
					<path class="st9" d="M459,701.8c-0.4-1.3,1.5-3.2,3.7-5.4c2.2-2.2,4.8-4.8,6.7-6.6c1.9-1.7,5-4.2,7.7-6.3       c2.7-2.1,5.1-3.9,6.3-3.2c1.2,0.6,0.7,3.9-0.9,7.4c-1.6,3.5-4.4,7.3-6.7,9.4c-2.3,2.1-6.2,4.4-9.8,5.3       C462.4,703.3,459.4,703,459,701.8z"></path>
				</g>
				<g>
					<path class="st9" d="M641.8,811.6c0.5,0,1.2,1.8,0.4,4.5c-0.4,1.3-1.1,2.8-2,4.2c-0.5,0.7-1.1,1.4-1.7,2.1       c-1,1-2.2,1.9-3.5,2.7l-2.1-1.2c-0.6-0.4-1.2-0.8-1.8-1.2c-0.8-0.5-1.6-1.1-2.3-1.7c-1.5-1.2-2.8-2.5-3.8-3.9       c-0.7-1-1.5-2.3-1.9-4c-0.4-1.8-0.2-4.1,1-5.9c0.3-0.5,0.7-0.9,1.1-1.3c0.5-0.4,1-0.7,1.5-1c0.5-0.2,1.1-0.4,1.6-0.5       c0.5-0.1,1-0.1,1.5-0.1c1.9,0,3.4,0.5,4.7,1.1c2.6,1.2,4.5,2.7,5.8,3.8C641.4,810.4,642,811.3,641.8,811.6       c-0.5,0.7-4.2-1.2-8.7-2.2c-1.1-0.2-2.2-0.3-3-0.2c-0.2,0.1-0.4,0.1-0.5,0.1c-0.1,0.1-0.2,0.1-0.3,0.2c0,0.1-0.1,0.2-0.2,0.2       c0,0.1-0.1,0.2-0.1,0.3c-0.2,0.5-0.2,1,0,1.6c0.2,0.6,0.6,1.4,1.1,2c0.6,0.9,1.6,2,2.7,3c0.6,0.5,1.1,1.1,1.8,1.6       c0.4,0.4,0.3,0.3,0.4,0.4c0,0.1,0.1,0.1,0.1,0.2c0.1,0,0.2,0,0.5-0.1c0.6-0.4,1.1-0.8,1.6-1.3c1-0.9,1.9-1.8,2.5-2.7       C640.7,813.1,641.2,811.6,641.8,811.6z"></path>
				</g>
				<g>
					<path class="st9" d="M637,876.9c0.4,0,1,2-0.2,5c-0.6,1.5-1.7,3-3.2,4.4c-0.7,0.7-1.6,1.3-2.5,1.9l-0.7,0.4l-0.4,0.2       c-0.2,0.1-0.4,0.2-0.6,0.3c-0.8,0.3-1.6,0.6-2.4,0.9c-0.8-0.5-1.8-1.1-2.6-1.6c-0.5-0.3-1-0.7-1.5-1c-1-0.7-1.9-1.4-2.8-2.2       c-1.8-1.6-3.3-3.3-4.5-5.1c-0.8-1.2-1.6-2.9-1.7-5.2c-0.1-1.1,0.2-2.4,0.6-3.5c0.6-1.1,1.2-2.1,2.3-2.9c1-0.8,2.3-1.3,3.5-1.5       c1.2-0.2,2.3-0.1,3.3,0.1c2,0.4,3.6,1.2,5.1,2C634.4,872.3,637.5,876.3,637,876.9c-0.5,0.7-4.7-2.1-10.1-4.1       c-1.3-0.5-2.7-0.8-4-0.9c-1.3-0.1-2.1,0.2-2.5,0.7c-0.1,0.1-0.2,0.3-0.3,0.4c-0.1,0.2-0.1,0.3-0.2,0.5c0,0.3-0.1,0.6,0,0.9       c0.1,0.7,0.4,1.6,1,2.4c0.7,1.2,1.9,2.6,3.3,4.1c0.7,0.7,1.5,1.4,2.2,2.1l1.2,1c0.1,0.1,0.1,0.2,0.2,0.3c0.1,0,0.2,0,0.3,0       l0.1,0l0.3-0.1l0.6-0.2c0.7-0.3,1.5-0.6,2.1-1.1c1.3-0.8,2.4-1.7,3.2-2.6C635.9,878.6,636.4,876.8,637,876.9z"></path>
				</g>
				<g>
					<path class="st9" d="M617,903.6c0.4-0.1,1.4,2,0.6,5.3c-0.4,1.6-1.2,3.4-2.3,5.1c-0.6,0.9-1.2,1.7-2,2.5       c-0.2,0.2-0.3,0.3-0.7,0.7c-0.3,0.3-0.6,0.6-1,0.9c-0.7,0.6-1.4,1.1-2.2,1.7c-0.9-0.5-1.9-1-2.8-1.6l-1.9-1.2       c-1-0.7-2.1-1.4-3-2.1c-1.9-1.5-3.7-3-5.1-4.7c-0.9-1.1-2-2.5-2.8-4.5c-0.4-1-0.7-2.2-0.5-3.6c0.1-1.4,0.8-2.8,1.6-3.8       c1.7-2,4.3-2.9,6.5-3c2.2-0.1,4.1,0.5,5.8,1.1c3.3,1.3,5.8,3.1,7.5,4.5C616.4,902.2,617.2,903.3,617,903.6       c-0.2,0.3-1.5-0.1-3.5-0.8c-1.9-0.7-4.6-1.8-7.5-2.4c-1.4-0.3-2.9-0.5-4.2-0.2c-1.2,0.2-2,0.8-2.5,1.5       c-0.2,0.3-0.2,0.5-0.2,0.8c0,0.3,0.1,0.7,0.3,1.1c0.4,0.9,1.1,1.9,1.9,2.8c1.1,1.3,2.5,2.7,4.1,4.1c0.8,0.7,1.7,1.4,2.6,2.2       l0.7,0.5l0.3,0.3c0,0,0,0,0,0.1c0,0.1,0.1,0.2,0.2,0.3c0.1,0,0.2,0,0.2,0c0.1,0,0.2,0,0.6-0.4c0.7-0.6,1.4-1.2,2-1.8       c1.2-1.2,2.1-2.4,2.8-3.6C616.2,905.6,616.4,903.7,617,903.6z"></path>
				</g>
				<g>
					<path class="st9" d="M565.3,914c0.5,0,1,1.7,0.3,4.1c-0.3,1.2-0.9,2.6-1.7,4c-0.4,0.7-0.9,1.4-1.4,2.1       c-0.2,0.3-0.8,0.9-1.2,1.4c-0.5,0.5-1,1-1.6,1.5c-1-0.3-1.9-0.6-3-0.9l-1.9-0.7c-1.2-0.4-2.3-0.9-3.4-1.5       c-2.2-1.1-4.3-2.5-5.9-4.4c-1-1.1-2-2.7-2.3-5c0-0.6,0-1.1,0-1.7c0.1-0.6,0.3-1.1,0.4-1.6c0.3-1.1,1-2.1,1.9-3       c0.9-0.8,2.1-1.4,3.2-1.6c1.1-0.2,2.1-0.3,3-0.2c1.9,0.2,3.5,0.7,4.9,1.2C562.3,910.1,565.7,913.4,565.3,914       c-0.4,0.8-4.7-1.1-9.9-2.1c-1.3-0.2-2.6-0.4-3.8-0.3c-1.2,0.1-2,0.5-2.2,0.8c-0.1,0.2-0.3,0.4-0.3,0.8c0,0.2-0.1,0.3-0.1,0.4       c0,0.1,0.1,0.2,0,0.4c0.2,0.5,0.4,1.1,1,1.7c0.9,1,2.4,2.2,4.1,3.3c0.9,0.6,1.8,1.1,2.8,1.6l0.7,0.4l0.4,0.2l0.2,0.1l0,0       c0.1,0.1,0.2,0.2,0.3,0.3c0.1,0,0.1,0,0.2-0.1c0.1-0.1,0.1,0,0.4-0.3c0.5-0.5,1.1-1,1.5-1.5c0.9-1,1.7-1.9,2.3-2.8       C564.4,915.3,564.8,914,565.3,914z"></path>
				</g>
				<g>
					<path class="st9" d="M409.3,994.5c-0.6,0-1.3-3-1.5-8c-0.2-5,0.1-11.9,0.7-19.6c1.2-15.4,3.8-33.9,6.1-46.9       c4.5-26.1,16.6-77.4,18.8-77c3,0.5-4.8,52.7-9.3,78.6c-2.3,13-5.9,31.2-8.8,46.2c-1.5,7.4-2.8,14-3.7,18.9       C410.7,991.5,410,994.5,409.3,994.5z"></path>
				</g>
				<g>
					<path class="st9" d="M433.5,843c-0.4,0-0.7-0.4-0.9-1.1l-0.5-1.3l2.3,0.8c2.1,0.7,6.5,3.4,11.4,6.4c4.9,3,10.3,6.4,14.2,9       c4.5,3.1,11.1,8,16.5,12.3c5.4,4.3,9.6,8.1,8.9,9.3c-0.7,1.1-6.1-0.6-12.5-3.5c-6.4-2.9-13.8-7-18.4-10.2       c-4-2.7-9.2-6.9-13.4-11.1c-4.3-4.2-7.6-8.4-8.3-10.8l1.8-0.6C434.2,842.7,433.8,843,433.5,843z"></path>
				</g>
				<g>
					<path class="st9" d="M566,904c0.5-1.2,2.8-1.6,5.5-1.8c2.7-0.2,5.9-0.1,8.1,0.3c4.4,0.9,13.3,3.9,13.1,6.5       c-0.2,2.7-10,3.9-14.8,3c-2.4-0.4-5.7-1.6-8.3-3.3C567.1,907.2,565.5,905.2,566,904z"></path>
				</g>
			</g>
			<g>
				<path class="st9" d="M1144.4,395.3c-0.1,1.3-7.1,1.7-15.7,0.8c-8.7-0.8-19-2.8-26.2-4.7c-7.2-1.9-17.8-5.4-26.4-8.9      c-8.6-3.5-15.3-6.9-14.9-8.2c0.4-1.3,7.8-0.1,16.8,1.7c9,1.8,19.8,4.3,26.9,6.1c7.1,1.9,17,4.8,25.1,7.3      C1138.2,391.9,1144.6,393.9,1144.4,395.3z"></path>
			</g>
			<g>
				<path class="st9" d="M456.4,395.3c0.2-1.3,13.4-0.3,30.2,0.2c8.3,0.2,17.6,0.4,26.3-0.3c4.3-0.3,8.5-1,11.8-2      c0.8-0.3,1.6-0.6,2.1-0.9c0.3-0.1,0.6-0.3,0.7-0.5l0.3-0.2l0.4-0.4c0.6-0.6,1.2-1.2,1.7-1.7c0.6-0.7,1.1-1.3,1.7-2      c4.5-5.2,9.8-12.5,15.4-20.2c5.5-7.7,11.3-15.8,16.5-23.2c10.5-14.8,19.1-26.5,20.2-25.8c1.1,0.7-5.4,13.7-14.4,29.5      c-4.5,7.9-9.7,16.5-14.9,24.5c-5.2,8.1-10.4,15.6-15.4,21.5c-0.6,0.7-1.3,1.5-1.9,2.2c-0.8,0.8-1.6,1.6-2.5,2.4L534,399      c-0.3,0.2-0.6,0.4-0.9,0.7c-0.6,0.4-1.3,0.9-1.9,1.1c-1.3,0.7-2.4,1.1-3.7,1.5c-4.8,1.4-9.5,1.8-14.2,1.9      c-9.4,0.2-18.9-0.7-27.3-1.8C469.1,400,456.2,396.6,456.4,395.3z"></path>
			</g>
			<g>
				<path class="st9" d="M475.4,182.6c0.5,0.5-0.3,1.9-2,4c-0.9,1-2,2-3.3,3.2c-1.3,1.1-2.8,2.2-4.4,3.4c-6.5,4.6-15,9-21.2,11.6      c-6.2,2.6-15.7,5.8-23.8,7.9c-8.1,2.1-14.8,3-15.2,1.8s5.4-4.5,12.9-8.2c7.4-3.7,16.4-7.8,22.4-10.3c6-2.5,14.7-5.8,21.6-8.7      c1.7-0.7,3.4-1.4,4.9-2c1.4-0.7,2.8-1.2,4-1.7C473.4,182.5,475,182.1,475.4,182.6z"></path>
			</g>
			<g>
				<path class="st9" d="M827.3,141.5c0.2,1.3-5.1,3.5-11.8,6c-6.7,2.5-15,5.3-20.9,7c-5.9,1.7-14.9,3.9-22.6,5.4      c-7.6,1.5-13.8,2.4-14.3,1.2c-0.4-1.3,5-4.4,12.2-7.7c7.1-3.2,16-6.5,22-8.2c6-1.7,14.7-3.5,22-4.3      C821.3,140,827.1,140.2,827.3,141.5z"></path>
			</g>
			<g>
				<path class="st9" d="M858.7,377.8c0.5,1.2-5.8,4.6-14.9,5.3c-4.5,0.4-9.6,0-14.4-1.2c-4.8-1.2-9.3-3.4-12.6-5.6      c-3.3-2.3-6.9-5.6-10.2-9.5c-3.3-3.8-6.2-8.1-8.5-12.2c-4.6-8.1-6.8-15.3-5.6-15.9c1.2-0.6,5.5,5.3,11.2,12      c2.9,3.4,6.1,6.9,9.4,10c3.2,3.1,6.5,5.7,9.1,7.6c2.6,1.8,6,3.7,9.8,5.1c3.8,1.4,8,2.4,11.9,2.9      C851.9,377.4,858.4,376.6,858.7,377.8z"></path>
			</g>
			<g>
				<path class="st9" d="M697.1,284.3c-2.7,0-4.8-46.9-4.8-72.8c0-25.8,2.2-77.3,4.8-77.3c2.7,0,4.8,51.5,4.8,77.3      C701.9,237.4,699.8,284.3,697.1,284.3z"></path>
			</g>
			<g>
				<path class="st9" d="M754.7,910.7c0.1,1.3-10.4,3.6-23.9,5.3c-13.5,1.7-30.1,2.8-41.8,2.9c-11.7,0.2-29.3-0.4-43.9-1.7      c-14.6-1.3-26.2-3.1-26.1-4.5c0.1-1.3,11.7-1.8,26.3-2.3c14.5-0.5,31.9-0.9,43.6-1.1c11.6-0.1,28-0.1,41.5-0.1      C744,909.2,754.6,909.4,754.7,910.7z"></path>
			</g>
		</g>
		<g>
			<path class="st9" d="M983.6,988c-0.7,0.1-1.7-2.9-3-7.7c-0.7-2.4-1.5-5.3-2.3-8.5c-0.9-3.2-1.8-6.8-2.7-10.5     c-3.8-15-8.3-33.4-11.1-46.5c-5.7-26.2-15.8-78.7-13.3-79.3c2.7-0.6,17,50.9,22.7,77.2c2.9,13.1,6.3,31.8,8.4,47.2     c0.5,3.9,0.9,7.6,1.3,10.9c0.3,3.3,0.5,6.3,0.7,8.9C984.4,984.8,984.2,987.9,983.6,988z"></path>
		</g>
		<g>
			<path class="st9" d="M941.1,695.7c-0.1,0.7-0.9,1.2-2.2,1.5c-0.7,0.2-1.4,0.3-2.3,0.4c-0.9,0.1-1.8,0.1-2.8,0.1     c-4-0.1-8.8-1.2-11.9-2.6c-3.2-1.4-7.5-4.3-10.5-7.5c-3-3.1-4.5-6.5-3.5-7.4c1-0.9,3.9,0.4,7.5,1.8c3.5,1.5,7.7,3.1,10.4,4.3     c2.7,1.2,6.5,3.1,9.7,4.8c0.8,0.4,1.6,0.9,2.3,1.3c0.7,0.4,1.3,0.8,1.8,1.2C940.6,694.3,941.2,695.1,941.1,695.7z"></path>
		</g>
	</g>
</g>
</svg>
