<?xml version="1.0" encoding="UTF-8"?>
<!-- Generator: Adobe Illustrator 27.9.0, SVG Export Plug-In . SVG Version: 6.00 Build 0)  -->
<svg xmlns="http://www.w3.org/2000/svg" xmlns:xlink="http://www.w3.org/1999/xlink" version="1.1" id="Layer_1" x="0px" y="0px" viewBox="0 0 1369.3 1072" style="enable-background:new 0 0 1369.3 1072;" xml:space="preserve">
<style type="text/css">
	.st0{fill:url(#SVGID_1_);}
	.st1{fill:url(#SVGID_00000012466691641338841510000005050492564471672197_);}
	.st2{fill:url(#SVGID_00000039844434196023085980000005049191414746652575_);}
	.st3{fill:url(#SVGID_00000155147536255048231640000016476141384690190251_);}
	.st4{fill:url(#SVGID_00000150812581852349247730000004828479673813788800_);}
	.st5{fill:url(#SVGID_00000103984983433878106380000002253399910808223117_);}
	.st6{fill:url(#SVGID_00000164487882052498976350000003725044272119785894_);}
	.st7{fill:url(#SVGID_00000144325492258660191920000015697101292741767089_);}
	.st8{fill:url(#SVGID_00000027605970864588349900000012998058612145598908_);}
	.st9{fill:#262626;}
</style>
<g>
	<g>
		<g>
			<g>
				
					<radialGradient id="SVGID_1_" cx="798.6358" cy="629.3339" r="208.4259" gradientTransform="matrix(0.8838 0 0 0.8838 79.6041 62.7077)" gradientUnits="userSpaceOnUse">
					<stop offset="0" style="stop-color:#EF4136"></stop>
					<stop offset="0" style="stop-color:#EF0F14"></stop>
					<stop offset="1" style="stop-color:#FFFFFF"></stop>
				</radialGradient>
				<path class="st0" d="M798.8,666.1c-30,0-54.4-24.4-54.4-54.4s24.4-54.4,54.4-54.4c30,0,54.4,24.4,54.4,54.4      S828.7,666.1,798.8,666.1z M798.8,574c-20.9,0-37.8,17-37.8,37.8s17,37.8,37.8,37.8c20.9,0,37.8-17,37.8-37.8      S819.6,574,798.8,574z"></path>
			</g>
			<g>
				
					<radialGradient id="SVGID_00000121247617001622528170000007062252047709693110_" cx="798.6359" cy="629.3341" r="208.4256" gradientTransform="matrix(0.8838 0 0 0.8838 79.6041 62.7077)" gradientUnits="userSpaceOnUse">
					<stop offset="0" style="stop-color:#EF4136"></stop>
					<stop offset="0" style="stop-color:#EF0F14"></stop>
					<stop offset="1" style="stop-color:#FFFFFF"></stop>
				</radialGradient>
				<path style="fill:url(#SVGID_00000121247617001622528170000007062252047709693110_);" d="M798.8,685.2      c-40.5,0-73.4-32.9-73.4-73.4c0-40.5,32.9-73.4,73.4-73.4c40.5,0,73.4,32.9,73.4,73.4C872.1,652.2,839.2,685.2,798.8,685.2z       M798.8,553.5c-32.1,0-58.3,26.1-58.3,58.3c0,32.1,26.1,58.3,58.3,58.3s58.3-26.1,58.3-58.3C857,579.7,830.9,553.5,798.8,553.5z      "></path>
			</g>
			<g>
				
					<radialGradient id="SVGID_00000003804779180032862970000005411342476153440933_" cx="798.6359" cy="629.3339" r="208.426" gradientTransform="matrix(0.8838 0 0 0.8838 79.6041 62.7077)" gradientUnits="userSpaceOnUse">
					<stop offset="0" style="stop-color:#EF4136"></stop>
					<stop offset="0" style="stop-color:#EF0F14"></stop>
					<stop offset="1" style="stop-color:#FFFFFF"></stop>
				</radialGradient>
				<path style="fill:url(#SVGID_00000003804779180032862970000005411342476153440933_);" d="M798.8,704.2      c-51,0-92.4-41.5-92.4-92.4s41.5-92.4,92.4-92.4s92.4,41.5,92.4,92.4S849.7,704.2,798.8,704.2z M798.8,533.1      c-43.4,0-78.7,35.3-78.7,78.7c0,43.4,35.3,78.7,78.7,78.7c43.4,0,78.7-35.3,78.7-78.7C877.5,568.4,842.1,533.1,798.8,533.1z"></path>
			</g>
			<g>
				
					<radialGradient id="SVGID_00000058572213722016537180000015202198774257148035_" cx="798.6358" cy="629.3339" r="208.4253" gradientTransform="matrix(0.8838 0 0 0.8838 79.6041 62.7077)" gradientUnits="userSpaceOnUse">
					<stop offset="0" style="stop-color:#EF4136"></stop>
					<stop offset="0" style="stop-color:#EF0F14"></stop>
					<stop offset="1" style="stop-color:#FFFFFF"></stop>
				</radialGradient>
				<path style="fill:url(#SVGID_00000058572213722016537180000015202198774257148035_);" d="M798.8,723.2      c-61.4,0-111.4-50-111.4-111.4s50-111.4,111.4-111.4c61.4,0,111.4,50,111.4,111.4S860.2,723.2,798.8,723.2z M798.8,512.6      c-54.7,0-99.1,44.5-99.1,99.1c0,54.7,44.5,99.1,99.1,99.1c54.7,0,99.1-44.5,99.1-99.1C897.9,557.1,853.4,512.6,798.8,512.6z"></path>
			</g>
			<g>
				
					<radialGradient id="SVGID_00000143602117055676899690000013481490713807098775_" cx="798.6363" cy="629.334" r="208.4256" gradientTransform="matrix(0.8838 0 0 0.8838 79.6041 62.7077)" gradientUnits="userSpaceOnUse">
					<stop offset="0" style="stop-color:#EF4136"></stop>
					<stop offset="0" style="stop-color:#EF0F14"></stop>
					<stop offset="1" style="stop-color:#FFFFFF"></stop>
				</radialGradient>
				<path style="fill:url(#SVGID_00000143602117055676899690000013481490713807098775_);" d="M798.8,742.2      c-71.9,0-130.4-58.5-130.4-130.4s58.5-130.4,130.4-130.4s130.4,58.5,130.4,130.4S870.7,742.2,798.8,742.2z M798.8,492.2      c-65.9,0-119.6,53.6-119.6,119.6c0,65.9,53.6,119.6,119.6,119.6c65.9,0,119.6-53.6,119.6-119.6      C918.3,545.8,864.7,492.2,798.8,492.2z"></path>
			</g>
			<g>
				
					<radialGradient id="SVGID_00000173872844289237731770000003006248139578466437_" cx="798.6359" cy="629.3339" r="208.4248" gradientTransform="matrix(0.8838 0 0 0.8838 79.6041 62.7077)" gradientUnits="userSpaceOnUse">
					<stop offset="0" style="stop-color:#EF4136"></stop>
					<stop offset="0" style="stop-color:#EF0F14"></stop>
					<stop offset="1" style="stop-color:#FFFFFF"></stop>
				</radialGradient>
				<path style="fill:url(#SVGID_00000173872844289237731770000003006248139578466437_);" d="M798.8,761.2      c-82.4,0-149.5-67.1-149.5-149.5s67.1-149.5,149.5-149.5s149.5,67.1,149.5,149.5S881.2,761.2,798.8,761.2z M798.8,471.8      c-77.2,0-140,62.8-140,140s62.8,140,140,140c77.2,0,140-62.8,140-140S876,471.8,798.8,471.8z"></path>
			</g>
			<g>
				
					<radialGradient id="SVGID_00000042017555834548140280000015147270249773386398_" cx="798.6358" cy="629.3338" r="208.4256" gradientTransform="matrix(0.8838 0 0 0.8838 79.6041 62.7077)" gradientUnits="userSpaceOnUse">
					<stop offset="0" style="stop-color:#EF4136"></stop>
					<stop offset="0" style="stop-color:#EF0F14"></stop>
					<stop offset="1" style="stop-color:#FFFFFF"></stop>
				</radialGradient>
				<path style="fill:url(#SVGID_00000042017555834548140280000015147270249773386398_);" d="M798.8,780.3      c-92.9,0-168.5-75.6-168.5-168.5s75.6-168.5,168.5-168.5c92.9,0,168.5,75.6,168.5,168.5S891.7,780.3,798.8,780.3z M798.8,451.3      c-88.5,0-160.5,72-160.5,160.5s72,160.5,160.5,160.5s160.5-72,160.5-160.5S887.2,451.3,798.8,451.3z"></path>
			</g>
			<g>
				
					<radialGradient id="SVGID_00000084494720439063864970000003546963252914301367_" cx="798.6365" cy="629.3339" r="208.4253" gradientTransform="matrix(0.8838 0 0 0.8838 79.6041 62.7077)" gradientUnits="userSpaceOnUse">
					<stop offset="0" style="stop-color:#EF4136"></stop>
					<stop offset="0" style="stop-color:#EF0F14"></stop>
					<stop offset="1" style="stop-color:#FFFFFF"></stop>
				</radialGradient>
				<path style="fill:url(#SVGID_00000084494720439063864970000003546963252914301367_);" d="M798.8,799.3      c-103.4,0-187.5-84.1-187.5-187.5s84.1-187.5,187.5-187.5s187.5,84.1,187.5,187.5S902.2,799.3,798.8,799.3z M798.8,430.9      c-99.7,0-180.9,81.1-180.9,180.9S699,792.7,798.8,792.7c99.7,0,180.9-81.1,180.9-180.9S898.5,430.9,798.8,430.9z"></path>
			</g>
		</g>
		<g>
			
				<radialGradient id="SVGID_00000132073753322304511010000012701920507443345579_" cx="798.6357" cy="629.334" r="208.4268" gradientTransform="matrix(0.8838 0 0 0.8838 79.6041 62.7077)" gradientUnits="userSpaceOnUse">
				<stop offset="0" style="stop-color:#EF4136"></stop>
				<stop offset="0" style="stop-color:#EF0F14"></stop>
				<stop offset="1" style="stop-color:#FFFFFF"></stop>
			</radialGradient>
			<circle style="fill:url(#SVGID_00000132073753322304511010000012701920507443345579_);" cx="798.8" cy="611.8" r="32.4"></circle>
		</g>
	</g>
	<g>
		<g>
			<g>
				<g>
					<path class="st9" d="M805,625.1c0.1,0-0.1,1.1-1.7,2.2c-1.6,1-4.2,1.7-7.6,1.7c-6.7,0.1-16-1.9-27.2-5.4       c-5.6-1.8-11.6-4-18-6.6c-6.4-2.7-13.1-5.5-20.1-9.6c-13.1-7.6-28.3-15.4-44.3-23.6c-16-8.2-32.9-16.6-50.3-25.1       c-17.3-8.7-34.8-17.7-51.8-26.9c-17-9.2-33.7-18.6-49.3-28c-7.8-4.8-15.3-9.5-22.4-14.6c-1.8-1.2-3.5-2.6-5.3-4       c-1.7-1.3-3.5-2.9-5.2-4.5l-1.3-1.2l-1-1c-0.7-0.6-1.3-1.3-1.9-1.9c-1.3-1.2-2.6-2.3-4-3.3c-5.4-4-11.7-6.1-19.6-6.2       c-3.9-0.1-8.2,0.2-12.7,0.5c-2.2,0.2-4.6,0.3-6.8,0.5c-2.2,0.2-4.4,0.4-6.7,0.7c-18.5,2.1-38.2,4.5-58.4,7       c-40.4,4.9-82.7,10-121.1,14.6c-38.4,4.6-73.1,8.5-98.1,11.1s-40.5,3.9-40.6,3c-0.1-0.8,15.1-3.7,39.9-7.8       c24.8-4.1,59.3-9.3,97.6-15c38.3-5.6,80.5-11.7,120.8-17.2c20.2-2.8,39.8-5.4,58.4-7.7c2.3-0.3,4.8-0.5,7.1-0.8       c2.4-0.3,4.5-0.4,6.8-0.6c4.5-0.3,9.1-0.7,13.8-0.6c4.7,0.1,9.6,0.6,14.2,2.1c4.6,1.4,8.8,3.7,12.4,6.3       c1.8,1.3,3.5,2.7,5.1,4.2c0.8,0.7,1.6,1.5,2.3,2.3l1.2,1.2l1,0.9c1.3,1.2,2.5,2.4,4.2,3.6c1.6,1.2,3.1,2.5,4.8,3.6       c6.6,4.8,14,9.5,21.6,14.2c15.2,9.4,31.7,18.9,48.4,28.3c16.8,9.4,34,18.8,51,27.8c17.1,8.9,33.9,17.8,49.7,26.5       c15.8,8.8,30.7,17,43.9,25.4c6.1,4,12.7,7.2,18.8,10.1c6.1,2.9,11.9,5.3,17.2,7.4c10.6,4.1,19.5,6.8,25.7,7.4       c3.1,0.3,5.4,0.2,6.9-0.3C804.2,625.7,804.7,625,805,625.1z"></path>
				</g>
			</g>
			<g>
				<g>
					<path class="st9" d="M814.2,622.7c0.2,0.1,0.1,0.5-0.3,1.3c-0.4,0.8-1.4,1.7-2.8,2.3c-2.9,1.2-7.1,1.2-11.4,0.3       c-4.4-0.9-8.9-2.4-13.3-4.6c-2.1-1-4.8-3-6-5.8c-1.2-2.8-1-5.7-0.3-7.9c0.2-0.6,0.4-1.1,0.6-1.7c0.1-0.2,0.3-0.7,0.6-1.1       l0.7-0.8c0.8-0.9,1.7-1.9,3-2.7c1.4-0.9,3.2-1.3,4.8-1.3c1.6,0,3,0.4,4.3,0.8c2.6,0.9,4.8,2.2,6.9,3.3c2.1,1.2,4.3,2.4,6.2,3.7       c3.9,2.6,7.4,5.6,8.4,9.2c0.3,0.8,0.2,1.7,0.2,2.4c-0.2,0.7-0.3,1.2-0.6,1.6C814.7,622.5,814.4,622.8,814.2,622.7       c-0.5-0.2,0.6-2-0.7-4.2c-1.2-2.1-4.4-4.3-8.3-6.3c-2-1-4.1-1.9-6.3-2.9c-2.2-1-4.4-1.9-6.3-2.5c-1-0.2-1.9-0.4-2.6-0.3       c-0.7,0-1.2,0.2-1.6,0.5c-0.5,0.3-1,0.9-1.6,1.6l-0.3,0.4c0,0,0,0-0.1,0.2c-0.1,0.3-0.3,0.6-0.4,0.9c-0.8,2.7-0.4,4.9,3.2,7       c3.6,2.2,7.8,4.1,11.6,5.3c3.8,1.3,7.3,1.9,9.7,1.6C812.7,623.8,813.7,622.4,814.2,622.7z"></path>
				</g>
			</g>
			<g>
				<g>
					<path class="st9" d="M894.3,622.3c0.2,0.1-0.1,0.6-0.7,1.5c-0.7,0.8-2,1.7-3.9,2.3c-3.7,1-9,0.6-14.4-0.9       c-5.5-1.5-11.2-3.8-16.5-6.9c-2.7-1.5-5.9-4.3-6.7-7.9c-1-3.6-0.2-6.9,0.9-9.4c0.3-0.6,0.6-1.3,1-1.9c0.1-0.2,0.5-0.9,0.9-1.3       l1-0.9c1.1-1,2.5-1.9,4.2-2.6c1.7-0.7,3.6-1.1,5.4-1c1.8,0,3.6,0.4,5.3,0.9c3.3,1,6.3,2.7,9,4.3c2.7,1.7,5.3,3.4,7.7,5.3       c4.7,3.8,8.7,8.1,9.4,12.6c0.4,2.2-0.4,4-1,4.9C895,622,894.5,622.4,894.3,622.3c-0.2-0.1,0-0.8,0.3-1.7c0.1-1,0.5-2.3-0.2-3.8       c-1.1-3.1-4.9-6.6-9.6-9.6c-2.4-1.5-5-3-7.6-4.4c-2.7-1.4-5.4-2.6-8-3.3c-2.6-0.7-5-0.6-6.8,0.2c-0.9,0.4-1.8,1-2.6,1.8       l-0.4,0.4c0,0,0.1-0.1-0.1,0.2c-0.2,0.4-0.5,0.9-0.6,1.3c-0.7,1.7-1.2,3.8-0.7,5.5c0.4,1.8,1.7,3.2,4,4.7       c4.6,3,9.9,5.7,14.8,7.5c4.9,1.9,9.5,2.9,12.6,2.7C892.5,623.5,893.9,621.9,894.3,622.3z"></path>
				</g>
			</g>
			<g>
				<g>
					<path class="st9" d="M929.1,603.2c0.2,0.1-0.1,0.6-0.7,1.5c-0.7,0.8-2,1.7-3.9,2.3c-3.7,1-9,0.6-14.4-0.9       c-5.5-1.5-11.2-3.8-16.5-6.9c-2.7-1.5-5.9-4.3-6.7-7.9c-1-3.6-0.2-6.9,0.9-9.4c0.3-0.6,0.6-1.3,1-1.9c0.1-0.2,0.5-0.9,0.9-1.3       l1-0.9c1.1-1,2.5-1.9,4.2-2.6c1.7-0.7,3.6-1.1,5.4-1c1.8,0,3.6,0.4,5.3,0.9c3.3,1,6.3,2.7,9,4.3c2.7,1.7,5.3,3.4,7.7,5.3       c4.7,3.8,8.7,8.1,9.4,12.6c0.4,2.2-0.4,4-1,4.9C929.7,603,929.3,603.3,929.1,603.2c-0.2-0.1,0-0.8,0.3-1.7       c0.1-1,0.5-2.3-0.2-3.8c-1.1-3.1-4.9-6.6-9.6-9.6c-2.4-1.5-5-3-7.6-4.4c-2.7-1.4-5.4-2.6-8-3.3c-2.6-0.7-4.9-0.6-6.8,0.2       c-0.9,0.4-1.8,1-2.6,1.8l-0.4,0.4c0,0,0.1-0.1-0.1,0.2c-0.2,0.4-0.5,0.9-0.6,1.3c-0.7,1.7-1.2,3.8-0.7,5.5       c0.4,1.8,1.7,3.2,4,4.7c4.6,3,9.9,5.7,14.8,7.5c4.9,1.9,9.5,2.9,12.6,2.7C927.2,604.5,928.7,602.9,929.1,603.2z"></path>
				</g>
			</g>
			<g>
				<g>
					<path class="st9" d="M924.6,557.8c0.2,0.1-0.1,0.6-0.8,1.4c-0.7,0.8-2.2,1.5-4,2c-3.8,0.7-8.9-0.1-14.1-2.1       c-5.2-1.9-10.7-4.7-15.7-8.1c-1.2-0.9-2.6-1.9-3.7-3.3c-1.2-1.3-2-3-2.5-4.8c-0.9-3.6,0-6.9,1.2-9.4c0.3-0.6,0.6-1.2,1-1.9       c0.2-0.3,0.4-0.6,0.6-0.9c0.3-0.3,0.7-1,1.2-1.3c1.3-1,2.6-1.8,4.4-2.4c1.8-0.6,3.8-0.7,5.6-0.4c1.8,0.3,3.5,0.9,5,1.6       c3,1.4,5.7,3.3,8.2,5.1c2.5,1.9,4.9,3.8,7.1,5.8c4.3,4,8,8.3,8.9,12.6c0.4,2.2-0.2,4-0.9,4.9       C925.2,557.6,924.7,557.9,924.6,557.8c-0.2-0.1,0-0.7,0.4-1.6c0.2-0.9,0.3-2.2-0.3-3.7c-1.2-3.1-4.9-6.6-9.3-10       c-2.2-1.7-4.7-3.4-7.2-4.9c-2.6-1.6-5.1-3.1-7.6-4.1c-2.5-1-4.8-1.4-6.4-0.7c-0.8,0.3-1.8,0.9-2.6,1.5       c-0.2,0.2-0.3,0.5-0.5,0.7c-0.3,0.4-0.5,0.8-0.7,1.3c-0.8,1.7-1.2,3.6-0.9,5.3c0.4,1.8,1.6,3.2,3.8,4.9c4.3,3.3,9.3,6.4,14,8.7       c4.6,2.3,9.1,3.6,12.2,3.7C922.6,558.9,924.2,557.5,924.6,557.8z"></path>
				</g>
			</g>
			<g>
				<g>
					<path class="st9" d="M918.9,542.8c-0.3-0.1,0-1-0.8-2.6c-0.8-1.6-2.6-3.6-5.2-6c-5.3-4.8-13.8-10.8-24.7-17.9       c-2.7-1.7-5.6-3.6-8.6-5.5c-1.5-1-3.1-2-4.6-3c-1.6-1.1-3.2-2.3-4.7-3.4c-6.2-4.6-12.7-9.7-19.7-15       c-13.8-10.6-29-22.5-45.1-34.7c-8.1-6.1-16.5-12.4-25-18.1c-9.2-6.2-17.6-12.8-26.4-19.3c-17.4-13-35.2-26-53.5-37.6       c-18.2-11.6-36.8-22-55.2-29.2c-2.3-1-4.6-1.6-6.9-2.4c-2.3-0.7-4.6-1.6-6.8-2.2c-4.6-1-8.9-2.2-13.8-3       c-9.5-1.7-18.6-3.5-27.2-5.3c-8.7-1.8-17.8-4-27.4-6.5c-9.4-2.6-19.3-5.3-29.4-8.1c-5.1-1.4-10.2-2.7-15.4-4.1       c-2.6-0.7-5.2-1.2-7.8-1.7c-2.6-0.5-5.1-1.1-7.9-1.5c-5.4-0.8-10.9-1.7-16.5-2.4c-5.6-0.7-11.2-1.4-16.9-2.2       c-45.5-5.4-93.4-10.1-137-14.3c-43.5-4.2-82.7-8.1-111-10.8c-14.1-1.4-25.6-2.7-33.4-3.7c-7.9-1-12.2-1.7-12.2-2.1       c0-0.4,4.4-0.5,12.4-0.3c7.9,0.2,19.4,0.7,33.6,1.4c28.4,1.4,67.7,3.8,111.4,7c43.7,3.2,91.7,6.9,137.5,11.7       c5.7,0.7,11.4,1.3,17.1,2c5.7,0.7,11.3,1.5,16.9,2.3c2.8,0.3,5.6,1,8.4,1.5c2.8,0.5,5.7,1,8.2,1.7c5.3,1.3,10.5,2.6,15.7,4       c10.2,2.7,20,5.4,29.4,7.9c9.3,2.4,18.3,4.5,26.8,6.3c8.5,1.8,17.5,3.6,26.9,5.3c4.6,0.7,9.8,2.2,14.8,3.3       c2.5,0.6,4.9,1.6,7.4,2.4c2.5,0.9,5,1.6,7.4,2.7c19.6,7.8,38.5,18.8,57,30.9c18.5,12.1,36.2,25.6,53.5,39       c8.6,6.7,17.1,13.6,25.4,19.5c9,6.3,17.1,12.8,25.1,19.1c15.9,12.7,30.7,25.1,44.1,36.2c6.7,5.6,13,10.8,18.9,15.7       c1.5,1.2,2.9,2.4,4.3,3.4c1.5,1.1,3,2.1,4.4,3.1c2.9,2.1,5.7,4.1,8.4,6c10.6,7.7,18.8,14.5,23.8,20.1c2.5,2.8,4.1,5.3,4.6,7.3       C919.8,541.8,919,542.9,918.9,542.8z"></path>
				</g>
			</g>
			<g>
				<g>
					<path class="st9" d="M923.9,588.7c-0.5-0.1-0.5-1.2-1-2.8c-0.6-1.6-2-3.5-4.5-5.4c-2.5-2-5.9-3.9-9.9-6.1       c-4.1-2.2-8.5-4.7-13.2-7.2c-9.4-5.2-19.8-11.3-29.6-17.5c-4.9-3.1-9.7-6.3-14.2-9.6c-2.3-1.6-4.4-3.3-6.5-5.1       c-1.9-1.6-3.7-3.2-5.5-4.6c-6.9-5.7-16.1-12.6-25.9-19.5c-2.4-1.7-4.9-3.5-7.4-5.1l-3.7-2.4l-3.8-2.6       c-5.1-3.5-10.1-7-14.9-10.2c-19.1-13.3-34-24.4-33.1-25.9c0.9-1.4,17.4,7.1,37.5,18.4c5,2.9,10.3,5.9,15.6,8.9l4,2.3       c1.5,0.8,2.8,1.6,4.2,2.4c2.7,1.6,5.4,3.2,8,4.9c10.4,6.6,20,13.4,27.4,19.5c0.9,0.8,1.9,1.5,2.8,2.4c0.9,0.8,1.8,1.6,2.8,2.4       c1.7,1.5,3.7,3.1,5.8,4.7c4.1,3.2,8.7,6.5,13.3,9.8c9.3,6.6,19.1,13.4,27.9,19.5c4.4,3,8.6,6.1,12.3,8.8       c3.8,2.7,7.2,5.5,9.6,8.5c2.4,2.9,3.7,6.2,3.5,8.5c-0.1,1.1-0.3,2-0.7,2.5C924.4,588.6,924.2,588.8,923.9,588.7z"></path>
				</g>
			</g>
			<g>
				<g>
					<path class="st9" d="M892.1,610.6c-0.4-0.2-0.5-1.1-1.2-2.4c-0.7-1.3-2.2-3.3-4.4-4.7c-0.3-0.2-0.6-0.3-0.8-0.5       c-0.3-0.1-0.7-0.3-1-0.4c-0.8-0.3-1.6-0.7-2.5-1.1c-1.7-0.8-3.6-1.6-5.5-2.5c-3.9-1.8-8.2-3.8-12.6-5.9       c-4.5-2.2-9.2-4.5-14-6.8c-2.4-1.2-4.8-2.4-7.2-3.6c-2.4-1.2-4.7-2.3-7.4-3.9c-9.5-5.6-18-11.4-25.1-16.3       c-7.1-4.9-15.8-11.3-24.7-18.1c-4.5-3.4-9.1-6.9-13.6-10.5c-4.5-3.5-8.9-7.3-12.9-10.3c-8.4-6.2-16.5-11.5-22.2-15.6       c-5.7-4-9.1-6.8-8.7-7.5c0.4-0.7,4.6,0.6,11,3.4c6.4,2.8,15.2,7,24.6,12.5c4.9,2.9,9.3,6.2,14.1,9.3c4.7,3.2,9.5,6.4,14.1,9.5       c9.3,6.3,18.1,12.3,25.2,17.2c7,4.9,15.4,11,24,16.8c1.9,1.2,4.3,2.6,6.6,4c2.3,1.4,4.6,2.8,6.9,4.2c4.6,2.8,9,5.5,13.3,8.2       c4.2,2.6,8.2,5.2,11.8,7.5c1.8,1.2,3.5,2.3,5.1,3.4c0.8,0.5,1.5,1,2.3,1.5c0.3,0.2,0.8,0.6,1.2,0.9c0.4,0.3,0.8,0.7,1.1,1       c2.6,2.8,3.6,5.6,3.7,7.7C893.3,609.7,892.4,610.8,892.1,610.6z"></path>
				</g>
			</g>
			<g>
				<g>
					<path class="st9" d="M915.8,605.4c0.5,0.3,0.7,1.4-0.4,2.6c-1,1.2-2.8,2-4.7,2.4c-3.7,0.8-7.8,0.4-10.5-0.3       c-5.6-1.3-15-7.2-13.9-9.6c1-2.3,11.4-0.4,16.3,0.7c2.4,0.6,5.7,1.9,8.2,2.7c1,0.3,2,0.6,3,1       C914.5,605.2,915.3,605.1,915.8,605.4z"></path>
				</g>
			</g>
			<g>
				<g>
					<path class="st9" d="M886.3,625.1c0.2,0.1,0.3,0.4,0.2,1c-0.1,0.3-0.1,0.7-0.3,1.1c-0.2,0.4-0.5,0.8-0.9,1.2       c-1.7,1.7-4.9,2.8-8.5,3.1c-3.7,0.3-8-0.1-12.7-1c-2.4-0.5-4.8-1-7.4-2c-2.4-0.9-4.8-1.9-7.4-2.8c-19.9-8-43.6-18.1-60.4-26.8       c-8.5-4.7-18-10.8-28.2-17.5c-10.1-6.6-20.6-13.7-30-20.3c-19-12.6-34.2-23-33.3-24.5c0.8-1.4,17.5,6.3,37.9,17.2       c10,5.6,20.9,12,31.3,18c10.4,6,20.4,12,28,16.3c16,8.3,39.4,19.9,58.2,29.7c2.3,1.2,4.6,2.4,6.8,3.5c1.9,1,4.2,1.8,6.2,2.5       c4.1,1.4,7.9,2.4,11.1,2.9c3.1,0.5,5.6,0.3,7-0.3c0.3-0.2,0.6-0.3,0.9-0.5c0.3-0.1,0.5-0.4,0.7-0.5       C885.8,625.2,886.1,625.1,886.3,625.1z"></path>
				</g>
			</g>
			<g>
				<g>
					<path class="st9" d="M795.8,595.6c0.7-1.5,3.3-2,6.2-1.5c3,0.5,6.3,2.3,8.2,4.3c1.9,1.9,3.9,5.8,4,9.4c0.3,3.6-1.3,6.4-3,6.3       c-1.7-0.1-3.3-1.7-5.1-3.2c-1.8-1.5-3.7-3-4.9-4.2c-1.1-1.2-2.5-3.3-3.9-5.4C796.2,599.3,795.1,597.2,795.8,595.6z"></path>
				</g>
			</g>
			<g>
				<g>
					<path class="st9" d="M1221.1,489.9c-0.1-0.4,1.5-1.1,3.9-3c2.4-1.9,6.1-5,8.4-9.8c1.1-2.4,1.7-5.2,1.3-8.1       c-0.2-1.5-0.7-2.9-1.4-4.3c-0.4-0.8-0.6-1.1-1-1.5c-0.3-0.3-0.6-0.8-1.2-0.9c-0.5,0.1-1,0.2-1.5,0.3c-1,0.2-2.1,0.3-3.2,0.5       c-2.2,0.3-4.4,0.6-6.6,0.8l-0.9,0.1l-1,0c-0.7,0-1.4,0-2.2-0.1c-1.5-0.2-3.5-0.7-5.1-2.1c-0.5-0.4-0.6-0.6-0.9-1l-0.2-0.3       c-0.1-0.2-0.2-0.4-0.4-0.5c-0.4-0.3-0.9-0.1-1.3,0c-5.5,1.8-11.3,3.6-17.3,5.5c-3.2,1-6.4,2-9.7,2.9c-1.6,0.5-3.3,0.9-5,1.4       c-1.7,0.4-3.3,0.8-5,1.2c-6.4,1.6-13,3.9-19.6,6c-6.7,2.2-13.4,4.5-20.1,6.7c-3.4,1.1-6.7,2.2-10,3.3c-3.4,1.1-6.9,2.1-10.4,3       c-7,1.8-14.1,2.9-21,3.5c-13.9,1.1-26.8,0.2-38.1-0.9c-20.3-2.1-45.1-6.2-71-10.8c-12.9-2.3-26.2-4.6-39.3-6.9       c-13.1-2.2-26-4.4-38.2-5.7c-25-2.2-47.4-5.5-63.4-8c-16.1-2.6-25.9-4.6-25.8-5.4c0.1-0.8,10.1-0.4,26.4,0.7       c16.3,1,38.6,3,63.6,4.1c12.7,0.8,25.8,2.5,39.1,4.3c13.2,1.8,26.5,3.9,39.5,5.8c26,3.9,50.7,7.7,70.4,9.7       c11,1.1,23.3,2.1,36,1.2c6.3-0.4,12.8-1.3,19.2-2.8c3.2-0.7,6.5-1.6,9.7-2.6c3.3-1,6.7-2,10.1-3c6.8-2,13.6-4.1,20.3-6.1       c6.8-2,13.5-4,20.6-5.5c1.7-0.3,3.4-0.7,5-1c1.6-0.3,3.2-0.7,4.8-1.1c3.2-0.8,6.5-1.6,9.6-2.4c3.2-0.8,6.3-1.7,9.4-2.5       c1.5-0.4,3.1-0.8,4.6-1.2c1.8-0.5,3.7-0.9,5.5-1.4c1.9-0.3,3.8-0.4,5.3,0.7c0.7,0.5,1.3,1.2,1.8,2c0.3,0.4,0.5,0.8,0.7,1.2       c0.1,0.1,0.2,0.4,0.2,0.3c0.1,0.1,0.4,0.3,1.1,0.5c0.4,0,0.7,0.1,1.2,0.1l0.7,0l0.8,0c2.2-0.1,4.3-0.2,6.3-0.3       c1-0.1,2-0.2,3.1-0.3c1.5-0.2,3.1-0.4,4.4-0.1c1.4,0.4,2.4,1.5,3.2,2.7c0.8,1.1,1.6,2.5,1.9,3.4c0.9,2,1.3,4.2,1.4,6.2       c0.2,4.1-1,7.8-2.8,10.6c-3.6,5.6-8,8.1-11,9.6C1223.1,490.2,1221.1,490.3,1221.1,489.9z"></path>
				</g>
			</g>
			<g>
				<g>
					<path class="st9" d="M1233.5,459.9c-0.8,0.3-2.1-1.7-3.7-3.7c-1-1.2-1.1-0.8-1.3-0.7c-0.1,0,0.1,0-0.1,0.1l-0.5,0.1       c-0.3,0.1-0.7,0.2-1,0.2c-0.7,0.1-1.3,0.3-1.9,0.4c-4.6,0.8-14.2,1.2-14.5-0.5c-0.3-1.7,8.8-4.8,13.5-5.6       c0.6-0.1,1.3-0.2,2-0.3c0.4,0,0.7-0.1,1.1-0.1c0.5,0,1-0.1,1.6-0.1c1.4-0.1,2.7,0.6,3.6,1.7c0.9,1.2,1.2,2,1.4,2.8       C1234.6,457.3,1234.3,459.6,1233.5,459.9z"></path>
				</g>
			</g>
			<g>
				<g>
					<path class="st9" d="M1196.5,459.3c-0.4-0.2-0.3-1.1-0.5-2.5c-0.1-1.4-0.6-3.2-1.5-5.1c-0.4-0.9-1-1.6-1.6-2       c-0.6-0.4-1-0.4-1.5-0.3c-0.2,0.1-0.5,0.2-0.6,0.3c-0.1,0.1,0,0-0.1,0.2l-0.7,0.6c-0.9,0.8-1.7,1.6-2.5,2.3       c-6.2,5.6-19.5,15.6-20.6,14.3c-1.1-1.3,10.2-13.2,16.3-18.7c0.8-0.7,1.6-1.4,2.5-2.2l0.7-0.6c0.3-0.3,0.9-0.8,1.3-1       c1-0.5,2-0.8,3-0.9c2.1-0.2,4.3,0.8,5.6,2.2c1.3,1.4,1.9,3,2.2,4.4c0.6,2.7,0.4,5.2-0.2,6.9       C1197.7,458.8,1196.8,459.5,1196.5,459.3z"></path>
				</g>
			</g>
			<g>
				<g>
					<path class="st9" d="M1208.9,455.8c-0.8,0.3-2-0.6-3.3-1.3c-1.3-0.8-2.8-1.4-3.9-1.9c-0.9-0.5-2.4-1.3-4.4-2.4       c-1.6-0.9-3.1-1.7-3-2.6c0.1-0.8,1.6-1.5,3.8-1.6c2.1-0.2,4.7,0.3,6.4,1.2c1.6,0.8,3.7,2.7,4.5,4.7       C1209.9,453.8,1209.7,455.5,1208.9,455.8z"></path>
				</g>
			</g>
			<g>
				<g>
					<path class="st9" d="M1198.8,513.3c0-0.5,2.4-0.9,6.1-2.2c3.7-1.3,8.6-3.9,11.7-8.8c0.8-1.2,1.6-2.6,1.9-3.7       c0.3-1.3,0.4-2.8,0.4-4.4c0-0.8-0.1-1.5-0.2-2.3c0-0.4-0.1-0.7-0.2-1.1c-0.1-0.4-0.1-0.3-0.1-0.4c0-0.1-0.2-0.1-0.3-0.1       l-2.3-0.4c-3.4-0.4-6.8-0.9-10-1.3l-1.2-0.1l-0.7-0.1c-0.4-0.1-0.8-0.1-1.1-0.2c-0.8-0.2-1.4-0.6-2-1.2c-0.6-0.5-1-1.2-1.3-1.6       c-0.5-0.8-0.8-1.4-1.1-1.7c-0.1-0.1,0,0,0,0c-0.4-0.1-0.7-0.1-1.1-0.2c-5.5-0.8-12.4-1.6-19.6-1.9c-3.3-0.1-7,0.4-10.7,0.9       c-3.7,0.5-7.3,1.1-10.7,1.7c-13.8,2.4-24.9,4.5-25.1,3.6c-0.2-0.8,10.5-4.4,24.2-7.9c3.4-0.9,7-1.7,10.8-2.5       c3.7-0.7,7.5-1.5,11.6-1.6c7.6-0.1,14.7,0.6,20.4,1.5c0.5,0.1,1,0.2,1.5,0.2c1.4,0.2,2.7,1.2,3.5,2.3c0.7,0.9,1,1.6,1.4,2.1       c0.2,0.3,0.2,0.3,0.2,0.3l0,0l0,0l0.5,0.1l1.2,0.2c3.2,0.5,6.6,1.1,10.1,1.7l2.8,0.6c1.6,0.3,3,1.2,3.6,2.7l0.4,1.1       c0.1,0.4,0.1,0.7,0.2,1c0.1,0.5,0.1,1,0.2,1.5c0.1,1,0.1,1.9,0,2.9c-0.1,1.9-0.3,3.7-0.9,5.7c-0.8,2.2-1.8,3.4-2.9,4.8       c-2.2,2.8-4.8,4.8-7.4,6.1c-2.6,1.3-5.1,2-7.2,2.4C1201.4,514,1198.9,513.6,1198.8,513.3z"></path>
				</g>
			</g>
			<g>
				<g>
					<path class="st9" d="M1220.7,488.7c-0.9,0-1.5-2-2.7-3.9c-0.2-0.2-0.3-0.4-0.5-0.6c-0.2-0.2-0.3-0.4-0.4-0.4       c-0.2,0-0.3,0-0.4,0.1c0,0,0,0,0,0.1c0.1,0,0.1,0,0.2,0l-0.3,0c-0.4,0-0.7,0.1-1,0.1c-0.7,0-1.3,0.1-1.9,0.1       c-4.6,0-13.7-1.4-13.7-3.1c0-1.7,8.9-3.1,13.3-3.1c0.6,0,1.2,0,1.8,0.1c0.3,0,0.7,0,1,0.1l0.3,0c0.2,0,0.5,0,0.7,0       c0.3,0,0.7,0,1,0.1c1.3,0.2,2.3,1.3,3,2.4c0.4,0.6,0.5,1,0.6,1.5c0.1,0.4,0.2,0.8,0.3,1.2       C1222.5,486.5,1221.5,488.7,1220.7,488.7z"></path>
				</g>
			</g>
			<g>
				<g>
					<path class="st9" d="M1145.3,539.9c-0.2-0.1,0.4-0.9,1.7-1.4c1.3-0.5,3.3-1,5.7-1.3c4.8-0.8,11.5-1.3,19-1.7       c3.8-0.2,7.4-0.4,10.9-1.5c3.4-1.1,6.5-3.1,8.6-5.8c1.1-1.3,1.9-2.8,2.5-4.4c0.3-0.8,0.5-1.6,0.7-2.3c0.1-0.8,0.3-1.8,0.4-2.6       c0.1-0.8,0.1-1.6,0-2.1c-0.1-0.7-0.1-0.5-0.1-0.5l0,0c0,0,0.1,0-0.2,0c-0.4,0-0.8,0-1.2,0.1c-0.5,0-1.1,0-1.6,0       c-4.2-0.4-8-2.5-11.3-5.4c-0.8-0.7-1.6-1.5-2.3-2.4l-0.9-1c-0.3-0.3-0.5-0.5-0.8-0.8c-1.2-1-2.9-1.8-4.6-2.4       c-3.6-1.2-7.7-1.7-11.8-1.7c-4,0-8.3,0.5-12.2,0.8c-15.9,1.7-28.7,3.4-28.9,2.6c-0.1-0.8,12.3-4,28.3-6.9       c7.9-1.3,17.2-2.9,26.3-0.2c2.2,0.7,4.5,1.6,6.5,3.1c0.5,0.4,1,0.8,1.5,1.3l1.1,1.2c0.6,0.6,1.2,1.2,1.8,1.8       c2.6,2.2,5.5,3.6,7.8,3.8c0.3,0,0.6,0,0.9,0c0.4,0,0.9,0,1.3-0.1c0.6-0.1,1.6,0.1,2.3,0.3c0.8,0.3,1.6,0.7,2.2,1.3       c1.3,1.2,1.8,3.2,1.9,4.3c0.1,1.3,0,2.4-0.1,3.4c-0.1,1.1-0.3,2-0.5,3c-0.3,1.2-0.6,2.3-1,3.3c-0.9,2.1-2.1,4.1-3.6,5.8       c-3,3.5-7.2,6-11.5,7c-4.3,1.2-8.6,1.1-12.3,1c-7.5-0.1-14.1-0.3-18.9-0.2c-2.4,0-4.3,0.1-5.6,0.2       C1146,539.8,1145.5,540.1,1145.3,539.9z"></path>
				</g>
			</g>
			<g>
				<g>
					<path class="st9" d="M1197.8,515.1c-0.7-0.1-1-1.5-1.7-3c-0.3-0.7-0.7-1.5-1.2-2.2c-0.2-0.3-0.5-0.6-0.7-0.9       c-0.1-0.1-0.1-0.1-0.2-0.2c0,0,0,0-0.1,0c0,0-0.1,0-0.1,0c-0.1,0,0,0.1-0.1,0.1c-0.4,0-0.7,0-1.1,0c-4-0.2-12.7-1-12.8-2.7       c-0.1-1.7,8.4-3.6,13-3.4c0.4,0,0.9,0.1,1.4,0.1c0.8,0.1,1.7,0.4,2.5,0.8c0.4,0.3,0.8,0.7,1.1,1.1c0.2,0.2,0.3,0.4,0.5,0.6       c0.1,0.2,0.2,0.3,0.3,0.5c0.4,0.7,0.6,1.4,0.8,2c0.4,1.4,0.4,2.7,0.2,3.8C1199.5,514,1198.4,515.2,1197.8,515.1z"></path>
				</g>
			</g>
			<g>
				<g>
					<path class="st9" d="M879.2,684.2c-0.6-0.4,2.7-6.2,10.4-13.7c3.9-3.7,8.7-7.9,14.4-12.2c5.7-4.3,12.2-8.7,19.2-13.1       c7-4.4,14.5-8.8,22.1-13.2c3.8-2.2,7.7-4.3,11.6-6.5c3.8-2.2,8-4.3,12.1-6.3c16.4-7.6,32.8-12.9,46.4-17       c13.7-4.1,30.8-8.5,49-12.6c4.5-1,9.1-2,13.7-3c2.3-0.5,4.5-1,6.7-1.5c2.2-0.5,4.5-1,6.6-1.7c8.8-2.4,17.2-5.4,24.9-9.1       c15.3-7.3,27.2-17.6,32.8-26.9c0.4-0.6,0.8-1.3,1.2-1.9c0.4-0.6,0.9-1.2,1.4-1.8c1-1.1,2-2,3-2.7c2-1.5,3.9-2.4,5.6-2.9       c3.2-1,5.2-0.8,5.2-0.4c0.1,0.4-1.6,1-4.2,2.6c-2.6,1.6-6,4.3-7.9,9.2c-5,11.2-17.1,23.4-33,32.3c-7.9,4.5-16.8,8.2-25.9,11.2       c-2.3,0.8-4.6,1.5-6.9,2.1c-2.3,0.6-4.7,1.3-6.9,1.9c-4.5,1.2-9,2.3-13.5,3.5c-17.8,4.6-34.7,9.3-48.1,13.3       c-13.4,4-29.5,8.9-45.3,15.6c-4,1.7-7.7,3.5-11.7,5.5c-3.9,2-7.9,4-11.8,5.9c-7.8,3.9-15.4,7.8-22.6,11.7       c-7.1,3.9-13.8,7.6-19.7,11.3c-5.9,3.6-11,7.1-15.2,10.1C884.3,680.2,879.9,684.8,879.2,684.2z"></path>
				</g>
			</g>
			<g>
				<g>
					<path class="st9" d="M735.3,701.1c-0.2,0.4-3.1-0.9-8.1-3.5c-4.9-2.9-12.1-7-19.6-14.4c-3.7-3.7-7.4-8.3-10.2-14       c-2.9-5.6-4.8-12-6.7-18.4c-1-3.2-2-6.4-3.2-9.6c-1.3-3.2-2.6-6.3-4.3-9.1c-3.5-5.6-8.9-10.1-15.4-13.5       c-13.3-6.4-29.6-9.4-46-11.4c-8.2-1.1-16.7-1.5-25.1-2.1c-4.2-0.2-8.5-0.3-12.7-0.5c-4.2-0.2-8.4-0.3-12.6-0.3       c-16.8-0.3-33.4-0.1-49.2,0.3c-7.9,0.2-15.6,0.5-23,0.7c-7.4,0.3-14.5,0.6-21.3,0.9c-6.8,0.3-14,0.6-21.6,0.8       c-7.6,0.2-15.6,0.5-23.8,0.6c-8.2,0-16.7-0.1-25.4-0.2c-8.7,0-17.5-0.6-26.5-0.9c-35.8-1.6-73.2-5.4-106.8-10.8       c-33.7-5.3-63.6-11.9-84.9-17.8c-21.3-5.8-34.1-10.7-33.8-11.5c0.3-0.8,13.4,2.5,34.9,6.9c21.5,4.4,51.5,9.7,85.1,13.9       c33.5,4.2,70.6,7.1,106.1,8.1c8.9,0.1,17.6,0.5,26.2,0.5c8.6-0.1,17-0.1,25.1-0.1c8.1-0.2,16-0.6,23.5-0.8       c7.5-0.2,14.7-0.5,21.5-0.8c6.8-0.3,14-0.6,21.4-0.9c7.5-0.2,15.2-0.3,23.1-0.5c15.9-0.2,32.6-0.2,49.7,0.4       c4.3,0.1,8.5,0.3,12.8,0.6c4.3,0.3,8.6,0.5,12.9,0.8c8.6,0.8,17.2,1.5,25.7,2.8c17,2.5,33.9,5.9,48.8,13.8       c7.3,4.1,14,9.9,18,17.1c2.1,3.5,3.4,7.3,4.6,10.7c1.1,3.5,2.1,6.9,2.9,10.2c1.7,6.6,3.1,12.6,5.4,17.8       c2.2,5.2,5.3,9.6,8.5,13.2c6.5,7.4,13.1,12.1,17.5,15.6C733.1,698.8,735.5,700.8,735.3,701.1z"></path>
				</g>
			</g>
			<g>
				<g>
					<path class="st9" d="M859.6,719.4c0.4,0.5-5,5.4-14.7,13.6c-4.8,4.1-10.8,9.1-17.6,14.7c-3.4,2.8-7,5.8-10.9,8.9       c-3.9,3.1-8.4,6.2-13.3,8.9c-5,2.7-10.4,5-16.3,6.6c-3,0.8-6,1.5-9.2,1.9c-3.2,0.4-6.3,0.6-9.4,0.7c-12.4,0.6-25.5,0.9-38.9,1       c-6.7,0-13.6,0-20.5-0.1c-3.5-0.1-6.9-0.1-10.4-0.2l-5.4-0.3c-1.8-0.1-3.6-0.4-5.5-0.6c-7.3-0.9-14.6-2.6-21.7-5.5       c-3.5-1.5-7-3.2-10.3-5.5c-3.3-2.3-6.3-4.8-9-8.6c-0.1-0.2,0,0,0,0l0,0l0,0l-1.4-1.4c-0.5-0.5-1.1-1.1-1.5-1.6l-2.9-3.3       c-1.9-2.2-3.7-4.4-5.5-6.6c-3.5-4.4-7.1-8.7-10.6-13c-6.9-8.5-14-16.7-21.2-24.1c-14.4-15-30-27-45.2-35.5       c-3.3-2-6.8-3.6-10.4-5.5c-3.7-1.6-7.4-3.5-11.4-5c-7.9-3.2-16.4-5.8-25.3-8.1c-8.9-2.3-18.4-3.6-28-4.8       c-9.7-0.8-19.7-1.5-29.8-1.1c-5.1,0-10.2,0.4-15.3,0.7c-5.1,0.3-10.4,0.7-15.6,1.1c-10.5,0.8-21,1.5-31.5,2.1       c-10.5,0.6-20.9,1.2-31.1,1.6c-10.3,0.5-20.4,0.8-30.2,1.1c-39.4,1.1-75,0.3-100.6-1.6c-25.6-1.8-41.2-4.9-41-5.8       c0.1-0.4,4-0.2,11.1,0.1c7.1,0.3,17.4,0.8,30.1,0.9c25.5,0.4,60.8-0.1,100-2.3c9.8-0.5,19.8-1.1,30-1.8       c10.2-0.6,20.5-1.5,30.9-2.3c10.4-0.8,20.9-1.8,31.3-2.7c5.2-0.5,10.4-1,15.7-1.4c5.3-0.4,10.6-0.9,15.9-0.9       c10.5-0.5,21,0,31.2,0.8c10.2,1.1,20.2,2.4,29.7,4.8c9.5,2.3,18.6,5,27,8.4c4.3,1.6,8.3,3.5,12.2,5.3c3.8,2,7.7,3.8,11.2,5.9       c16.3,9.1,32.8,22.1,47.8,37.9c7.5,7.9,14.7,16.4,21.6,25.2c3.4,4.4,6.9,8.7,10.3,13.1c1.7,2.2,3.5,4.3,5.2,6.4l2.7,3.1       l2.9,3.1l0.5,0.6l0.5,0.6c1.4,2,3.7,4.2,6.2,5.9c2.5,1.8,5.3,3.3,8.2,4.7c5.9,2.6,12.3,4.2,18.9,5.2c1.7,0.2,3.3,0.5,4.9,0.6       l5,0.4c3.4,0.2,6.9,0.3,10.3,0.5c6.8,0.3,13.6,0.5,20.3,0.7c13.3,0.3,26.3,0.4,38.5,0.2c3.1-0.1,6.1-0.1,8.8-0.4       c2.8-0.3,5.6-0.8,8.2-1.4c5.4-1.3,10.4-3.2,15.1-5.4c4.7-2.3,8.9-4.9,12.9-7.7c4-2.9,7.7-5.7,11.3-8.3       c7.1-5.2,13.3-9.7,18.5-13.4C853.1,722.9,859.2,718.9,859.6,719.4z"></path>
				</g>
			</g>
			<g>
				<g>
					<path class="st9" d="M849.9,697.6c-0.5,0-0.7-1.2-2-2.6c-1.2-1.5-3.4-3.2-6.8-4.5c-1.6-0.6-3.7-1.3-5.5-1.6       c-1.5-0.2-3.9,0.1-6.2,0.5c-4.8,0.9-10.3,2.4-16,4.1c-5.8,1.7-12,3.5-18.2,5.3c-6.3,1.8-12.8,3.5-19.7,4.6       c-13.2,2-25.8,3-36.4,3.6c-2.6,0.1-5.5,0.2-8.4,0.3c-1.5,0-3,0-4.6,0.1c-0.8,0-1.4,0.1-2.8-0.1l-1.9-0.3l-1.4-0.4       c-3.8-1.1-6.9-2.6-10.1-4.2c-3.1-1.6-6.2-3.4-9.2-5.3c-6-3.8-11.9-8-17.4-12.8c-2.7-2.4-5.4-4.9-7.8-8.1       c-1.2-1.4-2.5-3.9-3-4.7c-0.7-1.2-1.6-2.5-2.5-3.8c-7.5-10.1-15.4-18.9-20.8-25.5c-5.4-6.5-8.7-10.7-8.1-11.3       c0.6-0.6,4.9,2.4,11.4,7.9c3.3,2.8,7.1,6.1,11.2,10c4.1,3.9,8.6,8.3,13,13.5c0.6,0.6,1.1,1.3,1.7,2c0.6,0.7,1.1,1.4,1.7,2.2       c0.5,0.8,1.2,1.8,1.5,2.1c0.4,0.5,0.7,1,1.2,1.5c1.9,2.1,4.4,4.2,7,6.2c5.2,4,11,7.7,16.7,11c2.9,1.6,5.8,3.2,8.6,4.5       c2.8,1.3,5.7,2.5,7.9,3.1l0.8,0.2c0.2,0,0.3,0,0.4,0c0.1,0.1,1.1,0,1.8,0c1.5,0,2.9-0.1,4.4-0.1c2.9-0.1,5.6-0.2,8.2-0.3       c10.3-0.5,22.9-1.2,35.5-2.5c12.2-1.5,25.3-4.9,37.3-7.2c6-1.2,11.8-2.2,17.3-2.5c2.8,0,5.4-0.2,8.4,0.6c2.6,0.8,4.5,1.9,6.3,3       c3.6,2.2,6,5.2,6.8,7.6C851,696.3,850.3,697.7,849.9,697.6z"></path>
				</g>
			</g>
			<g>
				<g>
					<path class="st9" d="M852.9,697.8c-0.1,0.4-1.5,0.4-3.8,1.1c-2.2,0.6-5.3,1.8-8.7,3.3c-1.7,0.8-3.5,1.6-5.4,2.4l-2.8,1.3       c-1,0.4-1.9,0.8-2.5,1.2c-1.4,0.8-2,1.6-2.2,2.5c-0.1,0.5-0.1,1,0,1.6c0.1,0.5,0.4,1.4,0.3,1.1l0,0c0,0-0.1,0,0,0       c0.1,0,0.3,0,0.5,0c0.3,0,0.8-0.1,1.2-0.1c1.7-0.3,3.6-0.8,5.6-1.4c2-0.6,4-1.3,6-2c1-0.4,2-0.7,3-1.1c0.9-0.3,1.8-0.7,2.6-1.2       c3.3-1.7,6.1-4.1,7-5.9C854.9,699,852.7,698.3,852.9,697.8c0-0.2,0.5-0.3,1.4-0.1c0.2,0.1,0.5,0.2,0.7,0.3       c0.2,0.2,0.5,0.4,0.7,0.8c0.4,0.7,0.5,1.6,0.3,2.4c-0.7,3.3-3.5,6.3-7.1,8.9c-0.9,0.6-1.9,1.2-2.9,1.8c-1,0.5-2,1-3,1.5       c-2,0.9-4.1,1.8-6.1,2.6c-2.1,0.8-4.1,1.5-6.3,1.9c-0.6,0.1-1.1,0.2-1.7,0.3c-0.3,0-0.6,0.1-0.9,0.1c-0.4,0-1,0-1.4,0       c-1.8-0.2-3.4-1.1-4-2.5c-0.8-1.7-1-2.5-1.2-3.8c-0.2-1.2-0.1-2.5,0.2-3.9c0.4-1.4,1.1-2.7,2.1-3.8c1-1,2.2-1.8,3.3-2.3       c1.2-0.6,2.2-0.8,3.1-1.2l2.9-1c1.9-0.6,3.9-1.2,5.8-1.7c3.7-1,7.3-1.6,9.9-1.5C851.5,696.6,853.1,697.5,852.9,697.8z"></path>
				</g>
			</g>
			<g>
				<g>
					<path class="st9" d="M837.4,712.9c0.5,1.2-9.7,6.8-23,13.3c-6.7,3.3-14.1,6.7-21.4,9.9c-7.3,3.2-14.6,6.2-21,7.9       c-6.4,1.8-14.6,3.4-23.5,3.4c-8.5-0.5-17.2-1.3-25.2-2c-15.9-1.5-28.6-3.2-28.5-4.4c0.1-1.3,12.8-1.9,28.7-2       c7.9-0.1,16.7,0,24.9,0c7.8-0.4,15.3-2.1,21.2-3.7c5.9-1.6,12.9-4.2,20.4-7c7.4-2.7,15.1-5.5,22.1-8       C825.8,715.3,836.9,711.8,837.4,712.9z"></path>
				</g>
			</g>
			<g>
				<g>
					<path class="st9" d="M885.8,687.7c0,0.4-1.9,0.8-4.7,2c-2.8,1.2-6.6,3.3-10.4,6.2c-3.7,2.8-7.4,6.6-10,10.7       c-1.3,2.1-2.3,4.2-2.8,6.2c-0.3,1-0.3,1.9-0.3,2.7c0,0.4,0.1,0.8,0.1,1.1c0,0.2,0.1,0.2,0.1,0.2c0,0,0,0,0,0       c0.1,0,0.3-0.1,0.2-0.1c0,0-0.1,0,0.3-0.2c0.5-0.3,1-0.7,1.5-1c2.1-1.4,4.2-3,6.4-4.6c4.4-3.3,8.8-7,12.6-10.6       c3.7-3.6,7-7.1,8.5-9.8c0.2-0.3,0.3-0.6,0.4-0.9c0.1-0.3,0-0.5,0.3-0.3c-0.1-0.3-0.6-0.6-0.9-0.8       C886.4,688.1,885.8,687.9,885.8,687.7c0-0.2,0.5-0.5,1.6-0.5c0.5,0.1,1.3,0.1,2.1,0.9c0.5,0.8,0.4,1.3,0.4,1.8       c0,0.5-0.2,1-0.3,1.4c-1.2,3.7-4.1,7.7-7.6,11.9c-3.5,4.1-7.8,8.3-12.2,12c-2.2,1.8-4.4,3.6-6.5,5.1c-0.5,0.4-1.1,0.8-1.6,1.1       c-0.2,0.1-0.7,0.6-1.3,0.8c-0.6,0.3-1,0.4-1.5,0.5c-2.3,0.5-4.7-0.3-6-2c-0.6-0.9-1.1-1.9-1.3-2.7c-0.2-0.8-0.3-1.6-0.3-2.3       c0-1.5,0.2-3.1,0.6-4.5c0.8-2.9,2.2-5.4,3.9-7.7c3.4-4.7,7.8-8.5,12.3-11.2c4.4-2.6,8.8-4.2,12.1-4.8       C883.7,686.8,885.9,687.3,885.8,687.7z"></path>
				</g>
			</g>
			<g>
				<g>
					<path class="st9" d="M882.7,687.6c-1,0.9-3.8-0.7-7-1.2c-3.2-0.6-6.9,0-9.8,0.6c-2.8,0.5-7.3,1.7-11.2,3       c-3.9,1.2-7.2,2.4-8,1.4c-0.8-1,1.3-4.1,4.9-7c3.5-3,8.6-5.6,12.6-6.3c1.9-0.4,4.4-0.6,7-0.2c1.3,0.1,2.6,0.6,3.8,0.9       c1.2,0.4,2.4,1.1,3.4,1.7c2,1.4,3.5,3,4,4.4C883.1,686.2,883.2,687.2,882.7,687.6z"></path>
				</g>
			</g>
			<g>
				<g>
					<path class="st9" d="M910.2,699.7c0,0.4-1.6,1-4.2,2.5c-2.6,1.5-6.1,3.6-10,6.2c-1.9,1.3-4,2.7-6,4c-2,1.4-4.3,2.9-5.7,4.2       c-1.5,1.4-2.4,3-2.5,4.5c-0.2,1.5,0.4,3.1,1.1,4.4c0,0,0,0,0,0l0,0c0,0,0.1,0,0.1,0l0.6-0.2c1-0.4,2-0.8,3-1.3       c2.1-1,4.2-2.2,6.3-3.4c2.1-1.2,4.3-2.6,6.4-4c2-1.4,3.9-2.7,5.5-4.3c3.3-3,5.5-6.3,6.1-8.9c0.3-1.3,0.2-2.3,0-2.8       C910.6,700,910.1,699.9,910.2,699.7c0-0.1,0.7-0.5,1.6,0c1,0.6,1.5,2.2,1.5,3.9c0,3.5-2.1,7.8-5.4,11.5       c-1.6,1.9-3.6,3.7-5.6,5.3c-2,1.6-4.1,3.2-6.3,4.6c-2.2,1.5-4.4,2.8-6.6,4c-1.1,0.6-2.2,1.1-3.4,1.6c-0.3,0.1-0.5,0.2-1,0.4       c-0.5,0.2-0.9,0.4-1.4,0.5c-1,0.3-2,0.4-3,0.6c-1.1-1.2-2.1-2.3-2.8-3.7c-0.7-1.2-1.2-2.3-1.5-3.7c-0.4-1.4-0.5-2.9-0.3-4.5       c0.4-3.2,2.4-6.1,4.7-7.9c2.4-1.9,4.6-3,6.8-4.3c2.2-1.2,4.4-2.4,6.6-3.5c4.3-2.1,8.2-3.7,11.2-4.6       C908,699.1,910.2,699.2,910.2,699.7z"></path>
				</g>
			</g>
			<g>
				<g>
					<path class="st9" d="M881.7,729c0.8,1-9.2,10.6-22.8,22c-6.8,5.7-14.5,11.8-22.3,17.4c-7.7,5.6-16,10.6-23.5,13.7       c-3.8,1.5-8.2,2.9-13.3,3.5c-2.5,0.3-5.2,0.3-7.9,0.1c-2.7-0.2-5.3-0.8-7.7-1.2c-9.8-1.6-20.1-3.5-29.4-5.2       c-18.6-3.5-33.5-6.8-33.3-8.1c0.2-1.3,15.4-0.2,34.3,1.7c9.5,0.9,19.9,2.1,29.8,3.3c2.6,0.3,4.8,0.7,6.9,0.8       c2.1,0.1,4.2,0,6.2-0.3c4-0.6,7.7-1.8,11-3.1c13.3-5.2,30.7-17.9,45.2-27.7C869.5,735.9,880.9,728,881.7,729z"></path>
				</g>
			</g>
			<g>
				<g>
					<path class="st9" d="M885.2,696.3c-0.3-0.6-0.1-1.3,0.4-2.1c0.5-0.8,1.4-1.6,2.6-2.3c2.4-1.3,6-1.6,8.3-0.9       c2.3,0.6,5.3,2.7,6.9,4.9c1.6,2.3,2,4.6,1,5.4c-1,0.8-2.9,0.3-5-0.2c-2.1-0.6-4.1-0.9-5.4-1.3c-1.2-0.4-2.9-1-4.7-1.5       C887.6,697.8,885.7,697.5,885.2,696.3z"></path>
				</g>
			</g>
		</g>
		<g>
			<g>
				<path class="st9" d="M893.5,561c0.6-1.2,2.4-1.5,4.3-1.9c1.9-0.3,3.9-0.7,5.3-0.8c1.4,0,3.6,0.1,5.7,0.3c2.1,0.2,4,0.4,4.7,1.5      c0.7,1.1-0.5,3.1-2.6,4.7c-2.1,1.6-5.2,2.7-7.4,2.7c-2.1,0.1-5.2-0.7-7.3-2.1C894,563.9,893,562.1,893.5,561z"></path>
			</g>
		</g>
	</g>
</g>
</svg>
