<?xml version="1.0" encoding="UTF-8"?>
<!-- Generator: Adobe Illustrator 27.9.0, SVG Export Plug-In . SVG Version: 6.00 Build 0)  -->
<svg xmlns="http://www.w3.org/2000/svg" xmlns:xlink="http://www.w3.org/1999/xlink" version="1.1" id="Layer_1" x="0px" y="0px" viewBox="0 0 1369.3 1072" style="enable-background:new 0 0 1369.3 1072;" xml:space="preserve">
<style type="text/css">
	.st0{fill:url(#SVGID_1_);}
	.st1{fill:url(#SVGID_00000115500533769439666580000007828964233357432192_);}
	.st2{fill:url(#SVGID_00000158013654927290307780000003436555673540095921_);}
	.st3{fill:url(#SVGID_00000163071386485508210980000009777449322246889134_);}
	.st4{fill:url(#SVGID_00000011714601910609990230000005742615715297123237_);}
	.st5{fill:url(#SVGID_00000167391405288366334160000006233592778292192674_);}
	.st6{fill:url(#SVGID_00000084519167995737386500000007354913244693908110_);}
	.st7{fill:url(#SVGID_00000152242954991667659080000004385070879494039728_);}
	.st8{fill:url(#SVGID_00000083068575413239490500000018041949930711980180_);}
	.st9{fill:#262626;}
</style>
<g>
	<g>
		<g>
			<g>
				<radialGradient id="SVGID_1_" cx="595.5742" cy="356.899" r="185.4045" gradientUnits="userSpaceOnUse">
					<stop offset="0" style="stop-color:#EF4136"></stop>
					<stop offset="0" style="stop-color:#EF0F14"></stop>
					<stop offset="1" style="stop-color:#FFFFFF"></stop>
				</radialGradient>
				<path class="st0" d="M609,404.5c-30.2,0-54.7-24.5-54.7-54.7c0-30.2,24.5-54.7,54.7-54.7c30.2,0,54.7,24.5,54.7,54.7      C663.7,379.9,639.2,404.5,609,404.5z M609,311.7c-21,0-38.1,17.1-38.1,38.1s17.1,38.1,38.1,38.1c21,0,38.1-17.1,38.1-38.1      S630,311.7,609,311.7z"></path>
			</g>
			<g>
				
					<radialGradient id="SVGID_00000005251712582731518470000006613497975725649593_" cx="595.5737" cy="356.8984" r="185.4043" gradientUnits="userSpaceOnUse">
					<stop offset="0" style="stop-color:#EF4136"></stop>
					<stop offset="0" style="stop-color:#EF0F14"></stop>
					<stop offset="1" style="stop-color:#FFFFFF"></stop>
				</radialGradient>
				<path style="fill:url(#SVGID_00000005251712582731518470000006613497975725649593_);" d="M609,423.6      c-40.7,0-73.9-33.1-73.9-73.9s33.1-73.9,73.9-73.9c40.7,0,73.9,33.1,73.9,73.9S649.7,423.6,609,423.6z M609,291.1      c-32.3,0-58.6,26.3-58.6,58.6c0,32.3,26.3,58.6,58.6,58.6c32.3,0,58.6-26.3,58.6-58.6C667.6,317.4,641.3,291.1,609,291.1z"></path>
			</g>
			<g>
				
					<radialGradient id="SVGID_00000124881400799230350860000016796940851782608062_" cx="595.5737" cy="356.899" r="185.4052" gradientUnits="userSpaceOnUse">
					<stop offset="0" style="stop-color:#EF4136"></stop>
					<stop offset="0" style="stop-color:#EF0F14"></stop>
					<stop offset="1" style="stop-color:#FFFFFF"></stop>
				</radialGradient>
				<path style="fill:url(#SVGID_00000124881400799230350860000016796940851782608062_);" d="M609,442.7c-51.3,0-93-41.7-93-93      c0-51.3,41.7-93,93-93c51.3,0,93,41.7,93,93C702,401,660.3,442.7,609,442.7z M609,270.5c-43.7,0-79.2,35.5-79.2,79.2      s35.5,79.2,79.2,79.2c43.7,0,79.2-35.5,79.2-79.2S652.7,270.5,609,270.5z"></path>
			</g>
			<g>
				
					<radialGradient id="SVGID_00000050638018864536134440000004333591083511086259_" cx="595.574" cy="356.899" r="185.404" gradientUnits="userSpaceOnUse">
					<stop offset="0" style="stop-color:#EF4136"></stop>
					<stop offset="0" style="stop-color:#EF0F14"></stop>
					<stop offset="1" style="stop-color:#FFFFFF"></stop>
				</radialGradient>
				<path style="fill:url(#SVGID_00000050638018864536134440000004333591083511086259_);" d="M609,461.9      c-61.8,0-112.2-50.3-112.2-112.2S547.2,237.6,609,237.6c61.8,0,112.2,50.3,112.2,112.2S670.8,461.9,609,461.9z M609,250      c-55,0-99.8,44.8-99.8,99.8c0,55,44.8,99.8,99.8,99.8c55,0,99.8-44.8,99.8-99.8C708.8,294.7,664,250,609,250z"></path>
			</g>
			<g>
				
					<radialGradient id="SVGID_00000129169795590661764930000015713320304832439207_" cx="595.5732" cy="356.8987" r="185.404" gradientUnits="userSpaceOnUse">
					<stop offset="0" style="stop-color:#EF4136"></stop>
					<stop offset="0" style="stop-color:#EF0F14"></stop>
					<stop offset="1" style="stop-color:#FFFFFF"></stop>
				</radialGradient>
				<path style="fill:url(#SVGID_00000129169795590661764930000015713320304832439207_);" d="M609,481      c-72.4,0-131.3-58.9-131.3-131.3S536.6,218.4,609,218.4c72.4,0,131.3,58.9,131.3,131.3S681.4,481,609,481z M609,229.4      c-66.4,0-120.4,54-120.4,120.4s54,120.4,120.4,120.4c66.4,0,120.4-54,120.4-120.4S675.4,229.4,609,229.4z"></path>
			</g>
			<g>
				
					<radialGradient id="SVGID_00000171703820779989331590000004830868732068138124_" cx="595.5733" cy="356.899" r="185.4037" gradientUnits="userSpaceOnUse">
					<stop offset="0" style="stop-color:#EF4136"></stop>
					<stop offset="0" style="stop-color:#EF0F14"></stop>
					<stop offset="1" style="stop-color:#FFFFFF"></stop>
				</radialGradient>
				<path style="fill:url(#SVGID_00000171703820779989331590000004830868732068138124_);" d="M609,500.2      c-83,0-150.4-67.5-150.4-150.4c0-83,67.5-150.4,150.4-150.4s150.4,67.5,150.4,150.4C759.4,432.7,692,500.2,609,500.2z       M609,208.8c-77.7,0-140.9,63.2-140.9,140.9c0,77.7,63.2,140.9,140.9,140.9c77.7,0,140.9-63.2,140.9-140.9      C749.9,272,686.7,208.8,609,208.8z"></path>
			</g>
			<g>
				
					<radialGradient id="SVGID_00000013192263491338400180000016985769597727764111_" cx="595.5737" cy="356.8984" r="185.4038" gradientUnits="userSpaceOnUse">
					<stop offset="0" style="stop-color:#EF4136"></stop>
					<stop offset="0" style="stop-color:#EF0F14"></stop>
					<stop offset="1" style="stop-color:#FFFFFF"></stop>
				</radialGradient>
				<path style="fill:url(#SVGID_00000013192263491338400180000016985769597727764111_);" d="M609,519.3      c-93.5,0-169.6-76.1-169.6-169.6c0-93.5,76.1-169.6,169.6-169.6c93.5,0,169.6,76.1,169.6,169.6      C778.6,443.2,702.5,519.3,609,519.3z M609,188.2c-89.1,0-161.5,72.4-161.5,161.5c0,89.1,72.4,161.5,161.5,161.5      s161.5-72.4,161.5-161.5C770.5,260.7,698.1,188.2,609,188.2z"></path>
			</g>
			<g>
				
					<radialGradient id="SVGID_00000047756576975702032720000016215551987390037657_" cx="595.5735" cy="356.8981" r="185.4041" gradientUnits="userSpaceOnUse">
					<stop offset="0" style="stop-color:#EF4136"></stop>
					<stop offset="0" style="stop-color:#EF0F14"></stop>
					<stop offset="1" style="stop-color:#FFFFFF"></stop>
				</radialGradient>
				<path style="fill:url(#SVGID_00000047756576975702032720000016215551987390037657_);" d="M609,538.5      c-104.1,0-188.7-84.7-188.7-188.7C420.3,245.7,504.9,161,609,161c104.1,0,188.7,84.7,188.7,188.7      C797.7,453.8,713.1,538.5,609,538.5z M609,167.7c-100.4,0-182.1,81.7-182.1,182.1c0,100.4,81.7,182.1,182.1,182.1      c100.4,0,182.1-81.7,182.1-182.1C791.1,249.3,709.4,167.7,609,167.7z"></path>
			</g>
		</g>
		<g>
			
				<radialGradient id="SVGID_00000152970607027269500830000016521011761659778734_" cx="595.5734" cy="356.8986" r="185.4029" gradientUnits="userSpaceOnUse">
				<stop offset="0" style="stop-color:#EF4136"></stop>
				<stop offset="0" style="stop-color:#EF0F14"></stop>
				<stop offset="1" style="stop-color:#FFFFFF"></stop>
			</radialGradient>
			<path style="fill:url(#SVGID_00000152970607027269500830000016521011761659778734_);" d="M641.6,349.7c0,18-14.6,32.6-32.6,32.6     c-18,0-32.6-14.6-32.6-32.6c0-18,14.6-32.6,32.6-32.6C627,317.2,641.6,331.7,641.6,349.7z"></path>
		</g>
	</g>
	<g>
		<g>
			<g>
				<path class="st9" d="M781.8,370.6c-0.2,0.1-1.5-1.7-3.8-5c-2.3-3.4-5.6-8.3-9.6-14.4c-4-6.2-8.7-13.5-14-21.7      c-2.6-4.1-5.4-8.4-8.3-13c-1.4-2.3-2.9-4.6-4.4-6.9c-1.5-2.3-3-4.8-4.5-7c-6.5-9-14.9-17.6-23.5-26.2      c-8.6-8.7-17.5-17.3-26.2-25.9c-4.3-4.3-8.6-8.6-12.8-13.1c-2.1-2.2-4.1-4.5-6-6.6c-1.9-2.2-3.8-4.2-5.8-6.1      c-4-3.8-8.2-7.2-12.6-8.7c-4.4-1.6-8.7-1.1-12.6,0.9c-2.1,1-3.8,2.1-5.2,3.7c-1.4,1.5-2.4,3.5-2.9,5.8c-1,4.5-0.4,9.9,1.6,15      c1,2.6,2.3,4.9,3.9,7.4c1.7,2.5,3.4,5.1,5.1,7.7c3.5,5.2,7,10.4,10.6,15.8c14.4,21.4,29.4,43.8,42.9,64.2      c13.5,20.5,25.7,38.8,33.9,52.5c4.1,6.9,6.8,12.8,8.4,17c0.8,2.1,1.2,3.8,1.3,5c0.1,0.6,0,1.1-0.1,1.4c-0.1,0.3-0.4,0.2-0.5,0.2      c-0.1,0,0.1,0,0.2-0.3c0-0.3,0-0.7-0.2-1.2c-0.3-1.1-0.9-2.7-1.8-4.7c-1.8-4-4.9-9.6-9.2-16.2c-8.8-13.2-21.5-31.2-35.5-51.4      c-14-20.2-29.3-42.3-44-63.5c-3.7-5.3-7.3-10.5-10.8-15.7c-1.8-2.6-3.5-5.1-5.2-7.6c-1.8-2.6-3.4-5.5-4.6-8.5      c-2.3-5.9-3.3-12.4-1.9-18.5c0.7-3.1,2.1-6,4.2-8.4c2.1-2.4,4.8-4,7.1-5.1c2.4-1.2,5.2-2.1,8.3-2.4c3-0.3,6.2,0.2,9,1.3      c2.9,1,5.5,2.6,7.9,4.3l1.8,1.3l1.7,1.4c1.2,0.9,2.2,2,3.3,3c2.1,2.1,4.1,4.3,6.1,6.5c2,2.2,3.8,4.4,5.8,6.6      c4,4.4,8.2,8.7,12.5,13.1c8.5,8.7,17.4,17.5,25.8,26.4c8.4,8.9,16.7,17.7,23.4,27.3c1.7,2.5,3.1,4.9,4.5,7.3      c1.4,2.4,2.8,4.7,4.2,7c2.7,4.6,5.4,9,7.9,13.2c5,8.4,9.4,15.9,13.1,22.2c3.7,6.3,6.6,11.4,8.6,15      C781,368.5,782,370.5,781.8,370.6z"></path>
			</g>
			<g>
				<path class="st9" d="M737,412.5c0,0.1-0.4,0.1-0.8-0.3c-0.5-0.3-1.1-1-1.7-1.8c-1.3-1.8-3.1-4.4-5.5-7.7      c-4.7-6.7-11.5-16.5-19.9-28.7c-8.4-12.2-18.4-26.8-29.4-43.2c-5.5-8.2-11.3-16.8-17.2-26c-2.8-4.6-5.8-9.1-9.2-13.4      c-3.3-4.3-7.1-8.3-11.5-11.3c-2.2-1.4-4.5-2.5-6.9-3c-2.4-0.5-4.8-0.2-7.1,0.6c-2.4,0.8-4.2,2.2-5.5,4.2c-1.3,1.9-1.9,4.4-2.1,7      c-0.2,2.6,0,5.5,0.6,8.3c0.5,2.8,1.2,5.7,2.1,8.5c0.9,2.8,1.8,5.7,3,8.4c1.1,2.7,2.4,5.5,3.8,8.2c5.5,10.9,11.5,21.9,17.4,32.8      c6,11,11.9,21.9,17.9,32.8c5.9,10.9,11.7,21.8,17.1,32.7c5.4,10.9,10.4,21.9,14.2,33.1c3.8,11.2,6,22.6,7.9,33.3      c0.9,5.4,1.7,10.6,2.6,15.7c0.9,5.1,1.9,10,2.9,14.8c4.2,19.2,10.7,40.4,19.6,62.4c4.4,11,9.6,22.1,15.2,33.2      c2.8,5.6,5.8,11.1,8.9,16.7c3.2,5.5,6.3,11.2,9.7,16.6c6.7,11,14,21.9,22.3,31.8c2.1,2.4,4.2,5,6.4,7.3l3.3,3.5l3.5,3.4      c4.7,4.5,9.6,8.7,14.8,12.7c5.1,4.1,10.4,8,15.5,12.2c2.5,2.2,5.1,4.2,7.5,6.5l3.6,3.3l3.5,3.5c4.6,4.7,8.9,9.7,12.8,14.8      c1,1.3,2,2.5,3,3.8c0.9,1.3,1.9,2.5,2.8,3.8c1.9,2.5,3.7,5,5.6,7.5c14.5,20.2,27.6,39.8,39.3,57.7c11.7,17.9,22,34.2,30.5,47.8      c8.5,13.7,15.3,24.8,19.9,32.5c2.3,3.9,4,6.9,5.2,9c1.1,2.1,1.7,3.2,1.6,3.3c-0.2,0.1-3.1-3.9-8.1-11.4      c-5-7.5-12.2-18.3-21.1-31.7c-8.9-13.4-19.6-29.4-31.6-47c-12.1-17.6-25.4-37-40.1-56.8c-1.9-2.4-3.8-4.9-5.7-7.4      c-0.9-1.2-1.9-2.5-2.9-3.7c-1-1.2-2-2.4-3-3.6c-3.9-4.9-8-9.6-12.5-14.1l-3.4-3.3l-3.6-3.2c-2.3-2.2-4.9-4.1-7.4-6.2      c-5-4-10.3-7.9-15.5-12c-5.3-4-10.5-8.4-15.4-12.9l-3.7-3.5l-3.5-3.6c-2.4-2.4-4.5-5-6.7-7.5c-8.7-10.3-16.2-21.3-23.2-32.5      c-3.5-5.5-6.7-11.2-10-16.8c-3.1-5.7-6.3-11.3-9.1-16.9c-5.8-11.3-11.1-22.6-15.7-33.7c-9.2-22.3-15.9-44-20.2-63.6      c-4.6-19.7-5.8-41.8-13-63.1c-3.5-10.7-8.3-21.4-13.6-32.2c-5.3-10.8-10.9-21.6-16.7-32.5c-5.8-10.9-11.7-21.9-17.6-32.9      c-5.9-11-11.7-22-17.2-33.2c-1.3-2.8-2.7-5.7-3.9-8.6c-1.3-3-2.1-5.9-3.1-9c-0.9-3-1.6-6.1-2.1-9.3c-0.5-3.2-0.8-6.4-0.5-9.8      c0.3-3.3,1.1-6.9,3.2-9.9c2-3.1,5.2-5.3,8.5-6.4c3.3-1.1,6.9-1.5,10.3-0.8c3.3,0.7,6.3,2.2,8.9,4c5.1,3.6,9.1,8.1,12.6,12.7      c3.5,4.6,6.5,9.3,9.2,14c5.6,9.1,11.3,17.9,16.6,26.2c10.7,16.6,20.2,31.5,28.3,43.9c8,12.5,14.4,22.5,18.7,29.6      c2.1,3.5,3.8,6.3,4.8,8.1c0.5,0.9,1,1.6,1.3,2C736.8,412.4,737,412.5,737,412.5z"></path>
			</g>
			<g>
				<path class="st9" d="M834.7,349.7c-0.4,0.2-3.8-5-9.2-13.7c-5.4-8.7-12.7-20.8-20.8-34.5c-4.1-6.8-8.1-14.2-12.6-21.3      c-2.2-3.6-4.6-7.1-7.1-10.3c-1.3-1.6-2.6-3.2-4-4.7c-0.7-0.7-1.4-1.4-2.1-2.1c-0.7-0.7-1.5-1.3-2.3-2      c-13-11.2-25.2-22.2-35.4-31.3c-5.1-4.6-10.8-9.7-17-15.2c-3.1-2.7-6.3-5.5-9.5-8.4c-3.3-2.8-6.6-5.8-10-8.4      c-3.5-2.7-7.1-5.3-10.8-7.4c-3.8-2-7.8-3.6-11.6-3.5c-1.9,0.1-3.7,0.6-5.4,1.5c-0.4,0.2-0.9,0.5-1.2,0.7      c-0.4,0.3-0.7,0.5-1.1,0.9c-0.7,0.6-1.3,1.4-1.9,2.1c-1.2,1.6-2.2,3.4-2.9,5.2c-0.7,1.9-1.3,3.8-1.5,5.8      c-0.3,1.9-0.3,3.9-0.1,5.8c0.2,1.9,0.7,3.7,1.4,5.3c0.7,1.6,1.8,3.3,2.7,4.9c1,1.6,2,3.2,3,4.7c4,6.1,7.8,11.6,10.9,16.1      c6.3,9.1,10.1,14.8,9.8,15c-0.3,0.2-4.8-4.9-11.7-13.7c-3.4-4.4-7.5-9.6-11.8-15.6c-1.1-1.5-2.2-3.1-3.3-4.7      c-0.5-0.8-1.1-1.6-1.6-2.5c-0.6-0.8-1.1-1.8-1.6-2.8c-0.9-2-1.6-4.2-1.9-6.4c-0.4-2.2-0.4-4.5-0.1-6.8c0.2-2.3,0.8-4.6,1.6-6.8      c0.8-2.2,1.8-4.4,3.3-6.4c0.7-1,1.5-2,2.5-2.9c0.9-0.9,2.1-1.7,3.1-2.3c2.2-1.3,4.8-2.2,7.5-2.3c5.4-0.3,10.1,1.7,14.3,3.8      c4.2,2.2,8.1,4.9,11.7,7.6c3.7,2.8,7.1,5.7,10.4,8.5c3.3,2.8,6.5,5.6,9.6,8.3c6.2,5.4,12,10.5,17.1,15.1      c10.2,9.1,22.4,20.4,35,31.6c0.8,0.7,1.6,1.4,2.5,2.2c0.8,0.8,1.6,1.6,2.4,2.4c1.5,1.7,2.9,3.4,4.2,5.2c2.7,3.6,5,7.3,7.2,11      c4.4,7.4,8.1,14.9,12,21.8c7.6,13.9,14.4,26.4,19.1,35.4C832.3,343.9,835.1,349.5,834.7,349.7z"></path>
			</g>
			<g>
				<path class="st9" d="M930.7,475.3c-0.5,0.2-3.4-6.7-7.7-18c-2.1-5.7-4.6-12.5-7.4-20c-0.7-1.9-1.4-3.8-2.1-5.8      c-0.7-2-1.4-4.1-2.1-6.3c-1.3-4.3-2.6-8.7-3.9-13.2c-2.6-9.1-5.2-18.7-8.1-28.2c-1.5-4.7-3-9.7-5-13.8c-1-2-2.4-4.3-3.6-6.5      c-1.3-2.2-2.5-4.4-3.8-6.6c-10-17.6-19.3-35-26.1-50c-0.8-1.9-1.7-3.8-2.5-5.8c-0.9-2-1.7-4.1-2.5-6.3c-0.8-2.1-1.6-4.2-2.5-6.4      c-0.9-2.1-1.8-4.3-2.8-6.4c-4-8.6-9.3-17.1-16.5-24.4c-1.8-1.8-3.7-3.5-5.7-5.3c-1.9-1.7-4-3.3-6.1-5c-4.2-3.3-8.5-6.6-12.8-9.8      c-8.6-6.5-17.1-12.8-25.4-18.6c-4.1-2.9-8.2-5.7-12.1-8.2c-2-1.3-3.8-2.3-5.9-3.3c-2-1-4-2-6-2.8c-3.9-1.8-7.7-3.3-11.3-4.4      c-3.6-1.1-7-1.8-10-1.7c-3,0-5.3,1.2-7,2.9c-1.6,1.7-2.6,3.7-3.2,5.3c-1.2,3.3-1.5,5.4-1.8,5.4c-0.2,0-0.6-2.1,0.2-5.8      c0.4-1.9,1.2-4.1,3-6.4c0.9-1.1,2.1-2.2,3.6-3c0.4-0.2,0.7-0.4,1.2-0.6c0.4-0.1,0.8-0.3,1.2-0.4c0.8-0.2,1.7-0.4,2.6-0.5      c3.6-0.4,7.4,0.2,11.3,1.1c3.9,0.9,7.9,2.3,12.1,3.9c2.1,0.8,4.2,1.7,6.3,2.6c2.1,0.9,4.4,2.1,6.5,3.3c4.2,2.4,8.4,5.1,12.7,7.9      c8.5,5.6,17.3,11.7,26.1,17.9c4.4,3.1,8.8,6.3,13.2,9.6c2.2,1.6,4.4,3.3,6.6,5.1c2.1,1.7,4.2,3.6,6.2,5.5      c8,7.8,14,17.1,18.3,26.2c1.1,2.3,2.1,4.5,3.1,6.8c0.9,2.2,1.7,4.4,2.6,6.5c0.8,2.1,1.6,4.1,2.5,6c0.8,2,1.7,3.8,2.5,5.7      c6.6,14.7,15.6,32,25.2,49.7c1.2,2.2,2.4,4.5,3.6,6.7c1.2,2.3,2.4,4.4,3.6,7c1.2,2.6,2,5.1,2.8,7.6c0.8,2.5,1.5,5,2.2,7.4      c2.7,9.8,5,19.5,7.2,28.7c1.1,4.6,2.2,9,3.3,13.2c0.6,2.1,1.2,4.2,1.8,6.1c0.6,2,1.2,4,1.8,5.9c2.4,7.7,4.4,14.7,6.1,20.5      C929.4,467.9,931.2,475.1,930.7,475.3z"></path>
			</g>
			<g>
				<path class="st9" d="M1076.5,734.9c-0.4,0.4-7.6-5.3-19.1-14.9c-11.5-9.7-27.4-23.3-44.9-38.8c-8.8-7.7-18-16-27.3-24.4      c-4.6-4.2-9.3-8.5-14-12.8c-4.6-4.4-9.3-8.5-13.8-13.2l-1.7-1.7l-1.6-1.8c-1.1-1.2-2.1-2.4-3.2-3.7c-1-1.3-2-2.6-2.9-3.9      l-1.4-1.9l-1.3-2c-3.6-5.4-6.3-11.3-7.9-17.4c-1.6-6.1-2-12.4-1.7-18.2c0.3-5.8,1.2-11.1,1.8-16.1c0.4-2.5,0.6-4.9,0.9-7.6      c0.3-2.7,0.6-5.4,0.9-8.3c0.7-5.6,1.5-11.5,2.4-17.5c0.9-6,1.8-12.2,2.5-18.4c0.3-3.1,0.7-6.3,0.8-9.4c0.1-3,0-6.4,0.1-9.7      c0.1-13.3,0.5-26.7,0.4-40.1c0.1-6.8,0.4-13.2-0.4-19.5c-0.7-6.3-2.3-12.3-4.2-18.1c-0.5-1.4-1-2.9-1.6-4.3      c-0.6-1.4-1.1-2.8-1.7-4.2c-1.2-2.9-2.3-5.8-3.2-8.7c-1.9-5.7-3.2-11.4-4.5-16.7c-1.2-5.3-2.3-10.3-3.9-14.5      c-0.8-2.1-1.8-4-3.2-5.4c-1.3-1.4-2.9-2.2-4.7-2.6c-0.9-0.2-1.8-0.2-2.7-0.3c-0.9-0.1-1.7,0.1-2.6,0.1c-1.6,0.3-3.2,0.8-4.4,1.6      c-2.6,1.5-4.5,3.5-5.8,5.3c-2.6,3.6-3.4,6-3.7,5.9c-0.2,0,0-2.7,2.3-6.8c1.2-2,3-4.5,5.9-6.4c1.4-1,3.2-1.7,5.2-2.2      c1-0.1,2-0.4,3.1-0.4c1.1,0,2.1,0,3.3,0.2c2.3,0.3,4.7,1.4,6.6,3.2c1.9,1.8,3.2,4,4.2,6.3c2.1,4.7,3.3,9.7,4.8,15      c1.4,5.2,2.9,10.6,4.9,16.1c1,2.7,2.1,5.4,3.4,8.2c0.6,1.4,1.3,2.9,1.9,4.3c0.6,1.5,1.2,3,1.8,4.5c2.2,6,4,12.5,5,19.2      c1,6.7,0.9,13.7,1,20.2c0.5,13.3,0.2,27,0.4,40.1c0,3.3,0.1,6.4,0.1,10c-0.1,3.4-0.4,6.7-0.7,9.9c-0.7,6.5-1.5,12.7-2.3,18.7      c-0.8,6-1.6,11.8-2.3,17.3c-0.3,2.8-0.6,5.5-0.9,8.1c-0.3,2.6-0.6,5.4-0.9,7.9c-0.7,5.1-1.5,10.2-1.8,15.4      c-0.3,5.2,0,10.5,1.3,15.8c1.3,5.2,3.6,10.4,6.8,15.3l1.1,1.9l1.3,1.8c0.9,1.2,1.7,2.4,2.6,3.6c1,1.1,1.9,2.3,2.9,3.4l1.5,1.7      l1.6,1.6c4.1,4.4,8.8,8.8,13.3,13.2c4.6,4.4,9.1,8.7,13.6,13.1c9.1,8.6,18.1,17.1,26.6,25.1c17,16,32.2,30.3,43.2,40.6      C1070.4,728.1,1076.9,734.5,1076.5,734.9z"></path>
			</g>
			<g>
				<path class="st9" d="M468.6,631.4c0.3,0,0.5,1.2,0.6,3.4c0.1,1.1,0.2,2.4,0,4c-0.1,0.8-0.1,1.6-0.2,2.5c0,0.4-0.1,0.9-0.1,1.4      c-0.1,0.5-0.2,0.9-0.3,1.4c-0.4,2-0.7,4.1-1.5,6.4c-0.6,2.3-1.6,4.6-2.6,7.1c-2.2,4.9-5.2,10-8.9,15      c-7.4,10-17.4,19.2-26.6,28.2c-1.2,1.1-2.2,2.3-3.2,3.4c-1,1.1-2.1,2.2-3,3.4c-2,2.4-3.9,4.7-5.7,7.1      c-3.7,4.7-7.1,9.3-10.2,13.4c-12.5,16.6-30.8,41.7-46.1,62.7c-15.3,20.9-27.7,37.6-28.6,37c-0.9-0.6,9.8-18.4,23.9-40.2      c14.1-21.8,31.7-47.6,44.3-64.3c3.1-4.2,6.7-8.8,10.5-13.5c1.9-2.4,4-4.8,6.1-7.2c1-1.2,2.2-2.4,3.4-3.6      c1.2-1.2,2.3-2.5,3.6-3.5c9.6-8.8,19.7-17.4,27.2-26.4c3.8-4.5,6.9-9,9.3-13.4c1.1-2.2,2.2-4.3,3-6.4c0.9-2,1.5-4,2-5.8      c0.1-0.5,0.3-0.9,0.4-1.3c0.1-0.4,0.2-0.9,0.3-1.3c0.2-0.8,0.4-1.6,0.5-2.3c0.4-1.5,0.6-2.7,0.8-3.8      C468,632.6,468.3,631.4,468.6,631.4z"></path>
			</g>
			<g>
				<path class="st9" d="M507.6,604.7c1,0.3,0.3,6.1-2.8,12.8c-3,6.7-8.2,14-12.4,18.6c-4.2,4.6-11.2,10.8-17.6,15.1      c-6.3,4.4-11.9,7.1-12.6,6.1c-0.6-0.9,3.7-5.2,8.9-10.5c5.3-5.3,11.3-11.8,15.3-16.2c4-4.3,9.5-10.5,13.5-16      C504,609.2,506.5,604.4,507.6,604.7z"></path>
			</g>
			<g>
				<path class="st9" d="M472.1,477.4c0.5-0.1,1.3,1.6,2.2,4.6c0.7,3,1.3,7.3,1.3,12.1c0.1,9.6-2.1,21.2-4.4,29      c-0.6,2-1.3,4.1-2,6.4c-0.4,1.1-0.7,2.3-1,3.3c-0.1,0.5-0.2,1-0.3,1.5c-0.1,0.6-0.2,1.2-0.2,1.8c-0.5,4.9-0.8,10.4-1,15.4      c-0.5,9.9-1,18-2.2,18c-1.1,0.1-2.6-7.9-3.5-17.9c-0.5-5-0.8-10.5-0.7-16.1c0-0.7,0.1-1.4,0.1-2.1c0.1-0.8,0.2-1.6,0.4-2.3      c0.3-1.4,0.6-2.6,1-3.8c0.7-2.3,1.3-4.5,1.8-6.4c2.3-7.6,5.2-18.2,6.5-27.1c0.7-4.5,0.9-8.5,1.2-11.4      C471.3,479.4,471.5,477.5,472.1,477.4z"></path>
			</g>
			<g>
				<path class="st9" d="M416.5,461.9c-0.2-0.1,0.1-2,0.9-5.4c0.8-3.4,2.1-8.4,3.8-14.4c3.5-12.2,8.6-29,15.1-47.6      c0.8-2.3,1.7-4.7,2.6-7.1c0.5-1.2,1.1-2.5,1.7-3.7c0.6-1.2,1.2-2.3,1.9-3.4c2.5-4.5,5.2-9,7.9-13.6c2.7-4.5,5.4-9.1,8.1-13.7      c1.3-2.3,2.7-4.6,3.9-6.9c0.6-1.1,1.2-2.3,1.8-3.4l0.8-1.8c0.4-0.8,0.8-1.4,1.1-2c1.6-2.4,3.2-4.5,4.9-6.6      c1.7-2.1,3.3-4.1,5-6.1c3.4-3.9,6.7-7.7,10-11.5c1.6-1.9,3.2-3.7,4.7-5.5c1.5-1.8,3-3.6,4.4-5.4c1.5-1.8,3-3.6,4.7-5.3      c1.7-1.7,3.6-3.4,6.2-4.5c0.6-0.3,1.4-0.5,2-0.7c0.7-0.1,1.5-0.2,2.2-0.3c0.7,0.1,1.5,0.1,2.3,0.2c0.7,0.2,1.4,0.4,2.1,0.6      c0.6,0.3,1.3,0.6,1.9,0.9c0.6,0.3,1.1,0.7,1.7,1.1c0.6,0.4,1.1,0.8,1.6,1.3c0.5,0.4,1,0.9,1.5,1.4c1.9,2,3.5,4.6,4.3,7.4      c0.8,2.8,1,5.7,0.8,8.5c-0.5,5.7-2.3,11-4.8,16c-2.5,5-5.3,9.7-8,14.5c-5.4,9.7-10.9,19.6-15.3,29.8c-4.4,10.4-9.5,20.4-13.4,30      c-2,4.8-3.7,9.6-5.2,14.3c-1.5,4.7-2.6,9.3-3.8,13.7c-2.4,8.8-4.7,16.7-6.7,23.3c-2,6.6-3.7,11.9-4.9,15.5      c-1.2,3.6-2,5.6-2.2,5.5c-0.2-0.1,0.2-2.1,1.1-5.9c0.9-3.7,2.2-9.1,3.8-15.8c1.6-6.7,3.6-14.6,5.7-23.5c1.1-4.4,2.1-9.1,3.4-14      c1.3-4.8,3-9.8,4.9-14.8c3.8-10,8.6-20,12.8-30.4c4.3-10.6,9.7-20.7,15-30.5c2.6-4.9,5.4-9.7,7.6-14.4c2.2-4.6,3.8-9.4,4.1-14      c0.4-4.5-0.8-8.6-3.6-11.3c-1.3-1.3-3-2.6-4.5-3.2c-1.5-0.6-2.8-0.6-4.1,0c-1.4,0.6-2.8,1.8-4.3,3.2c-1.4,1.5-2.9,3.1-4.3,4.9      c-1.5,1.8-3,3.6-4.6,5.5c-1.6,1.8-3.2,3.7-4.8,5.5c-3.3,3.7-6.6,7.5-10,11.3c-1.7,1.9-3.4,3.9-5,5.9c-1.6,2-3.3,4-4.6,6      c-0.3,0.5-0.7,1-0.8,1.4l-0.2,0.3l-0.1,0.2l-0.1,0.3l-0.5,1.1c-0.7,1.3-1.3,2.5-2,3.6c-1.4,2.3-2.7,4.6-4.1,6.9      c-2.8,4.5-5.6,9.1-8.4,13.5c-2.8,4.5-5.6,8.9-8.2,13.3c-0.7,1.1-1.3,2.2-1.9,3.3c-0.6,1.1-1.1,2.1-1.6,3.2      c-0.9,2.3-1.9,4.6-2.7,6.9c-7,18.3-12.7,34.9-16.8,46.8C419.4,454.7,416.9,462.1,416.5,461.9z"></path>
			</g>
			<g>
				<path class="st9" d="M554.2,259.8c-0.2,0-0.1-0.7-0.3-1.9c-0.2-1.2-0.7-3-1.9-5c-0.6-1-1.4-2-2.4-3c-1-1-2.1-1.8-3.6-2.1      c-2.9-0.6-6.7,0.6-10.5,2.4c-3.8,1.9-7.8,4.5-11.9,7.5c-2,1.5-4.1,3.2-6.2,5c-2.1,1.8-4.2,3.7-6.4,5.7      c-8.8,7.8-18.6,16.3-28.8,25.5c-5.1,4.6-10.2,9.3-15.4,14.3c-5.1,4.9-10.3,10.1-14.9,15.5c-2.3,2.8-4.7,5.7-7.1,8.5      c-2.4,2.8-4.8,5.7-6.9,8.5c-2.1,2.8-3.8,5.7-5.2,8.9c-1.4,3.1-2.5,6.5-3.5,10c-1.9,6.8-3.4,14-4.8,21c-1.4,7-2.7,14-4.1,20.7      c-2.6,13.5-5.1,26.4-7.8,38c-1.3,5.8-2.9,12-4.6,18.4c-1.7,6.4-3.4,13-5.2,19.9c-3.6,13.8-7.5,28.4-11.6,43.4      c-4.1,15-8.3,30.3-12.8,45.4c-2.2,7.5-4.4,15-6.8,22.4c-1.1,3.7-2.4,7.3-3.6,10.9c-0.7,1.8-1.3,3.6-2,5.4      c-0.7,1.8-1.6,3.6-2.4,5.3c-0.4,0.9-0.9,1.7-1.4,2.5l-1.5,2.4c-0.5,0.8-1,1.6-1.5,2.4l-1.6,2.3c-1,1.5-2.1,3-3.1,4.5      c-1.1,1.4-2.2,2.8-3.2,4.2c-4.3,5.6-8.6,10.7-12.9,15.5c-8.5,9.6-16.4,17.8-23.2,24.6c-6.8,6.8-12.4,12.1-16.4,15.7      c-4,3.6-6.3,5.4-6.5,5.2c-0.2-0.2,1.7-2.4,5.3-6.4c3.6-4,8.8-9.7,15.3-16.7c6.4-7.1,14-15.6,22.1-25.4c4-4.9,8.2-10.1,12.2-15.7      c1-1.4,2-2.8,3-4.2c1-1.4,1.9-2.9,2.9-4.4l1.4-2.2l1.3-2.3l1.3-2.3c0.4-0.8,0.9-1.5,1.2-2.3c0.7-1.6,1.5-3.1,2.1-4.8      c0.6-1.7,1.2-3.5,1.8-5.2c1.1-3.6,2.3-7.2,3.3-10.9c2.2-7.3,4.2-14.8,6.3-22.4c4.1-15.1,8.1-30.5,12-45.5      c3.8-15,7.6-29.7,11.1-43.5c1.8-6.9,3.5-13.6,5.1-19.9c1.7-6.4,3.2-12.4,4.5-18.1c2.6-11.5,5.2-24.2,7.9-37.7      c1.4-6.8,2.8-13.7,4.3-20.8c1.5-7.1,3-14.2,5.2-21.5c1.1-3.6,2.3-7.2,4-10.9c1.6-3.6,3.8-7.1,6.2-10.2c2.4-3.1,4.9-5.9,7.3-8.7      c2.4-2.8,4.8-5.6,7.2-8.4c5-5.7,10.4-10.8,15.7-15.7c5.3-4.9,10.6-9.6,15.9-14c10.4-9,20.5-17.2,29.6-24.6      c2.3-1.9,4.5-3.7,6.6-5.5c2.2-1.8,4.4-3.4,6.6-4.9c4.4-3,8.6-5.5,12.8-7.3c4.2-1.7,8.5-2.9,12.4-1.9c1,0.3,1.9,0.7,2.6,1.3      c0.8,0.6,1.3,1.2,1.8,1.8c1,1.2,1.8,2.4,2.4,3.6c1.1,2.3,1.3,4.4,1.3,5.7C554.6,259.2,554.4,259.9,554.2,259.8z"></path>
			</g>
			<g>
				<path class="st9" d="M458.8,311.7c-0.9-0.6,5.5-11,14.9-23.4c4.7-6.2,10.1-12.9,15.6-19.2c2.7-3.1,5.5-6.2,8.1-9.1      c1.3-1.4,2.7-2.8,3.9-4.1c0.6-0.7,1.3-1.3,1.9-1.9c0.7-0.7,1.1-1.2,2-1.9c1.6-1.4,3-2.4,4.6-3.5c1.6-1.1,3.2-2.2,4.9-3.3      c3.4-2.2,7.1-4.4,10.8-6.7c3.8-2.2,7.6-4.5,11.5-6.7c2-1.1,3.8-2.2,5.9-3.2c2.1-1,4.3-1.9,6.5-2.5c2.2-0.6,4.6-0.9,6.9-0.7      c2.3,0.2,4.6,0.8,6.4,2.1c1.9,1.2,3.2,3,4,4.5c0.8,1.5,1.5,2.9,2,4.2c2,5.4,1.2,9.1,0.7,9c-0.6,0-0.9-3.3-3.5-7.7      c-0.6-1.1-1.4-2.3-2.3-3.5c-0.9-1.2-1.8-2.1-3.1-2.7c-2.5-1.2-5.9-1-9.4,0.2c-1.7,0.6-3.5,1.5-5.2,2.5c-1.7,1-3.6,2.3-5.4,3.5      c-3.7,2.4-7.4,4.9-11,7.2c-3.6,2.4-7.1,4.8-10.4,7c-1.6,1.1-3.2,2.2-4.7,3.2c-1.4,1-2.9,2.1-3.8,2.9c-0.4,0.3-1.1,1.1-1.7,1.6      c-0.6,0.6-1.2,1.2-1.9,1.9c-1.3,1.3-2.6,2.6-3.9,4c-2.7,2.8-5.5,5.7-8.4,8.6c-5.7,5.9-11.5,12.2-16.7,17.8      C467.7,303.3,459.7,312.4,458.8,311.7z"></path>
			</g>
			<g>
				<path class="st9" d="M910.4,358.2c-0.5,0-1.5-5.7-3.8-15c-1.2-4.6-2.7-10.1-4.6-16.2c-1.9-6.1-4.4-12.6-7.2-19.5      c-2.9-6.8-6.3-13.8-10.1-20.8c-1-1.7-2-3.4-3-5.1l-1.5-2.6l-1.6-2.5l-3.2-5c-1.2-1.6-2.3-3.2-3.5-4.8      c-9.2-12.8-20.1-23.7-29.8-31.7c-9.7-8.1-22.9-16.9-38-23.8c-15.1-7-31.9-12-47.6-15c-3.9-0.6-7.8-1.3-11.5-1.9      c-0.9-0.2-1.8-0.3-2.8-0.5c-0.9-0.1-1.8-0.2-2.7-0.3c-1.8-0.2-3.6-0.4-5.3-0.6c-3.4-0.3-6.7-0.8-9.8-1c-3.1-0.2-5.9-0.4-8.5-0.6      c-10.4-0.7-16.9-0.7-16.9-1.3c0-0.5,6.4-1.6,17-1.9c2.6-0.1,5.5-0.1,8.6-0.1c3.1,0,6.4,0.2,9.9,0.4c1.8,0.1,3.6,0.2,5.4,0.3      c0.9,0,1.8,0.1,2.8,0.1c0.9,0.1,1.9,0.2,2.8,0.3c3.8,0.4,7.8,0.9,11.8,1.3c16.1,2.4,33.7,6.9,49.6,13.8      c15.9,6.8,30,15.9,40.1,24.4c10.2,8.4,21.4,20,30.7,33.6c1.2,1.7,2.3,3.4,3.5,5.1l3.2,5.3l1.6,2.6l1.5,2.7c1,1.8,2,3.6,2.9,5.4      c3.7,7.3,6.9,14.7,9.5,21.8c5.2,14.3,8.2,27.5,9.6,37.2C911,352.2,911,358.2,910.4,358.2z"></path>
			</g>
			<g>
				<path class="st9" d="M668.4,194.3c0.1,0.5-3.3,1.9-9,3.8c-5.6,2.1-13.5,4.8-21.9,8.6c-8.5,3.7-17.6,8.3-26.1,13.4      c-8.5,5-16.4,10.4-22.8,15.2c-6.4,4.7-14.2,10.9-22,17.8c-7.8,6.9-15.5,14.7-22.3,22.1c-6.7,7.4-12.4,14.4-16.5,19.5      c-4.1,5.1-6.5,8.3-7,8c-0.5-0.3,1.1-4.1,4.4-9.8c3.3-5.7,8.4-13.4,14.7-21.4c6.3-8,13.8-16.4,21.6-23.8      c7.7-7.5,15.7-14,22.3-18.9c6.6-4.9,14.9-10.3,24-15.1c9-4.8,18.7-9.1,27.7-12.2c8.9-3.2,17.2-5.1,23.2-6.3      C664.6,194.1,668.3,193.8,668.4,194.3z"></path>
			</g>
			<g>
				<path class="st9" d="M586.7,750.5c-0.3,0.4-5.4-3.2-12.5-10.3c-7.1-7.1-16.2-18-23.8-31.9c-1.9-3.5-3.7-7.1-5.3-11      c-0.8-2-1.6-3.9-2.2-6l-0.5-1.5c-0.1-0.4-0.3-0.9-0.5-1.4c-0.3-0.9-0.7-1.8-1.1-2.7c-3.2-7.4-7.2-14.8-11.1-22.1      c-1-1.8-2-3.7-3-5.5c-1-1.8-1.9-3.6-2.9-5.6c-1.9-3.9-3.3-8-4.3-12c-1.9-8-2.2-15.8-3-22c-0.4-3.1-1.1-6.3-2.4-9      c-1.3-2.7-3.4-4.9-6.4-7c-1.5-1-3.2-2-4.9-3l-1.3-0.7l-1.5-0.9c-1-0.6-2-1.4-2.9-2.1c-3.7-3-6.8-6.7-9.3-10.7      c-5-8-7.9-17.1-9.6-26c-0.9-4.5-1.4-9-1.9-13.4c-0.1-2.2-0.3-4.4-0.4-6.6c-0.1-2.1-0.2-4.2-0.3-6.3c-0.8-16.6-2.1-31.6-2.9-42.4      c-0.8-10.8-1.1-17.5-0.6-17.6c0.5-0.1,1.9,6.5,3.7,17.2c1.7,10.7,3.9,25.6,5.4,42.3c0.2,2.1,0.4,4.2,0.6,6.3      c0.2,2.1,0.4,4.2,0.6,6.3c0.6,4.2,1.2,8.5,2.2,12.7c1.9,8.4,4.8,16.6,9.3,23.4c2.2,3.4,4.9,6.4,7.8,8.7c0.8,0.5,1.5,1.1,2.3,1.5      l1.2,0.7l1.4,0.8c1.9,1,3.7,2.1,5.6,3.3c1.8,1.2,3.6,2.7,5.2,4.3c1.6,1.7,2.9,3.6,3.9,5.6c2,4,2.7,7.9,3.2,11.4      c0.9,7,1.1,14.2,2.7,21.3c0.8,3.6,2,7.1,3.5,10.5c0.8,1.7,1.7,3.5,2.7,5.4c0.9,1.8,1.9,3.7,2.8,5.5c3.8,7.5,7.6,15,10.8,23.1      c0.4,1,0.8,2,1.1,3.1c0.3,1,0.7,2.3,0.9,3.1c0.5,1.8,1.2,3.7,1.8,5.5c1.4,3.7,3,7.2,4.6,10.7c6.7,13.7,14.8,24.8,21.1,32.4      C582.8,745.8,587.2,750.1,586.7,750.5z"></path>
			</g>
			<g>
				<path class="st9" d="M673.9,747c0.1,0.3-1.1,0.9-3.2,1.8c-2.1,0.9-5.2,2-8.9,3.8c-3.6,1.8-7.8,4.3-12.5,7.1      c-2.3,1.4-4.8,3-7.4,4.5c-2.6,1.6-5.4,3.2-8.4,4.7c-2.9,1.5-6.2,2.9-9.6,4c-3.4,1.1-7.2,1.8-11.1,1.7c-3.9-0.1-7.9-1.1-11.4-2.8      c-0.9-0.4-1.8-0.9-2.6-1.4c-0.8-0.5-1.6-1-2.4-1.6l-1.2-0.8l-1.2-1l-1.2-1c-0.4-0.4-0.7-0.8-1-1.2c-2.7-3.1-4.4-6.8-5.4-10.4      c-1.1-3.6-1.5-7.1-1.8-10.5c-0.5-6.8-0.2-13.1,0.1-18.7c0.4-5.6,0.7-11.6,0.8-18.3c0.1-6.6,0.2-13.7,0.2-21      c0-14.5,0-29.8-0.6-43.5c-0.2-3.4-0.3-6.9-0.8-9.6c-0.1-0.8-0.2-1-0.5-1.5c-0.3-0.5-0.7-1-1.1-1.4c-0.9-1-2-1.9-3.2-2.7      c-4.6-3.3-9.5-5.6-13.5-7.4c-8.1-3.7-13.3-5.6-13.2-6.1c0.1-0.6,5.7,0.3,14.3,3.2c4.3,1.5,9.4,3.4,14.8,6.6c1.3,0.8,2.7,1.8,4,3      c0.7,0.6,1.3,1.3,1.9,2.2c0.6,0.8,1.1,2.2,1.2,3c0.9,3.6,1.1,6.9,1.5,10.4c1.3,13.9,1.9,29.2,2.4,43.8      c0.2,7.3,0.3,14.4,0.3,21.2c0,6.7-0.3,13.2-0.6,18.7c-0.3,5.5-0.7,11.5-0.3,17.6c0.4,6,1.5,12.4,5.1,16.8      c0.2,0.3,0.4,0.6,0.7,0.8l0.8,0.7l0.8,0.7l0.9,0.7c0.6,0.5,1.3,0.9,1.9,1.3c0.6,0.4,1.3,0.8,2,1.2c2.7,1.4,5.5,2.3,8.5,2.5      c6,0.4,12.3-1.7,18-4.2c2.9-1.2,5.6-2.6,8.2-4c2.7-1.4,5.3-2.8,7.7-4c4.9-2.5,9.5-4.7,13.5-6.1c4-1.4,7.4-2.1,9.6-2.5      C672.6,746.9,673.8,746.8,673.9,747z"></path>
			</g>
			<g>
				<path class="st9" d="M672,704.1c0.3-0.5,1.2-0.4,2.5,0c0.6,0.2,1.4,0.5,2.1,0.8c0.8,0.4,1.5,0.9,2.4,1.5c0.8,0.6,1.7,1.2,2.5,2      c0.8,0.8,1.7,1.5,2.3,2.4c0.7,0.9,1.4,1.7,1.9,2.6c0.5,0.9,1,1.8,1.4,2.6c0.3,0.8,0.7,1.8,1,2.9c0.3,1.1,0.5,2.2,0.7,3.4      c0.2,2.4,0.2,4.9-0.3,7c-0.8,4.4-3,7.3-4,6.9c-1-0.4-1-3.5-1.6-7.1c-0.3-1.8-0.8-3.7-1.3-5.4c-0.3-0.8-0.6-1.7-0.9-2.4      c-0.3-0.7-0.6-1.5-0.9-2.1c-1-2.5-2.9-5.9-4.8-8.8c-0.5-0.7-0.9-1.4-1.3-2.1c-0.4-0.6-0.8-1.2-1.1-1.8      C671.9,705.4,671.7,704.5,672,704.1z"></path>
			</g>
			<g>
				<path class="st9" d="M731.4,778c0.1,0.5-2.1,1.6-5.8,3.5c-3.7,1.8-8.8,4.3-14.7,6.9c-2.9,1.3-6.1,2.7-9.3,4      c-3.2,1.3-6.6,2.6-10.2,3.5c-6.9,1.8-13.6,2.8-18.8,3.8c-2.6,0.5-5.6,1.1-8.7,2c-3.5,0.9-7.3,1.5-11.2,1.6      c-3.9,0.1-8-0.3-12.1-1.7c-1-0.3-2-0.8-3.1-1.4c-0.5-0.3-1.1-0.7-1.5-1c-0.4-0.3-0.8-0.6-1.1-0.9c-1.5-1.2-2.8-2.5-4-3.7      c-2.5-2.4-4.8-4.6-7-6.4c-0.5-0.4-1.1-0.9-1.6-1.3c-0.5-0.4-0.9-0.6-1.6-1.1c-1.2-0.8-2.2-1.7-3.1-2.5c-3.4-3.4-4.6-6-4.2-6.3      c0.4-0.4,2.5,1.5,6.1,3.9c0.9,0.6,1.9,1.1,3,1.6c0.5,0.2,1.3,0.6,2,0.9c0.7,0.4,1.4,0.7,2,1.2c2.7,1.7,5.3,3.7,8.1,5.8      c1.4,1,2.8,2.1,4.1,3.1l1,0.7c0.3,0.2,0.5,0.3,0.8,0.4c0.6,0.3,1.3,0.5,2,0.7c3,0.8,6.4,0.9,9.7,0.6c3.3-0.2,6.5-0.9,9.4-1.8      c3.3-1,6.5-1.7,9.3-2.3c5.6-1.1,12.2-1.9,18.7-3.2c3.2-0.6,6.4-1.6,9.6-2.6c3.3-1,6.5-2,9.5-3c6.1-1.9,11.6-3.6,15.7-4.6      C728.6,777.6,731.3,777.4,731.4,778z"></path>
			</g>
			<g>
				<path class="st9" d="M711.9,799.7c0.7,0.7-3.5,6.7-11.6,11.8c-4,2.5-9.2,4.4-14.2,5.3c-5,0.9-9.9,1.1-13.8,1.1      c-1.9,0-4.1-0.1-6.4-0.1c-2.3-0.1-4.6-0.1-7.5-0.3c-1.4,0-2.8-0.5-4.2-0.7c-1.4-0.3-2.7-0.8-4.1-1.2c-2.6-1.1-5.1-2.3-7.2-3.8      c-4.3-3-7.2-6.6-9-9.3c-1.7-2.8-2.3-4.8-1.8-5.1c0.5-0.3,1.9,1.1,4.2,3c2.3,1.9,5.5,4.5,9.5,6.5c2,1,4.1,1.7,6.3,2.4      c1.1,0.2,2.2,0.5,3.4,0.6c1.1,0.1,2.2,0.3,3.4,0.2c2.1,0,4.8-0.1,7.1-0.1c2.3,0,4.5,0,6.4,0c3.8,0,8.3,0.1,12.7-0.4      c4.4-0.4,8.8-1.5,12.7-3.1C705.5,803.2,711.1,798.8,711.9,799.7z"></path>
			</g>
			<g>
				<path class="st9" d="M843.2,734.9c0.5,0.2-1.7,6.1-6.2,15.1c-4.5,9.1-11.5,21.3-20.2,34.5c-8.7,13.2-19.1,27.2-30.7,39.9      c-5.8,6.3-12,12.1-18.4,17.1c-6.3,5-13,9.1-19.2,12.3c-6.3,3.2-13.6,6.2-21.8,8.2c-8.2,2-17.1,3.2-26.2,3.4      c-1.1,0-2.3,0-3.4,0.1c-1.1,0-2.4-0.1-3.6-0.2l-3.6-0.3l-3.6-0.7c-4.8-0.8-9.3-2.7-13.6-4.8c-8.5-4.5-15.4-11.1-20.5-18.2      c-2.6-3.5-4.8-7.2-6.6-10.9c-0.9-1.8-1.7-3.7-2.5-5.5c-0.4-0.9-0.7-1.8-1-2.8c-0.3-0.8-0.6-1.6-0.9-2.4      c-1.4-3.1-3.2-6.1-4.8-8.8c-1.7-2.7-3.3-5.2-4.8-7.5c-6-9.1-9.8-14.7-9.4-15.1c0.4-0.3,5.1,4.6,11.9,13.2      c1.7,2.2,3.5,4.6,5.4,7.2c1.9,2.7,3.8,5.6,5.6,9c0.4,0.8,0.9,1.8,1.3,2.7c0.4,0.8,0.7,1.7,1.1,2.5c0.8,1.7,1.6,3.3,2.6,5      c1.9,3.4,4.1,6.7,6.6,9.8c5,6.4,11.5,12,18.9,15.7c3.8,1.7,7.8,3.2,11.9,3.8l3.1,0.5l3.1,0.1c1.1,0,2,0.2,3.1,0.1      c1.1,0,2.2-0.1,3.2-0.1c8.6-0.3,16.9-1.6,24.5-3.6c7.6-1.9,14.4-4.8,20.2-7.7c5.8-2.9,12-6.7,18-11.4c6.1-4.6,12.1-10.1,17.8-16      c11.5-11.9,22.2-25.5,31.4-38c9.2-12.6,16.8-24.3,22.1-32.8C839.6,740,842.7,734.7,843.2,734.9z"></path>
			</g>
			<g>
				<path class="st9" d="M729.7,581c0,0.4-0.8,0.9-2.6,1.4c-0.8,0.2-2.1,0.3-3.1,0.4c-1,0.1-1.9,0.5-3.2,1.1      c-2.5,1.1-5.7,2.8-9.3,4.6c-3.6,1.8-7.5,3.8-11.7,5.9c-2.1,1-4.2,2.1-6.4,3.2c-2.2,1.1-4.5,2.2-6.8,3.3      c-4.7,2.1-9.5,4.1-14.4,5.8c-4.9,1.7-9.9,3.2-14.8,4.2c-2.5,0.5-4.9,0.9-7.4,1.1c-1.3,0.1-2.5,0.2-3.8,0.2      c-1.3,0-2.6-0.1-4.3-0.4c-0.2,0-0.4-0.1-0.7-0.2c-0.3-0.1-0.5-0.1-0.8-0.3c-0.4-0.2-0.6-0.2-1.1-0.5c-0.6-0.4-0.9-0.4-2-1.6      c-0.2-0.2-0.4-0.5-0.6-0.8c-0.3-0.5-0.6-1.1-0.8-1.8c-0.2-0.7-0.3-1.2-0.2-1.9c0-0.7,0.2-1.4,0.5-2.1c0.1-0.3,0.3-0.7,0.5-0.9      c0.1-0.2,0.3-0.4,0.4-0.6c0.3-0.4,0.7-0.7,1-1.1c1.1-0.8,0.8-0.5,0.9-0.6l0.1,0l0.7-0.4l0.2-0.1l0.4-0.2c1-0.4,2-0.9,3-1.3      c2.1-0.9,4.3-1.8,6.5-2.7c4.5-1.8,9.4-3.7,14.4-5.5c10.1-3.6,20.8-7,30.7-9.5c9.9-2.5,19-4.1,25.8-4.5c3.4-0.2,6.1-0.1,8.2,0.5      c0.3,0.1,0.6,0.2,0.9,0.4c0.1,0.1,0.2,0.2,0.3,0.2c0.1,0.1,0.3,0.3,0.3,0.5c0.2,0.5,0,1-0.1,1.2c-0.6,0.6-0.9,0.5-1.2,0.6      c-0.6,0.1-0.9,0-1-0.2c-0.1-0.2,0.1-0.5,0.4-0.9c0.1-0.1,0.1-0.2,0.2-0.3c0,0,0.1-0.1,0.1-0.1l0-0.1c0,0,0.2,0.2,0.3,0.2      c0.2,0.1,0.3,0.1,0.3,0.1c-0.1,0-0.1,0.1-0.2,0.2c-0.1,0.1-0.2,0.2-0.2,0.4c-0.1,0.2-0.2,0.1-0.4,0.2c-1.5,0.2-4.1,0.9-7.1,1.7      c-6.2,1.7-14.7,4.5-24,8c-9.3,3.5-19.5,7.6-29.1,11.7c-4.8,2.1-9.5,4.1-13.9,6.1c-2.2,1-4.3,1.9-6.3,2.8c-1,0.5-2,0.9-3,1.3      l-0.4,0.2l-0.2,0.1l0,0c-0.7-1.7,1.5,3.9-1.5-3.9l-0.1-0.1l-0.3-0.3c-0.2-0.2-0.4-0.4-0.4-0.5c0-0.1-0.3-0.3-0.2-0.3      c0,0-0.1,0,0,0c0,0,0.1,0,0.1-0.1c0.1,0,0.2-0.1,0.2-0.1c0.4-0.5,1.1-1.6,1.5-2.8c0.2-0.6,0.5-1.3,0.6-2c0-0.2,0-0.1,0-0.1      l0.1,0c0.3,0.1,1.1,0.1,1.9,0.2c0.8,0,1.7,0,2.7-0.1c1.9-0.1,4-0.4,6.1-0.8c4.3-0.7,8.9-1.8,13.6-3.2c4.7-1.3,9.4-2.9,14-4.5      c2.3-0.8,4.6-1.7,6.9-2.5c2.3-0.9,4.6-1.7,6.8-2.5c4.4-1.6,8.6-3.1,12.5-4.3c3.9-1.2,7.3-2.3,10.6-2.9c0.8-0.2,1.6-0.2,2.4-0.3      c0.8,0,1.6,0,2.3,0.2c1.3,0.3,2.1,0.6,2.9,0.7C728.7,580.3,729.6,580.5,729.7,581z"></path>
			</g>
			<g>
				<path class="st9" d="M741.8,616.7c0.4,0.9-3.7,4.1-10,6.3c-6.2,2.3-14.6,2.9-20.3,2c-2.9-0.4-6.3-1.2-9.8-2.4      c-1.6-0.5-3.3-1.1-5-1.6c-0.8-0.3-1.5-0.4-2.3-0.7c-0.8-0.2-1.7-0.4-2.5-0.6c-6.4-1.5-11.7-2.4-11.7-3.5c0-1.1,5.5-2.2,12.4-2.1      c0.9,0,1.8,0,2.7,0.1c0.9,0.1,2,0.2,2.9,0.3c1.9,0.3,3.7,0.6,5.4,1c3.4,0.7,6.5,1.2,9,1.6c5,0.8,12,1.2,17.9,0.4      C736.6,616.8,741.4,615.6,741.8,616.7z"></path>
			</g>
			<g>
				<path class="st9" d="M715.9,634.6c0,1.1-2.1,2.1-4.8,2.4c-2.7,0.4-6.1,0-8.3-0.8c-2.2-0.7-5.3-2.6-7.4-4.7      c-2.1-2.1-3.3-4.3-2.5-5.2c0.7-0.8,2.9-0.4,5.4,0.3c2.5,0.6,5.3,1.4,7.2,2c1.8,0.6,4.3,1.8,6.5,2.8      C714.1,632.5,715.9,633.5,715.9,634.6z"></path>
			</g>
			<g>
				<path class="st9" d="M562.8,622.5c0.2,1.1-3.1,2.6-7.6,3.5c-4.5,0.9-10,0.8-13.8,0.3c-3.8-0.5-9.4-2-13.7-3.9      c-4.4-1.9-7.6-4.1-7.3-5.1c0.4-1,4.1-0.8,8.7-0.4c4.6,0.4,9.9,1,13.4,1.5c3.4,0.5,8.3,1.3,12.6,2      C559.2,620.9,562.6,621.4,562.8,622.5z"></path>
			</g>
			<g>
				<path class="st9" d="M496.1,589.7c0.8-1.5,8,0.6,16.9,3.9c2.2,0.8,4.5,1.7,6.8,2.6c2.3,0.9,4.7,1.7,7,2.6      c4.7,1.7,9.2,3.3,12.9,4.7c3.7,1.5,8.3,3.3,13.2,5.2c2.4,0.9,4.9,1.9,7.3,2.8l1.7,0.6l0.6,0.2l0,0c0,0,0-0.2,0,0.4      c-0.1,0.8-0.1,1.6-0.1,2.2c0,0.7,0,1.1,0.1,1.6c0,0.1,0.1,0.3,0.1,0.4c0,0,0.1,0.1,0.1,0.1l0,0l0,0c0,0,0.1-0.1-0.1,0      c-0.1,0-0.3,0-0.4,0.1c-0.1,0-0.1,0.1-0.1,0.1l-0.3,0.2c-0.4,0.3-0.7,0.5-1,1c-0.5,0.4-0.9,0.9-1.3,1.4c-0.1,0.1,0,0-0.1,0      c-0.1-0.1-0.2-0.2-0.4-0.4c-0.4-0.3-0.9-0.7-1.3-1c-3.9-2.8-7.8-5.3-10.5-7.3c-2.7-2-4.2-3.6-3.9-4.3c0.3-0.8,2.5-0.7,5.8,0.1      c3.3,0.8,7.7,2,12.7,4.2c0.6,0.3,1.3,0.6,2,1c0.4,0.2,0.7,0.4,1.2,0.7c0.2,0.1,0.5,0.4,0.8,0.6c0.2,0.2,0.5,0.5,0.7,0.8      c0.1,0.1,0.1,0.1,0.2,0.3c0.1,0.2,0.2,0.4,0.3,0.6c0.2,0.5,0.4,0.9,0.4,1.4l-0.1,1.6l-0.1,0.3c-0.1,0.2-0.2,0.5-0.3,0.7      c-0.2,0.5-0.6,1-1,1.4c-0.2,0.2-0.4,0.4-0.6,0.5c-0.2,0.1-0.5,0.3-0.5,0.3l-0.4,0.2c-0.3,0.1-0.5,0.2-0.8,0.3      c-0.6,0.2-1.1,0.2-1.3,0.2c-0.6,0-0.8,0-1.1,0c-0.5,0-1-0.1-1.4-0.1c-0.8-0.1-1.5-0.2-2.3-0.4c-2.9-0.5-5.6-1.2-8.2-1.9      c-5.3-1.4-10.2-3-14.1-4.5c-3.9-1.5-8.4-3.5-13.1-5.8c-2.3-1.2-4.6-2.4-6.9-3.7c-1.1-0.7-2.2-1.3-3.3-2c-1-0.7-2.1-1.4-3-2      C501.2,595.9,495.3,591.2,496.1,589.7z"></path>
			</g>
			<g>
				<path class="st9" d="M552.4,228.5c0.3-0.3,1.2,0.1,1.8,1.3c0.7,1.2,0.9,3.1,0.7,5c0,0.3-0.1,0.5-0.1,0.8      c-0.1,0.4-0.2,0.7-0.3,1.1c-0.1,0.1,0,0.2-0.2,0.2c0,0.1-0.1,0.2-0.1,0.3c-0.1,0.2-0.2,0.3-0.3,0.5c-0.2,0.3-0.6,0.6-0.8,0.8      c-0.8,0.7-1.5,1.3-2.3,1.8c-1.5,1.1-3.1,2.1-4.5,2.7c-2.7,1.3-7.2,2.9-11.5,2.6c-1.1-0.1-2.1-0.4-3-0.7c-0.9-0.4-1.7-1-2.1-1.6      c-1-1.2-0.9-2.1-0.6-2.3c0.4-0.2,1.1,0.2,2,0.4c0.9,0.3,2.1,0.3,3.6-0.1c3-0.7,6.6-2.5,9-3.7c1.2-0.6,2.7-1.3,4.3-2.1      c0.7-0.4,1.5-0.8,2.2-1.1c0.2-0.1,0.3,0,0.4-0.1c0,0,0.1-0.1,0.1-0.1c0.1-0.1,0.2-0.3,0.2-0.4c0.6-1.3,1-2.5,1.2-3.4      C552.1,229.4,552,228.7,552.4,228.5z"></path>
			</g>
			<g>
				<path class="st9" d="M536.6,248.1c0.3-0.3,1.1,0,2.1,0.9c0.5,0.5,1,1,1.4,2c0.5,1.1,0.8,2.5,0.3,3.9c-0.8,0.8-1.7,1.7-2.6,2.5      c-0.7,0.6-1.4,1.3-2.1,1.9c-1.4,1.2-2.9,2.2-4.1,3c-2.6,1.6-6.8,3.6-11.1,4c-1,0.1-2.1,0-3-0.1c-1-0.2-1.8-0.5-2.4-0.9      c-1.3-0.9-1.5-1.8-1.2-2.1c0.3-0.3,1.1-0.1,2-0.1c1,0,2.2-0.3,3.7-0.9c3-1.2,6.4-3.5,8.8-5c1.2-0.7,2.6-1.5,4.1-2.4      c0.7-0.4,1.5-0.9,2.3-1.3l1.1-0.6l0.4-0.1c0.3-0.1,0.4-0.4,0.5-0.8c0-0.5-0.1-1.1-0.2-1.6C536.4,249.1,536.2,248.3,536.6,248.1z      "></path>
			</g>
			<g>
				<path class="st9" d="M503.7,299.4c0.2-0.4,1.4-0.6,3.2,0.1c0.9,0.4,1.9,1,2.8,2c0.8,0.7,2,2.8,2.2,4.8c-0.4,0.5-0.8,1.1-1.2,1.7      l-0.9,1.2c-0.5,0.6-1,1.3-1.4,1.9c-1,1.2-2,2.3-2.9,3.1c-2.4,2.2-6.4,5.3-10.8,6.4c-1.1,0.3-2.2,0.4-3.2,0.3      c-1-0.1-2-0.3-2.7-0.7c-1.4-0.8-1.7-1.8-1.5-2c0.3-0.3,1.1-0.1,2.1-0.2c1-0.1,2.3-0.5,3.7-1.3c2.9-1.7,6-4.8,8.1-6.8      c0.8-0.8,1.8-1.7,2.9-2.7c0.5-0.5,1-1,1.6-1.5l0.4-0.4c0.2-0.2,0.1-0.1,0.2-0.1c0.1,0,0.1-0.1,0.2-0.1c0.1-0.2,0.3-0.3-0.1-1.3      c-0.3-0.8-0.7-1.4-1.2-2C504.3,300.6,503.5,299.9,503.7,299.4z"></path>
			</g>
			<g>
				<path class="st9" d="M622.1,286.3c-0.3-0.1-0.2-0.9,0.3-2.3c0.5-1.3,1.5-3.1,3.2-4.9c1.7-1.8,4.4-3.5,7.5-4.1      c1.6-0.4,3.2-0.5,4.8-0.4c0.8,0,1.6,0.1,2.4,0.3c0.4,0.1,0.8,0.1,1.2,0.3c0.5,0.1,1.2,0.4,1.8,0.6c0.5,0.6,1.1,1.1,1.6,1.7      c0.4,0.4,0.7,0.8,1.1,1.2c0.7,0.8,1.3,1.6,1.9,2.5c1.2,1.7,2.2,3.4,3,5.2c0.4,0.8,0.7,1.8,0.9,2.9c0.2,1.1,0.3,2.4,0,3.9      c-0.3,1.5-1.3,3.1-2.6,4c-1.3,0.9-2.6,1.4-3.8,1.7c-2.4,0.5-4.7,0.5-7.1,0.2c-2.3-0.3-4.5-1.1-6.4-2c-3.8-2-6.5-4.6-8.1-6.7      C622.3,288.1,621.7,286.5,622.1,286.3c0.3-0.2,1.5,0.8,3.5,2.2c2,1.4,4.8,3.3,8.1,4.4c1.7,0.5,3.4,0.9,5.2,1      c0.9,0,1.8,0,2.7-0.1c0.9-0.1,1.8-0.2,2.5-0.5c0.7-0.2,1.3-0.5,1.6-0.8c0.3-0.3,0.3-0.4,0.4-0.8c0.1-0.7-0.2-2.1-0.7-3.2      c-0.5-1.2-1.3-2.7-2.3-4.2c-0.5-0.7-1-1.5-1.6-2.3c-0.3-0.4-0.6-0.8-0.9-1.1l-0.4-0.5c0,0,0,0,0-0.1c-0.1,0,0.1,0-0.2-0.1      c-0.3-0.1-0.6-0.2-0.9-0.3c-0.6-0.2-1.2-0.3-1.8-0.4c-1.2-0.2-2.4-0.3-3.6-0.1c-2.3,0.2-4.5,1-6.1,2.1      C624.3,283.9,622.7,286.7,622.1,286.3z"></path>
			</g>
			<g>
				<path class="st9" d="M630.6,225.7c-0.3-0.1-0.1-1,0.3-2.5c0.3-0.7,0.7-1.5,1.3-2.5c0.6-0.9,1.3-1.9,2.3-2.8      c1.9-1.9,4.6-3.7,7.7-4.9c1.6-0.6,3.2-1.1,4.9-1.5c0.9-0.2,1.7-0.3,2.6-0.5c0.5-0.1,0.8-0.1,1.4-0.1c0.8-0.1,1.5-0.1,2.3-0.1      l1.5,1.3l0.9,0.8c0.5,0.5,1.1,1,1.6,1.5c1,1,2,2,2.9,3.1c1.8,2.1,3.4,4.3,4.6,6.6c0.5,1,0.9,2.1,1.2,3.4      c0.3,1.3,0.5,2.9,0.1,4.6c-0.4,1.7-1.5,3.3-2.8,4.4c-1.3,1.1-2.7,1.7-4.1,2.2c-2.7,0.8-5.6,1.2-8.4,0.8      c-2.7-0.4-5.4-1.1-7.6-2.2c-4.5-2.1-7.8-5-10-7.3C631.3,227.7,630.3,226,630.6,225.7c0.3-0.3,1.8,0.8,4.3,2.4      c2.5,1.6,6,3.8,10.1,5.1c2,0.7,4.2,1.1,6.4,1.2c2.2,0.1,4.2-0.4,6.2-1.1c0.9-0.4,1.7-0.8,2.2-1.3c0.5-0.5,0.7-0.9,0.8-1.4      c0.2-1-0.2-2.6-0.9-4c-0.8-1.7-2.1-3.6-3.6-5.5c-0.8-1-1.6-1.9-2.5-2.9c-0.4-0.5-0.9-1-1.4-1.4l-0.3-0.4      c-0.1-0.1-0.3-0.3-0.2-0.2l-0.1-0.1l-0.1,0c-0.3,0-0.7,0-1.1,0c-0.8,0-1.5,0.1-2.3,0.2c-1.5,0.2-3,0.4-4.3,0.8      c-2.8,0.7-5.2,1.8-7.1,3.1C632.7,222.9,631.3,226,630.6,225.7z"></path>
			</g>
			<g>
				<path class="st9" d="M670.6,200.7c-0.4-0.1-0.5-3.7,2.4-8.5c1.5-2.3,3.9-4.7,7.1-6.2c1.6-0.8,3.3-1.3,5.2-1.6      c0.9-0.1,1.8-0.2,2.8-0.3c0.5,0,0.9,0,1.4,0l0.7,0c0.3,0,0.8,0.1,1.1,0.1c0.7,0.3,1.5,0.7,2.2,1c0.6,0.3,1.2,0.6,1.8,0.9      c1.2,0.6,2.3,1.3,3.5,2c2.2,1.4,4.3,3,5.9,4.8c0.7,0.8,1.5,1.8,2.1,3.1c0.6,1.3,1.1,3.2,0.5,5.1c-0.6,1.9-1.9,3.3-3.1,4.2      c-1.2,0.9-2.5,1.5-3.8,2c-4.9,1.9-10.6,2.3-15.5,1.4c-4.8-1-8.7-3.2-11.1-5.1c-2.4-1.9-3.5-3.5-3.3-3.8c0.3-0.3,1.8,0.6,4.5,1.8      c2.6,1.2,6.3,2.5,10.5,2.9c4.2,0.3,8.8-0.4,12.7-2.3c0.9-0.4,1.8-0.9,2.4-1.4c0.6-0.5,0.9-1,0.9-1.2c0-0.2,0-0.5-0.2-1      c-0.3-0.5-0.7-1.1-1.2-1.6c-1.1-1.3-2.8-2.6-4.7-3.9c-0.9-0.7-2-1.3-3-2c-0.5-0.3-1.1-0.6-1.6-0.9l-0.8-0.5l-0.4-0.2      c0,0,0,0-0.1,0c-0.1,0,0,0-0.1,0l-0.5-0.1c-0.3,0-0.7-0.1-1-0.1c-0.7,0-1.4,0-2.1,0c-1.4,0.1-2.8,0.4-4,0.8      c-2.6,0.8-4.7,2.4-6.3,4.1C672.4,197.6,671.2,200.9,670.6,200.7z"></path>
			</g>
			<g>
				<path class="st9" d="M730.2,208.5c-0.4-0.2-0.2-2.7,1.8-6c1.1-1.6,2.6-3.4,4.7-4.9c1.1-0.7,2.2-1.4,3.5-1.9      c0.6-0.3,1.3-0.5,2-0.7c0.3-0.1,0.7-0.2,1.1-0.3c0.5-0.1,1.1-0.2,1.7-0.2l2.6,0.9c0.7,0.2,1.3,0.5,2,0.8      c1.3,0.5,2.6,1.1,3.9,1.7c2.5,1.3,4.8,2.7,6.8,4.7c0.7,0.7,1.4,1.6,1.9,2.9c0.6,1.3,0.7,3.4-0.1,4.9c-0.7,1.6-1.8,2.5-2.9,3.2      c-1,0.7-2.1,1.2-3.2,1.6c-4.4,1.8-9.4,1.5-13.4,0.5c-4-1.1-7.2-2.8-9.3-4.2C731.1,210.1,730,208.9,730.2,208.5      c0.2-0.3,1.7,0.2,4,0.9c2.3,0.8,5.5,1.7,9.1,2.2c3.5,0.4,7.4,0.1,10.3-1.4c0.7-0.4,1.5-0.8,2-1.2c0.5-0.4,0.8-0.8,0.9-1      c0-0.1,0,0-0.1-0.3c-0.1-0.2-0.4-0.7-0.8-1.1c-1.1-1.2-3-2.5-5.1-3.7c-1.1-0.6-2.2-1.2-3.4-1.8l-1.8-0.9      c-0.6-0.3-1.4-0.6-1.2-0.6c-0.1,0,0,0-0.2,0c-0.3,0-0.5,0-0.8,0.1c-0.5,0.1-1,0.2-1.5,0.3c-1,0.3-2,0.7-2.9,1.1      c-1.8,0.9-3.3,2-4.5,3.2C732,206.7,730.8,208.8,730.2,208.5z"></path>
			</g>
		</g>
		<g>
			<path class="st9" d="M660.2,386.8c0.1,0.1,0.1,0.5,0,1.3c-0.1,0.8-0.5,2-1.1,3.4c-1.2,2.9-3.6,6.8-7.5,10.8     c-3.9,4-9.3,7.9-15.7,11.1c-3.2,1.6-6.7,3.1-10.3,4.4c-3.7,1.3-7.4,2.4-11.6,3.3l-5.7,1.2l2.3-5.5c0.2-0.4,0.1-0.3,0.2-0.4     l0.1-0.2l0.1-0.4c0.1-0.2,0.1-0.5,0.1-0.6c0-0.4,0.1-0.6-0.1-0.8c-0.2,0-0.4,0.3-0.5,0.5c-0.1,0.2-0.3,0.4-0.3,0.5     c-0.1,0.3-0.4,0.6-0.6,0.9c-4.1,4.5-8.7,8.5-13.2,11.9c-4.6,3.3-9.1,6.2-13.4,8.5c-4,2.2-8.4,4.5-13.2,6.6     c-4.9,2.1-9.9,4.2-15.6,6l-11.5,3.7l7.2-9.6c0.3-0.3,0.8-1.2,0.7-1.1c0,0,0.1-0.1,0.1-0.1c0-0.1,0.1-0.2,0.1-0.3     c-0.1-0.1-0.2-0.1-0.3-0.1l-0.1,0l-0.7,0.2c-0.2,0.1-0.5,0.2-0.9,0.3l-1,0.4c-2.6,1.1-5.2,2.4-7.8,3.8c-2.6,1.4-5.2,2.9-7.9,4.3     c-10.6,5.7-21.2,10.4-30.7,14.2c-18.9,7.5-33,11.1-33.2,10.2c-0.3-0.8,13.2-6,31.3-14.6c9-4.3,19.3-9.5,29.4-15.5     c2.6-1.5,5.1-3.1,7.7-4.6c2.6-1.5,5.4-3,8.2-4.4l1.1-0.5c0.4-0.2,0.7-0.3,1.2-0.5l1.4-0.5l2-0.6c1.3-0.3,2.7-0.4,3.8-0.3     c1.1,0.2,2.2,0.5,3.1,1.3c1.8,1.6,2.2,3.9,1.6,6.3c-0.3,1.2-0.9,2.5-1.5,3.8c-0.7,1.3-1,1.7-1.5,2.5l-4.3-5.8     c5.1-1.8,10.1-3.9,14.7-6c4.6-2.1,8.8-4.3,12.6-6.4c4.1-2.2,8.3-4.9,12.6-7.9c4.2-3.1,8.4-6.5,12.3-10.7c1.8-2.2,3.5-4.4,5.3-6.6     c1.8-2.3,3.5-4.1,4.9-5.3c1.4-1.1,2.4-1.4,3.3-1.6c0.4-0.1,0.8-0.1,1.3-0.1c0.4,0,0.9,0,1.7,0.6c0.6,0.5,0.7,0.8,0.9,1.3     c0.2,0.4,0.3,0.9,0.4,1.4c0.2,1.1,0.2,2.5-0.3,4.6c-1,4.1-3.3,9.7-5.2,13.9L613,415c3.6-0.6,7.3-1.5,10.8-2.5     c3.5-1,6.8-2.2,9.9-3.6c6.2-2.6,11.5-5.9,15.4-9.2c4-3.3,6.6-6.6,8.3-9.1C659.1,388.2,659.8,386.7,660.2,386.8z"></path>
		</g>
	</g>
</g>
</svg>
