<?xml version="1.0" encoding="UTF-8"?>
<!-- Generator: Adobe Illustrator 27.9.0, SVG Export Plug-In . SVG Version: 6.00 Build 0)  -->
<svg xmlns="http://www.w3.org/2000/svg" xmlns:xlink="http://www.w3.org/1999/xlink" version="1.1" id="Layer_1" x="0px" y="0px" viewBox="0 0 1369.3 1072" style="enable-background:new 0 0 1369.3 1072;" xml:space="preserve">
<style type="text/css">
	.st0{fill:url(#SVGID_1_);}
	.st1{fill:url(#SVGID_00000140703854586420094470000004082762613942703768_);}
	.st2{fill:url(#SVGID_00000029010054211829133080000008827031045340006532_);}
	.st3{fill:url(#SVGID_00000078731033766588999670000009063622849597479072_);}
	.st4{fill:url(#SVGID_00000170248093381949654320000013378829593535303100_);}
	.st5{fill:url(#SVGID_00000084516452133936071770000010569638704092958338_);}
	.st6{fill:url(#SVGID_00000067938526767394939720000013111359839699503280_);}
	.st7{fill:url(#SVGID_00000065787944709800249000000004926823548881642651_);}
	.st8{fill:url(#SVGID_00000072276120627102682440000000344186347595416734_);}
	.st9{fill:#262626;}
</style>
<g>
	<g>
		<g>
			<radialGradient id="SVGID_1_" cx="924.8597" cy="904.9193" r="166.5229" gradientUnits="userSpaceOnUse">
				<stop offset="0" style="stop-color:#EF4136"></stop>
				<stop offset="0" style="stop-color:#EF0F14"></stop>
				<stop offset="1" style="stop-color:#FFFFFF"></stop>
			</radialGradient>
			<path class="st0" d="M936.9,947.6c-27.1,0-49.1-22-49.1-49.1c0-27.1,22-49.1,49.1-49.1c27.1,0,49.1,22,49.1,49.1     C986.1,925.6,964,947.6,936.9,947.6z M936.9,864.3c-18.9,0-34.2,15.3-34.2,34.2c0,18.9,15.3,34.2,34.2,34.2     c18.9,0,34.2-15.3,34.2-34.2C971.1,879.6,955.8,864.3,936.9,864.3z"></path>
		</g>
		<g>
			
				<radialGradient id="SVGID_00000157286265446933895070000014355107919301319611_" cx="924.8597" cy="904.9192" r="166.5233" gradientUnits="userSpaceOnUse">
				<stop offset="0" style="stop-color:#EF4136"></stop>
				<stop offset="0" style="stop-color:#EF0F14"></stop>
				<stop offset="1" style="stop-color:#FFFFFF"></stop>
			</radialGradient>
			<path style="fill:url(#SVGID_00000157286265446933895070000014355107919301319611_);" d="M936.9,964.8     c-36.6,0-66.3-29.8-66.3-66.3s29.8-66.3,66.3-66.3s66.3,29.8,66.3,66.3S973.5,964.8,936.9,964.8z M936.9,845.8     c-29,0-52.7,23.6-52.7,52.7s23.6,52.7,52.7,52.7c29,0,52.7-23.6,52.7-52.7S966,845.8,936.9,845.8z"></path>
		</g>
		<g>
			
				<radialGradient id="SVGID_00000043425181148006225920000010701694531219601566_" cx="924.8598" cy="904.9194" r="166.5234" gradientUnits="userSpaceOnUse">
				<stop offset="0" style="stop-color:#EF4136"></stop>
				<stop offset="0" style="stop-color:#EF0F14"></stop>
				<stop offset="1" style="stop-color:#FFFFFF"></stop>
			</radialGradient>
			<path style="fill:url(#SVGID_00000043425181148006225920000010701694531219601566_);" d="M936.9,982c-46.1,0-83.5-37.5-83.5-83.5     c0-46.1,37.5-83.5,83.5-83.5c46.1,0,83.5,37.5,83.5,83.5C1020.5,944.5,983,982,936.9,982z M936.9,827.3     c-39.2,0-71.1,31.9-71.1,71.1c0,39.2,31.9,71.1,71.1,71.1c39.2,0,71.1-31.9,71.1-71.1C1008.1,859.3,976.1,827.3,936.9,827.3z"></path>
		</g>
		<g>
			
				<radialGradient id="SVGID_00000062186046700532333960000006544564247776973743_" cx="924.8597" cy="904.9189" r="166.5231" gradientUnits="userSpaceOnUse">
				<stop offset="0" style="stop-color:#EF4136"></stop>
				<stop offset="0" style="stop-color:#EF0F14"></stop>
				<stop offset="1" style="stop-color:#FFFFFF"></stop>
			</radialGradient>
			<path style="fill:url(#SVGID_00000062186046700532333960000006544564247776973743_);" d="M936.9,999.2     c-55.5,0-100.7-45.2-100.7-100.7c0-55.5,45.2-100.7,100.7-100.7c55.5,0,100.7,45.2,100.7,100.7     C1037.7,954,992.5,999.2,936.9,999.2z M936.9,808.9c-49.4,0-89.6,40.2-89.6,89.6c0,49.4,40.2,89.6,89.6,89.6     c49.4,0,89.6-40.2,89.6-89.6C1026.5,849.1,986.3,808.9,936.9,808.9z"></path>
		</g>
		<g>
			
				<radialGradient id="SVGID_00000034090230586797020690000000916767453369682093_" cx="924.8597" cy="904.9195" r="166.5234" gradientUnits="userSpaceOnUse">
				<stop offset="0" style="stop-color:#EF4136"></stop>
				<stop offset="0" style="stop-color:#EF0F14"></stop>
				<stop offset="1" style="stop-color:#FFFFFF"></stop>
			</radialGradient>
			<path style="fill:url(#SVGID_00000034090230586797020690000000916767453369682093_);" d="M936.9,1016.4     c-65,0-117.9-52.9-117.9-117.9c0-65,52.9-117.9,117.9-117.9c65,0,117.9,52.9,117.9,117.9     C1054.8,963.5,1001.9,1016.4,936.9,1016.4z M936.9,790.4c-59.6,0-108.1,48.5-108.1,108.1c0,59.6,48.5,108.1,108.1,108.1     c59.6,0,108.1-48.5,108.1-108.1C1045,838.9,996.5,790.4,936.9,790.4z"></path>
		</g>
		<g>
			
				<radialGradient id="SVGID_00000085221785274658821390000016336051849430217151_" cx="924.8598" cy="904.9193" r="166.5225" gradientUnits="userSpaceOnUse">
				<stop offset="0" style="stop-color:#EF4136"></stop>
				<stop offset="0" style="stop-color:#EF0F14"></stop>
				<stop offset="1" style="stop-color:#FFFFFF"></stop>
			</radialGradient>
			<path style="fill:url(#SVGID_00000085221785274658821390000016336051849430217151_);" d="M936.9,1033.6     c-74.5,0-135.1-60.6-135.1-135.1s60.6-135.1,135.1-135.1c74.5,0,135.1,60.6,135.1,135.1S1011.4,1033.6,936.9,1033.6z      M936.9,771.9c-69.8,0-126.6,56.8-126.6,126.6s56.8,126.6,126.6,126.6c69.8,0,126.6-56.8,126.6-126.6S1006.7,771.9,936.9,771.9z"></path>
		</g>
		<g>
			
				<radialGradient id="SVGID_00000170977195985241065220000000929816674420086457_" cx="924.8597" cy="904.9193" r="166.5232" gradientUnits="userSpaceOnUse">
				<stop offset="0" style="stop-color:#EF4136"></stop>
				<stop offset="0" style="stop-color:#EF0F14"></stop>
				<stop offset="1" style="stop-color:#FFFFFF"></stop>
			</radialGradient>
			<path style="fill:url(#SVGID_00000170977195985241065220000000929816674420086457_);" d="M936.9,1050.8     c-84,0-152.3-68.3-152.3-152.3c0-84,68.3-152.3,152.3-152.3c84,0,152.3,68.3,152.3,152.3     C1089.2,982.5,1020.9,1050.8,936.9,1050.8z M936.9,753.4c-80,0-145.1,65.1-145.1,145.1c0,80,65.1,145.1,145.1,145.1     c80,0,145.1-65.1,145.1-145.1C1082,818.5,1016.9,753.4,936.9,753.4z"></path>
		</g>
		<g>
			
				<radialGradient id="SVGID_00000075137464912992823160000005750595502590504083_" cx="924.8599" cy="904.9193" r="166.5233" gradientUnits="userSpaceOnUse">
				<stop offset="0" style="stop-color:#EF4136"></stop>
				<stop offset="0" style="stop-color:#EF0F14"></stop>
				<stop offset="1" style="stop-color:#FFFFFF"></stop>
			</radialGradient>
			<path style="fill:url(#SVGID_00000075137464912992823160000005750595502590504083_);" d="M936.9,1068     c-93.5,0-169.5-76-169.5-169.5c0-93.5,76-169.5,169.5-169.5c93.5,0,169.5,76,169.5,169.5C1106.4,992,1030.4,1068,936.9,1068z      M936.9,735c-90.2,0-163.5,73.4-163.5,163.5S846.7,1062,936.9,1062c90.2,0,163.5-73.4,163.5-163.5S1027.1,735,936.9,735z"></path>
		</g>
	</g>
	<g>
		
			<radialGradient id="SVGID_00000003084879929954471660000009580866960071066788_" cx="924.8597" cy="904.9194" r="166.5232" gradientUnits="userSpaceOnUse">
			<stop offset="0" style="stop-color:#EF4136"></stop>
			<stop offset="0" style="stop-color:#EF0F14"></stop>
			<stop offset="1" style="stop-color:#FFFFFF"></stop>
		</radialGradient>
		<path style="fill:url(#SVGID_00000003084879929954471660000009580866960071066788_);" d="M966.2,898.5c0,16.2-13.1,29.3-29.3,29.3    c-16.2,0-29.3-13.1-29.3-29.3c0-16.2,13.1-29.3,29.3-29.3C953.1,869.2,966.2,882.3,966.2,898.5z"></path>
	</g>
</g>
<g>
	<g>
		<g>
			<path class="st9" d="M553.6,908c0,0.1-0.5,0.2-1.4-0.1c-0.9-0.3-2.1-1.2-3.5-2.4c-2.7-2.5-6.1-6.7-10.1-12.3     c-4-5.6-8.7-12.7-13.7-21.1c-2.5-4.2-5.1-8.8-7.8-13.7c-2.6-5-5.5-10-7.8-16.2l-0.4-1.4l-0.2-1.2c-0.1-0.8-0.3-1.6-0.4-2.3     c-0.3-1.6-0.5-3.1-0.8-4.7c-0.5-3.2-1.1-6.5-1.7-9.8c-1.1-6.7-2.3-13.7-3.5-20.9c-1.2-7.2-2.4-14.7-3.5-22.5     c-0.5-3.9-1.1-7.8-1.5-11.9c-0.4-4.1-0.7-8.2-0.9-12.3c-0.8-16.6-0.9-34.1-1.5-52c-1-17.8-3.7-36.4-9.4-54.3     c-1.5-4.5-3.1-8.9-5.2-13.1l-0.8-1.6l-0.8-1.3c-0.5-0.9-1.3-1.8-1.9-2.6l-2.3-2.7l-2.4-2.6c-6.7-6.9-14.2-13.5-21.8-20     c-15.3-13-31.3-25.8-47.5-38.6c-16.2-12.8-32.8-25.5-49.2-38.6c-4.1-3.3-8.1-6.5-12.3-10.4c-3.8-3.8-7.5-7.5-11.1-11.3     c-7.2-7.6-14.3-15.1-21.5-22.7c-28.4-30.2-56.2-60.1-82.9-88.1c-6.7-7-13.4-13.9-19.9-20.7c-6.7-7.3-12.4-15.6-15.9-24.9     c-3.5-9.3-4.5-19.4-2.9-28.9c1.7-9.5,5.7-18.1,10.7-25.4c10.1-14.7,24.8-26.4,40.9-36.2c16.3-9.7,34.3-17.8,53.2-24.8     c37.8-14.1,79.1-25.4,121.5-36c21.2-5.2,42.6-10.4,64.2-15.6c5.4-1.3,10.7-2.7,16-4.1c5.3-1.4,10.5-2.9,15.8-4.5     c10.6-3.2,21.1-6.4,31.4-10.1c10.2-3.7,20.2-8,30.2-12.4c10-4.4,19.9-8.9,29.8-13.3c4.9-2.2,9.9-4.4,14.9-6.5     c5-2.2,10-4,15.1-5.9c5-1.8,10.1-3.5,15.2-5.1c5.1-1.5,10.1-3.1,15.2-4.4c20.2-5.5,40.2-9.5,59.5-12.8     c19.3-3.3,37.9-6.1,55.6-8.9c8.8-1.4,17.4-2.8,25.8-4.2c8.4-1.4,16.3-2.8,23.7-5.2c14.9-4.6,27.7-12,38.4-19.8     c10.7-7.9,19.4-16.4,26.5-24.3c7.1-7.9,12.6-15.3,16.8-21.4c4.2-6.2,7.2-11.2,9.3-14.6c2-3.4,3-5.2,3.2-5.1     c0.2,0.1-0.5,2-2.3,5.6c-1.7,3.6-4.4,8.8-8.5,15.2c-4,6.4-9.3,14.1-16.2,22.3c-6.9,8.2-15.6,17.1-26.4,25.5     c-10.8,8.3-23.9,16.2-39.3,21.2c-7.7,2.6-16,4.3-24.3,5.8c-8.3,1.6-16.9,3.1-25.8,4.7c-35.3,6.3-74.4,11.9-114,23.1     c-5,1.3-9.9,3-14.9,4.5c-4.9,1.7-9.9,3.3-14.8,5.2c-4.9,1.9-9.8,3.7-14.7,5.9c-4.9,2.1-9.7,4.3-14.7,6.5     c-9.8,4.5-19.7,9-29.7,13.5c-10,4.5-20.1,9-30.7,12.9c-10.5,3.9-21.1,7.1-31.7,10.4c-5.3,1.7-10.7,3.2-16.1,4.7     c-5.4,1.4-10.8,2.9-16.1,4.2c-21.5,5.4-42.9,10.7-64,16c-42.2,10.8-83.2,22.2-120.3,36.2c-18.6,7-36,14.9-51.5,24.2     c-15.4,9.3-29,20.4-37.8,33.2c-4.4,6.4-7.7,13.7-9.1,21.4c-1.3,7.7-0.5,15.9,2.4,23.7c2.8,7.8,7.8,15.1,13.8,21.6     c1.5,1.6,3.1,3.3,4.8,5c1.7,1.7,3.3,3.4,5,5.2c3.3,3.5,6.6,7,10,10.5c26.7,28.2,54.3,58.2,82.5,88.5c7.1,7.6,14.2,15.1,21.3,22.7     c3.6,3.8,7.2,7.5,10.7,11.1c3.5,3.3,7.6,6.7,11.6,9.9c16.1,13.1,32.6,26,48.8,38.9c16.2,13,32.1,25.9,47.4,39.2     c7.6,6.7,15.1,13.4,22.1,20.8l2.6,2.8l2.5,3c0.8,1.1,1.6,2.1,2.4,3.3l1.1,1.9l0.8,1.7c2.2,4.6,3.9,9.3,5.4,14     c3,9.4,4.9,18.9,6.4,28.3c1.4,9.4,2.3,18.7,2.6,27.9c0.4,18.3,0.2,35.6,0.7,52c0.1,4.1,0.3,8.1,0.6,12.1     c0.3,3.9,0.8,7.8,1.3,11.7c1,7.7,2,15.2,3,22.5c1,7.2,2.1,14.2,3,20.9c0.5,3.4,1,6.6,1.5,9.8c0.2,1.6,0.5,3.2,0.7,4.8     c0.1,0.8,0.2,1.6,0.4,2.3l0.2,1.1l0.2,0.9c1.9,5.5,4.6,10.9,7.1,15.8c2.5,4.9,5,9.6,7.3,13.8c4.7,8.6,9.1,15.7,12.8,21.5     c3.7,5.8,6.8,10.1,9.1,12.8c1.2,1.3,2.2,2.2,2.9,2.7C553.2,907.9,553.6,907.9,553.6,908z"></path>
		</g>
	</g>
	<g>
		<g>
			<path class="st9" d="M321.7,328.5c0.1-0.3,3,0,8.1,1.9c5,1.9,12.1,5.7,19.6,11.9c7.5,6.2,15.4,14.8,23.2,25     c7.8,10.2,15.6,22.1,23.5,34.7c3.9,6.3,7.9,12.8,12,19.4c4.1,6.6,8.3,13,13.1,19.3c9.4,12.6,19.9,24.8,30.4,36.8     c21,23.8,42.2,46.2,59.9,64.7c4.5,4.6,9.2,9.5,14.2,14.6c5,5.3,9.9,10.9,15.1,16.7c5.1,5.8,10.3,11.8,15.7,17.9     c1.3,1.5,2.7,3.1,4,4.6l1,1.2c0.3,0.4,0.7,0.7,1.1,1.4c0.8,1.1,1.7,2.3,2.1,3.4c2.2,4.3,3.4,8.5,4.6,12.6     c4.5,16.7,7.1,33.8,9.4,50.7c0.5,4.2,1.1,8.4,1.6,12.6c0.5,4.1,1.2,8.1,2.1,12.1c1.6,8,4.1,15.8,5.4,24c0.4,2,0.6,4.1,0.8,6.2     c0.2,1.9,0.4,3.6,0.8,5.3c0.7,3.4,2.2,6.1,4.5,8.8c2.2,2.7,5,5.6,7.2,8.9c1.9,3,3.9,5.8,5.9,8.6c8.1,11.2,15.1,21.5,20.2,30.7     c0.6,1.1,1.3,2.3,1.9,3.4c0.6,1.2,1.1,2.3,1.6,3.4c0.4,1.1,0.8,2.3,1.2,3.3c0.3,1.1,0.6,2.2,0.8,3.3c0.8,4.3,0.5,8.1-0.3,11     c-0.9,2.9-2.1,4.9-3.2,6.2c-1,1.2-1.8,1.7-1.9,1.5c-0.3-0.2,2-2.7,3-8.2c0.5-2.7,0.4-6.1-0.6-9.9c-0.3-0.9-0.6-1.9-1-2.9     c-0.4-1-0.9-1.9-1.3-3c-0.6-1-1.1-2-1.7-3c-0.7-1-1.3-2.1-2-3.2c-5.6-8.7-12.9-18.5-21.4-29.3c-2.1-2.7-4.3-5.6-6.4-8.6     c-1.9-2.7-4.3-5.1-7-8.1c-2.7-3-5.1-7.1-6.2-11.3c-0.6-2.1-0.9-4.3-1.1-6.3c-0.2-1.9-0.5-3.7-0.9-5.6c-1.5-7.5-4.1-15.3-6-23.6     c-1-4.1-1.8-8.4-2.5-12.6c-0.6-4.2-1.2-8.3-1.9-12.5c-2.6-16.6-5.5-33.6-10-49.3c-1.1-3.8-2.4-7.8-4.1-10.8     c-0.4-0.9-0.8-1.3-1.2-1.9c-0.1-0.2-0.5-0.7-0.8-1l-1-1.2c-1.4-1.5-2.7-3.1-4.1-4.6c-5.4-6-10.7-12-15.8-17.7     c-5.1-5.7-10.2-11.3-15-16.3c-4.9-5-9.8-10-14.2-14.6c-17.8-18.6-38.9-41.2-59.7-65.6c-10.4-12.2-20.7-24.8-30.1-37.9     c-2.4-3.2-4.6-6.7-6.8-10c-2.2-3.4-4.1-6.8-6.2-10.1c-3.9-6.7-7.8-13.3-11.5-19.7c-7.5-12.8-14.7-24.8-21.9-35.1     c-7.2-10.3-14.5-19-21.3-25.4c-6.8-6.4-13.2-10.6-17.8-13C324.4,329.9,321.6,328.9,321.7,328.5z"></path>
		</g>
	</g>
	<g>
		<g>
			<path class="st9" d="M565.8,317.3c0.6,2.8-64.3,19.2-100.6,26c-9.1,1.7-20.4,3.7-32.4,5.4c-3,0.4-6.1,0.8-9.1,1.2     c-3.1,0.3-6.2,0.6-9.3,1c-6.4,0.5-12.3,0.6-18.1,0.7c-23,0.4-41.3,0.3-41.4-1.1c-0.1-1.4,18.1-3.8,41-6     c5.7-0.6,11.8-1.1,17.5-1.9c3-0.5,5.9-1,8.9-1.4c3-0.5,6-1.1,8.9-1.6c11.8-2.3,23-4.4,32-6.2     C499.4,326.6,565.2,314.6,565.8,317.3z"></path>
		</g>
	</g>
	<g>
		<g>
			<path class="st9" d="M565.5,617.8c-0.3,0-0.9-1.9-1.6-5.5c-0.4-1.8-0.7-4-1.2-6.6c-0.3-2.6-0.7-5.5-1.2-8.8     c-1.6-13.1-3.2-31.3-4.2-51.8c-2.1-41-2.2-90.8-0.1-126.3c0.2-4.4,0.6-9.2,1-14.1c0.4-4.9,0.8-9.9,1.2-15.2     c0.7-10.5,1.3-21.7,1.4-33.1c0.1-11.4-0.2-23.1-1-34.7c-0.4-5.8-0.9-11.5-1.5-17.1c-0.7-5.7-1.3-11.3-2-16.8     c-2.1-22.1-2.3-42-2.1-56.3c0.2-14.3,0.9-23.1,1.6-23.1c0.7,0,1.4,8.8,2.4,23c1.1,14.2,2.3,34,5.3,55.6     c0.8,5.3,1.8,10.9,2.6,16.6c0.8,5.7,1.6,11.5,2.1,17.4c1.2,11.8,1.8,23.7,1.9,35.4c0.2,11.7-0.2,23.1-0.8,33.7     c-0.3,5.3-0.7,10.5-1.1,15.4c-0.4,4.8-0.7,9.5-0.9,13.8c-2.1,35-3.1,84.7-2.9,125.5c0.1,20.4,0.6,38.6,1,51.7     c0.2,6.5,0.3,11.8,0.4,15.5C565.9,615.7,565.8,617.8,565.5,617.8z"></path>
		</g>
	</g>
	<g>
		<g>
			<path class="st9" d="M490.1,883c-0.7-0.3-0.7-2-0.4-4.7c0.2-2.7,0.7-6.3,1.2-10.4c1.1-8.1,2.3-18.1,3.4-25.1     c1.2-7,3.2-17.5,5.1-26.2c2-8.7,3.9-15.7,5.3-15.6s2,7.4,1.8,16.4c-0.1,9-1.1,19.8-2.3,27c-1.2,7.2-3.5,17.2-6.5,25.2     c-1.4,4-3.1,7.5-4.5,9.9C491.9,881.9,490.7,883.2,490.1,883z"></path>
		</g>
	</g>
	<g>
		<g>
			<path class="st9" d="M1001,823.2c-1.1-0.1,3.2-17.2,1.6-45.2c-0.3-3.5-0.5-7.1-1.1-10.9c-0.4-3.8-1.2-7.7-1.9-11.7     c-1.7-8.1-4-16.6-7.2-25.3c-3.2-8.8-7.3-17.6-11.7-27c-4.4-9.6-8-19.9-10.9-30.7c-0.7-2.7-1.4-5.4-2.1-8.2l-0.5-2.4l-0.2-0.9     c0-0.3,0.1-0.6,0.2-0.9l0.3-1.4c0.3-1.6,0.8-3.1,1.2-4.5c2-5.9,5-11,8.3-16c6.6-9.9,14.3-19,22.3-27.8     c16-17.6,33.6-34.2,49.7-51.2c4-4.2,8-8.5,11.5-12.9c1.8-2.2,3.4-4.4,4.7-6.6l2-3.5c0.7-1.2,1.2-2.5,1.8-3.7     c2.3-4.9,4.1-10.1,5.6-15.4c1.6-5.3,2.8-10.6,4-16c2.3-10.7,4.2-21.3,6.4-31.5c2.1-10.2,4.5-20.1,7.2-29.4     c2.7-9.3,6.3-19.3,11.5-28.9c5.1-9.7,11.5-19.1,18.3-28.3c6.8-9.3,13.6-18.6,19.4-28.8c1.5-2.5,2.8-5.2,4.2-7.8l1.9-4     c0.6-1.3,1.3-2.7,1.8-4c1-2.7,2.2-5.3,2.8-8.2l1.2-4.2l0.8-4.4c2-11.6,1.8-23.9-0.1-36c-1.9-12.1-5.3-24.1-10.1-35.3     c-2.3-5.7-5.1-11.1-8.2-16.3l-2.4-3.8c-0.4-0.7-0.8-1.2-1.2-1.7c-0.4-0.6-0.8-1.1-1.3-1.6c-1.8-2.2-4-4.1-6.2-6.1     c-9-7.6-19.4-13.8-29.6-19.5c-20.6-11.4-41-20.7-59.5-29.5c-9.2-4.4-18-8.6-26.1-12.7c-1-0.5-2-1-3-1.5c-1-0.6-2-1.1-2.9-1.7     c-1.9-1.2-3.9-2.1-5.6-3.4c-1.8-1.3-3.5-2.4-5.2-3.7c-1.6-1.3-3.1-2.6-4.6-3.9c-11.7-10.8-17.6-22.5-20.2-30.7     c-2.7-8.3-2.7-13.2-2.4-13.2c0.4-0.1,1,4.7,4.3,12.5c3.2,7.8,9.5,18.7,20.9,28.4c1.5,1.2,3,2.3,4.5,3.5c1.6,1.1,3.3,2.2,5,3.3     c1.7,1.2,3.6,2,5.5,3.1c0.9,0.5,1.9,1,2.8,1.5c1,0.5,2,1,3,1.4c8.2,3.8,17,7.7,26.4,11.9c18.7,8.3,39.4,17.2,60.5,28.4     c10.5,5.7,21.3,11.7,31.3,19.8c2.5,2.1,4.9,4.3,7.1,6.8c0.6,0.6,1.1,1.3,1.6,2c0.5,0.7,1.1,1.4,1.5,2.1l2.7,4.1     c3.3,5.5,6.4,11.3,9,17.2c5.2,11.8,8.9,24.4,11.2,37.2c2.2,12.8,2.7,26.1,0.6,39c-0.3,1.6-0.5,3.2-0.8,4.8l-1.2,4.7     c-0.7,3.2-2,6.2-3.1,9.3c-0.5,1.6-1.2,3-1.9,4.4l-2,4.3c-1.4,2.8-2.8,5.6-4.3,8.3c-6,10.8-13.1,20.6-19.8,29.8     c-6.7,9.2-12.7,18.1-17.4,27.2c-4.8,9.1-8.1,18.1-10.7,27.1c-2.6,9-5,18.5-7.1,28.6c-2.2,10.1-4.1,20.6-6.6,31.6     c-1.3,5.5-2.6,11-4.2,16.6c-1.6,5.6-3.6,11.2-6.2,16.7c-0.7,1.4-1.3,2.8-2,4.1l-2.3,4c-1.7,2.7-3.6,5.3-5.5,7.6     c-3.9,4.7-8,9.1-12.1,13.4c-16.7,17.1-34.3,33.3-50.3,50.4c-8,8.5-15.6,17.3-22,26.4c-3.1,4.6-5.9,9.3-7.7,14.1     c-0.4,1.2-0.8,2.4-1.1,3.6l-0.1,0.6c0,0.1,0,0.2,0,0.3l0.3,1.7c0.6,2.7,1.2,5.3,1.8,8c2.6,10.5,5.9,20.6,9.9,29.9     c4.1,9.4,8.2,18.7,11.2,27.7c3.1,9.1,5.2,17.9,6.6,26.3c0.6,4.2,1.3,8.2,1.6,12.1c0.5,3.9,0.5,7.7,0.7,11.2     c0.4,14.3-1.3,25.8-2.5,33.5C1002.4,819.1,1001.3,823.3,1001,823.2z"></path>
		</g>
	</g>
	<g>
		<g>
			<path class="st9" d="M887.3,970.9c0-0.1,0.2-0.2,0.4-0.2c0.1,0,0.3-0.1,0.4-0.1c0.2-0.1,0.3-0.2,0.5-0.2c0.8-0.4,1.9-1.2,3.1-2.5     c2.4-2.6,5.5-7.1,8.8-12.9c3.3-5.8,7-13,10.9-21.1c3.8-8.1,7.9-17.2,11.4-27c7.1-19.8,14.2-42.1,20.9-63.7     c3.4-10.8,6.5-21.4,9.4-31.7c3.1-10.6,7.4-20,11.4-28.4c2.3-4.6,4.8-9.5,7.7-14.5c0.7-1.3,1.5-2.6,2.3-3.9c1.4-2.3,2.6-4.5,4.2-7     c3-5,6.1-9.6,9.2-14.4c8.8,41.2,19.4,90.8,27.8,130.2c3.9,17.8,7.2,33.3,9.6,44.4c1.2,5.5,2.2,9.9,2.9,12.9c0.7,3,1,4.7,0.7,4.8     c-0.3,0.1-1.1-1.4-2.4-4.3c-1.2-2.9-2.8-7.2-4.5-12.6c-3.5-10.8-7.8-26.1-12.5-43.8c-4.7-17.7-9.7-37.8-14.6-58.1     c-2.4-10.2-4.9-20.4-7.2-30.4c-1.2-5-2.3-10-3.5-14.8l-0.4-1.8l-0.1-0.4l0,0l0,0l-0.1-0.1c0-0.1-0.1-0.1-0.1-0.1     c0,0.1-0.1,0.2-0.1,0.2c-0.8,1.4-1.5,2.8-2.3,4.1c-2.7,4.9-5.2,9.6-7.4,14.1c-3.9,8-8,17-11,26.7c-3,10.1-6.4,20.9-10,31.7     c-7.3,21.6-15.1,43.7-23.2,63.4c-4.1,9.9-8.7,18.9-13.1,26.9c-4.4,8-8.6,15-12.6,20.7c-3.9,5.6-7.6,9.9-10.8,12.3     c-1.6,1.2-3.1,1.9-4.2,2c-0.3,0-0.5,0-0.7,0c-0.2,0-0.4-0.1-0.5-0.2C887.4,971.1,887.3,971,887.3,970.9z"></path>
		</g>
	</g>
	<g>
		<g>
			<path class="st9" d="M951.6,289.9c0.1-0.1,0.8,0.3,1.7,1.6c0.9,1.2,2.1,3.2,2.7,6.2c0.6,2.9,0.5,6.7-0.6,10.8     c-1.1,4.1-3.2,8.4-6.1,12.8c-2.8,4.4-6.6,8.8-10,13.4c-3.3,4.8-6.3,10.3-9,16.3c-5.5,12.1-9.7,26.3-13.2,41.6     c-0.9,3.9-1.7,7.8-2.6,11.7c-0.4,2-1.1,4.3-1.8,6.3c-0.7,2-1.5,4-2.3,6c-3.2,7.8-6.8,15.3-10.2,23.1c-3.4,7.7-6.6,15.5-9.5,23.4     c-2.8,7.9-5.4,16-6.8,23.8c-2.6,16.2-3,32.9-3.2,48.6c-0.2,15.8,0,30.8,0.1,44.4c0,6.8,0.1,14.1,0,21.7     c-0.1,7.7-0.2,15.6-1.1,24.2c-0.9,8.7-3.4,17.3-6.6,25.7c-3.3,8.3-7.4,16.4-11.6,24.3c-4.2,7.9-8.5,15.8-12.2,23.8     c-3.8,8-6.6,16.2-8.9,24.8c-4.4,17.2-6.9,34.8-9.4,51.6c-0.7,4.2-1.3,8.4-2.1,12.6c-0.4,2.1-1.1,4.4-1.9,6.4     c-0.7,2-1.5,3.9-2.3,5.7c-3.2,7.4-6.5,14.4-9.7,21c-6.4,13.2-12.1,25-16.9,35c-2.3,5-4.5,9.5-5.9,13.4c-1.3,4-1.7,7.6-1.7,10.6     c0,6,1.2,9.3,0.8,9.4c-0.3,0.1-2.2-2.9-2.9-9.3c-0.3-3.1-0.3-7.1,0.9-11.6c1.3-4.4,3.1-9,5.2-14.2c4.2-10.3,9.5-22.3,15.3-35.8     c2.9-6.7,6-13.8,8.8-21.1c0.7-1.8,1.4-3.7,2-5.5c0.7-1.9,1.1-3.5,1.5-5.5c0.7-3.9,1.2-8.1,1.7-12.3c2.1-16.8,4.1-34.7,8.4-52.7     c2.1-8.9,5.1-18,8.9-26.5c3.7-8.5,8-16.5,12.1-24.5c8.2-15.7,15.2-31.3,16.6-46.7c0.8-7.8,0.8-15.7,0.9-23.2     c0.1-7.5,0-14.8,0-21.6c-0.1-13.6-0.2-28.7,0.1-44.6c0.4-16,0.9-32.8,3.9-50.1c1.8-8.9,4.6-17,7.6-25.2     c3.1-8.1,6.6-16.1,10.2-23.8c3.6-7.7,7.4-15.3,10.7-22.7c0.8-1.8,1.6-3.7,2.3-5.5c0.7-1.9,1.2-3.4,1.7-5.4c1-3.9,2-7.8,2.9-11.7     c4-15.4,8.8-29.9,15-42.3c3.1-6.2,6.5-11.9,10.2-16.8c4-4.9,7.7-8.7,10.6-12.8c2.9-4,5.1-7.9,6.4-11.5c1.3-3.6,1.7-6.9,1.5-9.5     c-0.2-2.7-1-4.6-1.6-5.9C951.9,290.7,951.4,290.1,951.6,289.9z"></path>
		</g>
	</g>
	<g>
		<g>
			<path class="st9" d="M950.3,501.5c-0.1,0.7-1.2,1.1-2.9,1.3c-0.9,0.1-1.9,0.1-3,0.1c-1.1-0.1-2.3-0.3-3.6-0.6     c-5.2-1-11.1-4.2-14.5-7.3c-3.6-3-7.6-8.8-9.5-14.1c-2-5.3-2-9.9-0.6-10.3c1.3-0.4,3.7,3,6.9,6.7c3.2,3.8,7.2,7.6,10,10     c2.7,2.5,6.7,5.7,10.5,8.2c1,0.6,1.9,1.2,2.7,1.8c0.8,0.5,1.6,1,2.3,1.5C949.7,500,950.5,500.9,950.3,501.5z"></path>
		</g>
	</g>
	<g>
		<g>
			<path class="st9" d="M1028.8,495.2c1.3,0.3,0,9-7.3,17.6c-3.6,4.2-9,8.1-15.1,9.9c-1.5,0.5-3.1,0.8-4.6,1c-1.5,0.3-3,0.3-4.5,0.3     c-1.5,0.1-2.9-0.1-4.2-0.2c-0.7-0.1-1.3-0.1-2-0.2c-0.6-0.1-1.1-0.2-1.6-0.3c-8.5-1.5-21.2-3.8-31.9-5.9     c-10.7-2.1-19.2-4.1-19.1-5.5c0.1-1.4,8.9-1.9,19.9-1.6c11,0.3,24.1,1.5,32.8,3c0.5,0.1,1.1,0.2,1.7,0.3c0.5,0.1,1,0.1,1.5,0.2     c1,0.1,2.1,0.4,3.1,0.3c1.1,0,2.2,0.2,3.3,0c1.1-0.1,2.2-0.1,3.3-0.4c4.4-0.9,8.9-3.1,12.4-6c3.6-2.9,6.4-6.1,8.4-8.6     C1027,496.6,1028.2,495,1028.8,495.2z"></path>
		</g>
	</g>
	<g>
		<g>
			<path class="st9" d="M959.5,664.6c0.2,0.7-0.9,1.6-3.1,2.8c-1.1,0.6-2.4,1.1-3.9,1.6c-0.8,0.2-1.6,0.5-2.4,0.7     c-0.8,0.2-1.7,0.4-2.6,0.6c-7.2,1.5-16.1,1.6-22.3,0.9c-6.2-0.6-15.2-2.6-22.5-5c-7.3-2.4-12.8-5.2-12.5-6.6     c0.4-1.3,6.4-1,13.9-0.4c7.6,0.7,16.3,1.5,22.1,2c5.8,0.6,14,1.6,20.7,2c0.8,0.1,1.7,0.1,2.5,0.2c0.8,0,1.5,0,2.3,0.1     c1.5,0.1,2.8,0.2,3.9,0.2C957.8,663.6,959.3,663.9,959.5,664.6z"></path>
		</g>
	</g>
	<g>
		<g>
			<path class="st9" d="M587,277.8c-1.4,0-2.4-10.8-1.5-24.6c0.3-3.5,0.6-7.1,1.2-10.8c0.6-3.7,1.4-7.5,2.8-11.4l0.6-1.5     c0.2-0.5,0.5-1,0.8-1.5l0.8-1.5c0.3-0.5,0.6-0.9,0.9-1.3c1.2-1.7,2.4-3.1,3.5-4.5c2.3-2.7,4.5-5.1,6.6-7.2     c16.3-17.2,52-47.3,53.9-45.2c1.9,2-30.6,35.5-46.5,52.2c-2,2.1-4.2,4.4-6.4,6.8c-1.1,1.2-2.2,2.5-3.1,3.6     c-0.2,0.3-0.5,0.6-0.7,0.9l-0.5,0.9c-0.2,0.3-0.4,0.6-0.5,0.9l-0.5,1.1c-1.3,2.8-2.4,6.2-3.2,9.6c-0.9,3.4-1.6,6.8-2.3,10     C590,267.3,588.5,277.9,587,277.8z"></path>
		</g>
	</g>
	<g>
		<g>
			<path class="st9" d="M767.3,346.1c-1.4,0-2.9-10.1-3.8-23.1c-0.5-6.5-0.9-13.7-1.1-20.7c-0.1-3.5-0.1-7-0.1-10.3     c0-0.8,0-1.6,0-2.5c0.1-0.9,0.2-1.9,0.3-2.8c0.1-1.9,0.7-3.4,1-5c3.4-12,12.8-26.4,21.5-37.6c8.7-11.2,16.7-19.1,17.8-18.2     c1.1,0.9-4.9,10.3-11.9,22.3c-3.5,6-7.3,12.5-10.5,18.9c-3.2,6.4-5.8,12.5-7.2,17.3c-0.3,1.2-0.8,2.5-0.8,3.6     c-0.1,0.6-0.2,1.2-0.3,1.8c-0.1,0.7-0.1,1.5-0.1,2.3c-0.1,3.2-0.3,6.6-0.5,10.1c-0.3,6.9-0.7,14.1-1.1,20.6     C769.8,335.8,768.7,346,767.3,346.1z"></path>
		</g>
	</g>
	<g>
		<g>
			<path class="st9" d="M669,456.2c-1.3-0.1-1.3-17.8,1.2-40.3c2.4-22.4,7.6-49.4,12.2-68.3c4.5-18.9,12.7-46.9,20.8-69.7     c8-22.8,15.8-40.6,17.1-40.1c1.3,0.5-4,19-10.3,42.2c-6.3,23.2-13.3,51.2-17.8,69.9c-4.6,18.7-10.8,45.1-15,67     C673.1,438.9,670.5,456.3,669,456.2z"></path>
		</g>
	</g>
	<g>
		<g>
			<path class="st9" d="M685.9,817.9c-0.7,0-1.3-3-1.9-7.8c-0.3-2.4-0.7-5.3-1-8.5c-0.4-3.2-0.8-6.7-1.1-10.5     c-1.6-15-3.4-33.2-4.4-46.1c-1.8-25.9-4.3-77.7-1.6-78c2.9-0.3,9.9,51.2,11.7,77.3c1,13,1.7,31.4,1.4,46.6     c-0.1,3.8-0.2,7.4-0.4,10.6c-0.2,3.3-0.4,6.2-0.7,8.6C687.3,815,686.6,817.9,685.9,817.9z"></path>
		</g>
	</g>
	<g>
		<g>
			<path class="st9" d="M681.2,512.4c-1.4,0.1-2.9-6.5-3.8-14.9c-0.9-8.4-1-18.7-0.5-26c0.4-7.3,1.9-18,3.8-26.9     c1.9-8.9,4.2-15.8,5.6-15.6c1.4,0.2,1.6,7.4,1.6,16.4c-0.1,9-0.4,19.7-0.8,26.8c-0.5,7.1-1.5,17.1-2.4,25.4     C683.6,505.8,682.6,512.3,681.2,512.4z"></path>
		</g>
	</g>
	<g>
		<g>
			<path class="st9" d="M562.7,912.7c0.1,0.2-0.2,0.4-0.9,0.8c-0.7,0.2-2,0.4-3.3-0.1c-2.7-0.9-5.4-3.4-7.9-6.4     c-1.3-1.5-2.5-3.1-3.7-4.8c-1.2-1.7-2.3-3.3-3.4-5.5c-1-2.1-1.7-4.6-1.3-7.1c0.2-1.3,0.6-2.5,1.2-3.5c0.3-0.5,0.7-1,1.1-1.4     c0.4-0.5,0.7-0.8,1.5-1.3c1.8-1,4.1-1.9,6.9-1.5c1.3,0.2,2.7,0.8,3.8,1.5c1.1,0.8,2,1.7,2.8,2.7c1.5,2.1,2.4,4.1,3.3,6.1     c0.9,2.1,1.7,4.1,2.2,6.2c1.2,4,1.7,8,0.9,10.9c-0.4,1.5-1.2,2.5-1.9,3C563.2,912.8,562.8,912.8,562.7,912.7     c-0.1-0.2,0.2-0.5,0.6-1c0.3-0.6,0.7-1.4,0.7-2.6c0.1-2.4-0.8-5.8-2.4-9.4c-0.8-1.8-1.6-3.7-2.6-5.5c-1-1.8-2.1-3.7-3.2-5.1     c-2.4-2.9-5-2.7-7.2-1.4c0.1-0.1-0.2,0.2-0.4,0.4c-0.2,0.2-0.4,0.4-0.5,0.7c-0.3,0.5-0.5,1-0.6,1.7c-0.2,1.2,0,2.8,0.7,4.4     c0.6,1.5,1.7,3.4,2.7,5.1c1,1.7,2,3.4,3,4.9c2,3,4.1,5.6,5.9,6.7c0.9,0.6,1.7,0.7,2.3,0.9C562.2,912.5,562.6,912.5,562.7,912.7z"></path>
		</g>
	</g>
	<g>
		<g>
			<path class="st9" d="M613.7,903.8c0.1,0.1-0.1,0.5-0.8,1c-0.7,0.5-1.9,1-3.4,1c-3.2,0-6.9-2.1-10.1-5.1c-3.3-3-6.3-6.6-8.7-10.8     c-1.2-2.1-2.1-4.5-2.5-6.9c-0.4-2.5-0.1-5.1,1.1-7.3c0.3-0.6,1-1.6,1.8-1.9c0.6-0.3,1-0.7,1.7-0.9c1.2-0.5,2.6-0.9,4.1-0.8     c3.1,0,5.7,1.7,7.6,3.5c1.9,1.9,3.4,4,4.7,6.1c1.3,2.1,2.5,4.2,3.6,6.2c2.1,4.1,3.5,8.2,3.5,11.4c0,1.6-0.5,3-1.2,3.7     C614.3,903.8,613.8,904,613.7,903.8c-0.1-0.2,0.1-0.6,0.4-1.2c0.2-0.7,0.3-1.7,0.1-3c-0.6-2.6-2.3-6.2-4.6-9.9     c-1.2-1.9-2.5-3.7-3.9-5.6c-1.4-1.9-2.8-3.7-4.4-5c-1.6-1.3-3.2-2.1-4.5-2c-0.7,0-1.3,0.2-2,0.5c-0.3,0.1-0.7,0.4-0.9,0.5     c-0.1,0.1,0-0.1-0.1,0.1c-0.5,0.9-0.8,2.5-0.6,4.2c0.2,1.7,0.8,3.6,1.7,5.4c1.8,3.7,4.5,7.5,7.1,10.4c2.6,3,5.5,5.1,7.8,5.6     C612,904.4,613.5,903.5,613.7,903.8z"></path>
		</g>
	</g>
	<g>
		<g>
			<path class="st9" d="M627.6,871.7c0.1,0.1-0.1,0.5-0.8,1c-0.7,0.5-1.9,1-3.4,0.9c-3.2-0.1-6.8-2.4-9.9-5.3     c-3.1-3-6.1-6.6-8.6-10.8c-1.2-2.1-2.1-4.4-2.5-6.8c-0.4-2.5-0.3-4.9,1-7.4c0.2-0.4,0.5-0.8,0.8-1.1c0.3-0.3,0.8-0.5,1.1-0.7     c0.5-0.3,1-0.6,1.7-0.8c0.6-0.2,1.2-0.5,1.9-0.5c0.7-0.2,1.4-0.2,2.2-0.1c3,0.2,5.6,1.9,7.4,3.7c1.9,1.9,3.4,4,4.6,6     c1.3,2.1,2.5,4.2,3.5,6.2c2,4.1,3.4,8.2,3.4,11.4c0,1.6-0.5,3-1.2,3.7C628.2,871.7,627.7,871.8,627.6,871.7     c-0.1-0.2,0.1-0.6,0.4-1.2c0.2-0.7,0.3-1.7,0.1-3c-0.6-2.6-2.3-6.1-4.6-9.8c-1.2-1.8-2.5-3.7-3.8-5.6c-1.4-1.9-2.8-3.6-4.4-5     c-1.5-1.3-3.2-2.2-4.5-2.2c-0.3,0-0.7,0-1,0.1c-0.3,0-0.7,0.2-1,0.3c-0.3,0.1-0.6,0.3-0.9,0.5c-0.2,0.1-0.1,0-0.1,0.1     c-0.1,0.2-0.4,1-0.5,1.6c-0.1,0.7-0.1,1.5,0,2.3c0.2,1.7,0.9,3.6,1.8,5.4c1.8,3.6,4.5,7.5,7,10.5c2.5,3,5.3,5.3,7.5,5.9     C625.9,872.3,627.4,871.3,627.6,871.7z"></path>
		</g>
	</g>
	<g>
		<g>
			<path class="st9" d="M626.1,820.2c0.1,0.1-0.1,0.4-0.6,0.8c-0.6,0.3-1.6,0.5-2.7,0.2c-2.3-0.6-4.6-2.5-6.8-4.7     c-1.1-1.1-2.2-2.4-3.2-3.7c-1-1.3-2.1-2.4-3.1-4.1c-1-1.6-1.8-3.5-1.8-5.7c0-1.1,0.2-2.2,0.6-3.2c0.2-0.5,0.5-1,0.8-1.4     c0.3-0.4,0.9-1,1.3-1.3c1.4-0.9,3.4-1.8,5.8-1.5c2.4,0.3,4.4,1.7,5.7,3.2c1.4,1.6,2.2,3.2,3.1,4.8c0.9,1.6,1.6,3.2,2.2,4.8     c1.2,3.2,1.8,6.4,1.4,8.8c-0.2,1.2-0.9,2.1-1.5,2.6C626.5,820.3,626.1,820.4,626.1,820.2c-0.1-0.2,0.1-0.5,0.3-0.9     c0.2-0.5,0.4-1.1,0.3-2.1c-0.2-1.8-1.2-4.4-2.7-7.2c-0.7-1.4-1.6-2.8-2.5-4.1c-0.9-1.4-1.9-2.8-2.9-3.7c-2.1-2-3.6-1.8-5.2-0.7     c-0.2,0.1,0,0-0.1,0.1c-0.1,0.1-0.2,0.3-0.3,0.4c-0.1,0.3-0.3,0.7-0.3,1.1c0,0.9,0.3,2.1,0.9,3.3c0.6,1.1,1.6,2.6,2.5,3.9     c0.9,1.3,1.7,2.6,2.6,3.8c1.7,2.4,3.4,4.3,4.8,5.2c0.7,0.5,1.3,0.5,1.8,0.7C625.6,820,626,820.1,626.1,820.2z"></path>
		</g>
	</g>
	<g>
		<g>
			<path class="st9" d="M792.9,905.2c-0.1,0.2-0.4,0.2-1.1,0c-0.6-0.3-1.6-1-2.1-2.2c-1.1-2.3-1.2-5.7-0.9-9.2     c0.2-1.8,0.5-3.6,0.8-5.4c0.4-1.9,0.7-3.6,1.4-5.7c0.7-2,2-4,3.9-5.4c0.9-0.7,2-1.2,3.1-1.4c0.5-0.1,1.1-0.2,1.6-0.2     c0.6,0,1.1,0,1.8,0.2c1.8,0.5,3.9,1.5,5.4,3.7c0.7,1,1.2,2.3,1.4,3.5c0.2,1.2,0.1,2.4,0,3.6c-0.4,2.3-1.2,4.2-1.9,6.1     c-0.8,1.9-1.7,3.7-2.7,5.3c-1.9,3.3-4.2,6.1-6.6,7.4c-1.2,0.7-2.5,0.7-3.2,0.6C793.1,905.7,792.8,905.4,792.9,905.2     c0.1-0.2,0.5-0.2,1-0.3c0.6-0.2,1.3-0.5,2.1-1.2c1.5-1.4,3.2-4.1,4.5-7.4c0.7-1.6,1.3-3.4,1.9-5.2c0.5-1.8,1.1-3.7,1.3-5.2     c0.3-3.3-1.3-4.6-3.4-5.2c0.1,0-0.2,0-0.4,0c-0.2,0-0.5,0-0.7,0.1c-0.5,0.1-0.9,0.3-1.4,0.6c-0.9,0.6-1.8,1.7-2.4,3.1     c-0.6,1.3-1.1,3.2-1.7,4.9c-0.5,1.7-1,3.4-1.4,5c-0.8,3.2-1.1,6.1-0.8,8c0.1,1,0.5,1.5,0.8,2     C792.7,904.8,792.9,905.1,792.9,905.2z"></path>
		</g>
	</g>
	<g>
		<g>
			<path class="st9" d="M875.6,979c-0.1,0.2-0.5,0.1-1.3-0.3c-0.7-0.5-1.7-1.4-2.2-2.9c-1.1-3-0.7-7.1,0.1-11.5     c0.4-2.2,1-4.4,1.7-6.7c0.7-2.3,1.3-4.4,2.4-6.9c1.1-2.3,2.8-4.6,5.3-6.1c1.2-0.7,2.5-1.2,3.9-1.3c0.7-0.1,1.3-0.1,2-0.1     c0.7,0.1,1.2,0.1,2.1,0.4c2.1,0.8,4.5,2.3,6,4.9c0.7,1.3,1.2,2.8,1.3,4.3c0.1,1.5-0.1,2.9-0.4,4.3c-0.7,2.8-1.9,5-3,7.3     c-1.2,2.3-2.5,4.4-3.8,6.4c-2.7,3.9-5.8,7.2-8.9,8.6c-1.5,0.7-3,0.7-3.9,0.5C875.8,979.4,875.5,979.1,875.6,979     c0.1-0.2,0.6-0.2,1.3-0.2c0.8-0.1,1.8-0.4,2.9-1.2c2.2-1.6,4.6-4.8,6.8-8.8c1.1-2,2.1-4.1,3.1-6.3c0.9-2.2,1.9-4.5,2.2-6.5     c0.4-2,0.2-3.9-0.6-5.1c-0.7-1.2-2.1-2.1-3.5-2.6c0.1,0-0.4-0.1-0.7-0.1c-0.3,0-0.7,0-1,0c-0.7,0.1-1.4,0.3-2.1,0.7     c-1.3,0.7-2.6,2.1-3.6,3.9c-0.9,1.7-1.8,4-2.6,6.1c-0.8,2.1-1.6,4.2-2.2,6.2c-1.2,4-2,7.6-1.7,10.1c0.1,1.3,0.6,2,0.9,2.7     C875.4,978.4,875.6,978.8,875.6,979z"></path>
		</g>
	</g>
	<g>
		<g>
			<path class="st9" d="M816.6,970.9c0,0.2-0.5,0.3-1.3,0.2c-0.8-0.2-2.1-0.6-3.2-1.7c-2.3-2.3-3.5-6.5-3.8-11     c-0.2-4.6,0.1-9.4,1.3-14.3c0.7-2.4,1.7-4.8,3.2-6.9c1.5-2.1,3.6-3.8,6.1-4.6c0.6-0.2,1.8-0.5,2.6-0.1c0.6,0.2,1.2,0.2,1.8,0.5     c1.2,0.5,2.5,1.2,3.6,2.3c2.2,2.2,2.9,5.3,3.1,8.1c0.1,2.8-0.4,5.4-0.9,7.9c-0.5,2.5-1.1,4.9-1.9,7.2c-1.5,4.5-3.3,8.6-5.6,11     c-1.2,1.2-2.5,1.8-3.5,1.9C817,971.3,816.5,971,816.6,970.9c0-0.2,0.5-0.3,1.2-0.6c0.7-0.3,1.5-1,2.2-2.1     c1.5-2.3,2.8-6.2,3.7-10.7c0.5-2.2,0.9-4.6,1.2-7c0.3-2.4,0.5-4.8,0.4-6.9c-0.2-2.1-0.8-3.9-1.9-4.8c-0.5-0.5-1.2-0.8-1.8-1.1     c-0.3-0.2-0.8-0.2-1.1-0.3c-0.2,0,0.1,0-0.2,0c-1.1,0.3-2.4,1.3-3.5,2.7c-1.1,1.4-2,3.3-2.7,5.3c-1.3,4-2,8.8-2.2,12.9     c-0.2,4.1,0.4,7.8,1.7,9.8C814.9,970.1,816.7,970.5,816.6,970.9z"></path>
		</g>
	</g>
	<g>
		<g>
			<path class="st9" d="M839.9,991.6c0,0.2-0.5,0.2-1.3,0c-0.8-0.2-2-0.8-3-2c-2.1-2.5-2.9-6.8-2.7-11.3c0.2-4.6,1-9.4,2.7-14.1     c0.9-2.3,2.1-4.6,3.8-6.5c1.7-1.9,3.9-3.4,6.5-3.9c0.6-0.1,1.9-0.3,2.6,0.1c0.6,0.2,1.2,0.4,1.8,0.7c1.2,0.6,2.4,1.5,3.3,2.7     c2,2.4,2.4,5.6,2.2,8.3c-0.2,2.8-0.9,5.4-1.6,7.7c-0.7,2.4-1.6,4.8-2.6,7c-1.9,4.4-4.2,8.2-6.7,10.4c-1.3,1.1-2.7,1.6-3.7,1.5     C840.3,992,839.8,991.7,839.9,991.6c0-0.2,0.5-0.3,1.2-0.5c0.7-0.3,1.6-0.9,2.4-1.9c1.7-2.2,3.4-5.9,4.7-10.2     c0.7-2.2,1.3-4.5,1.9-6.8c0.6-2.4,1-4.7,1-6.8c0-2.1-0.4-4-1.4-5c-0.4-0.6-1.1-1-1.7-1.3c-0.3-0.2-0.7-0.3-1-0.4     c-0.2,0,0.1,0-0.2,0c-1.1,0.2-2.5,1-3.7,2.3c-1.2,1.3-2.3,3-3.2,5c-1.7,3.9-2.9,8.6-3.5,12.6c-0.6,4.1-0.4,7.8,0.8,9.9     C838.3,990.6,840,991.2,839.9,991.6z"></path>
		</g>
	</g>
	<g>
		<g>
			<path class="st9" d="M912.9,831c0.1,0.1,0.1,0.3,0,0.7c-0.1,0.3-0.2,0.7-0.3,1.4c-0.3,1.4-0.7,3.2-1.1,5.3c-1,4.7-2.3,11-3.8,18     c-1.5,7.1-3.2,15-5.2,22.7c-0.5,1.9-1.1,3.9-1.8,5.9c-0.7,1.8-1.4,3.5-2,5.2c-1.3,3.4-2.6,6.6-3.7,9.5c-4.7,11.7-12,29-19.4,43.1     c-1.8,3.3-3.1,6.4-3.7,9.5c-0.6,3.1-0.7,5.9-0.5,8.3c0.4,4.8,1.8,7.7,1.3,8c-0.4,0.3-2.8-2.2-4.2-7.4c-0.7-2.6-1.1-5.8-0.8-9.5     c0.2-3.6,1.4-7.6,3.1-11.3c5.9-14.3,12.4-32,17.2-43.6c1.2-2.9,2.5-6.1,3.9-9.5c0.7-1.7,1.5-3.4,2.2-5.2c0.6-1.5,1.2-3.2,1.8-5.1     c2.3-7.4,4.6-15.1,6.8-22.1c2.2-7,4.3-13.1,6.2-17.5c0.9-2.2,1.8-3.9,2.5-5.1c0.3-0.6,0.7-1,1-1.3     C912.6,831,912.8,830.9,912.9,831z"></path>
		</g>
	</g>
	<g>
		<g>
			<path class="st9" d="M834.5,982.5c-0.1,0.2-1,0.2-2.5-0.7c-1.4-0.9-3.2-2.7-4.4-5.4c-1.2-2.7-2.2-6.1-2.1-10.2     c0.1-0.5,0.2-1.1,0.2-1.7c0.1-0.5,0.2-1,0.3-1.5c0.2-1,0.4-2,0.7-2.9c0.5-2,1-4,1.6-6.1c4.5-16.6,10.7-36.4,15.5-50.4     c9.8-28,30.8-82.7,32.8-82c2,0.6-15.9,56.8-25.6,84.5c-4.8,13.9-11.8,33.4-17.6,49.5c-0.7,2-1.4,3.9-2,5.8     c-0.3,0.9-0.6,1.9-0.9,2.7c-0.1,0.4-0.3,0.9-0.4,1.3c-0.1,0.4-0.2,0.7-0.3,1.1c-0.4,3.1,0,6.4,0.7,8.8c0.7,2.5,1.7,4.2,2.6,5.3     C833.9,981.7,834.6,982.2,834.5,982.5z"></path>
		</g>
	</g>
	<g>
		<g>
			<path class="st9" d="M869.8,951.7c0.9,0.5,0.4,3.6-0.5,7.6c-0.5,2-1,4.1-1.6,6.1c-0.3,1-0.6,2-0.9,3c-0.3,0.9-0.6,1.8-1,2.7     c-0.7,1.8-2,3.9-3.5,5.9c-1.6,2-3.6,3.8-5.7,5.1c-4.1,2.6-8.1,2.9-8.4,1.9c-0.3-1,2.4-2.9,4.9-6c2.6-3,4.6-7,5.7-9.9     c0.3-0.8,0.7-1.6,1.1-2.5c0.4-0.9,0.9-1.9,1.4-2.9c1-1.9,2.1-3.9,3.2-5.7C866.6,953.7,868.8,951.2,869.8,951.7z"></path>
		</g>
	</g>
	<g>
		<g>
			<path class="st9" d="M828.3,963.3c1.3,2.5,0.5,5.5-0.6,6c-1,0.6-4.2-0.4-5.5-2.8c-1.3-2.5-0.3-5.6,0.7-6.1     C824,959.8,827,960.9,828.3,963.3z"></path>
		</g>
	</g>
	<g>
		<g>
			<path class="st9" d="M845.7,797.9c0.5,0.1,0.4,3.4-0.3,8.8c-0.8,5.4-2.2,12.8-4.9,20.9c-0.7,2-1.5,4.1-2.3,6.2     c-0.8,2-1.6,4.1-2.5,6.1c-1.6,4.1-3.2,8.4-4.7,12.5c-1.5,4.2-2.8,8.3-4,12.3c-1.1,4-2.2,7.8-3.2,11.3     c-4,13.8-10.3,34.4-14.4,51.7c-1,4.4-1.8,8.4-2.2,12.1c-0.4,3.7-0.3,7.1,0.1,9.8c0.4,2.8,1.1,4.9,1.7,6.3     c0.6,1.4,1.1,2.2,0.9,2.4c-0.2,0.2-1.1-0.2-2.2-1.5c-1.1-1.3-2.4-3.5-3.3-6.5c-0.9-3-1.4-6.6-1.4-10.6c0-4,0.4-8.5,1.1-12.9     c2.8-18,8.4-39,12.3-52.8c1-3.5,2.1-7.2,3.4-11.4c1.3-4.1,2.8-8.3,4.5-12.5c1.7-4.2,3.5-8.5,5.4-12.6c1-2.1,1.9-4.1,2.9-6     c1-1.9,1.8-3.8,2.6-5.7c3.2-7.5,5.4-14.6,7.1-19.7C844.1,800.9,845.2,797.8,845.7,797.9z"></path>
		</g>
	</g>
	<g>
		<g>
			<path class="st9" d="M819.9,875.8c1,0.3,1.3,2.9,0.6,6c-0.5,3.2-2.1,6.9-3.9,9.2c-1.6,2.3-5,5.3-8.4,6.7     c-3.4,1.5-6.5,1.3-6.7,0.3c-0.2-1,1.7-2.5,3.7-4.7c2-2.1,3.9-4.9,5.3-6.8c1.4-1.8,3.4-4.5,5-6.8     C817.4,877.4,818.9,875.5,819.9,875.8z"></path>
		</g>
	</g>
	<g>
		<g>
			<path class="st9" d="M600.9,899.8c-0.7,0.7-8.7-5.2-18.1-13.9c-2.4-2.2-4.8-4.5-7.2-7.1c-1.3-1.4-2.2-2.5-3.4-3.7     c-1.2-1.2-2.3-2.4-3.5-3.7c-4.7-4.8-9.3-9.6-13-13.5c-3.7-4-8.3-9-13.1-14.4c-1.2-1.4-2.4-2.7-3.6-4.2c-0.3-0.4-0.6-0.7-0.9-1.2     c-0.3-0.5-0.7-0.9-0.9-1.4c-0.6-1-0.9-1.8-1.4-2.6c-1.6-3.3-3.1-6.6-4.4-9.7c-5.5-12.5-9.3-22.8-8.3-23.2c1-0.5,6.5,9,13.2,20.8     c1.7,2.9,3.4,6,5.2,9.1c0.4,0.7,0.9,1.6,1.3,2.1c0.2,0.3,0.4,0.5,0.6,0.8c0.2,0.2,0.6,0.6,0.8,0.9c1.2,1.3,2.4,2.6,3.7,3.8     c4.9,5.1,9.7,10,13.5,14c3.7,4,8.2,8.8,12.7,14c1.1,1.3,2.2,2.6,3.3,4c1.1,1.3,2.3,2.9,3.2,4.1c2,2.6,4.2,5.1,6.2,7.4     C595,891.6,601.7,899,600.9,899.8z"></path>
		</g>
	</g>
	<g>
		<g>
			<path class="st9" d="M610.2,861.4c-0.8,0.7-7.3-5.6-15.3-13.9c-4-4.2-8.3-8.8-12.4-13.4c-3.8-4.5-8.1-8.4-11.6-11.9     c-3.5-3.4-7.9-7.6-12.6-12.4c-1.1-1.2-2.4-2.4-3.6-4.3c-0.9-1.6-1.6-3-2.4-4.5c-1.5-3-2.9-5.9-4.2-8.7c-5.2-11.2-9-20.4-8-20.9     c0.9-0.5,6.3,7.8,12.8,18.3c1.6,2.6,3.3,5.4,5,8.2c0.8,1.4,1.7,2.8,2.5,4c0.6,0.8,1.8,1.9,2.9,3c4.7,4.3,9.3,8.4,12.9,11.9     c3.6,3.5,7.9,7.8,11.8,12.9c3.8,4.8,7.7,9.8,11.1,14.4C605.9,853.2,611,860.7,610.2,861.4z"></path>
		</g>
	</g>
	<g>
		<g>
			<path class="st9" d="M612.5,809c-1.6,1.4-22.8-20.5-33.9-33c-1.4-1.6-2.9-3.3-4.6-5.2c-1.6-1.8-3.4-4-5.1-5.7     c-4.1-4.2-7.5-8.7-10.8-12.8c-6.4-8.3-11.1-15.3-10.3-15.9c0.8-0.7,6.9,5,14.3,12.4c3.7,3.6,7.8,7.9,11.5,11.3     c2.3,2.1,4,4,5.8,5.8c1.7,1.8,3.3,3.6,4.7,5.2C595.4,783.5,614.1,807.6,612.5,809z"></path>
		</g>
	</g>
	<g>
		<g>
			<path class="st9" d="M586.6,779.3c0.7-0.2,1.9,1.2,4,3.5c2.1,2.3,4.9,5.5,8,9.1c6.3,7.2,14,16.2,19,22.9     c2.5,3.4,5.5,7.7,8.5,12.4c1.5,2.4,3,4.8,4.3,7.5c1.4,2.6,2.5,5.6,3.1,8.5c1.4,5.8,0.2,11.4-1.6,14.7c-1.8,3.4-3.8,4.7-4.3,4.2     c-0.6-0.4,0.2-2.4,0.6-5.5c0.4-3.1,0.2-7.2-1.6-11.4c-0.9-2.1-2-4.1-3.5-6.3c-1.4-2.1-3.1-4.3-4.7-6.4c-3.3-4.3-6.4-8.4-8.9-11.6     c-5-6.7-11.7-16.3-16.7-24.8c-2.5-4.2-4.5-8.2-5.6-11.3C586,781.7,586,779.5,586.6,779.3z"></path>
		</g>
	</g>
	<g>
		<g>
			<path class="st9" d="M582.1,828.2c0.9-0.5,4.8,4,9.7,9.9c4.9,5.9,10.7,13,14.8,18.1c1,1.2,2.2,2.9,3.4,4.6     c0.6,0.9,1.1,1.8,1.7,2.8c0.6,1,1.1,2,1.6,3c2,4.2,3.3,8.9,3.8,13.3c0.5,4.4,0.1,8.3-0.7,11.1c-0.7,2.7-1.7,4.3-2.2,4.1     c-0.5-0.2-0.5-1.8-0.7-4.4c-0.2-2.6-0.6-6.1-1.7-9.8c-1-3.7-2.7-7.6-4.7-11c-0.5-0.9-1-1.7-1.6-2.5c-0.6-0.8-1-1.6-1.6-2.3     c-1.2-1.5-2.2-2.9-3.2-4.2c-4.1-5.2-9.4-13-13.2-19.7C583.5,834.4,581.2,828.8,582.1,828.2z"></path>
		</g>
	</g>
	<g>
		<g>
			<path class="st9" d="M538.7,832.8c0.5-0.1,1.4,1.1,3,3.1c1.5,2,3.5,4.9,5.8,8.1c4.5,6.5,9.8,14.6,13.2,20.6     c1.7,3,3.6,6.9,5.4,11.2c1.8,4.2,3.4,9.2,3.7,13.8c0.3,4.6-0.5,8.8-1.6,11.5c-1.2,2.8-2.6,4.1-3,3.8c-0.5-0.3,0-1.9,0.1-4.5     c0.2-2.6,0.1-6.2-0.8-10c-0.9-3.8-2.6-7.8-4.7-11.6c-2-3.8-4.1-7.5-5.8-10.4c-3.3-5.9-7.8-14.4-11.2-21.7c-1.7-3.6-3-7-3.8-9.5     C538.3,834.6,538.2,832.9,538.7,832.8z"></path>
		</g>
	</g>
	<g>
		<g>
			<path class="st9" d="M1104,202.2c-0.1-0.4,0.4-0.9,0.7-2.3c0.1-0.3,0.2-0.7,0.3-1.2c0.1-0.5,0.2-1,0.3-1.6     c0.3-1.5,0.4-3.4,0.7-5.6c1.5,0.2,3.4,0.6,5.4,0.8l0.8,0l0.5,0c0.3,0,0.6,0,1,0c0.6,0,1.3-0.1,1.9-0.2c1.3-0.2,2.6-0.5,3.6-1.1     c1-0.5,1.7-1.2,2-1.9c0.1-0.2,0.1-0.3,0.2-0.7c0.2-0.5,0.4-1.1,0.6-1.6c0.5-1,1-1.9,1.5-2.8c1.1-1.8,2.2-3.3,3.5-4.9     c1.2-1.5,2.5-3,3.9-4.5c0.7-0.7,1.4-1.4,2.1-2.1l1.1-1l0.3-0.3l0.5-0.4l1-0.9c1.5-1.2,3.3-1.8,5.2-1.7c0.9,0.1,1.8,0.3,2.7,0.7     c0.4,0.2,0.9,0.4,1.3,0.6l1,0.6c1.7,1,3.2,1.8,4.8,2.5c1.5,0.7,3.1,1.3,4.7,1.8c0.4,0.1,0.8,0.2,1.1,0.4l0.8,0.2     c0.6,0.2,1,0.1,1.5,0.2c0.9,0,1.8-0.1,2.7-0.6c0.9-0.4,1.9-1,2.8-2.1c0.9-1,1.8-2.3,2.5-3.7c0.7-1.4,1.2-3.1,1.3-4     c0.1-1.4,0.2-2.4,0.3-3.6l0.5-3.2c0.3-2.1,0.7-4.2,1.1-6.3c0.8-4.2,1.6-8.3,2.4-12.2c1.7-7.8,3.5-14.8,5.2-19.8     c0.9-2.6,2-4.6,3-5.8c1-1.2,1.8-1.6,2.1-1.4c0.5,0.5-0.8,3.1-1.2,8.1c-0.5,5.2-1.2,12.2-2,20c-0.4,3.9-0.8,8.1-1.2,12.2     c-0.2,2.1-0.4,4.2-0.5,6.2l-0.2,3.1c-0.1,1-0.1,2-0.1,2.7c-0.1,3.3-0.9,5.6-1.8,7.9c-1,2.3-2.2,4.4-3.8,6.3     c-1.6,1.9-3.6,3.5-5.9,4.6c-2.3,1.2-4.8,1.6-7.1,1.6c-1.1-0.1-2.4-0.1-3.5-0.4c-0.6-0.1-1.1-0.3-1.7-0.4     c-0.5-0.2-0.9-0.3-1.4-0.5c-1.8-0.6-3.7-1.4-5.6-2.4c-1.9-0.9-3.8-2.1-5.5-3.2l-0.2-0.2l0,0l0,0c0,0,0-0.1-0.1-0.1     c-0.1,0-0.1-0.1-0.2,0l-0.1,0c0,0,0,0,0,0l-0.2,0.2l-1,0.8l-2,1.7c-1.3,1.2-2.6,2.4-3.8,3.7c-1.2,1.2-2.3,2.5-3.3,3.8     c-0.5,0.6-0.9,1.2-1.3,1.8c-0.2,0.3-0.3,0.6-0.5,0.9c-0.2,0.4-0.6,1.1-0.9,1.7c-1.5,2.3-3.8,3.6-5.8,4.3c-2,0.7-4,0.8-5.7,0.8     c-0.9,0-1.7-0.1-2.5-0.2c-0.4-0.1-0.8-0.1-1.2-0.2l-0.5-0.1l-0.3-0.1c-0.7-0.2-1.4-0.5-2.1-0.8c-0.3,0.6-0.6,1.2-1,1.9     c-0.3,0.5-0.5,0.9-0.8,1.3c-0.3,0.4-0.6,0.8-0.9,1.2c-0.6,0.7-1.3,1.1-1.8,1.3C1104.3,202.5,1104.1,202.4,1104,202.2z"></path>
		</g>
	</g>
</g>
</svg>
