<?xml version="1.0" encoding="UTF-8"?>
<!-- Generator: Adobe Illustrator 27.9.0, SVG Export Plug-In . SVG Version: 6.00 Build 0)  -->
<svg xmlns="http://www.w3.org/2000/svg" xmlns:xlink="http://www.w3.org/1999/xlink" version="1.1" id="Layer_1" x="0px" y="0px" viewBox="0 0 1369.3 1072" style="enable-background:new 0 0 1369.3 1072;" xml:space="preserve">
<style type="text/css">
	.st0{fill:url(#SVGID_1_);}
	.st1{fill:url(#SVGID_00000152947367072475697450000009208155158224678556_);}
	.st2{fill:url(#SVGID_00000121963666895022316640000002423252988665877635_);}
	.st3{fill:url(#SVGID_00000120547807199647968880000006751133957785876874_);}
	.st4{fill:url(#SVGID_00000134217623398954621750000008324525829659389630_);}
	.st5{fill:url(#SVGID_00000025406829350958330880000017457379309412233906_);}
	.st6{fill:url(#SVGID_00000096747678031994493970000001404955162936704432_);}
	.st7{fill:url(#SVGID_00000142877960216890833220000010723911073281530800_);}
	.st8{fill:url(#SVGID_00000061443375024900089470000010254020501936181644_);}
	.st9{fill:#262626;}
</style>
<g>
	<g>
		<g>
			<g>
				<radialGradient id="SVGID_1_" cx="467.8536" cy="520.7167" r="229.0588" gradientUnits="userSpaceOnUse">
					<stop offset="0" style="stop-color:#EF4136"></stop>
					<stop offset="0" style="stop-color:#EF0F14"></stop>
					<stop offset="1" style="stop-color:#FFFFFF"></stop>
				</radialGradient>
				<path class="st0" d="M484.4,579.5c-37.3,0-67.6-30.3-67.6-67.6c0-37.3,30.3-67.6,67.6-67.6c37.3,0,67.6,30.3,67.6,67.6      C552,549.1,521.7,579.5,484.4,579.5z M484.4,464.8c-25.9,0-47,21.1-47,47c0,25.9,21.1,47,47,47c25.9,0,47-21.1,47-47      C531.5,485.9,510.4,464.8,484.4,464.8z"></path>
			</g>
			<g>
				
					<radialGradient id="SVGID_00000010991249424316559860000013818750492654430131_" cx="467.8535" cy="520.7165" r="229.059" gradientUnits="userSpaceOnUse">
					<stop offset="0" style="stop-color:#EF4136"></stop>
					<stop offset="0" style="stop-color:#EF0F14"></stop>
					<stop offset="1" style="stop-color:#FFFFFF"></stop>
				</radialGradient>
				<path style="fill:url(#SVGID_00000010991249424316559860000013818750492654430131_);" d="M484.4,603.1      c-50.3,0-91.3-40.9-91.3-91.3s40.9-91.3,91.3-91.3s91.3,40.9,91.3,91.3S534.8,603.1,484.4,603.1z M484.4,439.4      c-39.9,0-72.4,32.5-72.4,72.4c0,39.9,32.5,72.4,72.4,72.4c39.9,0,72.4-32.5,72.4-72.4C556.9,471.9,524.4,439.4,484.4,439.4z"></path>
			</g>
			<g>
				
					<radialGradient id="SVGID_00000081638942816916721370000008641310693505547140_" cx="467.8537" cy="520.7169" r="229.0592" gradientUnits="userSpaceOnUse">
					<stop offset="0" style="stop-color:#EF4136"></stop>
					<stop offset="0" style="stop-color:#EF0F14"></stop>
					<stop offset="1" style="stop-color:#FFFFFF"></stop>
				</radialGradient>
				<path style="fill:url(#SVGID_00000081638942816916721370000008641310693505547140_);" d="M484.4,626.8      c-63.4,0-114.9-51.5-114.9-114.9c0-63.4,51.5-114.9,114.9-114.9c63.4,0,114.9,51.5,114.9,114.9      C599.4,575.2,547.8,626.8,484.4,626.8z M484.4,414c-54,0-97.9,43.9-97.9,97.9c0,54,43.9,97.9,97.9,97.9      c54,0,97.9-43.9,97.9-97.9C582.3,457.9,538.4,414,484.4,414z"></path>
			</g>
			<g>
				
					<radialGradient id="SVGID_00000137832574470231582410000011964385448757363881_" cx="467.8535" cy="520.7167" r="229.0583" gradientUnits="userSpaceOnUse">
					<stop offset="0" style="stop-color:#EF4136"></stop>
					<stop offset="0" style="stop-color:#EF0F14"></stop>
					<stop offset="1" style="stop-color:#FFFFFF"></stop>
				</radialGradient>
				<path style="fill:url(#SVGID_00000137832574470231582410000011964385448757363881_);" d="M484.4,650.4      c-76.4,0-138.6-62.2-138.6-138.6c0-76.4,62.2-138.6,138.6-138.6c76.4,0,138.6,62.2,138.6,138.6      C623,588.3,560.8,650.4,484.4,650.4z M484.4,388.6c-68,0-123.3,55.3-123.3,123.3c0,68,55.3,123.3,123.3,123.3      c68,0,123.3-55.3,123.3-123.3C607.7,443.9,552.4,388.6,484.4,388.6z"></path>
			</g>
			<g>
				
					<radialGradient id="SVGID_00000142166028483854145450000017938758481120755897_" cx="467.8536" cy="520.7175" r="229.0583" gradientUnits="userSpaceOnUse">
					<stop offset="0" style="stop-color:#EF4136"></stop>
					<stop offset="0" style="stop-color:#EF0F14"></stop>
					<stop offset="1" style="stop-color:#FFFFFF"></stop>
				</radialGradient>
				<path style="fill:url(#SVGID_00000142166028483854145450000017938758481120755897_);" d="M484.4,674.1      c-89.4,0-162.2-72.8-162.2-162.2c0-89.4,72.8-162.2,162.2-162.2c89.4,0,162.2,72.8,162.2,162.2      C646.7,601.3,573.9,674.1,484.4,674.1z M484.4,363.2c-82,0-148.7,66.7-148.7,148.7s66.7,148.7,148.7,148.7      c82,0,148.7-66.7,148.7-148.7S566.4,363.2,484.4,363.2z"></path>
			</g>
			<g>
				
					<radialGradient id="SVGID_00000008116520892777359940000014563582158508132246_" cx="467.8531" cy="520.7168" r="229.0583" gradientUnits="userSpaceOnUse">
					<stop offset="0" style="stop-color:#EF4136"></stop>
					<stop offset="0" style="stop-color:#EF0F14"></stop>
					<stop offset="1" style="stop-color:#FFFFFF"></stop>
				</radialGradient>
				<path style="fill:url(#SVGID_00000008116520892777359940000014563582158508132246_);" d="M484.4,697.7      c-102.5,0-185.9-83.4-185.9-185.9C298.6,409.4,382,326,484.4,326c102.5,0,185.9,83.4,185.9,185.9      C670.3,614.4,586.9,697.7,484.4,697.7z M484.4,337.8c-96,0-174.1,78.1-174.1,174.1c0,96,78.1,174.1,174.1,174.1      c96,0,174.1-78.1,174.1-174.1C658.6,415.9,580.4,337.8,484.4,337.8z"></path>
			</g>
			<g>
				
					<radialGradient id="SVGID_00000048502065678749766970000008193592344462887834_" cx="467.853" cy="520.7161" r="229.058" gradientUnits="userSpaceOnUse">
					<stop offset="0" style="stop-color:#EF4136"></stop>
					<stop offset="0" style="stop-color:#EF0F14"></stop>
					<stop offset="1" style="stop-color:#FFFFFF"></stop>
				</radialGradient>
				<path style="fill:url(#SVGID_00000048502065678749766970000008193592344462887834_);" d="M484.4,721.4      c-115.5,0-209.5-94-209.5-209.5c0-115.5,94-209.5,209.5-209.5c115.5,0,209.5,94,209.5,209.5C694,627.4,600,721.4,484.4,721.4z       M484.4,312.3c-110,0-199.5,89.5-199.5,199.5c0,110,89.5,199.5,199.5,199.5c110,0,199.5-89.5,199.5-199.5      C684,401.8,594.5,312.3,484.4,312.3z"></path>
			</g>
			<g>
				
					<radialGradient id="SVGID_00000054230479989466884120000015627495863738173100_" cx="467.8538" cy="520.7168" r="229.0585" gradientUnits="userSpaceOnUse">
					<stop offset="0" style="stop-color:#EF4136"></stop>
					<stop offset="0" style="stop-color:#EF0F14"></stop>
					<stop offset="1" style="stop-color:#FFFFFF"></stop>
				</radialGradient>
				<path style="fill:url(#SVGID_00000054230479989466884120000015627495863738173100_);" d="M484.4,745      c-128.6,0-233.2-104.6-233.2-233.2c0-128.6,104.6-233.2,233.2-233.2s233.2,104.6,233.2,233.2C717.6,640.4,613,745,484.4,745z       M484.4,286.9c-124,0-224.9,100.9-224.9,224.9c0,124,100.9,224.9,224.9,224.9c124,0,224.9-100.9,224.9-224.9      C709.4,387.8,608.5,286.9,484.4,286.9z"></path>
			</g>
		</g>
		<g>
			
				<radialGradient id="SVGID_00000017490905543252007000000003116388303607924926_" cx="467.853" cy="520.7163" r="229.0593" gradientUnits="userSpaceOnUse">
				<stop offset="0" style="stop-color:#EF4136"></stop>
				<stop offset="0" style="stop-color:#EF0F14"></stop>
				<stop offset="1" style="stop-color:#FFFFFF"></stop>
			</radialGradient>
			<circle style="fill:url(#SVGID_00000017490905543252007000000003116388303607924926_);" cx="484.4" cy="511.9" r="40.2"></circle>
		</g>
	</g>
	<g>
		<g>
			<path class="st9" d="M364.4,389.5c0.1,0.1-0.8,1.9-3.3,4.5c-1.2,1.3-2.8,2.9-4.7,4.8c-1.7,1.9-4,4.1-5.1,7     c-0.1,0.4-0.3,0.7-0.3,1.1c-0.1,0.3-0.1,0.7-0.2,1.2c-0.1,0.9-0.2,1.9-0.4,2.8c-0.3,1.9-0.7,3.8-1.1,5.9     c-0.8,4.1-1.8,8.4-2.9,13.1c-1.1,4.6-2.3,9.6-3.7,14.8c-1.3,5-2.7,10.3-4.2,15.8c5.6,12.5,7.7,31.6,7.5,47.4l1,1.1     c0.5,0.6,1.1,1.2,1.6,1.9c1,1.3,2,2.6,2.9,4c1.8,2.7,3.6,5.6,5.1,8.6c3,6,5.4,12.4,7.1,19.1c0.4,1.7,0.8,3.4,1.1,5.1     c0.3,1.7,0.6,3.5,0.8,5.2c0.4,3.5,0.6,7.1,0.2,10.9c-0.3,3.8-1.5,7.8-3.9,11.1c-2.4,3.3-5.9,5.9-9.8,7.2c-1.9,0.7-3.9,1.1-6,1.2     c-1,0.1-2.1,0-3.2-0.1c-0.6-0.1-1.1-0.1-1.7-0.3l-0.9-0.2c-0.3-0.1-0.7-0.3-1-0.5c-0.3-0.2-0.7-0.4-1-0.6l-0.7-0.6     c-0.4-0.4-0.9-0.8-1.2-1.1c-0.7-0.7-1.4-1.5-2-2.2c-1.2-1.5-2.3-3-3.3-4.6c-4.1-6.1-7.7-12.5-11.5-18.5c-1-1.5-1.9-2.9-2.9-4.3     c-1.1-1.4-2.2-2.7-3.4-4.1l-7.2-8.3c-1.2-1.4-2.4-2.9-3.6-4.4c-0.6-0.8-1.2-1.6-1.7-2.6c-0.6-1-1.1-2.2-1.4-3     c-1.3-3.6-2.3-7.1-3.4-10.6c-2.2-7-4.4-13.9-6.7-20.7c-1.2-3.4-2.4-6.8-3.6-10.2c-1.2-3.4-2.4-6.8-3.6-10.3     c-2.2-6.9-4.4-13.8-5.4-21.3c-0.2-1.9-0.4-3.8-0.4-5.8c0-1.9,0.3-4.2,0.9-6.1c0.9-3.2,1.7-6.6,2.5-9.9c3.1-13.4,6-26.4,8.6-39     c1.3-6.3,2.5-12.5,3.4-18.4c0.9-5.8,1.1-11.7,1.4-17.6c0.3-5.1,0.7-10.5,1.8-16.1c1.1-5.6,3.4-11.6,7.8-16.6     c2.4-2.4,4.7-4.1,7-5.9c2.3-1.8,4.7-3.5,7.1-5.3c4.8-3.5,9.7-6.9,14.7-10.4c10-7,20.4-14,30.9-21.5c5.1-3.7,10.7-7.6,16.4-11     c5.6-3.4,11.3-6.8,17-10.2c22.6-13.7,44.8-29.2,63.9-47.7c19.1-18.4,35.4-39.4,46.2-62c2.6-5.7,5.3-11.1,7.7-16.9     c2.5-5.7,4.8-11.3,7.5-16.6c2.6-5.4,5.1-10.7,7.9-15.7c1.4-2.5,2.7-5,4-7.5c1.4-2.5,2.8-4.8,4.1-7.2c11-19,22.2-35.1,32.3-48.2     c10.1-13.1,18.9-23,25.2-29.6c3.2-3.3,5.7-5.8,7.5-7.4c1.8-1.6,2.8-2.4,2.9-2.3c0.1,0.1-0.7,1.1-2.3,2.9     c-1.6,1.8-3.9,4.5-6.9,7.9c-6,6.9-14.4,17.1-24,30.4c-9.6,13.2-20.4,29.5-31,48.5c-1.3,2.4-2.7,4.8-4,7.2c-1.3,2.5-2.5,5-3.8,7.5     c-2.7,5-5.1,10.3-7.6,15.7c-2.6,5.3-4.8,10.9-7.2,16.5c-2.3,5.6-5,11.4-7.6,17.3c-10.8,23.3-27.3,45-46.7,64.1     c-19.4,19.1-41.9,35.1-64.6,49.1c-5.7,3.5-11.3,6.9-16.9,10.3c-5.6,3.4-10.6,6.9-15.9,10.8c-10.5,7.5-20.8,14.7-30.8,21.7     c-5,3.5-9.9,6.9-14.6,10.4c-2.4,1.7-4.7,3.4-6.9,5.2c-2.3,1.7-4.5,3.5-6.1,5.1c-3.1,3.5-5,8.1-6,13c-1,4.9-1.4,10-1.6,15     c-0.3,5.8-0.6,11.9-1.5,18.3c-1,6.2-2.2,12.4-3.5,18.7c-2.6,12.7-5.6,25.7-8.8,39.2c-0.8,3.4-1.6,6.7-2.6,10.2     c-0.4,1.5-0.6,2.7-0.6,4.3c0,1.5,0.1,3.1,0.3,4.7c0.8,6.5,2.8,13.3,4.9,20c1.1,3.4,2.2,6.7,3.4,10.1c1.2,3.4,2.4,6.9,3.5,10.3     c2.3,6.9,4.5,13.9,6.6,20.9c1.1,3.5,2.1,7,3.2,10.3c0.3,0.9,0.5,1.4,0.8,2c0.4,0.6,0.8,1.3,1.3,2c1,1.4,2.1,2.8,3.3,4.1l7.1,8.4     c1.2,1.4,2.4,2.8,3.5,4.4c1.2,1.6,2.3,3.2,3.2,4.8c3.9,6.3,7.3,12.6,11.2,18.5c1,1.5,1.9,2.9,3,4.2c0.5,0.7,1,1.3,1.5,1.8     c0.3,0.3,0.5,0.5,0.7,0.7l0.4,0.3c0.1,0.1,0.1,0.1,0.2,0.1c0.1,0,0.1,0.1,0.2,0.1l0.4,0.1c0.3,0.1,0.6,0.1,1,0.2     c0.7,0.1,1.4,0.1,2.1,0.1c1.5-0.1,3-0.4,4.4-0.8c2.9-1,5.3-2.7,7.1-5.1c1.7-2.4,2.7-5.3,3-8.4c0.3-3.1,0.3-6.5-0.1-9.7     c-0.1-1.6-0.4-3.3-0.6-4.9c-0.3-1.6-0.6-3.2-1-4.8c-1.5-6.4-3.7-12.5-6.4-18.1c-1.4-2.8-2.9-5.5-4.6-8.1     c-0.8-1.3-1.8-2.5-2.7-3.7c-0.5-0.6-1-1.2-1.4-1.7l-2.1-2.5l0.1-2.5l0-1.6c0-1.1,0-2.2,0-3.2c0-2.1-0.1-4.3-0.1-6.4     c-0.2-4.2-0.5-8.3-1-12.3c-0.5-4-1.2-7.9-2.1-11.6c-0.5-1.9-0.9-3.7-1.5-5.4c-0.3-0.9-0.5-1.8-0.9-2.6c-0.4-1.1-0.8-2.1-1.2-3.2     c1.7-5.9,3.3-11.5,4.9-16.8c1.4-5.2,2.8-10,4.1-14.6c1.2-4.6,2.4-8.9,3.3-12.9c0.5-2,0.9-3.9,1.3-5.7c0.2-0.9,0.3-1.8,0.5-2.7     c0.1-0.8,0.3-2,0.7-2.8c1.6-3.4,4-5.5,5.8-7.3c2-1.8,3.6-3.3,5-4.5C363.1,391,364.3,389.4,364.4,389.5z"></path>
		</g>
		<g>
			<path class="st9" d="M472.4,330.8c0.1,0.2-1,1.1-3.2,2.4c-2.1,1.4-5.2,3.3-8.4,6.4c-3.3,3-6.2,7.3-8.5,12.7     c-2.3,5.5-4.2,11.9-6.7,18.7c-4.6,13.6-12.5,28.4-24.1,39.5c-5.8,5.5-12.7,10.2-20.4,12.3c-3.9,1-7.9,1.4-11.7,0.9     c-3.8-0.4-7.3-1.6-10.4-3.1c-1.5-0.8-3-1.7-4.5-2.5c-1.4-1.1-3-2.1-4.4-3.4c-2.9-2.6-5.4-6-7.1-10c-1.6-4-2.1-8.4-2-12.6     c0.1-4.3,0.9-8.4,1.9-12.5c1-4.1,2.2-8,3.5-11.9l1.9-5.8c0.7-2,1.4-4.1,2.2-6c3.2-7.8,7.6-14.9,12.2-21.2     c4.6-6.3,9.3-12,13.7-16.9c2.2-2.5,4.3-4.8,6.2-7c2-2.2,3.6-4.2,5-6.2c2.7-4,4-7.7,4.6-10.3c0.5-2.6,0.4-4.1,0.6-4.2     c0.2-0.1,1,1.5,0.9,4.4c-0.1,2.9-1,7.1-3.6,11.6c-1.2,2.2-2.9,4.6-4.7,6.9c-1.8,2.3-3.7,4.8-5.8,7.4c-4,5.2-8.4,11-12.5,17.3     c-4.1,6.3-8,13.2-10.8,20.5c-0.8,1.8-1.3,3.7-1.9,5.6l-1.7,5.9c-1.1,3.9-2.3,7.8-3.1,11.5c-1.8,7.5-2.2,15,0.2,20.8     c2.5,5.7,7.5,9.5,12.6,11.9c4.9,2.4,10.8,3.4,17,1.8c6.2-1.5,12.2-5.4,17.6-10.2c5.4-4.9,10.1-10.8,14.1-17     c2-3.1,3.8-6.3,5.4-9.6c1.6-3.2,3-6.6,4.4-9.8c2.7-6.5,5-12.9,7.8-18.5c1.5-2.8,3-5.4,4.8-7.6c0.9-1.1,1.8-2.1,2.7-3     c1-0.9,1.9-1.8,2.8-2.5c3.8-3,7.2-4.5,9.6-5.5C470.9,331,472.3,330.6,472.4,330.8z"></path>
		</g>
		<g>
			<path class="st9" d="M510.8,266.1c0.3-0.3,2.3,1.1,4.3,4.5c1.9,3.3,3.8,8.3,4.8,14.2c1.1,5.9,1.1,12.6-0.2,19.1     c-1.3,6.5-4.1,12.6-7.8,16.7c-3.6,4.3-9.2,8-15.2,11c-6,2.9-12.5,5.2-18.5,6.9c-12,3.4-21.8,4.6-22,3.6c-0.2-1,9.1-4,20.3-8.6     c5.6-2.3,11.6-5,17-8c5.4-3,10-6.5,12.7-9.7c2.8-3.2,5.4-8,6.8-13.5c1.5-5.4,2-11.5,1.6-16.9c-0.3-5.4-1.3-10.3-2.3-13.6     C511.5,268.4,510.4,266.5,510.8,266.1z"></path>
		</g>
		<g>
			<path class="st9" d="M744.8,94.8c0.3,0.1,0.1,1.7-0.7,4.4c-0.4,1.4-0.9,3-1.5,5c-0.3,1-0.6,2-1,3.1c-0.2,0.5-0.4,1.1-0.6,1.7     c-0.2,0.6-0.5,1.1-0.7,1.7c-1,2.4-2.2,4.9-3.4,7.7c-0.6,1.4-1.2,2.8-1.9,4.3c-0.8,1.4-1.6,2.9-2.4,4.4c-1.7,3-3.3,6.2-5.3,9.4     c-2,3.2-4.1,6.4-6.3,9.8c-9,13.2-20.5,26.8-32.7,38.9c-12.2,12.1-24.9,22.9-35.9,31.1c-11,8.3-25.3,17.9-40.9,26.8     c-3.9,2.3-8,4.4-11.9,6.6c-3.9,2.1-7.9,4.2-11.7,6.5c-7.7,4.4-15.2,9.1-22.3,13.7c-28.2,18.5-48.8,36.2-49.7,35.2     c-1-1,18.1-20.7,45.7-41c6.9-5.1,14.3-10.2,22-15c3.8-2.5,7.8-4.8,11.8-7.1c3.9-2.3,7.8-4.5,11.5-6.8     c15.1-9.2,28.9-18.8,39.6-26.9c10.8-8,23.4-18.3,35.5-29.7c12.2-11.4,23.9-24.2,33.4-36.5c2.3-3.1,4.5-6.2,6.7-9.1     c2.1-3,3.9-6,5.8-8.8c0.9-1.4,1.8-2.8,2.7-4.1c0.8-1.4,1.5-2.7,2.3-4c1.5-2.6,2.8-5,4.1-7.1c0.3-0.5,0.6-1.1,0.9-1.6     c0.3-0.5,0.5-1.1,0.8-1.6c0.5-1,1-2,1.4-2.9c0.9-1.8,1.7-3.3,2.3-4.5C743.6,96,744.5,94.6,744.8,94.8z"></path>
		</g>
		<g>
			<path class="st9" d="M344.3,580.3c0.2-0.1,1.3,1,2.6,3.5c1.2,2.5,2.6,6.6,2.6,11.8c0,5.2-1.4,11.5-5.6,17.5     c-2.2,2.9-5.4,5.5-9.4,6.7c-2,0.6-4.1,0.9-6.2,0.9c-1.1,0-2.2-0.1-3.3-0.4c-1.1-0.2-2.2-0.6-3.5-1.3c-1.4-0.9-1.9-1.6-2.7-2.4     c-0.7-0.7-1.4-1.5-2.1-2.2c-1.4-1.5-2.7-3-4-4.6c-2.6-3.1-5.2-6.4-7.8-9.7c-2.5-3.4-5-6.8-7.3-10.5c-2.2-3.6-4.3-7.1-6.6-10.6     c-2.2-3.5-4.5-7-6.6-10.4c-1.1-1.8-2.2-3.5-3.2-5.4c-0.3-0.5-0.5-1-0.8-1.6c-0.1-0.3-0.3-0.8-0.4-1.3l-0.2-0.6     c-0.3-0.9-0.5-1.8-0.8-2.7c-2.4-7.4-4.6-14.4-6.6-20.7c-2-6.4-4.2-13.6-6.4-21.3c-2.2-7.8-4.3-16.4-4.8-25.5     c-0.3-4.6-0.1-9.4,1-14.1c0.5-2.4,1.2-4.5,2-6.6c0.7-2.1,1.4-4.2,2.1-6.3c2.8-8.4,5.6-16.7,8.3-24.5c5.4-15.8,10.3-29.9,14-40.1     c3.7-10.2,6.2-16.3,6.7-16.2c0.5,0.2-1.1,6.6-3.9,17.1c-2.8,10.4-7,24.8-11.7,40.7c-2.4,8-4.9,16.3-7.4,24.8     c-0.6,2.1-1.3,4.2-1.9,6.3c-0.7,2.1-1.3,4.2-1.7,6.2c-0.8,4-0.9,8.1-0.5,12.2c0.7,8.3,2.8,16.4,5,23.9c2.3,7.6,4.5,14.8,6.5,21.1     c2,6.4,4.2,13.4,6.5,20.8c0.3,1,0.6,2,0.9,2.9l0.1,0.5l0.1,0.2l0,0.1c1.4-0.3-1.9,0.5-1.4,0.3l0.4-0.1c0.4-0.1,1.3-0.3,1-0.2l0,0     c0,0,0,0,0,0.1c0.1,0.3,0.3,0.6,0.5,1c0.8,1.6,1.8,3.3,2.9,5c2.1,3.5,4.2,7,6.4,10.5c2.2,3.5,4.3,7.3,6.4,10.8     c2,3.5,4.3,6.9,6.6,10.3c2.3,3.3,4.8,6.6,7.2,9.7c1.2,1.6,2.5,3.1,3.7,4.6c0.6,0.7,1.2,1.5,1.9,2.2c0.6,0.6,1.4,1.5,1.6,1.6     c0.4,0.2,1.1,0.6,1.8,0.7c0.7,0.2,1.5,0.3,2.3,0.4c1.6,0.1,3.2,0,4.7-0.4c3-0.8,5.6-2.5,7.5-4.8c1.9-2.2,3.3-5,4.3-7.5     c1-2.6,1.5-5.1,1.7-7.5c0.4-4.7-0.4-8.6-1.1-11.2C344.8,581.9,344.1,580.5,344.3,580.3z"></path>
		</g>
		<g>
			<path class="st9" d="M314,607c0.2,0,0.5,0.6,0.8,1.8c0.1,1.2,0.2,3.1-0.5,5.3c-0.6,2.2-1.7,4.7-3.6,7.1c-1.9,2.4-4.6,4.7-8.1,6.2     c-3.5,1.5-7.6,1.9-11.5,1.1c-3.9-0.7-7.9-2.3-11.1-5.5c-3-3.3-4.4-7.6-4.8-11.2c-0.4-3.7-0.1-7,0-9.6c0-1.1,0-2.7-0.1-4.2     c0-1.6-0.1-3.2-0.1-4.8c-0.1-3.3-0.2-6.9-0.3-10.6c-0.1-3.6-0.3-7.4-0.5-11c-0.1-1.9-0.2-3.6-0.4-5.4c-0.2-1.9-0.2-3.7-0.2-5.5     c0-14.2,1.3-25.3,2.3-25.3c1.1,0,1.7,11.2,3,25c0.2,1.7,0.4,3.5,0.7,5.2c0.3,1.7,0.6,3.7,0.8,5.5c0.5,3.7,0.8,7.5,1.2,11.2     c0.3,3.7,0.6,7.3,0.8,10.7c0.1,1.7,0.2,3.3,0.3,4.9c0.1,1.6,0.2,3,0.1,4.7c-0.1,3-0.4,5.9-0.2,8.7c0.2,2.8,1,5.4,2.6,7.4     c1.6,1.9,4.3,3.3,7.2,4.1c2.9,0.8,5.8,0.8,8.4,0c5.4-1.6,9.1-6,10.8-9.3C313.5,609.7,313.5,607.1,314,607z"></path>
		</g>
		<g>
			<path class="st9" d="M278.3,585.6c0-0.3,0.8-0.5,2.2-0.4c0.7,0,1.5,0.3,2.4,0.6c0.9,0.3,1.8,1,2.7,1.6c1.7,1.5,3.1,3.5,4,5.7     c0.9,2.1,1.4,4.3,1.7,6c0.3,1.8,0.4,4,0.2,6.3c0,0.6-0.1,1.2-0.1,1.7c-0.1,0.8-0.2,1.6-0.3,2.3l-0.2,1.4c0.1,0.3-0.3,0.3-0.5,0.4     l-0.7,0.2l-1.4,0.4l-0.3,0.1l-0.2,0l-0.4,0.1c-4.1,0.8-7.5,1.2-7.7,0.5c-0.2-0.7,2.8-2.2,6.6-3.9l0.4-0.2l0.2-0.1l0,0l0.1-0.1     c0.1,0,0.1-0.2,0-0.3c0-0.1,0-0.1-0.1-0.2l0-0.8c0-0.5,0-1.1-0.1-1.6c-0.1-2.1-0.3-4-0.6-5.6c-0.2-1.5-0.6-3.3-1-5.1     c-0.5-1.8-1.3-3.4-2.3-4.8c-0.5-0.6-1-1.2-1.6-1.7c-0.6-0.4-1.1-0.9-1.6-1.2C279,586.5,278.3,586,278.3,585.6z"></path>
		</g>
		<g>
			<path class="st9" d="M321.1,613.5c-0.3-0.2-0.1-1.1,0-2.5c0.2-1.4,0.3-3.3,0.4-5.5c0.1-2.2,0.1-4.6,0.1-7c0-1.2,0-2.4-0.1-3.5     c0-0.3,0-0.5,0-0.8c0-0.3,0-0.6,0-0.5l0,0l0,0c0,0,0,0,0,0l-0.3-0.2c-0.4-0.3-0.9-0.5-1.4-0.8c-1-0.5-2-1-3.1-1.5     c-2.2-1-4.5-1.7-6.6-1.9c-1-0.1-2,0-2.8,0.2c-0.8,0.3-1.5,0.6-2,1c-1.1,0.8-1.6,1.7-1.9,1.6c-0.3,0-0.5-1.2,0.4-2.8     c0.5-0.8,1.3-1.6,2.3-2.3c1.1-0.6,2.4-1.1,3.8-1.2c2.8-0.3,5.7,0.3,8.3,1.1c1.3,0.4,2.5,0.9,3.6,1.4c0.5,0.3,1.1,0.5,1.6,0.8     c0.8,0.4,1.6,0.9,2.4,1.2c0.2,0.1,0.5,0.2,0.6,0.4l0,0.8c0,0.5,0,1,0,1.6c0,0.4,0,0.7,0,1.1c0,0.3,0,0.6,0,0.9     c0,1.2-0.1,2.4-0.2,3.6c-0.2,2.5-0.6,5-1.2,7.3c-0.5,2.3-1.3,4.3-2,5.6C322.1,613.1,321.3,613.7,321.1,613.5z"></path>
		</g>
		<g>
			<path class="st9" d="M336.4,574.7c-0.4-0.5,1.2-2.7,2.5-5.8l0.5-1.2l0.2-0.6c0.1-0.2,0-0.2,0-0.2c0-0.1,0-0.2-0.1-0.2     c-0.1,0-0.1,0.1-0.5-0.4c-1.3-1.5-2.4-2.8-3.4-3.9c-2-2.2-4.8-5.6-7.6-7.9c-1.4-1.1-2.7-2-3.7-2.5c-1-0.5-1.7-0.6-1.8-1     c-0.1-0.3,0.7-0.9,2.2-0.9c1.4,0,3.4,0.5,5.2,1.4c3.8,1.8,7.4,5.2,9.5,7.6c1,1.2,2.2,2.7,3.3,4.4c0.4,0.6,0.8,1.2,1.3,1.9     c0.8,0.7,0.1,1.6-0.2,2.4c-0.2,0.4-0.4,0.9-0.5,1.1l-0.4,0.7c-0.3,0.4-0.6,0.8-0.8,1.2C339.6,573.8,336.8,575.3,336.4,574.7z"></path>
		</g>
		<g>
			<path class="st9" d="M369.7,394.8c0.2-0.1,0.8,0.3,1.6,1.1c0.4,0.4,0.9,0.9,1.4,1.5c0.6,0.5,1.3,1.1,2.1,1.7     c3.1,2.5,8.1,4.9,14.3,5.3c3,0.3,6.3,0.2,9.7-0.2c1.7-0.2,3.3-0.5,5-0.8c0.8-0.2,1.6-0.4,2.5-0.6l0.6-0.2l0.3-0.1l0,0l0.1-0.1     c0,0,0-0.1,0-0.1c0-0.1-0.1,0.1,0.1-0.5c0.3-0.8,0.6-1.6,0.8-2.4c0.5-1.6,1-3.1,1.4-4.6c0.8-3,1.3-5.8,1.3-8.3     c0-2.4-0.3-5.1-1.4-7.3c-1.1-2.2-3.2-4.1-6.1-5.4c-1.5-0.5-3.1-1.1-4.7-1.4c-1.6-0.3-3.2-0.4-4.8-0.3c-3.2,0.3-6.2,1.5-8.8,3.3     c-5.3,3.7-8.9,9-11.2,12.8C371.5,392.4,370.2,395,369.7,394.8c-0.5-0.1-0.1-3.1,1.5-7.5c1.7-4.4,4.6-10.6,10.6-15.7     c3-2.5,6.9-4.6,11.2-5.3c2.2-0.4,4.4-0.3,6.5-0.1c2.2,0.2,4.2,0.9,6.2,1.5c4,1.5,8,4.4,10.1,8.2c2.1,3.8,2.5,7.8,2.5,11     c-0.1,3.3-0.8,6.6-1.7,10c-0.5,1.7-1.1,3.4-1.7,5.1c-0.3,0.8-0.7,1.7-1,2.5l-0.8,2l-0.5,1.2l-0.2,0.6c-0.1,0.2-0.4,0.1-0.6,0.2     l-2.5,0.7l-1.7,0.4c-0.9,0.2-1.9,0.4-2.8,0.5c-1.9,0.3-3.7,0.5-5.6,0.5c-3.7,0.2-7.5,0-10.9-0.7c-1.7-0.3-3.4-0.9-5-1.3     c-1.5-0.7-3.1-1.2-4.4-2c-1.3-0.8-2.6-1.5-3.6-2.5c-1-0.9-2-1.7-2.6-2.6c-0.7-0.9-1.3-1.7-1.8-2.4c-0.4-0.8-0.7-1.5-0.9-2.1     C369.7,395.6,369.5,394.9,369.7,394.8z"></path>
		</g>
		<g>
			<path class="st9" d="M604,364.8c0,0.3-3.6,0.9-10.3,1.7c-3.4,0.4-7.4,0.8-12.2,1.3c-2.4,0.2-4.9,0.5-7.6,0.7     c-1.5,0.1-2.5,0.3-3.8,0.7c-1.3,0.4-2.7,0.8-4.1,1.3c-5.7,1.9-12.3,3.9-19.4,5.3c-7.2,1.4-14.9,2.3-23.1,2.6     c-8.3,0.2-17.2-0.5-26.1-3.4c-4.4-1.5-8.9-3.4-13-6.4l-1.5-1.1l-1.5-1.3c-1-0.8-1.9-1.8-2.8-2.8c-0.9-1-1.6-2.2-2.4-3.3     c-0.6-1.3-1.3-2.5-1.7-3.9c-0.5-1.4-0.6-2.9-0.8-4.4c0-1.4,0-2.7,0.2-4.2c0.4-2.8,1.5-5.9,3.5-8.3c2-2.4,4.5-4.1,7-5.3     c2.5-1.3,5-2.1,7.5-2.9c2.5-0.7,5-1.4,7.5-1.9c2.4-0.5,4.9-1,7.3-1.6c4.7-1,9.3-2.5,14-4.1c9.3-3.3,18.4-7.6,28-11.7     c2.4-1,4.8-2,7.3-2.9c2.4-0.9,5.3-1.7,7.8-2.3c5.2-1.2,10.2-2.2,15.2-3.1c10-1.8,19.9-3.4,29.4-5.5c4.7-1.1,9.4-2.2,13.7-3.6     c2.1-0.8,4.3-1.5,6.2-2.4l3.3-1.5c1.2-0.5,2.3-1,3.5-1.5c9.4-3.6,18.7-5.6,27.8-6.9c2.3-0.3,4.5-0.6,6.8-0.8     c1.1-0.1,2.3-0.2,3.4-0.3c1.3-0.1,2.2-0.1,3.4-0.1c4.3-0.1,8.5-0.1,12.6-0.2c8.2-0.2,16.9,0.1,26.1,0.1c4.6,0.2,9.3,0.4,14,0.7     c4.8,0.3,9.7,0.9,14.6,1.3c5,0.8,10,1.3,15.1,2.5c1.3,0.3,2.6,0.5,3.8,0.9c1.3,0.4,2.6,0.7,3.8,1.1c2.6,0.7,5.1,1.6,7.6,2.5     c5,1.9,9.5,3.6,14.2,4.5l3.6,0.6c1.2,0.2,2.5,0.2,3.7,0.3c1.2,0.1,2.5,0.2,3.7,0.2l3.8,0l3.9,0l3.9-0.3c2.6-0.2,5.2-0.3,7.9-0.6     c5.3-0.6,10.6-1.2,16-1.8c10.8-1.3,21.6-2.3,32.4-3.3c21.5-1.9,42.8-3.3,63.1-4.5c40.6-2.3,77.1-3.7,103.5-4.4     c13.2-0.3,23.8-0.5,31.2-0.5c7.4,0,11.4,0.2,11.4,0.5c0,0.3-4,0.8-11.4,1.5c-7.3,0.6-18,1.4-31.1,2.3     c-26.3,1.9-62.7,4.3-103.2,7.5c-20.2,1.6-41.4,3.4-62.8,5.7c-10.7,1.1-21.4,2.3-32.1,3.8c-5.4,0.7-10.8,1.3-16.2,2     c-2.7,0.3-5.5,0.5-8.2,0.7l-4.1,0.3l-4.1,0.1l-4.1,0.1c-1.4,0-2.8-0.1-4.2-0.2c-1.4-0.1-2.8-0.1-4.2-0.3l-4.2-0.6     c-5.6-1.1-10.9-3.1-15.6-4.8c-9.4-3.4-18.9-5-28.4-6.2c-4.8-0.4-9.5-0.9-14.1-1.2c-4.7-0.2-9.2-0.4-13.7-0.6     c-9,0-17.6-0.3-25.6-0.1c-4,0.1-8.2,0.1-12.4,0.2c-4.1-0.1-8.2,0.5-12.5,1.1c-8.5,1.2-17.3,3.1-25.7,6.2c-1,0.4-2.1,0.8-3.1,1.3     l-3.2,1.4c-2.4,1.1-4.8,1.9-7.3,2.7c-4.9,1.5-9.8,2.7-14.7,3.8c-9.9,2.1-19.9,3.6-29.8,5.2c-5,0.8-9.9,1.7-14.7,2.8     c-2.4,0.6-4.5,1.1-6.9,2c-2.3,0.8-4.6,1.7-7,2.6c-9.3,3.8-18.7,8.1-28.6,11.4c-4.9,1.7-9.9,3.1-15,4.1c-2.5,0.5-4.9,0.9-7.3,1.4     c-2.4,0.5-4.7,1-7,1.6c-4.4,1.2-8.7,2.9-10.9,5.5c-1.1,1.3-1.8,2.8-2.1,4.7c-0.2,0.9-0.2,1.9-0.2,2.9c0.1,0.9,0.1,1.7,0.4,2.6     c0.9,3.5,3.8,6.6,7,9.1c3.3,2.5,7.1,4.3,11.1,5.8c7.9,2.8,16.2,3.8,24,3.8c7.9,0,15.5-0.7,22.4-1.7c7-1.1,13.3-2.7,19.1-4.3     c1.5-0.4,2.9-0.8,4.4-1.2c1.5-0.4,3.2-0.5,4.4-0.5c2.7-0.1,5.3-0.2,7.7-0.3c4.8-0.1,8.9-0.2,12.3-0.3     C600.3,364.4,604,364.5,604,364.8z"></path>
		</g>
		<g>
			<path class="st9" d="M599.2,460.3c0.2,0.1-1.3,3-5.7,6.9c-4.3,3.9-11.3,8.5-20.1,13.8c-8.8,5.3-19.8,11-30.9,18.6     c-11.4,7.7-23.9,16.1-37.2,25.1c-3.3,2.2-6.7,4.5-10.1,6.8c-3.4,2.3-6.7,4.6-10.1,7c-6.7,4.9-13.5,10-20.4,15.1     c-6.9,5.1-13.8,10.3-20.9,15.4c-7.1,5.1-14.1,10.1-21.8,14.6c-4,2.2-8.1,4.2-12.8,5.2c-2.3,0.6-4.8,0.7-7.3,0.6     c-2.5-0.2-5.1-0.9-7.4-2.1c-4.7-2.4-7.7-6.5-9.9-10.5c-2.2-4.2-3.2-9.2-2.7-13.8c0.3-4.6,1.9-8.8,3.7-12.6     c1.8-3.8,4.1-7.2,6.6-10.3c1.2-1.6,2.6-3.1,3.9-4.5c1.3-1.3,2.7-2.6,4-3.9c2.7-2.5,5.3-5,7.8-7.3c10.3-9.3,22-19.5,34.7-30.2     c12.7-10.7,26.3-22,40.5-33.3c7-5.6,14.4-11.3,21.7-16.8c7.2-5.6,14.4-11.3,21.4-17.1c14.1-11.6,27.7-23.4,40.9-34.5     c6.6-5.6,13.2-10.8,19.2-16.1c6-5.3,11.8-10.6,17.2-15.6c10.9-10.1,20.5-19.2,28.7-26.9c8.1-7.7,14.7-13.8,19.2-18.1     c4.6-4.2,7.2-6.5,7.4-6.3c0.2,0.2-2.1,2.8-6.3,7.4c-4.2,4.6-10.5,11.1-18.3,19.1c-7.8,8-17.2,17.5-27.8,27.9     c-5.3,5.2-10.9,10.6-16.9,16.1c-6,5.6-12.5,10.9-18.9,16.6c-12.9,11.3-26.4,23.4-40.4,35.3c-7,5.9-14.1,11.8-21.4,17.5     c-7.3,5.7-14.4,11.2-21.4,17c-14,11.4-27.5,22.7-40.1,33.5c-12.6,10.8-24.3,20.9-34.4,30.1c-2.6,2.3-5.1,4.7-7.7,7.1     c-1.3,1.2-2.5,2.5-3.8,3.8c-1.1,1.3-2.3,2.5-3.4,3.9c-4.4,5.6-8.2,12.2-8.8,19c-0.3,3.4,0.3,6.7,1.9,9.8c1.7,3.2,3.9,6.1,6.8,7.5     c2.8,1.5,6.3,1.7,10,1c3.6-0.7,7.4-2.4,10.9-4.3c7.2-4.1,14.3-9.1,21.4-14c7.1-4.9,14.1-10,21-15c7-5,13.8-10,20.7-14.8     c3.4-2.4,7-4.8,10.4-7c3.4-2.2,6.9-4.4,10.2-6.6c13.5-8.6,26.2-16.7,37.8-24.1c5.8-3.8,11.6-6.9,16.9-9.8     c5.4-2.8,10.3-5.5,14.9-7.9c9-4.8,16.1-9,20.6-12.4C597.1,462.7,599,460.1,599.2,460.3z"></path>
		</g>
		<g>
			<path class="st9" d="M633.2,513.5c0.2,0.5-5.4,3.9-14.4,10.1c-9,6.2-21.5,14.8-35.5,24.4c-7,4.8-14.4,9.9-21.9,15.1     c-3.8,2.6-7.6,5.1-11.5,7.7c-3.9,2.6-8,4.9-12,7.2c-16.1,8.9-31.7,17-44.7,23.9c-6.5,3.4-13.8,7.3-21.5,11.4     c-3.9,2.1-7.9,4.2-11.8,6.5c-3.9,2.2-7.9,4.9-12,7.4c-8.3,5.1-17,10.1-26.6,13.5c-4.8,1.6-9.8,3-15.1,3c-2.6,0-5.3-0.2-7.9-1     c-2.6-0.8-5-2.1-7-3.8c-2-1.7-3.6-3.8-4.9-5.8c-1.2-2.2-2.2-4.3-2.8-6.5c-0.8-2.2-1.1-4.5-1.3-6.8c-0.1-2.3,0-4.5,0.5-6.6     c0.8-4.2,2.7-7.9,4.7-10.9c2.1-3,4.4-5.5,6.7-7.5c4.5-4.1,8.8-6.6,11.7-8.2c3-1.5,4.8-2.1,4.9-1.9c0.1,0.2-1.4,1.2-4.1,3.2     c-2.6,1.9-6.5,4.8-10.5,9c-3.9,4.2-8.2,9.9-9.4,17.1c-0.3,1.8-0.3,3.6-0.2,5.5c0.3,1.9,0.6,3.8,1.3,5.6c0.6,1.9,1.6,3.7,2.6,5.4     c1.1,1.6,2.4,3.2,3.9,4.4c1.6,1.2,3.3,2,5.2,2.6c1.9,0.5,4,0.7,6.2,0.6c4.3-0.2,8.7-1.5,13.1-3.1c8.7-3.4,17.1-8.4,25.1-13.5     c4-2.6,7.9-5.2,12.1-7.7c4.1-2.4,8.1-4.7,11.9-6.8c7.8-4.3,15.1-8.2,21.6-11.6c13-6.8,28.7-14.9,44.9-23.3     c4-2.1,7.9-4.3,11.8-6.7c3.9-2.4,7.8-4.9,11.6-7.3c7.7-4.9,15.2-9.7,22.4-14.3c14.4-9.1,27.3-17.1,36.9-22.5     C626.8,515.7,633,513,633.2,513.5z"></path>
		</g>
		<g>
			<path class="st9" d="M682.9,549.9c0.2,0.5-5.6,2.8-14.8,6.9c-2.3,1-4.8,2.2-7.5,3.5c-2.7,1.3-5.5,2.7-8.2,4.5     c-5.5,3.6-11.5,8.1-17.8,12.8c-12.7,9.3-26.6,19.9-41,29.1c-1.8,1.1-3.6,2.3-5.5,3.3c-1.9,1.1-3.8,2.1-5.5,3     c-3.6,1.9-7.1,3.9-10.5,5.8c-6.9,3.9-13.4,7.6-19.3,10.9c-11.8,6.7-26.6,15.1-42.4,23.3c-7.9,4.1-16.3,8.2-24.7,11.5     c-8.5,3.4-17.2,6.3-26.1,7.2c-4.5,0.3-9.1,0-13.2-1.6c-4.2-1.6-7.6-4.6-9.8-7.9c-0.5-0.9-1-1.7-1.5-2.5c-0.4-0.8-0.8-1.7-1.1-2.6     l-0.5-1.3l-0.4-1.3c-0.2-0.9-0.5-1.7-0.7-2.6c-0.7-3.4-0.6-6.7-0.1-9.5c1-5.8,3.6-9.8,5.6-12.2c2-2.4,3.4-3.4,3.6-3.3     c0.2,0.2-0.9,1.5-2.4,4.1c-1.4,2.6-3.4,6.6-3.9,11.8c-0.2,2.6-0.1,5.4,0.7,8.3c0.2,0.7,0.5,1.4,0.7,2.2l0.4,1.1l0.5,1.1     c0.4,0.7,0.7,1.5,1.1,2.2c0.5,0.7,0.9,1.4,1.4,2c2,2.6,4.7,4.7,8,5.8c3.3,1.1,7.2,1.2,11.1,0.8c7.9-1.1,16.2-4.1,24.3-7.6     c8.2-3.5,16.1-7.6,23.9-11.9c15.5-8.5,30.2-17.1,42-23.8c5.9-3.4,12.4-7,19.4-10.9c3.5-1.9,7.1-3.8,10.8-5.7     c1.9-1,3.7-1.9,5.5-2.8c1.8-0.9,3.6-2,5.4-3.1c14.3-8.6,28.5-18.7,41.6-27.5c6.5-4.4,12.7-8.6,18.7-12c3.1-1.8,6.1-3,8.9-4.1     c2.8-1.1,5.4-2.1,7.8-2.9C676.7,550.8,682.7,549.4,682.9,549.9z"></path>
		</g>
		<g>
			<path class="st9" d="M1118,451.6c0,0.7-12.9,1.1-33.8,1.2c-21,0.4-50.1,0.4-82.7,1.9c-8.1,0.4-16.5,0.9-25,1.3     c-8.5,0.7-17.1,1.2-25.8,2.2c-17.3,1.8-34.9,4.2-51.4,8.7c-2.1,0.6-4.1,1.2-6.1,1.8c-2,0.7-4,1.4-6,2.1c-1,0.4-2,0.7-2.9,1.1     l-2.9,1.2c-1.9,0.9-3.8,1.6-5.6,2.6c-7.4,3.6-14,8.1-20.5,13c-12.9,9.7-24.7,19.9-35.8,28.7c-11.1,8.9-23.8,18.7-38.4,27.8     c-7.3,4.5-15,9-23.3,13c-8,4-16.2,8-24.5,12.1c-33.2,16.3-68,33.3-99.6,48.6c-15.8,7.6-30.8,14.9-44.5,21.4     c-13.7,6.6-26.2,12.2-37.4,15.6c-5.6,1.6-10.9,2.7-15.8,2.1c-2.4-0.2-4.6-1.1-6.5-2c-1.9-1-3.2-2.4-4.3-3.7     c-2.1-2.7-2.8-5.3-3.1-7c-0.3-1.7-0.2-2.6,0-2.6c0.2,0,0.4,0.8,1,2.4c0.6,1.5,1.6,3.7,3.7,5.9c1.1,1,2.3,2.1,3.9,2.8     c1.6,0.7,3.5,1.3,5.6,1.3c4.2,0.2,9.1-1,14.4-2.9c10.6-3.8,22.7-9.9,36.1-16.9c6.7-3.5,13.7-7.3,21.2-11     c7.3-3.8,15-7.7,22.8-11.8c31.3-16.1,65.7-33.7,98.7-50.5c8.2-4.2,16.4-8.3,24.3-12.4c7.8-3.9,15.2-8.3,22.3-12.7     c14-9,26.5-18.6,37.4-27.4c11-8.7,22.8-18.8,36.2-28.8c6.6-4.9,14-9.9,22.1-13.7c2-1.1,4.1-1.8,6.1-2.7l3.1-1.3     c1-0.4,2.1-0.7,3.2-1.1c2.1-0.7,4.3-1.5,6.4-2.2c2.2-0.6,4.3-1.2,6.5-1.8c17.4-4.5,35.4-6.6,53-8.1c8.8-0.9,17.5-1.1,26.1-1.6     c8.6-0.3,17-0.5,25.2-0.7c32.8-0.5,62,0.5,83,1.3C1105.2,450,1118,451,1118,451.6z"></path>
		</g>
		<g>
			<path class="st9" d="M485.8,337.3c0.5-0.1,1.1,0.7,2.1,1.7c0.9,1,2.3,2.3,3.9,3.5c0.8,0.6,1.8,1.2,2.8,1.7     c0.2,0.1,0.5,0.3,0.7,0.4c0.1,0,0.1,0,0.1,0c0.1,0,0.1-0.1,0.2-0.2c0.1,0,0,0,0.1-0.1l0.4-0.1l0.8-0.3c0.6-0.2,1.1-0.4,1.6-0.5     c1-0.4,2-0.8,2.9-1.1c1.8-0.6,3.9-1.4,6.1-2.4c2.1-1,4.2-2.3,5.7-3.7c1.6-1.4,2.5-3,3.1-4.4c0.6-1.3,0.8-2.3,1.3-2.5     c0.5-0.2,1.3,0.8,1.6,2.8c0.3,1.9-0.2,4.8-1.8,7.3c-1.6,2.6-4,4.7-6.4,6.4c-2.5,1.6-5,2.8-7,3.5c-1,0.3-2.2,0.7-3.3,1     c-1.3,0.3-2.7,0.6-4.1,0.8c-0.6,0.1-1.1,0.2-1.7,0.3l-0.4,0.1c-0.1,0-0.3-0.1-0.4-0.2l-0.8-0.5c-0.5-0.3-1-0.6-1.5-1     c-0.4-0.3-0.6-0.5-0.9-0.7c-1.1-0.9-2-1.9-2.9-3c-1.7-2.1-2.7-4.4-2.9-6.1C484.9,338.5,485.3,337.4,485.8,337.3z"></path>
		</g>
		<g>
			<path class="st9" d="M389.7,562.8c0.5-0.1,1.4,3.1,4.1,7c1.3,2,3.1,4.2,5.3,6.2c1.1,1,2.3,2,3.6,3c0.6,0.5,1.3,0.9,2,1.4l0.5,0.3     l0.3,0.2c0,0,0.1,0,0.1,0c0.1,0,0.1,0,0.2,0.1l0.2-0.1l1-0.6l2.2-1.5c1.4-1,2.8-2,4.1-3.1c2.6-2.1,4.7-4.3,6.2-6.4     c1.1-1.5,2.1-3.3,2.3-5.1c0.2-1.8-0.3-3.7-1.9-5.4c-1.5-1.7-3.5-2.9-5.8-3.3c-2.3-0.4-4.9-0.2-7.3,0.4c-4.8,1.1-9,3.2-12,4.7     C391.8,562,390,563.1,389.7,562.8c-0.2-0.3,1.2-1.9,4-3.9c2.8-2.1,6.8-4.7,12.1-6.4c2.6-0.8,5.6-1.4,8.8-1     c3.2,0.3,6.4,1.9,8.6,4.2c1.1,1.2,2.1,2.5,2.7,4.1c0.6,1.6,0.8,3.3,0.7,4.9c-0.4,3.2-1.8,5.6-3.1,7.5c-1.9,2.6-4.4,5-7.3,7.2     c-1.4,1.1-2.9,2.2-4.5,3.2c-0.8,0.5-1.6,1-2.4,1.4l-1.3,0.8l-2.2,1.2c-0.7-0.4-1.3-0.8-2-1.2l-0.5-0.3l-0.3-0.2l-0.5-0.4     c-0.7-0.5-1.4-1.1-2.1-1.7c-1.3-1.2-2.5-2.4-3.6-3.6c-2.2-2.5-3.9-5.1-5-7.4C389.4,566.3,389.4,562.8,389.7,562.8z"></path>
		</g>
		<g>
			<path class="st9" d="M389.7,615.6c0.6-0.1,0.9,3.7,3.2,8.5c1.2,2.4,2.9,4.9,5.3,7.2c1.2,1.1,2.5,2.2,4,3c0.7,0.4,1.5,0.9,2.3,1.2     c0.4,0.2,0.8,0.4,1.2,0.5l0.3,0.1l0.1,0c0,0,0.1,0,0.1,0l0.1-0.1c0,0,0,0,0.1,0l0.3-0.2l1.2-0.6c0.8-0.4,1.6-0.9,2.4-1.3     c1.6-0.9,3.2-1.9,4.6-2.9c2.9-2,5.4-4.2,7.1-6.3c1.2-1.6,2.4-3.5,2.7-5.6c0.4-2.1-0.3-4.4-1.7-6.5c-0.7-1-1.5-1.9-2.6-2.5     c-1-0.6-2.2-1.1-3.5-1.4c-2.6-0.5-5.4-0.3-8.1,0.2c-5.3,1-10.1,3-13.4,4.4C392,614.9,389.9,615.9,389.7,615.6     c-0.2-0.3,1.5-1.8,4.7-3.9c3.2-2,7.8-4.5,13.6-6.1c2.9-0.8,6.1-1.3,9.5-0.8c1.7,0.3,3.4,0.8,5,1.7c1.6,0.9,3,2.2,4,3.6     c1.1,1.4,1.8,3,2.4,4.6c0.5,1.7,0.6,3.5,0.4,5.2c-0.4,3.4-2.1,6.1-3.6,8c-2.1,2.7-5.1,5.1-8.3,7.2c-1.6,1-3.3,2-5.1,2.9     c-0.9,0.4-1.8,0.9-2.7,1.3l-1.4,0.6l-0.9,0.4l-1.2,0.5l-1.2-0.4l-0.6-0.3l-0.4-0.2c-0.5-0.2-0.9-0.5-1.4-0.7     c-0.9-0.5-1.7-1-2.6-1.6c-1.6-1.1-3.1-2.5-4.3-3.9c-2.5-2.8-4.2-5.9-5.1-8.7C388.8,619.4,389.4,615.6,389.7,615.6z"></path>
		</g>
		<g>
			<path class="st9" d="M439.3,640.8c0.6,0,0.7,3.8,2.9,8.9c1,2.6,2.6,5.4,4.8,8.1c1.1,1.4,2.3,2.7,3.6,4c0.7,0.6,1.4,1.3,2.1,1.8     l1,0.8c0.2,0.1,0.3,0.2,0.3,0.2c0.1-0.1,0,0,0.4-0.2l1.4-0.6c1-0.4,1.9-0.9,2.8-1.3c1.9-0.9,3.7-1.9,5.4-3     c3.4-2.1,6.4-4.3,8.4-6.6c1.5-1.6,2.9-3.6,3.5-5.9c0.6-2.2,0.2-4.8-1.2-7.2c-1.3-2.4-3.5-4.1-6.1-4.9c-2.7-0.8-5.8-0.8-8.6-0.4     c-5.8,0.8-11,2.7-14.6,4.1C441.7,640.1,439.5,641.1,439.3,640.8c-0.2-0.3,1.8-1.9,5.3-3.9c3.5-2,8.6-4.5,14.9-5.8     c3.1-0.6,6.6-0.9,10.3-0.1c3.6,0.8,7.2,3.3,9,6.5c2,3.1,2.9,7.2,2,10.7c-0.8,3.5-2.7,6.2-4.5,8.1c-2.5,2.8-5.9,5.3-9.7,7.4     c-1.9,1.1-3.8,2.1-5.8,3c-1,0.4-2,0.9-3.1,1.3l-1.6,0.6c-0.6,0.2-1.7,0.6-2.6,0.9c-0.8-0.5-1.5-1.1-2.1-1.6     c-0.5-0.4-0.8-0.7-1.3-1.1c-0.8-0.7-1.5-1.5-2.2-2.2c-1.4-1.5-2.6-3.1-3.7-4.7c-2.1-3.2-3.6-6.5-4.4-9.4     C438.2,644.8,439,640.8,439.3,640.8z"></path>
		</g>
		<g>
			<path class="st9" d="M526.9,640.1c0.5-0.2,1.7,1.8,3.8,4.3c1,1.3,2.3,2.7,3.8,4c0.7,0.7,1.5,1.3,2.3,2c0.4,0.3,0.9,0.7,1.2,0.9     c0.1,0,0.1,0,0.2,0l0.1-0.1c0,0,0,0,0,0l0.3-0.2l0.5-0.3c0.7-0.5,1.4-0.9,2-1.4c1.3-0.9,2.5-1.8,3.5-2.6c1.8-1.4,4.1-3.3,5.6-5.5     c0.7-1.1,1.1-2.1,1-3c0-0.4-0.4-1.1-0.6-1.7c-0.3-0.5-0.6-1.1-1-1.6c-1.5-1.9-4-2.4-5.9-2.4c-1.9,0-3.1,0.3-3.2-0.1     c-0.1-0.3,0.9-1.2,2.9-1.9c1-0.3,2.4-0.5,3.9-0.4c1.5,0.2,3.3,0.9,4.7,2.1c0.7,0.6,1.3,1.3,1.9,2.1c0.5,0.8,1,1.5,1.4,2.7     c0.6,2.4-0.1,4.7-1,6.3c-1.9,3.3-4.5,5.4-6.5,7.1c-1.2,0.9-2.5,1.8-3.9,2.7c-0.7,0.5-1.5,0.9-2.3,1.3c-0.5,0.3-0.9,0.5-1.4,0.8     c-0.7,0.4-1.5,0.7-2.2,1.1c-0.9-0.6-1.7-1.2-2.5-1.8c-0.5-0.5-0.9-0.8-1.3-1.2c-0.8-0.8-1.6-1.7-2.3-2.5     c-1.4-1.7-2.5-3.5-3.3-5.1C526.8,642.7,526.4,640.3,526.9,640.1z"></path>
		</g>
		<g>
			<path class="st9" d="M501.9,324.6c-0.4-2,14.2-6.3,22.3-7.7c8.2-1.4,24.7-2.7,25.1-0.6c0.4,2-15.6,6.5-23.8,8     C517.3,325.6,502.2,326.6,501.9,324.6z"></path>
		</g>
		<g>
			<path class="st9" d="M323.8,1063.3c-0.7-0.1-0.8-8.7-1.2-22.8c-0.4-14.2-0.9-33.8-1.4-55.7c-1.2-44-2.6-97.5-3.6-135.4     c-0.5-19-1-42.7-2.1-67.4c-0.2-3.1-0.2-6.2-0.5-9.3c-0.3-3.1-0.4-6.1-0.8-9.3c-0.7-6.3-1.2-12.6-1.7-18.9c-1-12.6-2-25-2.8-36.8     c-1.6-23.6-2.8-44.9-3.5-60.3c-0.6-15.4-0.7-24.9,0-24.9c0.7-0.1,2.1,9.3,3.9,24.6c1.8,15.3,4.1,36.5,6.6,60     c1.3,11.8,2.6,24.1,4,36.6c0.7,6.2,1.4,12.5,2.2,18.7c0.4,3.1,0.7,6.3,1,9.5c0.4,3.2,0.5,6.3,0.7,9.5c1.6,25,2.4,48.7,2.9,67.7     c1,38,1.3,91.6,0.7,135.6c-0.4,22-0.9,41.7-1.7,55.8C325.8,1054.7,324.5,1063.4,323.8,1063.3z"></path>
		</g>
		<g>
			<path class="st9" d="M682.9,642.7c-0.1,0.8-9.9-0.2-25.7,0.1c-2,0.1-4,0.1-6.2,0.3c-2.1,0.2-4.4,0.3-6.7,0.6     c-4.6,0.5-9.4,1.5-14.1,3.2c-2.4,0.8-4.6,2-6.6,3.4c-2,1.4-3.6,3.2-4.8,5.3c-0.3,0.5-0.6,1.1-0.8,1.6c-0.1,0.2-0.3,0.6-0.3,0.8     c0,0.1,0,0.3-0.1,0.4c0,0.6,0,1.2,0,1.8l0.1,2.1c0.3,2.9,0.7,5.9,1.1,8.9c1.9,12.2,4.4,25.1,6.8,38.2c2.4,13.1,4.9,26.5,7.2,39.7     c4.6,26.4,8.3,52.1,10.5,73.6c1.1,10.8,2.1,22.9,2.6,35.9c0.2,6.5,0.5,13.2,0.1,20.2c-0.2,3.5-0.3,7-0.5,10.5     c0,1.8-0.3,3.5-0.5,5.3c-0.2,1.8-0.4,3.5-0.6,5.3c-1.5,14.2-4.5,28.5-7.7,42.5c-3.5,13.9-7.3,27.6-11.6,40.4     c-8.3,25.6-17.5,48-24.6,64c-7.1,15.9-12.3,25.4-12.9,25.1c-0.6-0.3,3.3-10.2,9.3-26.5c6-16.3,14.1-39,21.5-64.6     c3.8-12.8,7.1-26.3,10.2-40.1c2.8-13.8,5.4-27.9,6.6-41.6c0.2-1.7,0.3-3.4,0.5-5.2c0.2-1.7,0.4-3.4,0.4-5.1     c0.1-3.4,0.2-6.8,0.3-10.1c0.2-6.7-0.1-13.3-0.4-19.6c-0.6-12.8-1.7-24.7-2.8-35.3c-2.1-21.3-5.6-46.8-9.7-73.2     c-2.1-13.2-4.2-26.6-6.3-39.8c-2.1-13.2-4.2-26.2-5.7-38.7c-0.4-3.1-0.7-6.3-0.8-9.4l-0.1-2.4c0-0.8,0.1-1.7,0.1-2.6     c0.1-0.6,0.2-1.2,0.4-1.8c0.2-0.6,0.4-0.8,0.5-1.3c0.3-0.8,0.7-1.6,1.2-2.3c1.8-2.9,4.3-5.3,6.9-7c2.7-1.7,5.4-2.9,8.1-3.7     c5.4-1.7,10.6-2.4,15.5-2.7c2.4-0.2,4.7-0.2,7-0.2c2.2,0,4.3,0.1,6.4,0.2c8.1,0.4,14.5,1.3,18.9,2.1     C680.5,641.7,682.9,642.3,682.9,642.7z"></path>
		</g>
		<g>
			<path class="st9" d="M1068,698.5c0.1,0.6-8.6,2.8-23.1,5.5c-14.5,2.3-34.9,5-57.8,6.1c-22.9,1.2-48.4,1.5-73,0.3     c-24.6-1.1-48.4-3-68.1-5.5c-19.7-2.4-44.2-6.1-69.6-11.6c-6.4-1.3-12.8-2.9-19.2-4.5c-3.2-0.7-6.4-1.7-9.6-2.6     c-3.2-0.9-6.3-1.8-9.5-2.7c-12.4-3.8-24.8-7-36.7-9.7c-23.8-5.6-45.5-9.4-61.3-12.1c-15.7-2.6-25.4-4.1-25.4-4.8     c0.1-0.7,9.9-0.5,25.9,0.9c15.9,1.5,38,4.3,62.2,9c12.1,2.4,24.8,5.2,37.5,8.7c3.1,0.8,6.3,1.6,9.5,2.5c3.1,0.8,6.2,1.7,9.4,2.3     c6.3,1.4,12.6,2.9,18.9,4c25.2,5,49.4,8.3,68.9,10.7c19.5,2.4,43,4.6,67.4,6.2c24.4,1.6,49.6,2.1,72.3,1.8     c22.8-0.1,43-1.8,57.6-2.9C1058.9,698.7,1067.9,697.8,1068,698.5z"></path>
		</g>
	</g>
</g>
</svg>
