<?xml version="1.0" encoding="UTF-8"?>
<!-- Generator: Adobe Illustrator 27.9.0, SVG Export Plug-In . SVG Version: 6.00 Build 0)  -->
<svg xmlns="http://www.w3.org/2000/svg" xmlns:xlink="http://www.w3.org/1999/xlink" version="1.1" id="Layer_1" x="0px" y="0px" viewBox="0 0 1369.3 1072" style="enable-background:new 0 0 1369.3 1072;" xml:space="preserve">
<style type="text/css">
	.st0{fill:url(#SVGID_1_);}
	.st1{fill:url(#SVGID_00000157270504688219285880000011442013786412253872_);}
	.st2{fill:url(#SVGID_00000145780452804821296140000000359114696053852046_);}
	.st3{fill:url(#SVGID_00000075130107365624929650000013642598649625824694_);}
	.st4{fill:url(#SVGID_00000021812417496582604590000007642173853796001208_);}
	.st5{fill:url(#SVGID_00000088850729471766969860000017473654847671671223_);}
	.st6{fill:url(#SVGID_00000069360488786620124190000012919794382603556797_);}
	.st7{fill:url(#SVGID_00000016754847316956764010000016315085031618907272_);}
	.st8{fill:url(#SVGID_00000034077565629977211530000005013917231426570909_);}
	.st9{fill:#262626;}
</style>
<g>
	<g>
		<g>
			<g>
				<radialGradient id="SVGID_1_" cx="634.6367" cy="532.4427" r="219.7139" gradientUnits="userSpaceOnUse">
					<stop offset="0" style="stop-color:#EF4136"></stop>
					<stop offset="0" style="stop-color:#EF0F14"></stop>
					<stop offset="1" style="stop-color:#FFFFFF"></stop>
				</radialGradient>
				<path class="st0" d="M650.6,588.8c-35.8,0-64.8-29.1-64.8-64.8c0-35.8,29.1-64.8,64.8-64.8c35.8,0,64.8,29.1,64.8,64.8      C715.4,559.7,686.3,588.8,650.6,588.8z M650.6,478.8c-24.9,0-45.1,20.2-45.1,45.1c0,24.9,20.2,45.1,45.1,45.1      c24.9,0,45.1-20.2,45.1-45.1C695.7,499.1,675.4,478.8,650.6,478.8z"></path>
			</g>
			<g>
				
					<radialGradient id="SVGID_00000156545465698661630870000016935668929083487418_" cx="634.6362" cy="532.443" r="219.7139" gradientUnits="userSpaceOnUse">
					<stop offset="0" style="stop-color:#EF4136"></stop>
					<stop offset="0" style="stop-color:#EF0F14"></stop>
					<stop offset="1" style="stop-color:#FFFFFF"></stop>
				</radialGradient>
				<path style="fill:url(#SVGID_00000156545465698661630870000016935668929083487418_);" d="M650.6,611.5      c-48.3,0-87.5-39.3-87.5-87.5s39.3-87.5,87.5-87.5c48.3,0,87.5,39.3,87.5,87.5S698.8,611.5,650.6,611.5z M650.6,454.5      c-38.3,0-69.5,31.2-69.5,69.5c0,38.3,31.2,69.5,69.5,69.5c38.3,0,69.5-31.2,69.5-69.5C720,485.6,688.9,454.5,650.6,454.5z"></path>
			</g>
			<g>
				
					<radialGradient id="SVGID_00000084491392170572956490000009051702758983934096_" cx="634.6362" cy="532.4433" r="219.7146" gradientUnits="userSpaceOnUse">
					<stop offset="0" style="stop-color:#EF4136"></stop>
					<stop offset="0" style="stop-color:#EF0F14"></stop>
					<stop offset="1" style="stop-color:#FFFFFF"></stop>
				</radialGradient>
				<path style="fill:url(#SVGID_00000084491392170572956490000009051702758983934096_);" d="M650.6,634.2      c-60.8,0-110.2-49.4-110.2-110.2c0-60.8,49.4-110.2,110.2-110.2S760.8,463.2,760.8,524C760.8,584.7,711.3,634.2,650.6,634.2z       M650.6,430.1c-51.8,0-93.9,42.1-93.9,93.9c0,51.8,42.1,93.9,93.9,93.9c51.8,0,93.9-42.1,93.9-93.9      C744.4,472.2,702.3,430.1,650.6,430.1z"></path>
			</g>
			<g>
				
					<radialGradient id="SVGID_00000150087536002014428780000014805017497627002013_" cx="634.6365" cy="532.4427" r="219.7135" gradientUnits="userSpaceOnUse">
					<stop offset="0" style="stop-color:#EF4136"></stop>
					<stop offset="0" style="stop-color:#EF0F14"></stop>
					<stop offset="1" style="stop-color:#FFFFFF"></stop>
				</radialGradient>
				<path style="fill:url(#SVGID_00000150087536002014428780000014805017497627002013_);" d="M650.6,656.9      c-73.3,0-132.9-59.6-132.9-132.9c0-73.3,59.6-132.9,132.9-132.9c73.3,0,132.9,59.6,132.9,132.9      C783.5,597.2,723.8,656.9,650.6,656.9z M650.6,405.7c-65.2,0-118.2,53-118.2,118.2c0,65.2,53,118.2,118.2,118.2      s118.2-53,118.2-118.2C768.8,458.8,715.8,405.7,650.6,405.7z"></path>
			</g>
			<g>
				
					<radialGradient id="SVGID_00000096773908902561824070000003082454104000865976_" cx="634.6356" cy="532.4434" r="219.7135" gradientUnits="userSpaceOnUse">
					<stop offset="0" style="stop-color:#EF4136"></stop>
					<stop offset="0" style="stop-color:#EF0F14"></stop>
					<stop offset="1" style="stop-color:#FFFFFF"></stop>
				</radialGradient>
				<path style="fill:url(#SVGID_00000096773908902561824070000003082454104000865976_);" d="M650.6,679.5      C564.8,679.5,495,609.8,495,524c0-85.8,69.8-155.6,155.6-155.6c85.8,0,155.6,69.8,155.6,155.6      C806.1,609.8,736.3,679.5,650.6,679.5z M650.6,381.3c-78.6,0-142.6,64-142.6,142.6s64,142.6,142.6,142.6      c78.6,0,142.6-64,142.6-142.6S729.2,381.3,650.6,381.3z"></path>
			</g>
			<g>
				
					<radialGradient id="SVGID_00000155847536510104829220000016535392065066983836_" cx="634.6362" cy="532.4427" r="219.7135" gradientUnits="userSpaceOnUse">
					<stop offset="0" style="stop-color:#EF4136"></stop>
					<stop offset="0" style="stop-color:#EF0F14"></stop>
					<stop offset="1" style="stop-color:#FFFFFF"></stop>
				</radialGradient>
				<path style="fill:url(#SVGID_00000155847536510104829220000016535392065066983836_);" d="M650.6,702.2      c-98.3,0-178.3-80-178.3-178.3c0-98.3,80-178.3,178.3-178.3s178.3,80,178.3,178.3C828.8,622.3,748.9,702.2,650.6,702.2z       M650.6,356.9c-92.1,0-167,74.9-167,167c0,92.1,74.9,167,167,167c92.1,0,167-74.9,167-167C817.6,431.9,742.6,356.9,650.6,356.9z      "></path>
			</g>
			<g>
				
					<radialGradient id="SVGID_00000112622589023097118180000002610528318886770098_" cx="634.6361" cy="532.4421" r="219.7133" gradientUnits="userSpaceOnUse">
					<stop offset="0" style="stop-color:#EF4136"></stop>
					<stop offset="0" style="stop-color:#EF0F14"></stop>
					<stop offset="1" style="stop-color:#FFFFFF"></stop>
				</radialGradient>
				<path style="fill:url(#SVGID_00000112622589023097118180000002610528318886770098_);" d="M650.6,724.9      c-110.8,0-201-90.2-201-201c0-110.8,90.2-201,201-201c110.8,0,201,90.2,201,201C851.5,634.8,761.4,724.9,650.6,724.9z       M650.6,332.6c-105.5,0-191.4,85.9-191.4,191.4c0,105.5,85.9,191.4,191.4,191.4S841.9,629.5,841.9,524      C841.9,418.4,756.1,332.6,650.6,332.6z"></path>
			</g>
			<g>
				
					<radialGradient id="SVGID_00000018940062135762339420000007081091797204380858_" cx="634.6358" cy="532.4427" r="219.7137" gradientUnits="userSpaceOnUse">
					<stop offset="0" style="stop-color:#EF4136"></stop>
					<stop offset="0" style="stop-color:#EF0F14"></stop>
					<stop offset="1" style="stop-color:#FFFFFF"></stop>
				</radialGradient>
				<path style="fill:url(#SVGID_00000018940062135762339420000007081091797204380858_);" d="M650.6,747.6      c-123.3,0-223.7-100.3-223.7-223.7c0-123.3,100.3-223.7,223.7-223.7c123.3,0,223.7,100.3,223.7,223.7      C874.2,647.3,773.9,747.6,650.6,747.6z M650.6,308.2c-119,0-215.8,96.8-215.8,215.8c0,119,96.8,215.8,215.8,215.8      c119,0,215.8-96.8,215.8-215.8C866.3,405,769.5,308.2,650.6,308.2z"></path>
			</g>
		</g>
		<g>
			
				<radialGradient id="SVGID_00000058554452518772497190000011184521102237511822_" cx="634.636" cy="532.4423" r="219.7145" gradientUnits="userSpaceOnUse">
				<stop offset="0" style="stop-color:#EF4136"></stop>
				<stop offset="0" style="stop-color:#EF0F14"></stop>
				<stop offset="1" style="stop-color:#FFFFFF"></stop>
			</radialGradient>
			<circle style="fill:url(#SVGID_00000058554452518772497190000011184521102237511822_);" cx="650.6" cy="524" r="38.6"></circle>
		</g>
	</g>
	<g>
		<g>
			<path class="st9" d="M507.9,584.8c0.3,0.2-0.5,1.8-2.1,4.4c-0.8,1.3-1.8,3-3,4.8c-1.3,1.8-2.8,3.9-4.5,6.1     c-6.8,9-17.2,20.8-30.3,32.6c-13,11.8-28.6,23.7-44.7,33.7c-16.1,10-32.7,18.2-47.2,23.3c-7.2,2.6-15.5,5.2-24.5,7.2     c-1.1,0.3-2.3,0.6-3.4,0.8c-1.2,0.2-2.3,0.4-3.5,0.6c-2.4,0.4-4.8,0.8-7.2,1.1c-4.8,0.7-9.5,1.2-14.3,1.9     c-19.3,2.7-39.4,6.6-57.6,10.6c-18.2,4-34.5,8.2-46.3,11.1c-11.8,3-19,4.8-19.3,4.2c-0.5-1.3,27.6-12.2,63.9-22     c18.1-4.9,38.4-9.6,57.9-12.8c4.9-0.8,9.8-1.4,14.4-2.2c2.3-0.4,4.5-0.8,6.7-1.2c1.1-0.2,2.2-0.4,3.3-0.6     c1.1-0.2,2.2-0.5,3.2-0.8c8.5-2,16.4-4.6,23.3-7c13.8-4.9,30-12.5,45.9-21.8c15.9-9.3,31.5-20.3,44.8-31.2     c13.4-10.9,24.3-21.7,31.9-29.8c1.9-2,3.6-3.9,5.1-5.5c1.4-1.7,2.7-3.1,3.7-4.2C506.4,585.8,507.7,584.6,507.9,584.8z"></path>
		</g>
		<g>
			<path class="st9" d="M465.1,482.3c2.6-0.7,16,38.9,21.8,61.3c1.5,5.6,3.1,12.6,4.7,20c0.4,1.9,0.8,3.7,1.1,5.6     c0.3,2,0.7,3.9,1,5.9c0.5,4,0.8,7.9,0.7,11.6c0,7.5-1.6,14.3-3.8,18.8c-2.1,4.5-4.7,6.6-5.2,6.1c-0.5-0.4,0.7-2.9,1.5-7.3     c0.9-4.3,1.2-10.5,0.4-17.3c-0.3-3.4-1-6.9-1.8-10.5c-0.5-1.8-0.9-3.6-1.4-5.3c-0.5-1.8-1-3.7-1.5-5.5c-2-7.2-4-14.1-5.4-19.7     C471.6,523.8,462.5,483,465.1,482.3z"></path>
		</g>
		<g>
			<path class="st9" d="M424.5,442.6c-0.4-0.1-0.4-1.1-1-2.9c-0.6-1.8-1.6-4.4-3.2-7.5c-3.1-6.2-8.3-14.7-14.8-23.5     c-3.2-4.3-6.9-9-10.8-12.6c-0.5-0.4-1-0.8-1.4-1.2l-2-1.5c-1.3-1.1-2.6-2.4-3.7-3.8c-2.3-2.8-3.7-5.6-5.2-7.9     c-2.9-4.5-6.8-8.2-11-11.7c-1.1-0.9-2.2-1.8-3.2-2.7c-1.1-1-2.2-1.9-3.2-2.9c-2-2-3.8-4-5.5-6c-1.6-2-3.2-4.3-4.7-6.9     c-1.5-2.6-2.9-5.5-3.7-9c-0.4-1.8-0.7-3.7-0.6-5.8c0.1-2.1,0.8-4.6,2.4-6.7c1.6-2.1,3.8-3.5,5.9-4.2c2.1-0.7,4.1-1,6-1.1     c1,0,2.3,0,3.3,0.2c1,0.2,2.1,0.4,2.9,0.8c0.9,0.3,1.8,0.6,2.7,1c0.9,0.4,1.7,0.8,2.4,1.2c3.1,1.7,5.9,3.7,8.5,5.8     c5.2,4.2,9.8,8.7,13.9,13.2c8.3,8.9,15,17.5,19.6,23.9c4.6,6.4,7,10.6,6.4,11c-0.5,0.4-4-3-9.4-8.6c-5.4-5.6-12.8-13.4-21.5-21.4     c-4.3-4-9-8.1-14-11.6c-2.5-1.8-5-3.4-7.6-4.6c-2.5-1.2-5.1-2-6.8-1.9c-1.3,0.1-2.4,0.3-3.2,0.7c-0.9,0.3-1.3,0.7-1.5,1.1     c-0.2,0.4-0.4,0.9-0.5,1.7c0,0.8,0.1,1.8,0.4,2.9c0.6,2.1,1.6,4.3,2.8,6.4c1.2,2,2.6,3.9,4,5.7c1.4,1.7,2.9,3.5,4.7,5.2     c0.9,0.9,1.8,1.7,2.7,2.6c1,0.9,2,1.8,3.1,2.7c2.2,1.9,4.4,4.1,6.6,6.4c2.1,2.3,4.1,5,5.8,7.8c1.7,2.8,2.9,5.5,4.4,7.4     c0.7,1,1.6,1.9,2.5,2.8l1.5,1.3c0.7,0.6,1.3,1.2,1.9,1.8c4.6,4.8,7.9,9.7,10.9,14.6c6,9.7,10.4,18.9,12.6,25.9     c1.1,3.5,1.7,6.5,1.6,8.7C425.4,441.6,424.8,442.7,424.5,442.6z"></path>
		</g>
		<g>
			<path class="st9" d="M442.6,444.8c0.7,0,1.3,1.2,1.6,3.2c0.3,2,0.5,4.8-0.3,8.2c-0.4,1.7-1.2,3.5-2.5,5.3c-1.3,1.7-3.1,3.3-5,4.2     c-1.9,0.9-3.9,1.5-5.7,1.7c-0.9,0.2-1.7,0.2-2.5,0.2c-0.4,0-0.9,0-1.4-0.1c-0.5-0.1-1-0.1-1.5-0.2c-3.9-0.8-7.2-3.3-9.7-6     c-2.5-2.7-4.5-5.9-6-8.8c-3-5.9-4.1-11-2.9-11.6c1.2-0.6,4.5,3.2,8.6,7.6c2.1,2.2,4.3,4.4,6.5,6.2c2.2,1.8,4.3,2.8,5.4,2.9     c0.1,0,0.3,0,0.4,0c0.1,0,0.2,0.1,0.5,0.1c0.5,0,1.1,0,1.7,0c1.1,0,2.1-0.2,3.1-0.4c1.8-0.5,3.3-1.6,4.6-3.7c1.3-2,2.2-4.4,3-6     C441.2,445.9,441.9,444.8,442.6,444.8z"></path>
		</g>
		<g>
			<path class="st9" d="M446.2,430.5c-0.7,0-1.1-1.9-0.6-4.7c0.4-2.7,1.6-6.2,2.4-9.9c0.4-1.8,0.7-3.7,0.8-5.5     c0.1-1.8-0.1-3.6-0.4-5.3c-0.2-0.8-0.4-1.7-0.7-2.5c-0.1-0.4-0.3-0.8-0.4-1.2c-0.2-0.4-0.4-0.8-0.6-1.3c-0.3-0.8-0.7-1.6-1.1-2.4     c-0.4-0.8-0.7-1.6-1.1-2.3c-2.9-5.9-7.7-15-11.7-22.7c-3.9-7.7-6.9-14-5.8-14.8c2.3-1.6,20,19.9,26.3,33.1     c0.4,0.8,0.8,1.7,1.2,2.6c0.4,0.9,0.8,1.9,1.2,3c0.2,0.5,0.4,1.1,0.6,1.6c0.2,0.6,0.3,1.2,0.5,1.8c0.4,1.2,0.5,2.5,0.6,3.8     c0.2,2.6,0,5.2-0.5,7.7c-0.5,2.4-1.4,4.7-2.3,6.7c-1.9,3.9-4,6.9-5.4,8.9C447.6,429.3,446.9,430.6,446.2,430.5z"></path>
		</g>
		<g>
			<path class="st9" d="M1138.7,531c-0.3-0.2,1.5-4.3,4.4-12c2.8-7.7,6.9-18.9,9.8-33.3c1.4-7.3,2.9-15.2,4.6-23.8     c1.6-8.6,3.4-17.7,4.5-27.4c0.6-4.8,1.1-9.8,1.2-14.9c0.2-5.1,0.1-10.2-0.5-15.4c-1.4-10.8-2-22.3-1.6-34     c0.3-5.9,0.6-11.5,0.4-17.3c-0.2-5.7-0.7-11.4-2.2-17c-2.5-11.2-8.7-21.3-17.2-29.3c-8.5-8.1-19.1-14-30.3-18.6l-4.2-1.7     l-2.1-0.9l-2.2-0.7l-8.7-2.8c-5.9-1.7-11.9-3.1-17.8-4.6c-23.8-5.5-47.8-8.1-70.6-7.9c-22.8,0.1-44.4,2.7-63.6,6.6     c-8.4,1.7-17.2,3.8-26.3,6.4c-4.6,1.3-9.3,2.6-14,4c-2.4,0.7-5,1.3-7.6,1.9c-2.5,0.5-5.1,1-7.6,1.5c-20.4,3.5-41.9,6.3-64,9.9     c-11,1.8-22.1,3.8-33.2,6.3c-2.8,0.6-5.5,1.3-8.2,2c-2.7,0.8-5.4,1.5-8.1,2.3c-5.6,1.7-11.3,3.2-17.2,4.3c-2.9,0.6-6,1-9,1.3     c-3,0.2-6.1,0.4-9,0.4c-5.8,0-11,0.2-16.4,1.4c-5.4,1.1-10.4,2.7-14.7,5.3c-2.1,1.3-4,2.9-5.6,4.7c-0.8,0.9-1.5,1.9-2,2.9     c-0.3,0.5-0.5,1-0.8,1.5c-0.2,0.5-0.4,1.1-0.4,1.1c0,0,0,0.1,0,0.1c-0.4,8.1-3.7,15.9-8.8,21.9c-4.4,5.4-8.6,11-12.8,16.6     c-8.2,11.1-16.1,22.1-22.7,32.8c-0.8,1.3-1.5,2.7-2.2,4c-0.6,1.3-1.2,2.7-1.6,4.1c-0.9,2.7-1.4,5.4-0.9,7.7     c0.2,1.1,0.7,2.2,1.4,3.2c0.7,1,1.6,2,2.5,2.8c1.9,1.6,4.2,2.7,6.6,3c4.8,0.7,9.4-1.9,13-5.3c1.7-1.7,3.5-3.8,5.2-5.8     c1.7-1.9,3.5-3.8,5.2-5.6c6.9-7.2,13.3-13.6,18.9-19.2c1.4-1.4,2.7-2.8,4-4.1c0.7-0.7,1.2-1.3,1.8-1.9c0.6-0.7,1.2-1.3,1.8-1.9     c2.4-2.5,4.5-4.7,6.5-6.7c3.9-4,6.9-7.2,9-9.4c2.1-2.1,3-3.4,3.2-3.3c1.1,0.8-15.1,20.4-42.1,49.4c-1.6,1.9-3.3,3.7-5,5.7     c-1.7,1.9-3.2,4-5.3,6.1c-2,2.1-4.4,4-7.3,5.4c-2.9,1.4-6.3,2.1-9.7,1.7c-3.4-0.4-6.7-1.8-9.4-4c-1.4-1.1-2.5-2.3-3.6-3.8     c-1.1-1.5-1.9-3.3-2.3-5.1c-0.9-3.8-0.1-7.4,0.9-10.7c0.5-1.6,1.1-3.2,1.8-4.8c0.7-1.6,1.5-3.1,2.3-4.6     c6.6-11.4,14.3-22.4,22.4-33.8c4.1-5.7,8.2-11.4,12.7-17.1c4-5,6.5-11.2,6.8-17.7l0.1-0.8c0.3-1.4,0.6-2,0.9-2.9     c0.3-0.8,0.7-1.6,1.1-2.3c0.8-1.5,1.7-2.9,2.8-4.1c2.1-2.5,4.6-4.7,7.3-6.4c5.4-3.4,11.5-5.4,17.3-6.6c5.8-1.3,12.2-1.7,17.9-1.8     c2.8-0.1,5.6-0.2,8.3-0.4c2.7-0.3,5.4-0.7,8.2-1.3c5.4-1.1,10.9-2.6,16.3-4.3c2.8-0.8,5.6-1.7,8.4-2.5c2.8-0.7,5.7-1.5,8.5-2.1     c11.3-2.7,22.5-4.8,33.6-6.7c22.2-3.9,43.8-6.8,63.8-10.3c2.5-0.4,4.9-0.9,7.3-1.4c2.3-0.5,4.7-1.1,7-1.8c4.8-1.4,9.4-2.7,14-4     c9.3-2.6,18.3-4.8,26.9-6.6c19.8-4,42-6.6,65.5-6.6c23.5,0,48.3,2.9,72.7,8.7c6.1,1.6,12.2,3.1,18.3,4.9l9.1,3l2.3,0.8l2.2,0.9     l4.4,1.9c11.8,5,23.2,11.5,32.6,20.7c9.4,9.1,16.3,20.9,18.9,33.4c2.9,12.4,2.2,24.9,1.4,36.3c-0.6,11.3-0.2,22.4,0.9,33     c0.6,5.6,0.5,11.1,0.2,16.4c-0.3,5.3-0.9,10.4-1.7,15.3c-1.5,9.9-3.5,19.1-5.4,27.6c-2,8.5-3.8,16.5-5.4,23.7     c-3.5,14.6-8.2,25.7-11.7,33.2C1141.4,527.3,1139,531.2,1138.7,531z"></path>
		</g>
		<g>
			<path class="st9" d="M676.9,423.4c-0.6-0.8,2.4-4,6.1-7.9c3.8-3.9,8.6-8.5,12.1-11.6c7.1-6.1,22.2-17.6,23.5-16.1     c1.4,1.5-11.6,15.3-18.8,21.5c-3.6,3.1-8.9,7.2-13.6,10.2C681.6,422.4,677.5,424.2,676.9,423.4z"></path>
		</g>
		<g>
			<path class="st9" d="M755,400.1c0.4,0.3-1.9,5-5.9,12.5c-2,3.8-4.4,8.2-7.2,13.2c-2.9,5.1-7,10.2-11.8,15     c-4.8,4.8-10.2,9.3-15.7,13.9c-5.4,4.6-10.9,9.2-16.3,13.8c-10.9,9.2-21.5,17.9-30.6,25c-2.3,1.8-4.7,3.6-7.3,5.5     c-2.6,1.9-5.4,4-8.5,5.8c-3.2,1.8-6.7,3.6-10.9,4.3c-4.2,0.9-9.2,0-13-2.5c-1.9-1.2-3.5-2.6-4.9-4.2c-1.5-1.7-2.8-3.7-3.7-5.9     c-0.8-2.2-1.1-4.5-1.1-6.7c0-2.2,0.4-4.3,1-6.4c1.2-4,3.1-7.7,5.4-10.9c2.3-3.3,5-5.9,7.5-8.5c10.1-10.2,19.5-18.9,26.4-25.1     c6.9-6.2,11.3-9.8,11.7-9.5c0.3,0.4-3.4,4.7-9.7,11.4c-6.3,6.8-15.2,16.1-24.7,26.6c-2.4,2.7-4.8,5.3-6.6,8.2     c-1.9,2.9-3.4,6.1-4.2,9.3c-0.4,1.6-0.6,3.3-0.6,4.9c0.1,1.6,0.3,3.1,0.9,4.5c0.6,1.4,1.4,2.6,2.4,3.6c1.2,1.2,2.5,2.2,3.8,3     c2.6,1.5,5.3,2,8.3,1.4c2.9-0.6,5.9-2,8.6-3.6c2.7-1.7,5.3-3.6,7.8-5.5c2.5-1.9,4.9-3.8,7.1-5.5c9-7,19.7-15.6,30.8-24.4     c5.6-4.4,11.1-9,16.8-13.4c5.6-4.3,11.1-8.5,15.9-12.9c4.8-4.3,8.9-8.9,11.9-13.5c3.1-4.7,5.9-9,8.2-12.5     C751.5,404,754.6,399.8,755,400.1z"></path>
		</g>
		<g>
			<path class="st9" d="M772.9,443c0.4,0.3-1.9,4.2-5.4,10.7c-0.9,1.6-1.8,3.4-2.7,5.4c-0.5,1-0.9,2-1.4,3c-0.5,1.1-1.1,2.2-1.8,3.3     c-2.6,4.4-5.8,8.9-9.4,13.5c-3.6,4.6-7.6,9.2-11.9,13.8c-2.2,2.3-4.4,4.5-7,6.7c-2.4,2-4.9,3.9-7.3,5.9     c-9.7,7.7-19.2,15.1-27.1,21.1c-4,3-8.5,6.3-13.5,9.7c-2.5,1.7-5,3.5-7.9,5.2c-2.7,1.6-5.6,3.3-8.6,4.8c-3,1.5-6.1,3-9.5,4.1     c-3.3,1.2-6.8,2-10.5,2.2c-3.6,0.2-7.5-0.1-10.9-1.7c-3.4-1.5-6.4-3.8-8.4-6.5c-2.2-2.6-3.8-5.8-4.5-9c-0.7-3.3-0.4-6.5,0.4-9.3     c1.7-5.6,4.8-9.7,7.5-12.8c5.6-6.1,10.1-8.5,10.4-8.2c0.3,0.4-3.5,3.6-8.2,9.9c-2.3,3.2-4.8,7.2-5.8,12c-0.5,2.4-0.5,4.9,0.1,7.3     c0.7,2.4,2,4.8,3.9,6.8c3.6,4.3,9.1,6.4,15,5.6c2.9-0.3,5.9-1.1,8.8-2.2c2.9-1.1,5.7-2.5,8.5-4c2.8-1.5,5.5-3.1,8.1-4.8     c2.5-1.6,5-3.4,7.4-5.1c4.8-3.5,9.3-6.8,13.2-9.8c7.9-6,17.5-13.1,27.4-20.5c2.5-1.9,4.9-3.7,7.4-5.6c2.3-1.8,4.5-3.9,6.7-6     c4.3-4.2,8.5-8.6,12.2-12.9c3.7-4.3,7.2-8.4,9.9-12.4c0.7-1,1.3-2,1.9-2.9c0.6-1,1.2-2,1.7-3c1.1-1.9,2.3-3.6,3.3-5.2     C769.4,446,772.5,442.7,772.9,443z"></path>
		</g>
		<g>
			<path class="st9" d="M797.2,497.3c0.4,0.2-0.8,5.3-4.4,13.2c-1.8,3.9-4.3,8.6-8,13.2c-1.8,2.3-4.1,4.6-6.6,6.6     c-2.5,2-5.1,4-7.8,6c-10.8,7.9-23.1,16-35.3,23.6c-3,1.9-6.1,3.7-9.1,5.5c-3.1,1.8-5.9,3.5-9.3,5.1c-6.6,2.8-13.2,4.3-19.6,4.3     c-3.2,0-6.6-0.4-10.1-1.6c-3.5-1.2-7-3.5-9.6-6.6c-2.5-3.1-4.5-6.9-5.1-11.2c-0.7-4.3,0.2-8.9,2.1-12.7c1.8-3.9,4.5-7.1,7.4-9.9     c1.5-1.4,3-2.7,4.6-3.9c1.6-1.2,3.4-2.3,4.9-3.3c6.5-4,12.9-7.9,18.9-11.7c12.2-7.4,23.1-14.1,31.1-18.9c1-0.6,1.9-1.2,2.7-1.7     c0.8-0.5,1.3-1.1,1.8-1.8c1-1.4,1.7-2.8,2.3-4c1.1-2.3,1.7-3.6,2-3.5c0.2,0.1,0.1,1.5-0.6,4.1c-0.4,1.3-0.9,2.8-1.8,4.6     c-0.4,0.8-1.1,1.9-2.1,2.6c-0.9,0.7-1.7,1.4-2.7,2.1c-7.5,5.6-18.1,12.9-29.9,20.9c-5.9,4-12.1,8.2-18.4,12.4     c-1.6,1.1-3.1,2.1-4.5,3.2c-1.4,1.1-2.7,2.3-3.9,3.6c-2.5,2.5-4.6,5.3-5.9,8.3c-1.3,3-1.8,6-1.3,8.9c0.5,2.8,1.9,5.6,3.7,7.8     c3.6,4.4,9.3,5.6,14.4,5.7c5.1,0,11.1-1.2,16.8-3.6c2.7-1.2,5.7-2.9,8.7-4.6c3-1.7,6-3.4,9.1-5.2c12.2-7.2,24.8-14.8,35.8-22.1     c2.8-1.8,5.4-3.6,7.9-5.4c2.4-1.8,4.5-3.7,6.3-5.7c3.7-4,6.4-8.3,8.6-11.9C794.5,501.9,796.7,497.1,797.2,497.3z"></path>
		</g>
		<g>
			<path class="st9" d="M835.9,387.7c1,1-8.8,10.5-13.2,26.4c-2.5,7.8-3.8,16.7-3.8,25.4c0,2.2,0.1,4.4,0.1,6.5     c0.1,1.1,0.1,2.2,0.2,3.2c0,1.2,0.1,2.3,0.1,3.5c0,4.5-0.2,8.7-0.6,12.5c-0.7,7.5-2.2,16.6-3.8,26.1c-0.7,4.7-1.5,9.5-1.9,14.2     c-0.5,4.6-0.3,9.1,0.1,13.6c0.7,9,1.9,17.1,2.5,23c0.7,5.9,0.9,9.6,0.3,9.8c-0.7,0.2-2.2-3.3-4-9c-1.8-5.7-4-13.7-5.7-23     c-0.4-2.3-0.8-4.7-1-7.2c-0.3-2.5-0.4-5.2-0.3-7.7c0.1-5.1,0.6-10.1,1.1-14.9c1.1-9.7,2.3-18.7,2.9-25.8     c0.3-3.6,0.7-7.5,0.7-11.5c0-1,0-2,0-3c0-1.1,0-2.3-0.1-3.4c0-2.3,0-4.7,0.2-7c0.3-4.8,0.9-9.6,2-14.3c1.1-4.7,2.6-9.2,4.3-13.3     c0.9-2,1.8-4,2.7-5.8c1-1.9,2-3.6,3.1-5.2c2.1-3.2,4.4-5.8,6.4-7.8C832.4,388.9,835.5,387.2,835.9,387.7z"></path>
		</g>
		<g>
			<path class="st9" d="M817.6,418.4c-0.3,0-0.3-2,1.6-4.4c1.9-2.4,5.3-5.2,9.9-7.8c9.2-5.2,23-9.9,38.7-13.6c3.9-1,8-1.8,12.1-2.7     c2.1-0.5,4.2-0.7,6.4-1.1c2.2-0.3,4.3-0.8,6.5-0.9c8.8-1.1,17.8-1.1,26.5-0.7c17.6,1,33.9,4.3,47.2,4.9     c13.3,0.9,29.7-0.5,45.9-7.5c16.4-6.6,33-15.5,47.8-24c29.6-17.1,52.2-32.8,53-31.7c0.8,1.1-20.3,18.8-49.4,37.6     c-14.6,9.3-31,19-48,26.4c-1.1,0.5-2.1,0.9-3.2,1.4c-1.1,0.4-2.2,0.8-3.3,1.2c-2.2,0.8-4.3,1.6-6.5,2.3c-2.2,0.6-4.4,1.2-6.6,1.7     c-2.2,0.6-4.4,0.8-6.5,1.2c-8.6,1.3-16.8,1.6-23.9,1.1c-14.3-0.7-30.6-4.2-47.3-5.6c-8.3-0.6-16.8-0.9-25.1-0.2     c-2.1,0-4.1,0.4-6.2,0.6c-2.1,0.3-4.1,0.4-6.1,0.8c-4.1,0.7-8.1,1.3-12,2c-15.6,2.8-29.2,6.4-38.5,10.2c-4.6,1.9-8.1,4-10.1,5.7     C818.5,417.1,817.9,418.5,817.6,418.4z"></path>
		</g>
		<g>
			<path class="st9" d="M949.6,478.6c-0.7-0.1-1-2.3-1-5.9c0-1.8,0-4,0.2-6.4c0.2-2.4,0.7-5,1.1-7.8c0.2-1.4,0.5-2.8,0.7-4.3     c0.3-1.4,0.8-2.9,1.2-4.4c0.4-1.5,0.9-3,1.3-4.4l0.7-2.2l0.9-2.1c1.2-2.8,2.3-5.7,3.5-8.3c1.4-2.5,2.7-4.9,3.9-7.1     c1.3-2.1,3-4.4,4.7-6.8c1.8-2.4,4-4.7,6.1-7.2c4.6-4.6,9.7-9.2,14.9-12.5c10.2-6.9,20-9.4,20.4-8c0.5,1.2-7.7,5.7-16.2,13.5     c-4.3,3.7-8.5,8.4-12.3,12.9c-1.7,2.4-3.6,4.6-5.1,6.9c-1.5,2.3-2.9,4.4-4.1,6.3c-1.1,2-2.4,4.1-3.7,6.4     c-1.3,2.3-2.4,4.8-3.7,7.3l-1,1.9l-0.8,2c-0.5,1.3-1.1,2.7-1.6,4c-0.5,1.3-1.1,2.6-1.6,3.9c-0.4,1.3-0.9,2.6-1.3,3.9     c-0.8,2.5-1.8,4.9-2.5,7.1c-0.6,2.2-1.2,4.2-1.8,5.9C951.2,476.6,950.3,478.7,949.6,478.6z"></path>
		</g>
		<g>
			<path class="st9" d="M879.6,571.2c-0.6-0.1-0.6-3.8,0.1-9.8c0.8-5.9,2.5-14.2,5.9-23.1c1.8-4.4,4-9.1,6.9-13.4     c2.8-4.3,6.1-8.5,9.7-12.2c7-7.5,14.3-13.7,20.1-19c12.2-11.1,32.3-24.1,49.4-34.3c17.1-10.2,31.2-17.5,31.9-16.3     c0.7,1.2-12.1,10.5-28.1,22.1c-16,11.6-35.3,25.5-46.6,35.9c-5.9,5.4-13.4,11.4-20.2,18c-6.9,6.6-12.7,14.2-16.7,22.2     c-4,7.9-6.6,15.6-8.5,21.2C881.6,567.9,880.3,571.3,879.6,571.2z"></path>
		</g>
		<g>
			<path class="st9" d="M977,582.9c0,1.4-16.5,2.8-37.6,2.1c-21.1-0.6-46.7-3.5-64.6-7.6c-8.9-1.9-20-5-31.3-9.2     c-11.3-4.1-22.8-9.5-32.6-15.5c-9.8-5.9-18-12.3-23.3-17.6c-5.3-5.2-7.8-9.2-7.2-9.7c0.5-0.4,3.8,2.6,9.7,6.7     c5.8,4.2,14.3,9.5,24.2,14.5c9.9,5,21.2,9.5,32.2,13c11.1,3.5,21.8,6.2,30.5,8.1c17.3,4,42.2,8,62.9,10.3     C960.7,580.5,977,581.6,977,582.9z"></path>
		</g>
		<g>
			<path class="st9" d="M1070.9,803c-0.3,0-0.7-1.8-0.5-5c0.2-3.2,1-7.7,2.4-13.2c2.8-11,8.2-25.8,15-42c3.4-8.1,7.2-16.5,11.2-25     c4-8.5,8-17,11.7-25.6c7.5-17,13.7-33.8,17.8-48.1c4.2-14.2,8.2-32.3,10.3-51.7c0.6-4.8,0.9-9.8,1.4-14.7c0.1-4.8,0.4-9.7,0-14.5     c-0.1-4.8-0.9-9.6-1.4-14.3c-0.9-4.7-1.6-9.3-2.8-13.8c-1-4.5-2.4-8.8-3.6-13c-1.4-4.1-2.7-8.1-4.2-11.8     c-2.8-7.5-5.8-14.1-8.4-19.5c-5.2-11-9-17.4-8.4-17.8c0.5-0.4,5.5,5.4,11.8,16c3.2,5.3,6.7,11.7,10.1,19.2     c1.8,3.7,3.3,7.7,5,11.9c1.5,4.2,3.2,8.6,4.4,13.2c1.5,4.6,2.5,9.4,3.6,14.3c0.8,4.9,1.8,10,2.1,15.1c0.6,5.1,0.4,10.3,0.5,15.5     c-0.3,5.1-0.5,10.1-1,15.1c-1.6,20-5.5,38.8-9.9,53.5c-4.2,14.7-10.9,32-19,49.1c-4,8.6-8.4,17.1-12.6,25.4     c-4.3,8.3-8.4,16.5-12.1,24.3c-7.6,15.6-13.9,29.8-17.7,40.2c-1.9,5.2-3.3,9.4-4.1,12.4C1071.5,801.3,1071.3,803,1070.9,803z"></path>
		</g>
		<g>
			<path class="st9" d="M1026.4,1066c-0.3,0-0.5-1.6-0.4-4.6c0.1-1.5,0.4-3.2,0.7-5.3c0.3-2.1,0.9-4.3,1.5-6.9     c2.5-10.1,7.3-23.7,12.8-38.7c5.5-15,11.7-31.6,17.2-47.8c5.4-16.2,10.3-32,13.4-45.2c3.2-13.1,5.9-30,7.9-47.8     c2-17.8,3.3-36.7,4.2-53.8c1.7-34.3,1.7-61.8,3-61.9c1.4-0.1,3.9,27.5,3.9,62.1c0,17.3-0.6,36.3-2.1,54.5     c-1.5,18.2-4,35.5-7.3,49.2c-3.2,13.8-8.4,29.7-14.4,45.9c-6,16.2-12.9,32.7-19.3,47.4c-6.4,14.7-12.1,27.7-15.6,37.3     c-0.8,2.4-1.7,4.5-2.3,6.5c-0.6,1.9-1.1,3.5-1.5,4.9C1027.3,1064.5,1026.8,1066,1026.4,1066z"></path>
		</g>
		<g>
			<path class="st9" d="M718.7,1022.6c-0.7-0.1-1-6-1.1-15.7c-0.2-4.9-0.4-10.7-0.7-17.1c-0.2-6.5-0.7-13.6-1-21.2     c-1.6-30.2-4.5-67-6.5-93.1c-1.9-26.1-4.6-65.1-6.9-97.7c-2.2-32.6-3.9-58.6-2.5-58.8c1.3-0.2,5.4,25.7,9.4,58.1     c4,32.4,7.9,71.5,9.8,97.7c2,26.2,3.8,63.1,3.6,93.6c-0.1,7.6-0.1,14.8-0.4,21.4c-0.3,6.5-0.6,12.4-1,17.3     C720.4,1016.8,719.4,1022.7,718.7,1022.6z"></path>
		</g>
		<g>
			<path class="st9" d="M960.6,816.2c0.8,1.1-3.4,5.4-10,9.2c-6.5,3.8-15,7.1-21.2,8.7c-6.2,1.7-15.6,3.1-23.5,3.4     c-7.9,0.4-14.3-0.2-14.4-1.5c-0.1-1.3,5.9-3.2,13.3-5.3c7.6-2.1,16.3-4.5,22.2-6.1c5.9-1.5,14.2-3.5,20.9-5.5     C954.5,817.1,959.8,815.1,960.6,816.2z"></path>
		</g>
		<g>
			<path class="st9" d="M363.1,355c-1,0.9-7.7-4.8-15.9-12.3c-8.2-7.5-18-16.8-24.9-23.2c-1.7-1.6-3.6-3.4-5.7-5.3     c-2.1-2-4.1-3.4-7-6.1c-5.2-5.2-8.3-11.8-10.3-17.7c-3.9-12-3.6-22-2.3-22.1c1.4-0.2,3.6,9.2,8.7,19.5c2.5,5.1,6,10.3,10,13.7     c1.8,1.4,4.9,3.6,7.1,5.4c2.3,1.9,4.4,3.7,6.2,5.4c7.2,6.7,16.3,16.8,23.3,25.6C359.2,346.7,364.1,354.1,363.1,355z"></path>
		</g>
		<g>
			<path class="st9" d="M657.3,394.3c0.3,0.2-0.9,3-3.2,8c-1.2,2.5-2.6,5.4-4.2,9.1c-0.4,1-1,2.2-1.4,3.7l-0.3,1.3l-0.1,0.6     l-0.1,0.8c-0.1,0.5-0.1,1.2-0.1,1.9c0,0.7-0.1,1.2-0.2,1.9c-0.2,0.9-0.5,1.6-0.7,2.4c-0.2,0.8-0.4,1.5-0.5,2.1     c-0.3,1.1-0.5,1.8-0.7,2.4c-0.1,0.6-0.2,1.1-0.2,1.7l0,0.4c0,0.1,0,0.1-0.1,0.2c-0.1,0-0.2-0.1-0.2-0.1l-0.6-0.6     c-0.5-0.5-1-1.1-1.6-2.3c-0.3-0.6-0.7-0.9-1-1.6c-0.4-0.6-0.7-1.6-1.1-2.6c-0.7-2-1.4-4.1-2.2-6.2c-0.7-2.1-1.5-4.2-2.3-6.3     c-1-2.8-2.1-5.7-3.3-8.5c-0.6-1.4-1.2-2.9-1.8-4.3c-0.3-0.7-0.6-1.4-1-1.9l-0.2-0.4c0,0-0.1-0.1-0.1-0.1l0,0v0l0.2-0.2l0.4-0.3     l0.7-0.6c0.2-0.2,0.4-0.4,0.5-0.6c0.3-0.3,0.2-0.6,0.3-0.5c0.2,0.3,1.3,0.6,3,0.8c0,0,0,0.5,0.1,0.8c0,0.4,0,0.7,0.1,1.1     c0.1,0.8,0.1,1.6,0.2,2.4c0.2,1.6,0.4,3.2,0.6,4.9c0.3,2,0.6,4,0.9,5.9c0.2,1.5,0.5,2.9,0.7,4.4c0.3,1.5,0.5,3.1,0.8,4.6     c1.2,6.5,2.4,13,3.7,19.6c-7.9-9-16-18.2-24.2-27.4l7.3-3.6l0.4,1.8l0.6,3c0.4,2,0.7,4,0.9,6c0.2,1.9,0.4,3.8,0.3,5.3     c-0.1,1.5-0.5,2.5-0.9,3.2c-0.5,0.7-0.8,1.3-1.9,1.8c-0.6,0.3-0.7,0.2-0.9,0.2c-0.1,0-0.3,0-0.5,0c-0.5-0.1-1.1,0.1-2.3-0.3     c-0.3-0.1-0.7-0.4-1-0.6c-0.4-0.2-0.7-0.3-1.1-0.9c-0.8-1-1.7-2-2.4-3.1c-0.4-0.5-0.8-1.1-1.2-1.6l-1.2-1.2     c-0.8-0.8-1.6-1.5-2.3-2.2c-1.4-1.3-2.2-1.8-3-2.5c-1.6-1.3-3.3-2.5-5-3.7c-3.4-2.4-7-4.6-10.4-6.2c-0.8-0.4-1.7-0.7-2.4-1     c-0.3-0.1-0.7-0.2-0.7-0.2l0,0l0-0.7c0.1-0.5,0.3-0.9,0.3-1.4c0-0.2,0-0.5-0.1-0.7l-0.3-0.4l-0.3-0.4c0.3,0,0.1,0,0.2,0l0,0     l0-0.1c0,0,0-0.1-0.1-0.1c-0.4-0.4,0,0,0.4-0.1c0.4,0,0.9-0.1,1.2-0.3c0.5-0.2,1.2-0.4,1.8-0.7c0.1-0.1,0.4-0.2,0.3-0.2     c0,0,0,0,0,0l0,0c0,0,0,0,0.1,0.1c0.1,0.2,0,0.1,0.5,0.6c1.2,1.6,2.6,3.2,3.7,4.8c1.1,1.6,1.8,3.1,1.9,4.3     c0.2,1.2,0.1,2.2-0.4,3.4c-0.2,0.6-0.7,1.3-1.1,1.7c-0.4,0.4-0.9,0.8-1.4,1.1c-0.9,0.6-2.2,0.9-3.8,1c-0.3,0.1-0.8,0-1.2,0     l-1.3-0.1c-0.8,0-1.8-0.3-2.7-0.5c-1.9-0.3-3.4-0.8-5.1-1.3c-1-0.3-2-0.6-3-0.9c-0.9-0.3-1.9-0.6-2.8-0.9     c-3.7-1.3-7.2-2.6-10.5-4c-9.5-3.9-19.9-8.9-30.8-14.4c-5.4-2.8-11-5.6-16.7-8.6c-1.4-0.7-2.8-1.4-4.2-2.1     c-0.7-0.4-1.4-0.6-2.1-1c-0.4-0.2-0.6-0.3-0.7-0.3c0,0,0,0,0,0c0.1-0.3,0.2-0.6,0.2-1c0.1-0.7,0.3-1.1,0.3-1.6     c0.2-0.9,0-1.6-0.1-1.5c0,0,0.1,0.1,0.4,0.1c-0.8,0,7.3,0,3.9-0.1l0.1-0.2c0-0.2,0.1,0,0.2,0.1l0.7,1.2c0.5,0.8,0.9,1.5,1.3,2.3     c0.8,1.5,1.2,2.7,1.3,3.7c0.1,1,0,1.8-0.2,2.5c-0.2,0.7-0.4,1.4-1.3,2.3c-0.8,0.8-1.5,1.1-2.4,1.3c-0.9,0.2-1.8,0.3-3.1,0.1     c-2.4-0.3-5.4-1.6-8.2-3c-2.9-1.4-3.9-2-5.5-2.8l-4.5-2.5c-3-1.7-5.9-3.5-8.8-5.3c-2.9-1.9-5.8-3.7-8.6-5.6     c-11.3-7.7-21.5-16.4-31.2-24.4c-4.8-4-9.6-7.8-14.3-11.2c-4.8-3.4-9.5-6.5-14.1-9.2c-4.6-2.7-9.1-5.3-13.3-7.1     c-4.3-1.8-8.4-3-12.2-3c-3.7-0.1-6.9,1.2-8.9,3.2c-2.1,2-3.3,4.5-4,6.6c-1.4,4.2-1.5,6.8-1.8,6.8c-0.3,0-0.9-2.6-0.1-7.3     c0.5-2.3,1.4-5.3,3.8-8c1.2-1.4,2.8-2.6,4.6-3.5c1.9-0.9,4.1-1.4,6.3-1.5c4.5-0.3,9.2,0.8,14,2.5c4.8,1.7,9.4,4.1,14.3,6.6     c4.9,2.6,9.9,5.6,14.9,8.9c5,3.4,10.1,7,15.1,10.9c10.1,7.8,20.3,16,31.4,23.1c2.7,1.8,5.6,3.5,8.4,5.2c2.9,1.6,5.7,3.3,8.7,4.9     l4.4,2.3c1.3,0.7,3.3,1.7,3.5,1.7c0.3,0.1,0.6,0.2,0.8,0.1c0-0.1-0.1-0.3-0.2-0.4l-0.1-0.2l0-0.1l0,0c0,0,0,0.1,0-0.2l0-0.3     c0-0.1,0-0.2,0-0.5c0-0.7,0.3-2.1,1.4-3.2c0.6-0.6,1.1-0.9,1.6-1.1c0.6-0.3,0.9-0.3,1.3-0.4c0.2,0,0.4-0.1,0.5-0.1l0.3,0     c0.2,0,0.5,0,0.6,0c0.7,0.1,1.1,0.2,1.4,0.3c0.7,0.2,1.2,0.4,1.6,0.6c0.8,0.4,1.7,0.7,2.4,1.1c1.5,0.7,3,1.4,4.5,2.1     c5.8,2.9,11.4,5.6,16.9,8.3c10.9,5.4,21.1,10.2,30.3,14c3.2,1.3,6.5,2.6,9.9,3.8c0.9,0.3,1.7,0.6,2.6,0.9     c0.8,0.3,1.7,0.5,2.5,0.8c0.6,0.2,0.4,0.1,0.5,0.2c0.1,0.1,0.2,0,0.1-0.1c0,0,0,0,0-0.1l-0.4-0.7c-0.2-0.4-0.4-0.7-0.7-1.2     c-0.1-0.3-0.2-0.5-0.3-0.9c-0.1-0.5-0.2-0.9-0.3-1.4c0-0.4,0-0.8,0-1.2c0.1-0.4,0.1-0.7,0.3-1.3c0.2-0.5,0.5-1,0.8-1.4     c0.4-0.5,0.6-0.7,1-0.9c0.2-0.1,0.4-0.3,0.6-0.4l0.3-0.2l0.1-0.1c0.3-0.1-0.5,0.2,0.8-0.3l0.2,0l0.2,0c0,0,0.5-0.1,0.7-0.1     c0.5-0.1,1.1-0.1,1.5,0l0.8,0.1c1,0.2,1.6,0.4,2.3,0.6c1.3,0.5,2.4,1,3.5,1.5c4.2,2.1,7.9,4.6,11.6,7.2c1.8,1.3,3.6,2.7,5.4,4.2     c0.9,0.7,1.8,1.6,2,1.7l0.2,0.2c0.1,0.2,0.3,0.3,0.4,0.6c0.1,0.1,0.1,0.3,0.2,0.3c0.1-0.1,0.1-0.2,0.1-0.3c0-0.2,0-0.4,0-0.7     l0-0.4l0-0.3l-0.3-1.4l-2.9-16.2l10.1,12.7c0.9,1.1,1.8,2.2,2.6,3.3l1.5,1.8l0.8,0.9l0.4,0.5l0.2,0.2l0.1,0.1c0,0,0,0,0,0     c-0.1-0.7-0.1-1.4-0.2-2l-0.1-1.4c-0.2-1.4-0.3-2.8-0.5-4.2c-0.2-1.7-0.4-3.4-0.5-5.2c-0.1-0.9-0.1-1.7-0.1-2.6     c0-0.4,0-0.9,0-1.4c0-0.5,0-0.8,0-1.7c0-0.2,0.1-0.5,0.1-0.8c0-0.2,0.2-0.5,0.3-0.8c0-0.1,0.2-0.4,0.4-0.6     c0.2-0.3,0.4-0.5,0.8-0.7c0.4-0.3,1-0.5,1.6-0.6c0.5-0.1,0.8,0,1.3,0.1c0.2,0,0.4,0.1,0.6,0.2l0.3,0.1c0.2,0.1,0.3,0.2,0.5,0.3     c0.3,0.2,0.3,0.3,0.5,0.4c0.2,0.2,0.2,0.2,0.3,0.3c0.6,0.7,0.7,1.1,1,1.6c0.4,0.9,0.8,1.7,1.1,2.5c0.6,1.6,1.2,3.1,1.7,4.6     c1.1,3,2,6,3,8.8l0.3,1.2l0.3,0.9c0.2,0.7,0.4,1.3,0.6,2c0.4,1.5,0.8,3,1.2,4.4c0.1,0.4,0.2,0.8,0.3,1.2c0,0.1,0,0.2,0.1,0.3     c0,0,0-0.1,0-0.2l0-0.4c0-0.5,0-1.1,0-1.6c0-1.1,0.2-2.3,0.6-3.4c0.2-0.6,0.5-1.1,0.8-1.7c0.4-0.6,0.7-1.3,1-1.9     c1.8-3.3,3.7-6.2,5.1-8.5C655.1,396.6,657,394.1,657.3,394.3z"></path>
		</g>
		<g>
			<path class="st9" d="M487,563.8c0,0.1-1.2,0.1-3.2-0.4c-2.1-0.5-5.1-1.6-8.7-3.7c-7.2-4.1-16.7-12.1-25-24.8     c-2.1-3.2-4-6.5-6.2-9.9c-2.2-3.4-4.6-6.9-7.3-10.4c-5.2-7.1-11.3-14.4-17.9-22c-6.6-7.6-13.8-15.5-21.5-23.7     c-7.6-8.1-15.9-16.6-23.6-26.2c-7.7-9.5-15-20-21.3-31.5c-3.1-5.7-6-11.7-8.7-17.8c-2.7-6.1-5.1-12.4-7.5-18.6     c-1.2-3.1-2.4-6.2-3.7-9.3c-1.3-2.9-2.6-5.9-4.3-8.5c-1.6-2.7-3.5-5.2-5.7-7.3c-1.1-1.1-2.3-2.1-3.6-3.1     c-1.3-1.1-2.8-2.2-4.3-3.7c-1.6-1.6-2.8-3.8-3.5-6l-0.4-1.6l-0.3-1.2l-0.6-2.5c-0.8-3.3-1.7-6.5-2.7-9.8c-2-6.5-4.3-13.2-6.3-20     c-1-3.4-2-6.8-2.9-10.2c-0.9-3.4-2-6.7-2.7-10.5c-1.4-7.4-1.6-14.3-2.9-20.8l-2.2-10.2c-0.7-3.5-1.6-7-2-10.5     c-0.5-3.5-1.2-7-1.6-10.6c-0.3-3.5-0.7-7.1-1-10.6c-0.9-14.1-0.5-28.3,1.8-42.1c1.2-6.9,2.6-13.7,4.7-20.3c1-3.3,2.2-6.6,3.5-9.7     c0.6-1.6,1.4-3.2,2.1-4.8c0.8-1.6,1.5-3.1,2.5-4.8l6.3,6.8c-2.8,1.5-5.5,2.9-8.2,4.4l-12.1,6.5l5.3-12.6     c10.9-25.7,24.4-48.9,39.7-67.9c2-2.6,4.3-5,6.5-7.6c1.1-1.3,2.2-2.6,3.4-3.8l1.7-1.9l1.8-1.8c2.5-2.4,5-4.9,7.5-7.4     c1.2-1.3,2.6-2.4,4-3.6c1.4-1.2,2.8-2.4,4.2-3.5c11.3-9.4,24.2-17.9,38.8-24.4c3.7-1.5,7.4-3.1,11.3-4.3c1.9-0.7,4-1.2,6-1.8     l3.2-0.7l0.5-0.1c0,0-0.2,0.1,0,0l0.2,0l0.4-0.1l1.5-0.4c4-1,7.9-2.1,12-2.8c2-0.4,4.1-0.8,6.1-1.2c2.1-0.3,4.1-0.6,6.2-0.8     l3.1-0.4l3.1-0.3c2.1-0.2,4.2-0.3,6.3-0.5c4.2-0.1,8.4-0.4,12.7-0.3c8.5,0.1,17.1,0.7,25.6,2c4.3,0.7,8.5,1.4,12.8,2.4     c2.1,0.5,4.2,1,6.4,1.6c1.1,0.3,2.1,0.6,3.2,1c0.2,0.1,0.1,0,0.2,0.1c0,0,0,0-0.1,0l0.4,0l1.6,0.2c8.6,0.7,17.2,1.8,25.8,3.4     c17.1,3.2,33.9,8.5,49.6,16c7.8,3.9,15.4,8.1,22.5,13.1c3.6,2.4,7,5.1,10.4,7.7c1.7,1.3,3.3,2.8,4.9,4.2c1.6,1.4,3.3,2.8,4.8,4.3     c6.3,5.8,11.9,12.1,17.2,18.6c5.1,6.6,10,13.3,14.2,20.3c17,27.9,26.7,57.5,32.9,84.5c3.2,13.5,5.5,26.5,7.2,38.7     c1.5,12.3,2.1,23.8,2.1,34.2c-0.2,10.5-1,19.9-2.1,28.2c-1.2,8.2-2.8,15.2-4.3,20.8c-1.6,5.6-3.2,9.9-4.4,12.7     c-1.2,2.8-2.1,4.2-2.2,4.1c-0.2-0.1,0.4-1.6,1.3-4.5c0.9-2.9,2.1-7.2,3.4-12.8c1.2-5.6,2.4-12.6,3.3-20.7     c0.8-8.2,1.3-17.5,1.2-27.8c-0.3-10.3-1.1-21.6-2.9-33.6c-1.9-12-4.5-24.8-7.9-38.1c-6.7-26.5-16.7-55.4-33.5-82.1     c-4.2-6.7-8.9-13.1-13.9-19.4c-5.2-6.1-10.6-12.1-16.7-17.6c-1.4-1.4-3-2.7-4.6-4c-1.6-1.3-3.1-2.7-4.7-3.9     c-3.3-2.4-6.5-5-10-7.2c-6.8-4.7-14.1-8.6-21.5-12.3c-15.1-7-31.2-11.9-47.7-14.9c-8.2-1.5-16.6-2.5-24.9-3.1l-1.6-0.1l-1.3-0.1     c-0.5,0-1.1-0.3-1.3-0.4c-0.9-0.3-1.9-0.6-2.9-0.8c-2-0.5-3.9-1-5.9-1.5c-4-0.9-8.1-1.6-12.1-2.2c-8.1-1.2-16.3-1.7-24.4-1.7     c-4-0.1-8.1,0.2-12.1,0.3c-2,0.2-4,0.4-6,0.5l-3,0.3l-2.9,0.4c-2,0.3-3.9,0.6-5.9,0.8c-1.9,0.4-3.9,0.8-5.8,1.1     c-3.9,0.7-7.6,1.8-11.4,2.7l-1.4,0.4l-0.9,0.2l-0.9,0.2l-2.6,0.6c-1.8,0.5-3.6,1-5.3,1.6c-3.6,1.1-7,2.6-10.4,4     c-13.6,6.1-25.8,14.2-36.4,23.1c-1.3,1.1-2.6,2.3-3.9,3.4c-1.3,1.1-2.6,2.2-3.8,3.4c-2.4,2.4-4.8,4.8-7.2,7.1l-1.8,1.7l-1.6,1.9     c-1.1,1.2-2.2,2.5-3.2,3.7c-2.1,2.5-4.3,4.8-6.2,7.3c-14.6,18.2-27.7,40.5-38.4,65.5l-6.7-6.1c2.7-1.4,5.5-2.9,8.3-4.4l15.3-8.1     l-9,14.9c-0.6,1-1.4,2.5-2,3.9c-0.6,1.4-1.3,2.8-1.9,4.3c-1.2,2.9-2.3,5.9-3.3,9c-2,6.1-3.3,12.5-4.5,18.9     c-2.2,13-2.7,26.4-1.9,40c0.3,3.4,0.6,6.8,0.9,10.2c0.3,3.4,1,6.8,1.4,10.1c0.4,3.4,1.2,6.7,1.9,10.1l2.1,10.4     c1.4,7.3,1.6,14.4,2.7,20.9c0.6,3.1,1.6,6.5,2.5,9.8c0.9,3.4,1.8,6.7,2.8,10c1.9,6.7,4,13.2,6.1,20c1,3.4,1.9,6.9,2.7,10.3     l0.6,2.6l0.3,1.3l0.2,0.9c0.3,1.1,0.8,2,1.6,2.9c1.7,1.8,5,4,7.6,6.7c2.7,2.7,4.9,5.7,6.8,8.9c1.9,3.1,3.3,6.4,4.7,9.6     c1.3,3.2,2.5,6.4,3.7,9.5c2.3,6.3,4.6,12.5,7.1,18.4c2.5,6,5.2,11.8,8.2,17.3c6,11.1,12.8,21.4,20.2,30.8     c7.3,9.5,15.3,17.9,22.8,26.3c7.5,8.4,14.6,16.5,21.1,24.3c6.5,7.8,12.5,15.4,17.6,22.7c2.6,3.7,4.9,7.3,7.1,10.8     c2.2,3.5,4.1,7,5.9,10.2c7.6,12.6,16.4,20.7,23,25.1C482.6,562.7,487.1,563.4,487,563.8z"></path>
		</g>
		<g>
			<path class="st9" d="M655.6,411.3c0.8,0.1,0.6,3.1,2.5,6.1c0.9,1.5,2.4,2.9,4.2,4.1c0.9,0.6,2,1.1,3.1,1.6     c0.3,0.1,0.5,0.2,0.8,0.3c0.2,0.1,0.7,0.3,0.6,0.2c0.1,0,0.2,0,0.2,0c0-0.1,0.1-0.1,0.1-0.2c0,0,0,0,0,0l0.3-0.3l0.6-0.6     c0.7-0.8,1.4-1.6,2.1-2.3c1.3-1.5,2.4-3.1,3.2-4.4c0.7-1.1,1.4-2.4,1.7-3.6c0.3-1.3,0.4-2.2-0.1-3.1c-0.3-0.4-0.6-1-1.2-1.4     c-0.3-0.2-0.5-0.5-0.8-0.7c-0.3-0.1-0.6-0.3-0.9-0.5c-1.3-0.5-2.8-0.6-4.4-0.3c-3.2,0.5-6.2,2.3-8.3,3.5     C657.3,410.8,656,411.7,655.6,411.3c-0.4-0.3,0.3-1.8,2.1-3.8c1.8-1.9,4.4-4.6,8.7-6.2c2.1-0.8,4.8-1.1,7.5-0.4     c0.6,0.2,1.3,0.5,1.9,0.7c0.6,0.3,1.2,0.7,1.7,1c1.1,0.7,2.2,1.7,3.1,3c0.9,1.3,1.4,2.8,1.5,4.2c0.2,1.5,0,2.8-0.2,4     c-0.6,2.4-1.5,4.2-2.5,5.7c-1.1,1.8-2.5,3.6-4.2,5.3c-0.8,0.9-1.7,1.7-2.6,2.5c-0.5,0.5-1.1,1-1.7,1.4c-0.8,0.7-1.7,1.4-2.5,2     c-1.2-0.4-2.4-0.8-3.6-1.3c-0.7-0.3-0.8-0.4-1.2-0.6c-0.3-0.2-0.7-0.4-1-0.6c-1.3-0.8-2.5-1.7-3.6-2.7c-2.2-2-3.8-4.5-4.5-6.8     c-0.4-1.1-0.4-2.3-0.5-3.2c0.1-1,0.1-1.8,0.3-2.4C654.9,411.9,655.3,411.3,655.6,411.3z"></path>
		</g>
		<g>
			<path class="st9" d="M628.7,483.7c0.7-0.2,2,2.4,4.9,5.6c1.4,1.6,3.2,3.4,5.3,5.1c1.1,0.8,2.2,1.6,3.4,2.4l0.9,0.6     c0.3,0.2,0.8,0.4,0.7,0.4c0.1,0,0.3,0.1,0.4,0.1c0.1-0.2,0.1-0.2,0.3-0.4l1.8-1.7c1.2-1.2,2.3-2.3,3.4-3.5     c2.1-2.3,3.9-4.7,5.2-6.7c0.9-1.4,1.7-3.1,1.9-4.6c0.2-1.5,0-2.6-1.1-3.8c-1-1.1-2.6-1.7-4.7-1.6c-2.1,0-4.4,0.6-6.5,1.4     c-4.3,1.5-8.1,3.6-10.9,5C630.8,483.2,629,484.1,628.7,483.7c-0.3-0.4,0.9-2,3.3-4.2c2.4-2.2,5.9-5,10.5-7.4     c2.3-1.2,4.9-2.2,8-2.6c1.5-0.2,3.2-0.2,4.9,0.2c1.7,0.4,3.4,1.3,4.8,2.5c1.3,1.2,2.4,2.7,3,4.4c0.6,1.7,0.7,3.5,0.5,5.1     c-0.4,3.1-1.6,5.5-2.7,7.4c-1.6,2.7-3.8,5.3-6.3,7.8c-1.3,1.2-2.6,2.4-4,3.6c-0.7,0.6-1.4,1.1-2.1,1.7c-1.2,0.9-2.5,1.9-3.8,2.8     c-1.3-0.7-2.5-1.4-3.7-2.1c-0.7-0.5-0.8-0.6-1.2-0.9l-1-0.8c-1.3-1-2.4-2.1-3.5-3.3c-2.1-2.2-3.7-4.6-4.8-6.7     C628.4,487.1,628.2,483.9,628.7,483.7z"></path>
		</g>
		<g>
			<path class="st9" d="M633.9,525.4c0.3,0,0.8,0.7,1.3,2c0.7,1.2,1.4,3,2.8,4.9c1.3,1.9,3.1,3.9,5.3,5.8c1.1,1,2.3,1.9,3.5,2.8     c0.3,0.2,0.6,0.5,0.9,0.7l0.5,0.3c0.1,0.1,0.4,0.3,0.4,0.2c0.1,0,0.2,0.1,0.3,0.1c0.1-0.1,0.1-0.2,0.2-0.3l1.5-1.4     c1.1-1,2.2-2,3.1-3c1.9-2,3.6-4.1,4.8-5.9c0.9-1.4,1.7-3.1,2.1-4.7c0.3-1.6,0.3-3.2-0.6-4.7c-0.9-1.6-2.2-2.7-4-3.2     c-1.8-0.5-4.1-0.3-6.2,0.2c-4.3,1-8.3,3-11.1,4.3C636,524.9,634.2,525.8,633.9,525.4c-0.3-0.4,0.9-2,3.4-4.2     c2.5-2.1,6.1-4.9,11.2-6.8c2.5-0.9,5.5-1.6,8.8-1.2c3.4,0.4,6.7,2.7,8.4,5.5c0.9,1.4,1.6,3,1.9,4.7c0.3,1.7,0.2,3.3,0,4.8     c-0.6,3-1.8,5.3-3,7.2c-1.5,2.4-3.6,4.8-5.9,7c-1.2,1.1-2.4,2.2-3.7,3.2l-1,0.8l-1.2,0.9c-1.2,0.9-2.4,1.7-3.6,2.5     c-1.3-0.8-2.6-1.7-3.8-2.6c-0.4-0.3-0.4-0.4-0.6-0.5l-0.5-0.4c-0.3-0.3-0.7-0.6-1-0.9c-1.3-1.2-2.5-2.4-3.6-3.7     c-2.2-2.5-3.8-5.2-4.8-7.6c-1.1-2.4-1.4-4.7-1.5-6.2C633.4,526.3,633.6,525.5,633.9,525.4z"></path>
		</g>
		<g>
			<path class="st9" d="M681.1,547.2c0.3,0,0.7,0.8,1.2,2.1c0.6,1.3,1.4,3,2.7,4.8c1.4,1.8,3.2,3.8,5.5,5.7c1.1,0.9,2.3,1.9,3.6,2.8     c0.3,0.2,0.6,0.5,1,0.7c0.3,0.2,0.7,0.5,0.7,0.5c0.2,0.1,0.3,0.1,0.4,0.1c0.1-0.1,0.1-0.2,0.2-0.3c-0.1,0.1,0.3-0.3,0.6-0.5     l0.8-0.8c1.1-1,2.1-2.1,3-3.1c1.9-2.1,3.5-4.1,4.6-6c0.9-1.4,1.7-3.1,2.1-4.8c0.4-1.7,0.3-3.2-0.6-4.8c-0.9-1.6-2.2-2.8-3.9-3.3     c-1.8-0.5-4-0.3-6.1,0.2c-4.3,1.1-8.2,3.1-10.9,4.5C683.2,546.6,681.5,547.6,681.1,547.2c-0.3-0.4,0.8-2,3.2-4.3     c2.4-2.2,6-5.1,11-7.1c2.5-1,5.5-1.7,8.9-1.2c1.7,0.3,3.4,0.9,4.8,2c1.4,1,2.6,2.2,3.5,3.7c0.9,1.4,1.6,3.1,1.9,4.7     c0.3,1.7,0.2,3.3-0.1,4.8c-0.5,3-1.7,5.3-2.9,7.2c-1.5,2.4-3.5,4.8-5.8,7.1c-1.1,1.1-2.4,2.2-3.6,3.2l-1,0.8l-1.2,1     c-1.2,0.9-2.4,1.7-3.5,2.5c-1.3-0.9-2.6-1.8-3.7-2.7c-0.7-0.5-0.9-0.7-1.2-1c-0.3-0.3-0.7-0.6-1-0.9c-1.3-1.2-2.5-2.4-3.6-3.6     c-2.2-2.5-3.9-5.1-5-7.5c-1.1-2.5-1.5-4.7-1.5-6.3C680.5,548,680.8,547.2,681.1,547.2z"></path>
		</g>
	</g>
</g>
</svg>
