<?xml version="1.0" encoding="UTF-8"?>
<!-- Generator: Adobe Illustrator 27.9.0, SVG Export Plug-In . SVG Version: 6.00 Build 0)  -->
<svg xmlns="http://www.w3.org/2000/svg" xmlns:xlink="http://www.w3.org/1999/xlink" version="1.1" id="Layer_1" x="0px" y="0px" viewBox="0 0 1369.3 1072" style="enable-background:new 0 0 1369.3 1072;" xml:space="preserve">
<style type="text/css">
	.st0{fill:url(#SVGID_1_);}
	.st1{fill:url(#SVGID_00000096039673558834542590000016351023065887990942_);}
	.st2{fill:url(#SVGID_00000158027035352858986280000015219445297609869961_);}
	.st3{fill:url(#SVGID_00000091703062698404964410000001942597450585670028_);}
	.st4{fill:url(#SVGID_00000183244332545773899050000002170909828720220605_);}
	.st5{fill:url(#SVGID_00000155834179575779211440000014392735681025782425_);}
	.st6{fill:url(#SVGID_00000084521476935422626600000014639254912170976191_);}
	.st7{fill:url(#SVGID_00000082370024464467400050000010430381763883689356_);}
	.st8{fill:url(#SVGID_00000085252440477917386120000007154226681075669127_);}
	.st9{fill:#262626;}
</style>
<g>
	<g>
		<g>
			<g>
				
					<radialGradient id="SVGID_1_" cx="683.2922" cy="669.4624" r="198.2146" gradientTransform="matrix(0.9921 0 0 0.9921 5.3928 4.2205)" gradientUnits="userSpaceOnUse">
					<stop offset="0" style="stop-color:#EF4136"></stop>
					<stop offset="0" style="stop-color:#EF0F14"></stop>
					<stop offset="1" style="stop-color:#FFFFFF"></stop>
				</radialGradient>
				<path class="st0" d="M697.5,718.9c-32,0-58-26-58-58s26-58,58-58c32,0,58,26,58,58S729.6,718.9,697.5,718.9z M697.5,620.4      c-22.3,0-40.4,18.1-40.4,40.4s18.1,40.4,40.4,40.4s40.4-18.1,40.4-40.4S719.8,620.4,697.5,620.4z"></path>
			</g>
			<g>
				
					<radialGradient id="SVGID_00000182489945965301913740000008085911151087526558_" cx="683.2926" cy="669.4631" r="198.2147" gradientTransform="matrix(0.9921 0 0 0.9921 5.3928 4.2205)" gradientUnits="userSpaceOnUse">
					<stop offset="0" style="stop-color:#EF4136"></stop>
					<stop offset="0" style="stop-color:#EF0F14"></stop>
					<stop offset="1" style="stop-color:#FFFFFF"></stop>
				</radialGradient>
				<path style="fill:url(#SVGID_00000182489945965301913740000008085911151087526558_);" d="M697.5,739.2      c-43.2,0-78.3-35.1-78.3-78.3c0-43.2,35.1-78.3,78.3-78.3c43.2,0,78.3,35.1,78.3,78.3C775.9,704,740.7,739.2,697.5,739.2z       M697.5,598.6c-34.3,0-62.2,27.9-62.2,62.2c0,34.3,27.9,62.2,62.2,62.2s62.2-27.9,62.2-62.2      C759.7,626.5,731.8,598.6,697.5,598.6z"></path>
			</g>
			<g>
				
					<radialGradient id="SVGID_00000003097750153740049050000009709539837975385769_" cx="683.2927" cy="669.4629" r="198.2143" gradientTransform="matrix(0.9921 0 0 0.9921 5.3928 4.2205)" gradientUnits="userSpaceOnUse">
					<stop offset="0" style="stop-color:#EF4136"></stop>
					<stop offset="0" style="stop-color:#EF0F14"></stop>
					<stop offset="1" style="stop-color:#FFFFFF"></stop>
				</radialGradient>
				<path style="fill:url(#SVGID_00000003097750153740049050000009709539837975385769_);" d="M697.5,759.5      c-54.4,0-98.7-44.3-98.7-98.7s44.3-98.7,98.7-98.7s98.6,44.3,98.6,98.7S751.9,759.5,697.5,759.5z M697.5,576.8      c-46.3,0-84,37.7-84,84s37.7,84,84,84c46.3,0,84-37.7,84-84S743.9,576.8,697.5,576.8z"></path>
			</g>
			<g>
				
					<radialGradient id="SVGID_00000137120453040392500990000002050720042725929375_" cx="683.2925" cy="669.4629" r="198.2147" gradientTransform="matrix(0.9921 0 0 0.9921 5.3928 4.2205)" gradientUnits="userSpaceOnUse">
					<stop offset="0" style="stop-color:#EF4136"></stop>
					<stop offset="0" style="stop-color:#EF0F14"></stop>
					<stop offset="1" style="stop-color:#FFFFFF"></stop>
				</radialGradient>
				<path style="fill:url(#SVGID_00000137120453040392500990000002050720042725929375_);" d="M697.5,779.8c-65.6,0-119-53.4-119-119      s53.4-119,119-119c65.6,0,119,53.4,119,119S763.1,779.8,697.5,779.8z M697.5,555c-58.4,0-105.8,47.5-105.8,105.8      s47.5,105.8,105.8,105.8c58.4,0,105.8-47.5,105.8-105.8S755.9,555,697.5,555z"></path>
			</g>
			<g>
				
					<radialGradient id="SVGID_00000127765398324867593340000011580139900193499070_" cx="683.2925" cy="669.4631" r="198.2147" gradientTransform="matrix(0.9921 0 0 0.9921 5.3928 4.2205)" gradientUnits="userSpaceOnUse">
					<stop offset="0" style="stop-color:#EF4136"></stop>
					<stop offset="0" style="stop-color:#EF0F14"></stop>
					<stop offset="1" style="stop-color:#FFFFFF"></stop>
				</radialGradient>
				<path style="fill:url(#SVGID_00000127765398324867593340000011580139900193499070_);" d="M697.5,800.1      c-76.8,0-139.3-62.5-139.3-139.3c0-76.8,62.5-139.3,139.3-139.3c76.8,0,139.3,62.5,139.3,139.3      C836.8,737.6,774.3,800.1,697.5,800.1z M697.5,533.2c-70.4,0-127.7,57.3-127.7,127.7s57.3,127.7,127.7,127.7      c70.4,0,127.7-57.3,127.7-127.7S767.9,533.2,697.5,533.2z"></path>
			</g>
			<g>
				
					<radialGradient id="SVGID_00000060717729977233404550000004640379127907716029_" cx="683.2927" cy="669.4629" r="198.2137" gradientTransform="matrix(0.9921 0 0 0.9921 5.3928 4.2205)" gradientUnits="userSpaceOnUse">
					<stop offset="0" style="stop-color:#EF4136"></stop>
					<stop offset="0" style="stop-color:#EF0F14"></stop>
					<stop offset="1" style="stop-color:#FFFFFF"></stop>
				</radialGradient>
				<path style="fill:url(#SVGID_00000060717729977233404550000004640379127907716029_);" d="M697.5,820.4      c-88,0-159.6-71.6-159.6-159.6s71.6-159.6,159.6-159.6c88,0,159.6,71.6,159.6,159.6S785.5,820.4,697.5,820.4z M697.5,511.3      c-82.4,0-149.5,67.1-149.5,149.5s67.1,149.5,149.5,149.5c82.4,0,149.5-67.1,149.5-149.5S780,511.3,697.5,511.3z"></path>
			</g>
			<g>
				
					<radialGradient id="SVGID_00000039813400224550703230000011233038673532295103_" cx="683.2925" cy="669.4623" r="198.2143" gradientTransform="matrix(0.9921 0 0 0.9921 5.3928 4.2205)" gradientUnits="userSpaceOnUse">
					<stop offset="0" style="stop-color:#EF4136"></stop>
					<stop offset="0" style="stop-color:#EF0F14"></stop>
					<stop offset="1" style="stop-color:#FFFFFF"></stop>
				</radialGradient>
				<path style="fill:url(#SVGID_00000039813400224550703230000011233038673532295103_);" d="M697.5,840.7      c-99.2,0-179.9-80.7-179.9-179.9s80.7-179.9,179.9-179.9c99.2,0,179.9,80.7,179.9,179.9S796.7,840.7,697.5,840.7z M697.5,489.5      c-94.5,0-171.3,76.8-171.3,171.3s76.8,171.3,171.3,171.3s171.3-76.8,171.3-171.3S792,489.5,697.5,489.5z"></path>
			</g>
			<g>
				
					<radialGradient id="SVGID_00000147941674662226387930000005068373805771348654_" cx="683.2928" cy="669.4629" r="198.2142" gradientTransform="matrix(0.9921 0 0 0.9921 5.3928 4.2205)" gradientUnits="userSpaceOnUse">
					<stop offset="0" style="stop-color:#EF4136"></stop>
					<stop offset="0" style="stop-color:#EF0F14"></stop>
					<stop offset="1" style="stop-color:#FFFFFF"></stop>
				</radialGradient>
				<path style="fill:url(#SVGID_00000147941674662226387930000005068373805771348654_);" d="M697.5,861      c-110.4,0-200.2-89.8-200.2-200.2s89.8-200.2,200.2-200.2c110.4,0,200.2,89.8,200.2,200.2S807.9,861,697.5,861z M697.5,467.7      c-106.5,0-193.1,86.6-193.1,193.1s86.6,193.1,193.1,193.1c106.5,0,193.1-86.6,193.1-193.1S804,467.7,697.5,467.7z"></path>
			</g>
		</g>
		<g>
			
				<radialGradient id="SVGID_00000166673232594652496030000016901319515741338018_" cx="683.2927" cy="669.463" r="198.214" gradientTransform="matrix(0.9921 0 0 0.9921 5.3928 4.2205)" gradientUnits="userSpaceOnUse">
				<stop offset="0" style="stop-color:#EF4136"></stop>
				<stop offset="0" style="stop-color:#EF0F14"></stop>
				<stop offset="1" style="stop-color:#FFFFFF"></stop>
			</radialGradient>
			<circle style="fill:url(#SVGID_00000166673232594652496030000016901319515741338018_);" cx="697.5" cy="660.8" r="34.6"></circle>
		</g>
	</g>
	<g>
		<g>
			<g>
				<path class="st9" d="M695.9,558.5c-0.4-0.8,0.4-2,1.1-3.6c0.8-1.5,1.4-3.6,1.8-6c0.8-4.8,0.2-11.5-0.1-16.3      c-0.1-2.4-0.3-5.4-0.5-8.7c-0.3-4,0-4.7-1.1-6.3c-1-1.5-3.5-2.6-5.3-3.4c-1.9-0.8-3.2-1.4-3.4-2.2c-0.2-0.8,1.1-2,3.4-2.7      c1.2-0.4,2.7-0.6,4.4-0.6c1.7,0,3.9,0.4,6,1.6c2.1,1.1,4.2,3.2,5.4,5.6c0.3,0.6,0.5,1.2,0.7,1.8c0.2,0.6,0.4,1.3,0.5,1.6      c0.3,0.9,0.5,1.8,0.7,2.6c0.9,3.5,1.4,7,1.6,9.8c0.3,5.6-0.4,14-4.3,20.5c-1.9,3.2-4.5,5.6-6.9,6.4      C697.7,559.6,696.2,559.3,695.9,558.5z"></path>
			</g>
		</g>
		<g>
			<g>
				<path class="st9" d="M695.1,549.1c0.1,0.7-3.2,2.2-7.8,0.8c-2.3-0.7-4.6-2.2-6.3-4.2c-1.7-1.9-2.8-4.1-3.4-6      c-1.3-3.7-1.7-9.3-1-13.7c0.6-4.5,1.9-7.8,2.8-7.7c0.9,0.1,1.1,3.6,1.7,7.7c0.5,4.1,1.5,8.8,2.5,11.6c0.9,2.9,2.7,6.4,5.5,8.2      C691.8,547.7,695.1,548.2,695.1,549.1z"></path>
			</g>
		</g>
		<g>
			<g>
				<path class="st9" d="M692.3,538.4c0,0.4-0.5,0.8-1.3,1c-0.4,0.1-0.9,0.1-1.5,0c-0.6-0.1-1.2-0.3-1.8-0.7      c-2.6-1.5-3.9-4.6-4.2-6.6c-0.4-2-0.1-4.9,0.7-7.1c0.7-2.2,1.9-3.8,2.7-3.6c0.9,0.2,1.3,1.9,1.7,4c0.5,2.5,0.8,4.5,1.1,5.7      c0.2,1.4,0.4,3.1,0.9,4.2C691,536.6,692.4,537.5,692.3,538.4z"></path>
			</g>
		</g>
		<g>
			<g>
				<g>
					<g>
						<path class="st9" d="M436.3,746.2c-0.1,0.4-2.5-0.6-5.6-3.5c-3.1-2.8-7.3-7.2-12.1-12.8c-9.8-11.2-22.7-27.4-36.9-45.6        c-7.1-9.1-14.6-18.7-22.2-28.4c-3.8-4.8-7.7-9.7-11.5-14.6c-1.9-2.4-3.9-5-5.8-7.6c-2-2.6-3.7-5.3-5.4-8        c-13.7-21.7-22.8-44.2-30.4-62.7c-3.7-9.3-7.8-19.7-12.2-30.8c-4.4-11.1-9.1-22.8-14.7-34.3l-2.1-4.3l-2.3-4.2        c-1.5-2.9-3.1-5.5-4.8-8.1c-3.5-5.3-7.4-10.5-11.4-15.7c-8-10.3-16.4-20.3-24.3-29.8c-15.9-19-30.3-36.2-40.3-48.9        c-10-12.7-15.7-20.9-15-21.5c0.7-0.6,7.6,6.5,18.8,18.2c11.1,11.7,26.4,27.9,43.3,46.2c8.4,9.2,17.2,18.9,25.7,29.1        c4.3,5.1,8.5,10.4,12.5,16c2,2.9,3.9,5.8,5.5,8.8l2.5,4.4l2.3,4.5c6.1,11.9,11.1,23.7,15.7,34.8c4.5,11.1,8.7,21.5,12.4,30.7        c7.5,18.3,16.3,40.6,28.6,61.3c1.6,2.6,3.1,5.2,4.8,7.6c1.7,2.4,3.4,4.9,5.3,7.4c3.7,5,7.4,10.1,11.1,15.1        c7.3,10,14.3,20,21,29.4c13.2,18.8,25,35.7,33.6,47.9c4.2,6.1,7.8,10.8,10.2,14.1C435,744.3,436.5,745.7,436.3,746.2z"></path>
					</g>
				</g>
				<g>
					<g>
						<path class="st9" d="M449.6,756.3c0.1,0.2-0.2,0.6-1,1c-0.9,0.4-2.3,0.3-3.8-0.3c-3-1.2-5.9-4.1-8.8-7.4        c-1.4-1.7-2.9-3.5-4.3-5.3c-1.3-1.8-2.9-3.8-4.1-6.1c-1.2-2.3-2.1-4.9-2.1-7.8c0-2.9,1.2-5.8,3.4-7.7c0.7-0.7,1.7-1.1,2.2-1.2        c0.6-0.3,1.2-0.4,1.9-0.6c1.4-0.3,3-0.3,4.5,0.1c3.2,0.8,5.5,3,7.1,5.1c0.9,1.1,1.6,2.2,2.3,3.2l1,1.6c0.3,0.6,0.7,1.3,1,1.9        c1.2,2.4,1.9,4.8,2.6,7.2c1.2,4.6,1.7,9,1.2,12.3c-0.3,1.6-0.8,3-1.7,3.7C450.3,756.5,449.7,756.5,449.6,756.3        c-0.1-0.2,0.2-0.6,0.4-1.2c0.3-0.6,0.3-1.7,0.2-3c-0.3-2.7-1.3-6.6-3-10.7c-0.8-2-1.8-4.2-2.9-6.1c-0.3-0.5-0.6-0.8-0.9-1.3        l-1.1-1.4c-0.7-0.9-1.4-1.8-2.1-2.6c-1.4-1.6-2.9-2.6-4.1-2.8c-0.6-0.2-1.2-0.1-1.8,0c-0.6,0.1-1.6,0.6-1.2,0.4        c-0.7,0.6-1.2,1.6-1.3,3.1c-0.1,1.5,0.4,3.3,1.2,5.1c0.8,1.8,2,3.7,3.2,5.7c1.2,1.9,2.4,3.8,3.5,5.6c2.3,3.5,4.5,6.5,6.4,7.9        C447.8,756.4,449.4,755.9,449.6,756.3z"></path>
					</g>
				</g>
				<g>
					<g>
						<path class="st9" d="M526.5,769.8c0.1,0.2-0.3,0.7-1.3,1c-1,0.4-2.6,0.5-4.4,0.1c-3.7-0.7-8.2-3.3-12.5-6.8        c-2.1-1.8-4.3-3.7-6.3-5.9c-2.1-2.2-4-4.8-5.5-7.6c-3.2-5.6-3.7-13.5,1-18.7l-0.4,0.5c0.2-0.2,0.3-0.4,0.4-0.5        c1.1-1.3,2.5-2.3,4.2-3.1c1.7-0.7,3.8-0.9,5.6-0.6c3.8,0.7,6.7,2.8,9.1,5.1c1.3,1.1,2.3,2.4,3.4,3.7c1,1.3,2,2.6,2.9,3.9        c1.7,2.7,3.4,5.4,4.6,8.2c2.6,5.5,3.6,11.3,2.8,15.3c-0.4,2-1.2,3.6-2,4.5C527.4,769.9,526.5,770.1,526.5,769.8        c-0.1-0.3,1.2-2,1.2-5.5c0-3.5-1.5-8.3-4.4-13c-1.4-2.4-3.1-4.8-4.9-7.2c-0.9-1.2-1.9-2.3-2.8-3.4c-1-1-2-2.1-3.1-3        c-2.1-1.8-4.3-3.1-6.1-3.3c-1.8-0.3-3.2,0.5-4,1.5c0,0-0.1,0.1,0,0l-0.4,0.5c0,0-0.4,0.5-0.6,0.8c-0.2,0.4-0.4,0.8-0.6,1.2        c-0.3,0.9-0.6,1.8-0.6,2.9c-0.1,2.1,0.4,4.4,1.5,6.7c2.1,4.6,6.1,9,9.6,12.8c3.6,3.7,7.2,6.6,10.2,7.8        C524.3,770,526.3,769.5,526.5,769.8z"></path>
					</g>
				</g>
				<g>
					<g>
						<path class="st9" d="M561.4,764.7c0.1,0.2-0.3,0.6-1.2,1.2c-0.9,0.6-2.6,1.1-4.6,0.9c-4.2-0.5-8.6-3.7-12.8-7.6        c-4.1-4-8.5-8.7-11.5-14.5c-1.5-2.9-2.5-6.1-2.8-9.4c-0.1-1.6-0.1-3.3,0.3-4.9c0.2-0.8,0.4-1.6,0.8-2.5c0.2-0.5,0.5-1.1,1-1.5        c0.4-0.4,0.6-0.7,0.9-1c2.4-2.2,5.9-3.5,9.7-3.2c3.8,0.3,7.2,2.3,9.8,4.7c2.6,2.4,4.7,5.2,6.4,8.1c1.7,2.9,3.1,5.7,4.3,8.6        c2.4,5.7,3.8,11.3,3.4,15.6c-0.2,2.1-0.9,3.8-1.8,4.8C562.2,764.9,561.4,764.9,561.4,764.7c-0.1-0.2,0.4-0.6,0.7-1.5        c0.4-0.9,0.6-2.3,0.4-4.1c-0.4-3.6-2.1-8.5-4.9-13.6c-2.8-5.1-6.2-10.8-10.5-14.3c-2.1-1.7-4.4-2.9-6.4-2.9        c-2-0.1-3.9,0.7-5.1,1.7c-0.1,0.1-0.3,0.3-0.3,0.3c0,0,0,0,0,0c-0.1,0.3-0.3,0.8-0.4,1.2c-0.2,0.9-0.3,2-0.2,3.2        c0.1,2.3,0.8,4.8,1.9,7.3c2.1,5,6,9.8,9.4,13.9c3.5,4.1,7.1,7.4,10.1,8.3C559,765.4,561.2,764.2,561.4,764.7z"></path>
					</g>
				</g>
				<g>
					<g>
						<path class="st9" d="M571.7,720.5c0.1,0.2-0.3,0.6-1.2,1.1c-1,0.5-2.6,0.7-4.5,0.2c-3.8-1-7.8-4.3-11.5-8.2        c-1.9-2-3.8-4.1-5.6-6.3c-1.8-2.1-3.8-4.7-5.1-7.6c-1.4-2.9-2.2-6.2-2-9.5c0.2-1.6,0.5-3.2,1.1-4.7c0.3-0.7,0.7-1.4,1.1-2.1        c0.2-0.3,0.4-0.7,0.7-1c0.3-0.4,0.7-0.9,1.1-1.1c1.2-0.9,2.4-1.7,4-2.3c1.5-0.7,3.5-0.9,5.4-0.7c4,0.5,6.9,3.1,9.1,5.6        c2.1,2.6,3.7,5.5,5,8.4c1.3,2.9,2.4,5.6,3.4,8.4c2,5.4,3.5,10.6,3,14.8c-0.2,2.1-1.1,3.8-2.1,4.4        C572.4,720.7,571.8,720.6,571.7,720.5c-0.3-0.5,1.9-1.7,1.4-5.1c-0.3-3.3-2.3-8-4.7-13c-2.5-5-5.1-10.8-8.6-14.7        c-1.8-1.9-3.7-3.2-5.3-3.3c-1.6-0.2-3.3,0.7-4.7,1.8c-0.1,0.1,0,0-0.1,0.1c-0.1,0.1-0.2,0.3-0.3,0.5c-0.2,0.4-0.4,0.7-0.6,1.2        c-0.4,0.8-0.6,1.8-0.7,2.8c-0.2,2,0.2,4.3,1.1,6.6c1,2.3,2.3,4.5,4,6.8c1.6,2.3,3.2,4.5,4.8,6.6c3.1,4.1,6.3,7.4,9,8.8        C569.5,721,571.5,720,571.7,720.5z"></path>
					</g>
				</g>
				<g>
					<g>
						<path class="st9" d="M557.8,714c0.1,0.2,0,0.5-0.5,0.8c-0.6,0.3-1.5,0.3-2.4,0.1c-2-0.5-4.2-1.8-6.6-3.7        c-4.8-3.8-10.5-10-16.3-17.2c-1.4-1.8-2.9-3.7-4.3-5.7c-0.7-1.1-1.4-1.8-2.1-2.8c-0.7-0.9-1.5-1.9-2.2-2.8        c-3-3.8-6.1-7.6-9.2-11.4c-6.1-7.6-12-15-16.9-21.2c-2.4-3.1-5.1-6.6-7.9-10.4c-1.4-1.9-2.9-3.8-4.4-5.8c-1.5-2-3-3.9-4.6-6.3        c-6-8.7-11.6-17.8-16.8-26.3c-10.2-16.9-17.6-30.8-16.2-31.7c1.4-1,11.5,11.2,23.5,26.7c6,7.8,12.5,16.3,18.7,24.4        c3.3,3.9,6.4,7.8,9.4,11.4c3,3.7,5.7,7.2,8.2,10.3c4.8,6.2,10.5,13.9,16.2,21.9c2.8,4,5.7,8.1,8.4,12.3c0.7,1.1,1.3,2.1,2,3.2        c0.6,1.1,1.4,2.3,1.9,3.2c1.1,2,2.3,4,3.5,5.9c4.7,7.7,9.1,14.4,12.5,18.9c1.7,2.2,3.1,4,4.2,4.9        C556.9,713.7,557.5,713.7,557.8,714z"></path>
					</g>
				</g>
				<g>
					<g>
						<path class="st9" d="M546.8,760.1c0,0.2-0.3,0.4-0.9,0.4c-0.6,0-1.4-0.2-2.3-0.6c-1.8-0.8-4.1-2.4-6.6-4.5        c-5.1-4.3-11.5-10.8-18.2-18.4c-6.7-7.6-13.8-16.3-20.4-25c-1.6-2.1-3.4-4.8-4.6-6.2c-1.5-1.8-3.2-3.6-4.9-5.3        c-3.5-3.5-6.8-6.9-9.9-9.9c-6.1-6.2-13.8-13.9-21.2-22.9c-1.9-2.2-3.7-4.6-5.5-7c-1.8-2.4-3.5-5.2-5-7.5        c-2.9-4.8-6-9.5-8.9-14c-11.9-17.9-21.9-32.1-20.5-33.2c1.3-1.1,13.7,11.1,27.7,27.9c3.5,4.2,7,8.7,10.5,13.5        c3.2,4.6,6.7,8.6,10.5,12.7c7.5,8.1,15.3,15.5,21.4,21.7c3.1,3.1,6.4,6.5,9.9,10.3c1.8,1.9,3.5,4,5.3,6.3        c2,2.8,3.1,4.7,4.6,6.9c5.9,8.9,12.2,18,17.9,26.2c5.7,8.2,10.9,15.4,14.7,20.5c1.9,2.5,3.5,4.5,4.6,5.8        C546.2,759.2,546.8,759.6,546.8,760.1z"></path>
					</g>
				</g>
				<g>
					<g>
						<path class="st9" d="M510.2,762.9c0.2,0.4-0.9,1.2-2.9,1c-1.9-0.1-4.4-1-7.2-2.5c-5.5-2.9-12.3-8-19.4-14.2        c-3.5-3.1-7.1-6.5-10.7-10.1c-1.8-1.8-3.5-3.6-5.3-5.6l-2.6-2.9l-1.3-1.5l-1.1-1.3c-6.3-6.9-13.3-13.6-18.8-19.3        c-5.6-5.7-12.5-12.9-19.3-21.2c-1.7-2.1-3.4-4.2-5-6.6c-1.6-2.2-3.3-5.1-4.4-7.1c-2.5-4.4-5.3-8.8-7.9-13        c-10.5-16.7-19-30.4-17.3-31.6c1.2-0.8,12,10.8,24.5,26.4c3.1,3.9,6.3,8.1,9.5,12.6c1.7,2.5,2.8,4.1,4.4,6        c1.6,1.9,3.3,3.8,5,5.6c6.9,7.4,14,14.3,19.6,20c5.6,5.8,12.2,12.5,18.8,20.8c1.5,2,3,3.9,4.5,5.9c1.5,1.9,3,3.8,4.6,5.7        c3.1,3.8,6.2,7.4,9.2,10.8c6,6.8,11.6,12.7,15.9,16.5c2.1,1.9,3.9,3.3,5.1,4.1C509.3,762.3,510,762.5,510.2,762.9z"></path>
					</g>
				</g>
				<g>
					<g>
						<path class="st9" d="M519.4,731.2c1.4-1.1,4-0.1,6.1,2c2.1,2,3.7,4.7,4.4,6.8c1.3,4.2,0.5,12.9-3,13.6        c-3.4,0.7-7.9-6.3-9.1-9.9c-0.6-1.8-0.7-4.6-0.5-6.9C517.5,734.3,518,732.3,519.4,731.2z"></path>
					</g>
				</g>
				<g>
					<g>
						<path class="st9" d="M551.5,711c1.4-0.9,4.5,0.6,7.3,3.6c2.9,2.9,5.5,7.4,6.5,11c1,3.5,1.3,9.2-0.1,13.7        c-1.3,4.5-4,7.6-5.6,6.9c-1.6-0.7-2.2-3.7-3.3-7.2c-1-3.5-2.4-7.3-3.2-10c-0.7-2.7-1.5-6.6-2.2-10.2        C550.4,715.2,550,712,551.5,711z"></path>
					</g>
				</g>
				<g>
					<g>
						<path class="st9" d="M433.3,689.5c1.4-1.1,5.7,1.8,10.3,6.5c4.6,4.6,9.4,11.1,11.9,16.3c1.3,2.7,2.6,6,3.5,10.1        c0.8,4.1,0.9,8.5,0.1,12.3c-1.5,7.8-6.1,12.4-7.6,11.4c-1.5-0.9-0.4-6-1.3-11.9c-0.4-2.9-1.2-6-2.3-8.7        c-1.1-2.7-2.6-5.5-3.7-7.7c-2.2-4.5-5.4-11.1-7.9-16.8C433.7,695.3,431.9,690.5,433.3,689.5z"></path>
					</g>
				</g>
				<g>
					<g>
						<path class="st9" d="M579.2,422.4c0.4,0,1.1,2,1,5.8c-0.1,3.7-1.2,9.6-5.8,15.2c-1.1,1.4-2.4,2.7-3.9,4        c-1.6,1.2-3.3,2.5-5.2,3.4c-3.7,2-7.9,3.4-12.4,4.4c-8.9,2-18.8,2.6-29.2,2.5c-10.4-0.2-21.3-1.2-32.2-2.9        c-2.7-0.4-5.3-0.8-8-1.2c-1.3-0.2-2.6-0.3-3.8-0.4l-1.7-0.1c-0.5,0-0.8,0-1.2,0c-0.5,0.1-0.6,0.3-0.6,0.7l-0.1,1l0,1.7        c0.1,1.2,0.2,2.4,0.3,3.7c0.3,2.5,0.7,5.2,1.1,7.8l0.7,3.7c0.3,1.3,0.6,2.5,0.8,3.8c1.2,5,2.5,9.9,4,14.7        c2.9,9.6,6,18.6,8.9,26.8c3,8.1,6.4,17.3,10.6,26.7c1.1,2.3,2.1,4.7,3.3,7c1.1,2.3,2.3,4.4,3.8,6.9c2.8,4.8,5.7,9.7,8.6,14.7        c11.5,19.9,23.5,40.8,34.3,59.8c5.3,9.5,10.4,18.6,15,26.9c1.2,2,2.2,4.2,3.2,6.3c0.9,2.1,1.8,4.3,2.4,6.4        c1.4,4.2,2.1,8.2,2.6,11.9c0.8,7.4,0.2,13.3-0.7,17.3c-0.9,4-2,6-2.4,5.9c-0.4-0.1-0.2-2.3-0.1-6.2c0.1-3.9-0.1-9.5-1.6-16.2        c-1.5-6.7-4.4-14.2-9.6-21.8c-5.1-7.9-10.7-16.7-16.6-25.9c-11.7-18.5-24.5-38.8-36.6-58.4c-3-4.9-6-9.7-8.9-14.4        c-1.4-2.2-3-5-4.3-7.5c-1.3-2.5-2.5-5-3.7-7.5c-4.5-9.8-8.1-19.1-11.2-27.5c-3-8.4-6.1-17.6-8.9-27.6        c-1.4-5-2.7-10.2-3.9-15.6c-0.3-1.4-0.5-2.7-0.8-4.1c-0.2-1.4-0.4-2.8-0.6-4.2c-0.4-2.8-0.7-5.5-0.9-8.4        c-0.1-1.5-0.2-2.9-0.2-4.5l0-2.4c0.1-1,0.2-2.1,0.4-3.1c0.6-2.4,1.6-4.9,3.6-6.5c0.9-0.9,2.1-1.4,3.3-1.9        c1.2-0.4,2.6-0.7,3.7-0.7c1,0,2-0.1,2.9,0l2.4,0.2c1.5,0.2,3,0.4,4.4,0.7c2.7,0.5,5.4,1,8.2,1.5c10.5,2.1,20.9,3.6,30.9,4.3        c9.9,0.7,19.3,0.8,27.5-0.5c4.1-0.6,7.9-1.5,11.1-2.8c1.7-0.6,3-1.5,4.4-2.3c1.3-0.9,2.6-1.9,3.6-3c4.3-4.2,6-9,6.9-12.3        C578.5,424.4,578.7,422.4,579.2,422.4z"></path>
					</g>
				</g>
				<g>
					<g>
						<path class="st9" d="M557,412c0.1,0.4-1.4,1-4.2,1.5c-2.8,0.4-6.9,0.6-11.9,0.3c-10-0.6-23.6-2.9-38.6-6        c-3.7-0.7-7.5-1.5-11.4-2.3c-1.9-0.4-3.9-0.7-5.9-1.1c-2.1-0.4-4.2-0.9-6.2-1.3c-8.1-2-16.1-4.3-23.9-6.3        c-15.7-4.2-30.9-7.4-43.4-8.9c-3.1-0.3-6.5-0.7-9.9-0.8c-1.8-0.1-3.7-0.2-5.6-0.3c-1.9-0.1-4-0.2-6-0.3        c-4.1-0.3-8.5-0.8-13.1-2c-4.6-1.1-9.2-3.2-13.2-5.7c-8.1-5.1-14.6-11.6-20.8-17.8c-6.2-6.3-12.1-12.5-17.7-18.5        c-5.6-6-11-11.6-15.7-17.1c-4.7-5.5-8.5-10.7-11.5-15.3c-5.9-9.1-8.3-15.4-7.6-15.8c0.8-0.5,4.6,4.9,11.5,12.8        c3.5,4,7.7,8.6,12.7,13.4c4.9,4.8,10.8,10,16.8,15.6c6,5.6,12.3,11.4,18.7,17.3c6.4,5.8,12.9,11.5,19.5,15.3        c6.5,3.9,13.6,5,21.2,5.4c1.9,0.1,3.7,0.2,5.6,0.2c1.9,0.1,3.8,0.1,5.6,0.2c3.9,0.1,7.5,0.5,10.9,0.8        c13.6,1.6,29.4,5.4,45.2,10.2c7.8,2.5,15.7,5,23.5,7.4c1.9,0.6,3.8,1.1,5.6,1.6c2,0.5,3.9,1,5.9,1.5c3.9,1,7.7,2.1,11.4,3.1        c14.7,4.2,27.7,7.8,37.1,9.8c4.7,1,8.5,1.6,11.2,2C555.4,411.3,556.9,411.5,557,412z"></path>
					</g>
				</g>
				<g>
					<g>
						<path class="st9" d="M582,412.6c0.1-0.2,0.6-0.3,1.6-0.2c0.5,0.1,1,0.1,1.8,0.4c0.8,0.3,1.8,0.8,2.5,1.7        c0.7,0.9,0.9,2.3,0.1,3.5c-0.3,0.7-0.7,1.3-1.3,1.9c-0.4,0.5-0.9,0.9-1.5,1.3c-2.1,1.5-4.6,2.5-7.3,3.3        c-5.3,1.6-11.2,2.3-16.7,3.1c-1.4,0.2-2.8,0.5-4.1,0.7c-1.5,0.2-3.1,0.3-4.5,0.3c-2.9-0.1-5.7-0.6-8.1-1.4        c-1.1-0.3-2.2-0.8-3.3-1.3c-0.6-0.3-1.2-0.6-1.8-1c-0.3-0.2-0.6-0.4-1-0.8c-0.4-0.3-0.8-0.8-1.1-1.3c-0.3-0.5-0.5-0.8-0.7-1.3        c-0.2-0.5-0.4-0.9-0.5-1.5c-0.3-1.2-0.1-2.5,0.4-3.6c0.5-1.1,1.4-2.1,2.2-2.7c0.8-0.6,1.6-1,2.5-1.3c2.7-0.9,5.4-1.5,8.2-1.9        c5.5-0.9,11-1.2,15.9-1.1c4.9,0.1,9.1,0.7,12.1,1.4C580.5,411.4,582.1,412.3,582,412.6c-0.1,0.4-1.9,0.3-4.8,0.3        c-2.9,0-7,0.1-11.7,0.5c-4.7,0.4-9.9,1.2-14.9,2.3c-2.5,0.6-5,1.3-7.2,2.2c-0.3,0.1-0.7,0.3-0.8,0.5c-0.2,0.2-0.2,0.2-0.2,0.3        c0,0,0,0,0,0.1c0,0,0.1,0.1,0.1,0.2c0.1,0.1,0.2,0.3,0.2,0.3c0,0,0,0,0,0c0,0,0.2,0.2,0.4,0.3c0.3,0.2,0.7,0.4,1.1,0.6        c0.8,0.4,1.6,0.7,2.5,1c1.9,0.6,4.1,1.1,6.4,1.2c1.2,0.1,2.3,0.1,3.5-0.1c1.4-0.2,2.7-0.3,4.1-0.5c5.7-0.5,11.4-0.8,16.3-1.7        c2.4-0.4,4.7-1,6.4-1.9c0.4-0.2,0.9-0.4,1.1-0.7c0.2-0.1,0.4-0.3,0.6-0.5c0.4-0.4,0.6-1,0.4-1.5c-0.2-0.4-0.6-0.8-1-1.1        c-0.4-0.3-1-0.6-1.3-0.8C582.4,413.1,582,412.8,582,412.6z"></path>
					</g>
				</g>
			</g>
			<g>
				<g>
					<path class="st9" d="M304,714.9c-3.3-1.1,4.2-33.2,9.8-50.4c5.6-17.2,19.5-50.6,22.8-49.5c3.3,1.1-5.2,36.2-10.8,53.4       C320.2,685.6,307.3,716,304,714.9z"></path>
				</g>
			</g>
			<g>
				<g>
					<path class="st9" d="M399.3,211c0.9-0.1,2,3.1,3.3,8.5c0.6,2.7,1.4,5.9,2,9.5c0.6,3.6,1.2,7.6,1.8,11.8       c2.4,16.9,3.8,37.7,3.8,52.4c0.2,14.7-1.1,36.8-3.4,55c-2.2,18.2-5.5,32.6-7.3,32.4c-1.7-0.2-1.5-14.8-1.6-33       c0-18.2-0.2-39.9-0.3-54.4c0-14.5-0.1-34.9-0.1-51.9c0-4.2,0-8.2,0-11.9c0-3.6,0-6.9,0.1-9.6       C397.9,214.5,398.4,211.1,399.3,211z"></path>
				</g>
			</g>
		</g>
		<g>
			<g>
				<g>
					<g>
						<path class="st9" d="M929.4,746.2c-0.2-0.4,1.3-1.9,3.8-5.2c2.4-3.4,6-8.2,10.3-14.3c8.7-12.3,20.6-29.4,34-48.5        c6.7-9.6,13.9-19.6,21.3-29.8c3.7-5.1,7.5-10.2,11.3-15.3c1.9-2.5,3.5-5,5.3-7.5c1.7-2.5,3.2-5.2,4.8-7.8        c12.2-21.2,21-43.7,28.6-62.3c3.8-9.3,7.9-19.9,12.6-31.2c4.7-11.3,9.9-23.3,16.2-35.3c1.6-3,3.4-6,5.1-9l2.9-4.4        c1-1.4,2-2.8,3-4.2c4.1-5.6,8.4-10.8,12.8-16c8.8-10.3,17.7-20.1,26.2-29.4c17.1-18.5,32.6-35,43.8-46.9        c11.2-11.9,18.2-19.2,18.9-18.6c0.7,0.5-5.1,8.9-15.2,21.8c-10.1,12.9-24.6,30.4-40.8,49.6c-8.1,9.6-16.6,19.7-24.8,30.1        c-4.1,5.2-8.2,10.5-11.9,15.8l-2.7,4l-2.5,4c-1.5,2.8-3.1,5.6-4.6,8.5c-5.8,11.5-10.6,23.4-15.1,34.6        c-4.5,11.3-8.6,21.8-12.3,31.2c-7.7,18.7-16.9,41.6-30.4,63.7c-1.8,2.7-3.4,5.5-5.4,8.2c-2,2.6-3.9,5.4-5.9,7.9        c-3.9,4.9-7.8,9.9-11.7,14.8c-7.7,9.9-15.3,19.6-22.5,28.8c-14.4,18.5-27.4,34.8-37.3,46.2c-4.9,5.7-9.2,10.1-12.3,13        C931.9,745.5,929.5,746.6,929.4,746.2z"></path>
					</g>
				</g>
				<g>
					<g>
						<path class="st9" d="M916.1,756.3c0.2-0.4,1.8,0.1,3.6-1.5c1.9-1.4,4.1-4.4,6.4-7.9c1.1-1.8,2.3-3.6,3.5-5.6        c1.2-2,2.4-3.8,3.2-5.7c0.8-1.8,1.2-3.7,1.2-5.1c-0.1-1.4-0.6-2.5-1.3-3.1c0.3,0.2-0.7-0.3-1.2-0.4c-0.6-0.1-1.2-0.2-1.8,0        c-1.2,0.2-2.7,1.2-4.1,2.8c-0.7,0.8-1.4,1.7-2.1,2.6l-1.1,1.4c-0.3,0.5-0.6,0.8-0.9,1.3c-1.1,1.9-2.1,4-2.9,6.1        c-1.7,4.1-2.7,8-3,10.7c-0.1,1.3-0.1,2.4,0.2,3C915.9,755.7,916.2,756.1,916.1,756.3c0,0.2-0.7,0.2-1.5-0.5        c-0.8-0.7-1.3-2.1-1.7-3.7c-0.5-3.3,0-7.6,1.2-12.3c0.6-2.3,1.4-4.7,2.6-7.2c0.3-0.6,0.7-1.3,1-1.9l1-1.6        c0.7-1.1,1.4-2.2,2.3-3.2c1.7-2.1,3.9-4.3,7.1-5.1c1.6-0.4,3.2-0.4,4.5-0.1c0.7,0.2,1.4,0.3,1.9,0.6c0.5,0.2,1.5,0.6,2.2,1.2        c2.2,1.9,3.3,4.8,3.4,7.7c0,2.9-0.9,5.5-2.1,7.8c-1.2,2.3-2.7,4.3-4.1,6.1c-1.4,1.9-2.8,3.7-4.3,5.3c-2.9,3.3-5.8,6.2-8.8,7.4        c-1.5,0.6-2.9,0.7-3.8,0.3C916.3,756.9,916,756.5,916.1,756.3z"></path>
					</g>
				</g>
				<g>
					<g>
						<path class="st9" d="M841.7,770.3c0-0.4,1.9-0.7,4.4-2.3c2.6-1.5,5.9-4.3,9.2-7.9c3.3-3.6,7-7.8,8.9-12.3        c1-2.2,1.5-4.5,1.4-6.6c0-1-0.3-2-0.6-2.8c-0.2-0.4-0.4-0.8-0.6-1.2c-0.2-0.3-0.6-0.8-0.6-0.8l0,0l-0.4-0.5        c-0.1-0.2-0.7-0.7-1.2-1c-1-0.6-2.2-0.9-3.8-0.4c-1.6,0.4-3.4,1.5-5.1,3c-3.5,3-6.7,7.2-9.5,11.3c-2.7,4.1-4.7,8.4-5.4,12.2        c-0.4,1.9-0.4,3.6-0.1,5c0.1,0.7,0.3,1.4,0.5,1.9c0.2,0.5,0.4,0.9,0.8,1.1C840.7,769.9,841.7,770,841.7,770.3        c0,0.2-0.8,0.7-2.7,0.3c-2.7-1.3-4-5.3-3.8-9.8c0.2-4.5,2-9.6,4.5-14.4c2.6-4.7,5.7-9.4,9.8-13.3c2-1.9,4.4-3.7,7.3-4.6        c2.9-1,6.4-0.5,8.8,1c1.1,0.8,2,1.4,3.1,2.8l-0.4-0.5c4.7,5.2,4.1,13,1.1,18.4c-1.4,2.7-3.2,5.2-5.2,7.3        c-1.9,2.2-3.9,3.9-5.9,5.7c-3.9,3.4-7.9,5.9-11.2,6.9C843.8,771.3,841.6,770.7,841.7,770.3z"></path>
					</g>
				</g>
				<g>
					<g>
						<path class="st9" d="M806.3,765.5c0.1-0.5,2.3,0,5.1-1.6c2.9-1.6,6.3-5,9.7-9.2c3.5-4.2,7-9.1,8.8-14.2        c0.9-2.5,1.4-5.1,1.2-7.3c-0.1-1.1-0.4-2.2-0.6-2.7c0,0,0,0,0,0c-0.1-0.1-0.3-0.3-0.4-0.4c-0.3-0.3-0.7-0.5-1-0.7        c-1.3-0.7-2.8-1.1-4.5-0.8c-1.7,0.2-3.6,1.1-5.4,2.6c-3.7,2.8-6.6,7.5-9.3,12c-2.6,4.5-4.7,9-5.7,13c-1.1,3.9-0.6,7.2,0.7,8.1        C805.7,764.8,806.3,765.3,806.3,765.5c-0.1,0.2-0.8,0.2-2.2-0.1c-1.3-0.4-2.5-1.9-3-3.7c-0.5-1.8-0.6-4-0.4-6.2        c0.5-4.6,2.3-9.7,4.7-14.7c2.4-4.9,5.2-10.3,9.9-14.3c2.3-2,5.1-3.6,8.2-4.1c3.1-0.6,6.3,0.2,8.6,1.5c0.7,0.4,1.4,0.8,2,1.4        c0.3,0.3,0.6,0.6,1,0.9c0.4,0.4,0.8,0.9,1.1,1.5c0.8,1.9,1.1,3.4,1.2,5.2c0.2,3.4-0.7,6.7-2,9.8c-2.6,6.1-6.9,11.1-10.9,15.1        c-4,4-8.2,7.3-12,8.5c-1.9,0.6-3.6,0.6-4.6,0.3C806.7,766.1,806.2,765.7,806.3,765.5z"></path>
					</g>
				</g>
				<g>
					<g>
						<path class="st9" d="M794,720.5c0.2-0.5,2.2,0.5,4.9-1c2.7-1.4,5.8-4.7,9-8.8c1.6-2,3.2-4.3,4.8-6.6c1.7-2.4,3-4.5,4-6.8        c0.9-2.3,1.3-4.6,1.1-6.6c-0.1-1-0.4-1.9-0.7-2.8c-0.2-0.4-0.4-0.8-0.6-1.2c-0.1-0.2-0.2-0.3-0.3-0.5c-0.1-0.1,0,0-0.1-0.1        c-1.4-1.1-3.1-1.9-4.7-1.8c-1.6,0.1-3.6,1.4-5.3,3.3c-3.5,3.9-6.1,9.7-8.6,14.7c-2.4,5-4.4,9.7-4.7,13        C792.2,718.8,794.3,720,794,720.5c-0.1,0.2-0.8,0.2-1.7-0.6c-1-0.7-2-2.4-2.1-4.4c-0.4-4.2,1.1-9.4,3-14.8        c1-2.7,2.1-5.5,3.4-8.4c1.3-2.9,2.9-5.8,5-8.4c2.1-2.5,5.1-5.1,9.1-5.6c1.9-0.2,3.8,0,5.4,0.7c1.6,0.6,2.8,1.4,4,2.3        c0.4,0.2,0.9,0.8,1.1,1.1c0.2,0.3,0.5,0.6,0.7,1c0.4,0.7,0.8,1.4,1.1,2.1c0.6,1.5,1,3,1.1,4.7c0.2,3.3-0.6,6.6-2,9.5        c-1.4,2.9-3.4,5.5-5.1,7.6c-1.8,2.2-3.7,4.4-5.6,6.3c-3.8,3.9-7.7,7.2-11.5,8.2c-1.9,0.5-3.5,0.3-4.5-0.2        C794.3,721.1,793.9,720.7,794,720.5z"></path>
					</g>
				</g>
				<g>
					<g>
						<path class="st9" d="M807.9,714c0.3-0.4,0.9-0.4,1.9-1.4c1-0.9,2.5-2.6,4.2-4.9c3.4-4.5,7.8-11.2,12.5-18.9        c1.2-1.9,2.3-3.9,3.5-5.9c0.5-1,1.3-2.2,1.9-3.2c0.7-1,1.3-2.1,2-3.2c2.7-4.2,5.6-8.3,8.4-12.3c5.7-8,11.3-15.7,16.2-21.9        c2.4-3.1,5.2-6.6,8.2-10.3c3-3.6,6.1-7.5,9.4-11.4c6.2-8.1,12.8-16.6,18.7-24.4c12-15.5,22.1-27.7,23.5-26.7        c1.4,1-6,14.9-16.2,31.7c-5.1,8.4-10.8,17.6-16.8,26.3c-1.6,2.3-3.2,4.3-4.6,6.3c-1.5,2-3,3.9-4.4,5.8        c-2.9,3.8-5.5,7.3-7.9,10.4c-4.8,6.2-10.7,13.6-16.9,21.2c-3,3.8-6.1,7.6-9.2,11.4c-0.7,0.9-1.5,1.9-2.2,2.8        c-0.7,0.9-1.3,1.7-2.1,2.8c-1.4,2-2.9,3.9-4.3,5.7c-5.8,7.3-11.5,13.4-16.3,17.2c-2.4,1.9-4.6,3.3-6.6,3.7        c-1,0.2-1.9,0.2-2.4-0.1C807.9,714.6,807.8,714.2,807.9,714z"></path>
					</g>
				</g>
				<g>
					<g>
						<path class="st9" d="M818.9,760.1c0-0.5,0.6-0.9,1.7-2.2c1.1-1.3,2.7-3.3,4.6-5.8c3.8-5.1,9-12.3,14.7-20.5        c5.7-8.2,12-17.3,17.9-26.2c1.5-2.3,2.6-4.2,4.6-6.9c1.8-2.3,3.6-4.4,5.3-6.3c3.5-3.8,6.9-7.3,9.9-10.3        c6.1-6.2,13.9-13.6,21.4-21.7c3.8-4.1,7.3-8.2,10.5-12.7c3.4-4.8,7-9.3,10.5-13.5c14-16.8,26.3-29,27.7-27.9        c1.4,1.1-8.6,15.3-20.5,33.2c-3,4.5-6,9.2-8.9,14c-1.5,2.4-3.2,5.2-5,7.5c-1.8,2.5-3.6,4.8-5.5,7c-7.4,9-15.1,16.8-21.2,22.9        c-3,3-6.4,6.4-9.9,9.9c-1.7,1.7-3.4,3.5-4.9,5.3c-1.2,1.4-3,4.1-4.6,6.2c-6.6,8.7-13.7,17.4-20.4,25        c-6.7,7.6-13.1,14.1-18.2,18.4c-2.6,2.1-4.8,3.7-6.6,4.5c-0.9,0.4-1.7,0.6-2.3,0.6C819.2,760.5,818.9,760.3,818.9,760.1z"></path>
					</g>
				</g>
				<g>
					<g>
						<path class="st9" d="M855.5,762.9c0.2-0.4,0.9-0.6,2.2-1.4c1.2-0.8,3-2.2,5.1-4.1c4.2-3.8,9.8-9.7,15.9-16.5        c3-3.4,6.1-7,9.2-10.8c1.5-1.9,3.1-3.8,4.6-5.7c1.5-2,3-3.9,4.5-5.9c6.5-8.2,13.2-15,18.8-20.8c5.5-5.7,12.7-12.6,19.6-20        c1.7-1.9,3.4-3.7,5-5.6c1.7-2,2.7-3.5,4.4-6c3.1-4.5,6.4-8.6,9.5-12.6c12.5-15.6,23.4-27.2,24.6-26.4        c1.7,1.1-6.7,14.8-17.3,31.6c-2.6,4.2-5.4,8.6-7.9,13c-1.1,2-2.8,5-4.4,7.1c-1.6,2.3-3.3,4.5-5,6.6        c-6.8,8.3-13.8,15.5-19.3,21.2c-5.5,5.7-12.5,12.4-18.8,19.3l-1.1,1.3l-1.3,1.5l-2.6,2.9c-1.7,1.9-3.5,3.8-5.3,5.6        c-3.6,3.6-7.2,7-10.7,10.1c-7.1,6.2-13.8,11.3-19.4,14.2c-2.8,1.4-5.3,2.3-7.2,2.5C856.4,764.2,855.3,763.3,855.5,762.9z"></path>
					</g>
				</g>
				<g>
					<g>
						<path class="st9" d="M846.3,731.2c1.4,1.1,1.9,3.1,2.2,5.5c0.2,2.4,0.1,5.1-0.5,6.9c-1.2,3.6-5.7,10.6-9.1,9.9        c-3.5-0.7-4.3-9.5-3-13.6c0.6-2.1,2.3-4.8,4.4-6.8C842.3,731.2,844.9,730.1,846.3,731.2z"></path>
					</g>
				</g>
				<g>
					<g>
						<path class="st9" d="M814.2,711c1.5,1,1.1,4.2,0.6,7.8c-0.7,3.6-1.5,7.5-2.2,10.2c-0.8,2.7-2.2,6.5-3.2,10        c-1.1,3.5-1.7,6.6-3.3,7.2c-1.6,0.7-4.4-2.4-5.6-6.9c-1.4-4.5-1.1-10.2-0.1-13.7c0.9-3.6,3.5-8,6.5-11        C809.7,711.6,812.8,710.1,814.2,711z"></path>
					</g>
				</g>
				<g>
					<g>
						<path class="st9" d="M932.4,689.5c1.4,1.1-0.4,5.9-3,11.6c-2.6,5.7-5.7,12.3-7.9,16.8c-1.1,2.2-2.6,5.1-3.7,7.7        c-1.1,2.8-1.9,5.8-2.3,8.7c-0.9,5.9,0.1,11-1.3,11.9c-1.4,1-6.1-3.6-7.6-11.4c-0.8-3.8-0.8-8.3,0.1-12.3        c0.9-4.2,2.3-7.5,3.5-10.1c2.5-5.3,7.3-11.7,11.9-16.3C926.7,691.3,931.1,688.4,932.4,689.5z"></path>
					</g>
				</g>
				<g>
					<g>
						<path class="st9" d="M786.5,422.4c0.5,0,0.7,2,1.5,5.4c0.9,3.3,2.6,8.2,6.9,12.3c1,1.1,2.3,2,3.6,3c1.4,0.8,2.7,1.7,4.4,2.3        c3.2,1.4,7,2.3,11.1,2.8c8.2,1.2,17.6,1.2,27.5,0.5c9.9-0.7,20.3-2.2,30.9-4.3c2.7-0.5,5.4-1,8.2-1.5c1.4-0.3,2.9-0.5,4.4-0.7        l2.4-0.2c0.9,0,1.9,0,2.9,0c1.1,0.1,2.5,0.4,3.7,0.7c1.1,0.5,2.4,1,3.3,1.9c2,1.6,3.1,4.1,3.6,6.5c0.2,1,0.3,2.1,0.4,3.1        l0,2.4c0,1.6-0.1,3-0.2,4.5c-0.3,2.9-0.5,5.6-0.9,8.4c-0.2,1.4-0.4,2.8-0.6,4.2c-0.3,1.4-0.5,2.7-0.8,4.1        c-1.1,5.4-2.4,10.6-3.9,15.6c-2.8,10-5.9,19.3-8.9,27.6c-3,8.4-6.7,17.6-11.2,27.5c-1.2,2.5-2.3,4.9-3.7,7.5        c-1.3,2.5-2.9,5.2-4.3,7.5c-2.9,4.7-5.9,9.6-8.9,14.4c-12.1,19.5-24.8,39.9-36.6,58.4c-5.9,9.2-11.5,17.9-16.6,25.9        c-5.2,7.7-8,15.1-9.6,21.8c-1.5,6.7-1.7,12.3-1.6,16.2c0,3.9,0.3,6.1-0.1,6.2c-0.4,0.1-1.5-1.9-2.4-5.9        c-0.9-4-1.5-9.9-0.7-17.3c0.5-3.7,1.2-7.7,2.6-11.9c0.7-2.1,1.5-4.2,2.4-6.4c1-2.1,2.1-4.3,3.2-6.3c4.6-8.2,9.7-17.3,15-26.9        c10.8-19.1,22.7-39.9,34.3-59.8c2.9-5,5.8-9.9,8.6-14.7c1.5-2.5,2.6-4.5,3.8-6.9c1.2-2.3,2.2-4.7,3.3-7        c4.1-9.4,7.6-18.5,10.6-26.7c2.9-8.1,6.1-17.2,8.9-26.8c1.4-4.8,2.8-9.7,4-14.7c0.3-1.2,0.6-2.5,0.8-3.8l0.7-3.7        c0.4-2.5,0.8-5.2,1.1-7.8c0.1-1.3,0.3-2.5,0.3-3.7l0-1.7l-0.1-1c0-0.4-0.1-0.6-0.6-0.7c-0.4,0-0.7,0-1.2,0l-1.7,0.1        c-1.2,0.1-2.5,0.2-3.8,0.4c-2.7,0.4-5.4,0.8-8,1.2c-10.9,1.7-21.9,2.7-32.2,2.9c-10.4,0.1-20.3-0.4-29.2-2.5        c-4.5-1-8.7-2.4-12.4-4.4c-1.9-0.9-3.6-2.2-5.2-3.4c-1.5-1.3-2.8-2.6-3.9-4c-4.6-5.6-5.7-11.5-5.8-15.2        C785.4,424.3,786.1,422.3,786.5,422.4z"></path>
					</g>
				</g>
				<g>
					<g>
						<path class="st9" d="M808.7,412c0.1-0.5,1.6-0.7,4.4-1.1c2.8-0.4,6.7-1.1,11.6-2.1c9.8-2.1,23.3-5.9,38.6-10.2        c3.8-1.1,7.8-2.2,11.9-3.2c2.2-0.5,4-1,5.9-1.5c2-0.6,3.9-1.1,5.9-1.8c8-2.5,16.3-5.3,24.6-7.7c16.5-5,33.1-8.6,47.4-9.7        c7.4-0.5,14.8-0.3,22.3-1.2c3.7-0.5,7.2-1.4,10.6-2.8c3.4-1.4,6.7-3.6,10.1-6.1c6.7-5.1,13.4-11.4,20-17.5        c6.6-6.2,13.2-12.3,19.4-18.1c6.3-5.8,11.9-11.2,16.8-16.6c4.8-5.4,8.9-10.4,12.2-14.8c6.5-8.8,10-14.7,10.8-14.3        c0.7,0.3-1.2,7-6.7,17c-2.7,5-6.3,10.7-10.9,16.7c-4.5,6-10.1,12.3-16,18.5c-5.9,6.2-12.1,12.7-18.4,19.3        c-6.4,6.5-12.8,13.2-20.2,19.2c-3.8,2.9-7.8,5.8-12.4,7.9c-4.5,2.1-9.3,3.3-13.8,4c-8.8,1.3-16.9,1.1-23.2,1.6        c-13.1,1-28.9,4.1-45.2,8.3c-8.2,2.2-16.6,4.4-24.8,6.6c-2.1,0.5-4.2,1-6.3,1.5c-2.1,0.5-4.4,0.9-6.3,1.2        c-4,0.7-8,1.5-11.8,2.3c-15.5,3.2-29.7,5.8-40.1,6.4c-5.2,0.3-9.4,0.2-12.3-0.2C810.2,413,808.7,412.4,808.7,412z"></path>
					</g>
				</g>
				<g>
					<g>
						<path class="st9" d="M778.5,415.8c0.2,0.1,0.3,0.5,0.9,1.1c0.6,0.6,1.5,1.3,2.9,2c2.8,1.2,7.3,1.9,12.4,2.4        c2.6,0.2,5.3,0.4,8.1,0.6c2.8,0.1,5.9,0.7,8.2,0.7c2.5,0,5-0.4,7.2-1.1c1.1-0.3,2.2-0.7,3.1-1.2c0.5-0.2,0.9-0.5,1.2-0.7        l0.4-0.3c0.1-0.1,0,0,0.1-0.1l0,0c0,0,0.1-0.2,0.2-0.3c0-0.1,0.1-0.2,0.1-0.2c0,0,0,0,0,0c0,0,0.1,0-0.2-0.2        c-0.2-0.2-0.6-0.4-0.8-0.5c-2.3-0.9-5-1.6-7.8-2.2c-5.6-1.2-11.6-2-17.1-2.3c-5.5-0.3-10.4-0.2-13.9,0.4c-1.7,0.3-3,0.6-3.8,1        C779,415.3,778.7,415.8,778.5,415.8c-0.2,0-0.4-0.8,0.4-1.8c0.8-1,2.2-1.8,4-2.5c3.6-1.4,8.8-2.2,14.5-2.5        c5.7-0.3,12.1,0,18.2,1c3,0.5,6,1.2,8.8,2.1c1,0.4,1.8,0.8,2.6,1.4c0.8,0.6,1.7,1.7,2.2,2.8c0.5,1.2,0.5,2.4,0.3,3.6        c-0.1,0.6-0.3,1-0.5,1.5c-0.2,0.4-0.4,0.7-0.7,1.2l-0.2,0.3c-0.3,0.4-0.8,0.9-1.1,1.2c-0.4,0.3-0.7,0.5-1,0.7        c-0.6,0.4-1.3,0.7-2,1c-1.3,0.6-2.7,1.1-4.1,1.4c-2.8,0.8-5.9,1.1-9.1,0.9c-3.3-0.3-5.8-0.9-8.6-1.3c-2.8-0.4-5.5-0.9-8.2-1.4        c-5.2-1-10-2.5-13-4.7c-1.5-1.1-2.5-2.4-2.8-3.5C777.8,416.4,778.3,415.7,778.5,415.8z"></path>
					</g>
				</g>
			</g>
			<g>
				<g>
					<path class="st9" d="M1061.7,714.9c-3.3,1.1-16.2-29.3-21.8-46.5c-5.6-17.2-14.1-52.3-10.8-53.4c3.3-1.1,17.2,32.3,22.8,49.5       S1065,713.8,1061.7,714.9z"></path>
				</g>
			</g>
			<g>
				<g>
					<path class="st9" d="M965.6,218.7c0.9,0.1,1.4,3.3,1.7,8.6c0.2,2.6,0.2,5.7,0.3,9.2c0.1,3.5,0.2,7.3,0.2,11.3       c0.1,16.2,0.2,35.7,0.3,49.5c-0.1,13.8-0.2,34.5-0.2,51.9c-0.1,17.3,0,31.2-1.7,31.5c-1.7,0.2-5-13.5-7.2-30.9       c-2.3-17.4-3.6-38.4-3.5-52.5c0-14.1,1.2-33.9,3.4-50c0.6-4,1.1-7.9,1.7-11.3c0.6-3.4,1.3-6.5,1.9-9.1       C963.6,221.7,964.7,218.6,965.6,218.7z"></path>
				</g>
			</g>
		</g>
	</g>
</g>
</svg>
